<svg xmlns="http://www.w3.org/2000/svg" version="1.1" xmlns:xlink="http://www.w3.org/1999/xlink" width="512" height="512" x="0" y="0" viewBox="0 0 497 497" style="enable-background:new 0 0 512 512" xml:space="preserve" class=""><g><path fill="#0f51bc" d="M138.21 76.919v75.65l-31.21-1.03-29.78-.98-33.47-1.11v-72.53z" opacity="1" data-original="#eb5569"></path><path fill="#e53950" d="M118.183 76.923v74.983l20.024.662V76.923z" opacity="1" data-original="#e53950"></path><path fill="#6c7fd8" d="M107 117.369v34.17l-29.78-.98-2.27-1.11v-32.08c0-2.31 1.88-4.18 4.19-4.18h23.68c2.31 0 4.18 1.87 4.18 4.18z" opacity="1" data-original="#6c7fd8"></path><path fill="#0f51bc" d="M90.979 23.471c-26.084 0-47.229 21.145-47.229 47.229v6.223h94.457V70.7c0-26.084-21.145-47.229-47.228-47.229z" opacity="1" data-original="#eb5569"></path><path fill="#e53950" d="M90.979 23.471c-3.437 0-6.784.376-10.012 1.074 21.273 4.594 37.216 23.508 37.216 46.155v6.223h20.025V70.7c-.001-26.084-21.146-47.229-47.229-47.229z" opacity="1" data-original="#e53950"></path><path fill="#e53950" d="M160.356 84.423H21.601c-4.142 0-7.5-3.357-7.5-7.5s3.358-7.5 7.5-7.5h138.755c4.142 0 7.5 3.357 7.5 7.5s-3.357 7.5-7.5 7.5z" opacity="1" data-original="#e53950"></path><path fill="#97da7b" d="m334.8 267.749-73.16 3.34-91.28 4.16L0 267.749v-107.12c0-6.17 5.01-11.18 11.19-11.18h113.19c37.9 0 74.72 12.64 104.63 35.93l61.02 47.51z" opacity="1" data-original="#97da7b" class=""></path><path fill="#80d261" d="m334.8 267.749-73.16 3.34 21.06-28.87c2.34-3.21 4.79-6.32 7.33-9.33z" opacity="1" data-original="#80d261" class=""></path><path fill="#80d261" d="M229.009 185.376a170.302 170.302 0 0 0-104.628-35.93h-20.5a170.304 170.304 0 0 1 104.628 35.93l105.792 82.375h20.5z" opacity="1" data-original="#80d261" class=""></path><path fill="#80d261" d="M292.77 288.959a7.486 7.486 0 0 1-6.01 3.01c-1.56 0-3.14-.49-4.49-1.49l-30.33-22.73-157.84-118.3h25l157.86 118.3 14.29 10.71c3.32 2.48 4 7.18 1.52 10.5zM218.92 288.959a7.505 7.505 0 0 1-10.5 1.52l-30.33-22.73-157.85-118.3h25.01l157.86 118.3 14.29 10.71c3.32 2.48 4 7.18 1.52 10.5zM136.71 288.959a7.472 7.472 0 0 1-6.01 3.01c-1.56 0-3.13-.49-4.48-1.49l-30.33-22.73L0 195.879v-18.74l120.91 90.61 14.29 10.71a7.508 7.508 0 0 1 1.51 10.5z" opacity="1" data-original="#80d261" class=""></path><path fill="#97da7b" d="m408.49 267.749-274.07 205.78H11.19c-6.18 0-11.19-5.01-11.19-11.19v-194.59z" opacity="1" data-original="#97da7b" class=""></path><path fill="#80d261" d="m408.49 267.748-274.07 205.78h-20.5l150.15-205.78z" opacity="1" data-original="#80d261" class=""></path><path fill="#80d261" d="M301.42 275.249c0 4.14-3.36 7.5-7.5 7.5H0v-15h293.92c4.14 0 7.5 3.36 7.5 7.5zM252.28 329.789c0 4.14-3.36 7.5-7.5 7.5H0v-15h244.78c4.14 0 7.5 3.36 7.5 7.5zM215.38 380.359c0 4.14-3.36 7.5-7.5 7.5H0v-15h207.88c4.14 0 7.5 3.36 7.5 7.5zM178.48 430.929c0 4.14-3.36 7.5-7.5 7.5H0v-15h170.98c4.14 0 7.5 3.36 7.5 7.5z" opacity="1" data-original="#80d261" class=""></path><path fill="#97da7b" d="M497 185.549v276.64c0 6.26-5.08 11.34-11.34 11.34H134.42l168.78-231.31a165.27 165.27 0 0 1 133.51-67.86h49.1c6.18 0 11.19 5.01 11.19 11.19z" opacity="1" data-original="#97da7b" class=""></path><path fill="#97da7b" d="M497 185.549v276.64c0 6.26-5.08 11.34-11.34 11.34h-47.54l-7.5-4.548-7.5 4.548h-288.7l168.78-231.31a165.27 165.27 0 0 1 133.51-67.86h49.1c6.18 0 11.19 5.01 11.19 11.19z" opacity="1" data-original="#97da7b" class=""></path><path fill="#80d261" d="M497 185.549v276.64c0 6.26-5.08 11.34-11.34 11.34h-20.5c6.26 0 11.34-5.08 11.34-11.34v-276.64c0-6.18-5.01-11.19-11.19-11.19h20.5c6.18 0 11.19 5.01 11.19 11.19z" opacity="1" data-original="#80d261" class=""></path><g fill="#9facba"><path d="M372.996 98.924c-6.23 0-11.9 2.428-16.126 6.382-4.226-3.954-9.896-6.382-16.126-6.382-4.143 0-7.5 3.357-7.5 7.5s3.357 7.5 7.5 7.5c4.757 0 8.626 3.869 8.626 8.626 0 4.143 3.357 7.5 7.5 7.5s7.5-3.357 7.5-7.5c0-4.757 3.869-8.626 8.626-8.626 4.143 0 7.5-3.357 7.5-7.5s-3.357-7.5-7.5-7.5zM340.744 67.627c4.143 0 7.5-3.357 7.5-7.5s-3.357-7.5-7.5-7.5c-6.23 0-11.901 2.428-16.127 6.382-4.226-3.954-9.896-6.382-16.126-6.382-4.143 0-7.5 3.357-7.5 7.5s3.357 7.5 7.5 7.5c4.757 0 8.626 3.869 8.626 8.626 0 4.143 3.357 7.5 7.5 7.5s7.5-3.357 7.5-7.5c0-4.757 3.87-8.626 8.627-8.626z" fill="#9facba" opacity="1" data-original="#9facba"></path></g><path fill="#80d261" d="M497 203.059v15h-60.92c-33.28 0-64.84 16.07-84.42 42.97l-154.76 212.5h-18.55l161.18-221.32c22.4-30.78 58.49-49.15 96.55-49.15z" opacity="1" data-original="#80d261" class=""></path><path fill="#80d261" d="M497 248.809v15h-37.27c-33.28 0-64.84 16.06-84.42 42.97l-121.37 166.75h-18.56l127.8-175.58c22.4-30.77 58.49-49.14 96.55-49.14z" opacity="1" data-original="#80d261" class=""></path><path fill="#80d261" d="M497 295.699v15h-9.11c-33.28 0-64.84 16.06-84.43 42.97l-87.24 119.86h-18.55l93.67-128.69c22.39-30.77 58.49-49.14 96.55-49.14zM497 359.129v15.13c-27.84 3.88-53.32 18.96-70.06 41.96l-41.71 57.31h-18.56l48.14-66.14c19.56-26.87 49.56-44.28 82.19-48.26z" opacity="1" data-original="#80d261" class=""></path><path fill="#22b27f" d="M494.47 390.399c3.42 6.63-1.39 14.54-8.86 14.54H375.63c-7.47 0-12.29-7.91-8.86-14.54l25.62-49.54c2.15-4.16-.87-9.12-5.55-9.12h-15.85c-8.18 0-12.88-9.31-8.01-15.89l39.2-53.01a35.333 35.333 0 0 1 18.19-12.82 35.366 35.366 0 0 1 38.69 12.82l35.97 53.01c4.86 6.58.17 15.89-8.01 15.89H474.4c-4.68 0-7.7 4.96-5.55 9.12z" opacity="1" data-original="#22b27f" class=""></path><path fill="#09a76d" d="M494.47 390.399c3.42 6.63-1.39 14.54-8.86 14.54h-20.5c7.47 0 12.28-7.91 8.85-14.54l-26.6-51.47c-1.7-3.28.68-7.19 4.37-7.19h14.79c8.18 0 12.87-9.31 8.01-15.89l-35.97-53.01a35.38 35.38 0 0 0-18.19-12.82 35.366 35.366 0 0 1 38.69 12.82l35.97 53.01c4.86 6.58.17 15.89-8.01 15.89H474.4c-4.68 0-7.7 4.96-5.55 9.12z" opacity="1" data-original="#09a76d"></path><path fill="#b98080" d="M438.12 370.639v102.89h-15v-102.89c0-4.14 3.36-7.5 7.5-7.5s7.5 3.36 7.5 7.5z" opacity="1" data-original="#b98080"></path><path fill="#ae6c6c" d="M438.12 370.639v34.3h-15v-34.3c0-4.14 3.36-7.5 7.5-7.5s7.5 3.36 7.5 7.5z" opacity="1" data-original="#ae6c6c"></path></g></svg>