<svg height="512pt" viewBox="0 -14 512.0001 512" width="512pt" xmlns="http://www.w3.org/2000/svg"><path d="m187.191406 60.914062 5.339844-19.605468c4.746094-17.425782-5.535156-35.40625-22.960938-40.152344-17.425781-4.742188-35.40625 5.535156-40.152343 22.960938l-5.339844 19.605468c-11.214844 41.167969 3.011719 85.058594 36.242187 111.820313l52.949219-44.152344c-21.230469-8.027344-31.625-30.105469-26.078125-50.476563zm0 0" fill="#6aa9ff"/><path d="m324.808594 60.914062-5.339844-19.605468c-4.746094-17.425782 5.535156-35.40625 22.960938-40.152344 17.425781-4.742188 35.40625 5.535156 40.152343 22.960938l5.339844 19.605468c11.214844 41.167969-3.011719 85.058594-36.242187 111.820313l-52.949219-44.152344c21.230469-8.027344 31.625-30.105469 26.078125-50.476563zm0 0" fill="#0095ff"/><path d="m182.078125 225.75h-72.527344c-56.765625 0-103.550781-42.96875-109.488281-98.214844-.683594-6.347656 4.242188-11.90625 10.628906-11.90625h61.265625c60.820313 0 110.121094 49.300782 110.121094 110.121094zm0 0" fill="#0095ff"/><path d="m329.921875 225.75h72.527344c56.765625 0 103.550781-42.96875 109.488281-98.214844.683594-6.347656-4.242188-11.90625-10.628906-11.90625h-61.265625c-60.820313 0-110.121094 49.300782-110.121094 110.121094zm0 0" fill="#005fe4"/><path d="m400.976562 188.128906c-8.203124 50.859375-12.667968 78.316406-15.832031 98.222656-5.984375 37.828126-7.21875 48.410157-20.160156 140.4375l-108.984375-.027343-108.984375-.042969-35.992187-238.589844c-4.828126-42.316406 28.269531-79.390625 70.847656-79.390625h148.257812c42.578125 0 75.675782 37.074219 70.847656 79.390625zm0 0" fill="#e1f1fa"/><path d="m400.976562 188.128906c-8.203124 50.859375-12.667968 78.316406-15.832031 98.222656-5.984375 37.828126-7.21875 48.410157-20.160156 140.4375l-108.984375-.027343v-318.023438h74.128906c42.578125 0 75.675782 37.074219 70.847656 79.390625zm0 0" fill="#cdebfc"/><path d="m400.976562 188.128906c-8.203124 50.859375-12.667968 78.316406-15.832031 98.222656-88.15625-5.019531-141.953125-99.261718-102.28125-177.613281h47.265625c42.578125 0 75.675782 37.074219 70.847656 79.390625zm0 0" fill="#a3d4ff"/><path d="m364.984375 400.085938v21.574218c0 34.484375-27.957031 62.433594-62.441406 62.433594h-93.085938c-34.484375 0-62.441406-27.949219-62.441406-62.433594v-21.574218c0-34.484376 27.957031-62.445313 62.441406-62.445313h93.085938c34.484375 0 62.441406 27.960937 62.441406 62.445313zm0 0" fill="#0095ff"/><path d="m364.984375 400.085938v21.574218c0 34.484375-27.957031 62.433594-62.441406 62.433594h-46.542969v-146.453125h46.542969c34.484375 0 62.441406 27.960937 62.441406 62.445313zm0 0" fill="#005fe4"/><path d="m313.222656 183.546875c-8.316406 0-15.058594 6.742187-15.058594 15.058594v13.207031c0 8.316406 6.742188 15.058594 15.058594 15.058594s15.058594-6.742188 15.058594-15.058594v-13.207031c0-8.316407-6.742188-15.058594-15.058594-15.058594zm0 0" fill="#00215a"/><path d="m198.777344 183.546875c-8.316406 0-15.058594 6.742187-15.058594 15.058594v13.207031c0 8.316406 6.742188 15.058594 15.058594 15.058594s15.058594-6.742188 15.058594-15.058594v-13.207031c0-8.316407-6.742188-15.058594-15.058594-15.058594zm0 0" fill="#0040a0"/><path d="m219.859375 382.152344c-8.316406 0-15.058594 6.742187-15.058594 15.058594v9.371093c0 8.316407 6.742188 15.058594 15.058594 15.058594s15.058594-6.742187 15.058594-15.058594v-9.371093c0-8.316407-6.742188-15.058594-15.058594-15.058594zm0 0" fill="#0040a0"/><path d="m292.140625 382.152344c-8.316406 0-15.058594 6.742187-15.058594 15.058594v9.371093c0 8.316407 6.742188 15.058594 15.058594 15.058594s15.058594-6.742187 15.058594-15.058594v-9.371093c0-8.316407-6.742188-15.058594-15.058594-15.058594zm0 0" fill="#00215a"/></svg>