<svg height="512pt" viewBox="0 -38 512.00041 512" width="512pt" xmlns="http://www.w3.org/2000/svg"><path d="m268.566406 435.285156h228.355469c13.304687 0 20.0625-15.992187 10.792969-25.53125l-85.515625-88.011718c-21.601563-22.234376-57.304688-22.234376-78.910157 0l-85.511718 88.011718c-9.273438 9.539063-2.511719 25.53125 10.789062 25.53125zm0 0" fill="#dcbe82"/><path d="m247.335938 183.296875-74.042969-16.121094c-1.234375-.269531-2.4375-.671875-3.585938-1.199219l-23.570312-10.777343-10.253907-26.175781 28.460938-4.332032 18.320312 8.382813 72.183594 15.71875c9.53125 2.074219 15.570313 11.480469 13.496094 21.007812-2.074219 9.53125-11.480469 15.570313-21.007812 13.496094zm0 0" fill="#ba6746"/><path d="m164.34375 124.691406-50.21875-22.96875c-8.867188-4.054687-19.347656-.15625-23.402344 8.710938-4.054687 8.871094-.15625 19.347656 8.714844 23.402344l46.699219 21.363281zm0 0" fill="#f2cc3f"/><path d="m11.851562 432.769531c-10.800781-5.644531-14.984374-18.980469-9.335937-29.785156l41.230469-78.875-8.550782-69.117187c-1.496093-12.097657 7.097657-23.117188 19.195313-24.613282 12.101563-1.5 23.117187 7.09375 24.617187 19.191406l9.394532 75.949219c.550781 4.449219-.265625 8.964844-2.34375 12.9375l-44.421875 84.980469c-5.644531 10.800781-18.980469 14.980469-29.785157 9.332031zm0 0" fill="#748488"/><path d="m154.433594 435.226562c-12.160156-.863281-21.316406-11.421874-20.453125-23.582031l6.480469-91.152343-49.871094-72.042969c-6.9375-10.023438-4.4375-23.769531 5.585937-30.710938 10.023438-6.9375 23.773438-4.4375 30.710938 5.585938l54.289062 78.425781c2.859375 4.132812 4.222657 9.117188 3.867188 14.128906l-7.03125 98.898438c-.863281 12.171875-11.4375 21.316406-23.578125 20.449218zm0 0" fill="#55696e"/><path d="m88.992188 255.667969-53.703126-6.753907 22.164063-138.839843c2.535156-15.863281 16.757813-25.027344 30.84375-22.75l47.167969 7.621093c14.625 2.359376 24.5625 16.132813 22.199218 30.753907l-14.4375 89.359375c-4.1875 25.933594-28.167968 43.890625-54.234374 40.609375zm0 0" fill="#ffda52"/><path d="m132.96875.507812c-21.644531-3.496093-42.027344 11.214844-45.527344 32.863282-3.496094 21.648437 11.214844 42.03125 32.863282 45.527344 21.648437 3.496093 42.03125-11.214844 45.527343-32.863282 3.496094-21.644531-11.214843-42.027344-32.863281-45.527344zm0 0" fill="#ba6746"/><path d="m73.144531 269.289062c-3.871093 0-7.5625-2.257812-9.203125-6.035156-2.210937-5.082031.121094-10.992187 5.203125-13.199218l266.425781-115.742188c5.082032-2.207031 10.992188.121094 13.199219 5.203125s-.125 10.992187-5.207031 13.199219l-266.421875 115.742187c-1.300781.566407-2.660156.832031-3.996094.832031zm0 0" fill="#a56941"/><path d="m187.964844 236.839844-59.652344-45.945313c-1.9375-1.492187-3.542969-3.371093-4.71875-5.519531l-11.304688-20.691406 6.554688-21.96875 24.8125 5.722656 9.148438 16.746094 56.710937 43.679687c7.726563 5.949219 9.164063 17.035157 3.214844 24.761719-5.933594 7.703125-17.015625 9.183594-24.765625 3.214844zm0 0" fill="#ba6746"/><path d="m143.65625 148.441406-21.382812-39.128906c-4.675782-8.558594-15.402344-11.703125-23.960938-7.027344-8.558594 4.675782-11.703125 15.402344-7.027344 23.960938l21.003906 38.4375zm0 0" fill="#f2cc3f"/><path d="m429.933594 144.839844c-1.648438-3.796875-6.0625-5.539063-9.859375-3.890625l-54.421875 23.644531c-1.96875.855469-4.152344.890625-6.144532.105469-1.996093-.785157-3.566406-2.300781-4.417968-4.269531l-5.660156-13.027344 61.785156-26.84375c3.796875-1.648438 5.535156-6.0625 3.886718-9.859375-1.648437-3.796875-6.058593-5.535157-9.859374-3.886719l-61.785157 26.839844-5.660156-13.027344c-1.765625-4.058594.101563-8.796875 4.164063-10.5625l54.421874-23.640625c3.796876-1.652344 5.539063-6.066406 3.886719-9.863281-1.648437-3.792969-6.058593-5.535156-9.859375-3.886719l-54.421875 23.644531c-11.640625 5.054688-16.996093 18.640625-11.941406 30.28125l8.644531 19.894532s0 .003906.003906.007812v.007812l8.644532 19.894532c2.449218 5.636718 6.949218 9.988281 12.667968 12.242187 2.738282 1.078125 5.59375 1.617188 8.449219 1.617188 3.113281 0 6.222657-.640625 9.167969-1.917969l54.421875-23.644531c3.796875-1.648438 5.535156-6.066407 3.886719-9.859375zm0 0" fill="#87afb9"/><path d="m389.453125 73.136719v153.265625c0 5.40625 4.378906 9.789062 9.785156 9.789062h47.640625c5.40625 0 9.789063-4.382812 9.789063-9.789062v-95.53125c0-33.652344-24.726563-61.527344-57.003907-66.445313-5.363281-.820312-10.210937 3.285157-10.210937 8.710938zm0 0" fill="#dcbe82"/></svg>