<svg xmlns="http://www.w3.org/2000/svg" version="1.1" xmlns:xlink="http://www.w3.org/1999/xlink" width="512" height="512" x="0" y="0" viewBox="0 0 134 134" style="enable-background:new 0 0 512 512" xml:space="preserve" class=""><g><path fill="#3b60ab" d="m124.19 76.39-18.5.64c-2.36.23-4.84.52-7.4.9l-17.86 3.92c-5.99 1.78-12.06 4.12-17.92 7.18 16.01 4.99 33.27 13.87 49.32 29.27.13.12 3.77 3.38 6.82 7.44H130V76.72s-2.14-.22-5.81-.33z" opacity="1" data-original="#ab573b"></path><path fill="#6d2d0a" d="M127.35 76.53v34.33c0 6.27-5.08 11.35-11.35 11.35-3.05-4.06-6.69-7.32-6.82-7.44-14.13-13.55-29.19-22.05-43.51-27.3-1.06.5-2.11 1.02-3.16 1.56 16.01 4.99 33.27 13.87 49.32 29.27.13.12 3.77 3.38 6.82 7.44H130V76.72s-.95-.09-2.65-.19z" opacity="1" data-original="#6d2d0a"></path><path fill="#d87d55" d="M111.83 118.3c-16.05-15.4-33.31-24.28-49.32-29.27-.82-.26-1.64-.5-2.46-.74l-18.36-3.9c-1.72-.24-3.4-.43-5.04-.6l-18.59-.55c-6.45.26-11.34.94-14.06 1.4v41.1h114.65c-3.05-4.06-6.69-7.32-6.82-7.44z" opacity="1" data-original="#d87d55" class=""></path><path fill="#b76339" d="M7.06 84.18c-1.2.16-2.24.32-3.06.46v41.1h114.65a52.35 52.35 0 0 0-2.84-3.43H45.19c-21.06.01-38.13-17.07-38.13-38.13z" opacity="1" data-original="#b76339"></path><path fill="#e4a426" d="M115.16 86.35c-.38 0-.69-.42-.69-.93V73.05c0-.52.31-.93.69-.93s.69.42.69.93v12.36c-.01.52-.31.94-.69.94z" opacity="1" data-original="#e4a426"></path><path fill="#cc8621" d="M115.61 85.84c-.38 0-.69-.42-.69-.93V72.54c0-.14.02-.26.06-.38-.29.1-.52.45-.52.89v12.36c0 .52.31.93.69.93.28 0 .52-.23.62-.56-.04.03-.1.06-.16.06z" opacity="1" data-original="#cc8621"></path><path fill="#bced24" d="M115.39 80.02c3.67.64 6.13-1.82 5.5-5.5-3.68-.63-6.14 1.83-5.5 5.5z" opacity="1" data-original="#bced24" class=""></path><path fill="#96cc0a" d="m120.89 74.53-.24-.03c.35 3.33-1.94 5.52-5.32 5.06.02.16.03.31.06.47 3.67.63 6.13-1.83 5.5-5.5z" opacity="1" data-original="#96cc0a"></path><path fill="#bced24" d="M115.16 73.92c3.05-2.15 3.05-5.63 0-7.78-3.05 2.16-3.05 5.64 0 7.78z" opacity="1" data-original="#bced24" class=""></path><path fill="#96cc0a" d="M115.16 73.32c-1.42-1-2.16-2.28-2.27-3.59-.12 1.51.63 3.04 2.27 4.19 1.63-1.15 2.38-2.68 2.27-4.19-.11 1.31-.86 2.6-2.27 3.59z" opacity="1" data-original="#96cc0a"></path><path fill="#bced24" d="M115.06 80.02c-3.67.64-6.13-1.82-5.5-5.5 3.67-.63 6.13 1.83 5.5 5.5z" opacity="1" data-original="#bced24" class=""></path><path fill="#96cc0a" d="M110.07 74.46c-.17.02-.34.03-.51.06-.64 3.67 1.82 6.14 5.5 5.5.03-.15.04-.29.05-.44-3.24.32-5.4-1.86-5.04-5.12z" opacity="1" data-original="#96cc0a"></path><path fill="#f2ad49" d="M72.47 40.3c0 8.08-6.57 14.65-14.65 14.65-8.07 0-14.64-6.57-14.64-14.65 0-8.07 6.57-14.64 14.64-14.64 8.08 0 14.65 6.57 14.65 14.64z" opacity="1" data-original="#f2ad49"></path><path fill="#ef6654" d="M60.66 52.48c-8.07 0-14.64-6.57-14.64-14.65 0-3.74 1.42-7.15 3.74-9.74-3.96 2.62-6.58 7.11-6.58 12.21 0 8.08 6.57 14.65 14.64 14.65 4.33 0 8.22-1.9 10.9-4.9a14.472 14.472 0 0 1-8.06 2.43z" opacity="1" data-original="#ef6654"></path><path fill="#f3990b" d="M57.82 23.19c-.55 0-1-.45-1-1V9.26c0-.55.45-1 1-1s1 .45 1 1V22.2c0 .55-.44.99-1 .99zM57.82 72.35c-.55 0-1-.45-1-1V58.42c0-.55.45-1 1-1s1 .45 1 1v12.94c0 .54-.44.99-1 .99zM88.87 41.31H75.94c-.55 0-1-.45-1-1s.45-1 1-1h12.94c.55 0 1 .45 1 1s-.46 1-1.01 1zM39.71 41.31H26.78c-.55 0-1-.45-1-1s.45-1 1-1h12.94c.55 0 1 .45 1 1s-.45 1-1.01 1zM70.63 28.5c-.26 0-.51-.1-.71-.29a.996.996 0 0 1 0-1.41l10-10a.996.996 0 1 1 1.41 1.41l-10 10c-.19.19-.44.29-.7.29zM35.02 64.11c-.26 0-.51-.1-.71-.29a.996.996 0 0 1 0-1.41l10-10a.996.996 0 1 1 1.41 1.41l-10 10c-.19.19-.44.29-.7.29zM80.43 63.91c-.26 0-.51-.1-.71-.29l-9.8-9.8a.996.996 0 1 1 1.41-1.41l9.8 9.8a.996.996 0 0 1-.7 1.7zM45.02 28.5c-.26 0-.51-.1-.71-.29l-10-10a.996.996 0 1 1 1.41-1.41l10 10a.996.996 0 0 1-.7 1.7zM50.89 24.57c-.39 0-.76-.23-.92-.62l-3.06-7.38c-.21-.51.03-1.1.54-1.31s1.1.03 1.31.54l3.06 7.38c.21.51-.03 1.1-.54 1.31a.91.91 0 0 1-.39.08zM67.81 65.42c-.39 0-.76-.23-.92-.62l-3.06-7.38c-.21-.51.03-1.1.54-1.31s1.1.03 1.31.54l3.06 7.38a1.004 1.004 0 0 1-.93 1.39zM74.56 34.37a1.004 1.004 0 0 1-.38-1.93l7.38-3.06c.51-.21 1.1.03 1.31.54s-.03 1.1-.54 1.31l-7.38 3.06a.91.91 0 0 1-.39.08zM33.71 51.29a1.004 1.004 0 0 1-.38-1.93l7.38-3.06c.51-.21 1.1.03 1.31.54s-.03 1.1-.54 1.31l-7.38 3.06a.91.91 0 0 1-.39.08zM64.76 24.57c-.13 0-.26-.02-.38-.08-.51-.21-.75-.8-.54-1.31l3.06-7.38c.21-.51.8-.75 1.31-.54s.75.8.54 1.31l-3.06 7.38c-.17.39-.54.62-.93.62zM47.84 65.42c-.13 0-.26-.02-.38-.08-.51-.21-.75-.8-.54-1.31l3.06-7.38c.21-.51.8-.75 1.31-.54s.75.8.54 1.31l-3.06 7.38c-.17.38-.54.62-.93.62zM81.94 51.29c-.13 0-.26-.02-.38-.08l-7.38-3.06c-.51-.21-.75-.8-.54-1.31s.8-.75 1.31-.54l7.38 3.06c.51.21.75.8.54 1.31-.17.39-.54.62-.93.62zM41.09 34.37c-.13 0-.26-.02-.38-.08l-7.38-3.06c-.51-.21-.75-.8-.54-1.31s.8-.75 1.31-.54l7.38 3.06a1.004 1.004 0 0 1-.39 1.93z" opacity="1" data-original="#f3990b"></path><path fill="#1a1a1a" d="M96.56 18.67h-.01c-.48 0-.89-.35-.97-.82-.99-5.39-7.4-6.76-7.46-6.78-.54-.11-.89-.64-.78-1.18s.63-.89 1.17-.78c.27.05 5.57 1.17 8 5.51 1.06-2.45 3.15-5.67 6.99-6.35.55-.09 1.06.27 1.16.81.09.54-.27 1.06-.81 1.16-4.86.85-6.3 7.56-6.31 7.63-.09.46-.5.8-.98.8zM111.2 34.42h-.01c-.48 0-.89-.35-.97-.82-1.37-7.42-10.13-9.29-10.22-9.31-.54-.11-.89-.64-.78-1.18s.63-.9 1.18-.78c.36.07 7.79 1.64 10.78 7.81 1.28-3.24 4.03-8 9.35-8.93a1 1 0 0 1 1.16.81c.09.54-.27 1.06-.81 1.16-6.71 1.18-8.67 10.35-8.69 10.44-.11.46-.52.8-.99.8z" opacity="1" data-original="#1a1a1a"></path><path fill="#e4a426" d="M88.95 87.94c-.38 0-.69-.42-.69-.93V74.65c0-.52.31-.93.69-.93s.69.42.69.93v12.36c-.01.52-.32.93-.69.93z" opacity="1" data-original="#e4a426"></path><path fill="#cc8621" d="M89.4 87.44c-.38 0-.69-.42-.69-.93V74.14c0-.14.02-.26.06-.38-.29.1-.52.45-.52.89v12.36c0 .52.31.93.69.93.28 0 .52-.23.62-.56-.05.03-.1.06-.16.06z" opacity="1" data-original="#cc8621"></path><path fill="#bced24" d="M89.18 81.62c3.67.64 6.13-1.82 5.5-5.5-3.68-.63-6.14 1.83-5.5 5.5z" opacity="1" data-original="#bced24" class=""></path><path fill="#96cc0a" d="m94.67 76.12-.24-.03c.35 3.33-1.94 5.52-5.32 5.06.02.16.03.31.06.47 3.68.64 6.14-1.82 5.5-5.5z" opacity="1" data-original="#96cc0a"></path><path fill="#bced24" d="M88.95 75.52c3.05-2.15 3.05-5.63 0-7.78-3.05 2.15-3.05 5.63 0 7.78z" opacity="1" data-original="#bced24" class=""></path><path fill="#96cc0a" d="M88.95 74.92c-1.42-1-2.16-2.28-2.27-3.59-.12 1.51.63 3.04 2.27 4.19 1.63-1.15 2.38-2.68 2.27-4.19-.11 1.31-.86 2.59-2.27 3.59z" opacity="1" data-original="#96cc0a"></path><path fill="#bced24" d="M88.85 81.62c-3.67.64-6.13-1.82-5.5-5.5 3.67-.63 6.13 1.83 5.5 5.5z" opacity="1" data-original="#bced24" class=""></path><path fill="#96cc0a" d="M83.86 76.06c-.17.02-.34.03-.51.06-.64 3.67 1.82 6.14 5.5 5.5.03-.15.04-.29.05-.44-3.24.32-5.4-1.86-5.04-5.12z" opacity="1" data-original="#96cc0a"></path><path fill="#e4a426" d="M27.25 98.09c-.38 0-.69-.42-.69-.93V84.8c0-.52.31-.93.69-.93s.69.42.69.93v12.36c0 .52-.31.93-.69.93z" opacity="1" data-original="#e4a426"></path><path fill="#cc8621" d="M27.71 97.58c-.38 0-.69-.42-.69-.93V84.29c0-.14.02-.26.06-.38-.29.1-.52.45-.52.89v12.36c0 .52.31.93.69.93.28 0 .52-.23.62-.56-.05.03-.1.05-.16.05z" opacity="1" data-original="#cc8621"></path><path fill="#bced24" d="M27.48 91.77c3.67.64 6.13-1.82 5.5-5.5-3.67-.64-6.14 1.83-5.5 5.5z" opacity="1" data-original="#bced24" class=""></path><path fill="#96cc0a" d="m32.98 86.27-.24-.03c.35 3.33-1.94 5.52-5.32 5.06.02.16.03.31.06.47 3.68.64 6.14-1.82 5.5-5.5z" opacity="1" data-original="#96cc0a"></path><path fill="#bced24" d="M27.25 85.67c3.05-2.15 3.05-5.63 0-7.78-3.05 2.15-3.05 5.63 0 7.78z" opacity="1" data-original="#bced24" class=""></path><path fill="#96cc0a" d="M27.25 85.07c-1.42-1-2.16-2.28-2.27-3.59-.12 1.51.63 3.04 2.27 4.19 1.63-1.15 2.38-2.68 2.27-4.19-.1 1.31-.85 2.59-2.27 3.59z" opacity="1" data-original="#96cc0a"></path><path fill="#bced24" d="M27.15 91.77c-3.67.64-6.13-1.82-5.5-5.5 3.68-.64 6.14 1.83 5.5 5.5z" opacity="1" data-original="#bced24" class=""></path><path fill="#96cc0a" d="M22.16 86.21c-.17.02-.34.03-.51.06-.64 3.67 1.82 6.14 5.5 5.5.03-.15.04-.29.05-.44-3.24.32-5.39-1.86-5.04-5.12z" opacity="1" data-original="#96cc0a"></path><path fill="#e4a426" d="M50.2 98.87c-.38 0-.69-.42-.69-.93V85.57c0-.52.31-.93.69-.93s.69.42.69.93v12.36c0 .52-.31.94-.69.94z" opacity="1" data-original="#e4a426"></path><path fill="#cc8621" d="M50.66 98.36c-.38 0-.69-.42-.69-.93V85.06c0-.14.02-.26.06-.38-.29.1-.52.45-.52.89v12.36c0 .52.31.93.69.93.28 0 .52-.23.62-.56-.05.03-.1.06-.16.06z" opacity="1" data-original="#cc8621"></path><path fill="#bced24" d="M50.44 92.54c3.67.64 6.13-1.82 5.5-5.5-3.68-.63-6.14 1.83-5.5 5.5z" opacity="1" data-original="#bced24" class=""></path><path fill="#96cc0a" d="m55.93 87.05-.24-.03c.35 3.33-1.94 5.52-5.32 5.06.02.16.03.31.06.47 3.68.63 6.14-1.83 5.5-5.5z" opacity="1" data-original="#96cc0a"></path><path fill="#bced24" d="M50.2 86.44c3.05-2.15 3.05-5.63 0-7.78-3.04 2.16-3.04 5.64 0 7.78z" opacity="1" data-original="#bced24" class=""></path><path fill="#96cc0a" d="M50.2 85.84c-1.42-1-2.16-2.28-2.27-3.59-.12 1.51.63 3.04 2.27 4.19 1.63-1.15 2.38-2.68 2.27-4.19-.1 1.31-.85 2.59-2.27 3.59z" opacity="1" data-original="#96cc0a"></path><path fill="#bced24" d="M50.1 92.54c-3.67.64-6.13-1.82-5.5-5.5 3.68-.63 6.14 1.83 5.5 5.5z" opacity="1" data-original="#bced24" class=""></path><path fill="#96cc0a" d="M45.12 86.98c-.17.02-.34.03-.51.06-.64 3.67 1.82 6.14 5.5 5.5.03-.15.04-.29.05-.44-3.24.32-5.4-1.86-5.04-5.12z" opacity="1" data-original="#96cc0a"></path><path fill="#e4a426" d="M60.9 117.03c-.38 0-.69-.42-.69-.93v-12.36c0-.52.31-.93.69-.93s.69.42.69.93v12.36c0 .51-.31.93-.69.93z" opacity="1" data-original="#e4a426"></path><path fill="#cc8621" d="M61.36 116.52c-.38 0-.69-.42-.69-.93v-12.36c0-.14.02-.26.06-.38-.29.1-.52.45-.52.89v12.36c0 .52.31.93.69.93.28 0 .52-.23.62-.56-.05.02-.1.05-.16.05z" opacity="1" data-original="#cc8621"></path><path fill="#bced24" d="M61.14 110.71c3.67.64 6.13-1.82 5.5-5.5-3.68-.64-6.14 1.82-5.5 5.5z" opacity="1" data-original="#bced24" class=""></path><path fill="#96cc0a" d="m66.63 105.21-.24-.03c.35 3.33-1.94 5.52-5.32 5.06.02.16.03.31.06.47 3.68.63 6.14-1.83 5.5-5.5z" opacity="1" data-original="#96cc0a"></path><path fill="#bced24" d="M60.9 104.61c3.05-2.15 3.05-5.63 0-7.78-3.04 2.15-3.04 5.63 0 7.78z" opacity="1" data-original="#bced24" class=""></path><path fill="#96cc0a" d="M60.9 104c-1.42-1-2.16-2.28-2.27-3.59-.12 1.51.63 3.04 2.27 4.19 1.63-1.15 2.38-2.68 2.27-4.19-.1 1.31-.85 2.6-2.27 3.59z" opacity="1" data-original="#96cc0a"></path><path fill="#bced24" d="M60.8 110.71c-3.67.64-6.13-1.82-5.5-5.5 3.68-.64 6.14 1.82 5.5 5.5z" opacity="1" data-original="#bced24" class=""></path><path fill="#96cc0a" d="M55.82 105.14c-.17.02-.34.03-.51.06-.64 3.67 1.82 6.14 5.5 5.5.03-.15.04-.29.05-.44-3.24.33-5.4-1.86-5.04-5.12z" opacity="1" data-original="#96cc0a"></path><path fill="#e4a426" d="M82.71 125.34c-.38 0-.69-.42-.69-.93v-12.36c0-.52.31-.93.69-.93s.69.42.69.93v12.36c-.01.51-.32.93-.69.93z" opacity="1" data-original="#e4a426"></path><path fill="#cc8621" d="M83.16 124.83c-.38 0-.69-.42-.69-.93v-12.36c0-.14.02-.26.06-.38-.29.1-.52.45-.52.89v12.36c0 .52.31.93.69.93.28 0 .52-.23.62-.56-.05.03-.1.05-.16.05z" opacity="1" data-original="#cc8621"></path><path fill="#bced24" d="M82.94 119.02c3.67.64 6.13-1.82 5.5-5.5-3.68-.64-6.14 1.83-5.5 5.5z" opacity="1" data-original="#bced24" class=""></path><path fill="#96cc0a" d="m88.44 113.52-.24-.03c.35 3.33-1.94 5.52-5.32 5.06.02.16.03.31.06.47 3.67.64 6.13-1.83 5.5-5.5z" opacity="1" data-original="#96cc0a"></path><path fill="#bced24" d="M82.71 112.92c3.05-2.15 3.05-5.63 0-7.78-3.05 2.15-3.05 5.63 0 7.78z" opacity="1" data-original="#bced24" class=""></path><path fill="#96cc0a" d="M82.71 112.32c-1.42-1-2.16-2.28-2.27-3.59-.12 1.51.63 3.04 2.27 4.19 1.63-1.15 2.38-2.68 2.27-4.19-.11 1.31-.86 2.59-2.27 3.59z" opacity="1" data-original="#96cc0a"></path><path fill="#bced24" d="M82.61 119.02c-3.67.64-6.13-1.82-5.5-5.5 3.67-.64 6.13 1.83 5.5 5.5z" opacity="1" data-original="#bced24" class=""></path><path fill="#96cc0a" d="M77.62 113.46c-.17.02-.34.03-.51.06-.64 3.67 1.82 6.14 5.5 5.5.03-.15.04-.29.05-.44-3.24.32-5.4-1.86-5.04-5.12z" opacity="1" data-original="#96cc0a"></path><path fill="#e4a426" d="M39.1 125.16c-.38 0-.69-.42-.69-.93v-12.36c0-.52.31-.93.69-.93s.69.42.69.93v12.36c0 .51-.31.93-.69.93z" opacity="1" data-original="#e4a426"></path><path fill="#cc8621" d="M39.56 124.65c-.38 0-.69-.42-.69-.93v-12.36c0-.14.02-.26.06-.38-.29.1-.52.45-.52.89v12.36c0 .52.31.93.69.93.28 0 .52-.23.62-.56-.05.02-.1.05-.16.05z" opacity="1" data-original="#cc8621"></path><path fill="#bced24" d="M39.33 118.84c3.67.64 6.13-1.82 5.5-5.5-3.67-.64-6.13 1.82-5.5 5.5z" opacity="1" data-original="#bced24" class=""></path><path fill="#96cc0a" d="m44.83 113.34-.24-.03c.35 3.33-1.94 5.52-5.32 5.06.02.16.03.31.06.47 3.68.63 6.14-1.83 5.5-5.5z" opacity="1" data-original="#96cc0a"></path><path fill="#bced24" d="M39.1 112.74c3.05-2.15 3.05-5.63 0-7.78-3.04 2.15-3.04 5.63 0 7.78z" opacity="1" data-original="#bced24" class=""></path><path fill="#96cc0a" d="M39.1 112.13c-1.42-1-2.16-2.28-2.27-3.59-.12 1.51.63 3.04 2.27 4.19 1.63-1.15 2.38-2.68 2.27-4.19-.1 1.31-.85 2.6-2.27 3.59z" opacity="1" data-original="#96cc0a"></path><path fill="#bced24" d="M39 118.84c-3.67.64-6.13-1.82-5.5-5.5 3.68-.64 6.14 1.82 5.5 5.5z" opacity="1" data-original="#bced24" class=""></path><path fill="#96cc0a" d="M34.01 113.28c-.17.02-.34.03-.51.06-.64 3.67 1.82 6.14 5.5 5.5.03-.15.04-.29.05-.44-3.24.32-5.39-1.87-5.04-5.12z" opacity="1" data-original="#96cc0a"></path><path fill="#e4a426" d="M14.7 116.94c-.38 0-.69-.42-.69-.93v-12.36c0-.52.31-.93.69-.93s.69.42.69.93v12.36c0 .52-.31.93-.69.93z" opacity="1" data-original="#e4a426"></path><path fill="#cc8621" d="M15.16 116.43c-.38 0-.69-.42-.69-.93v-12.36c0-.14.02-.26.06-.38-.29.1-.52.45-.52.89v12.36c0 .52.31.93.69.93.28 0 .52-.23.62-.56-.05.03-.1.05-.16.05z" opacity="1" data-original="#cc8621"></path><path fill="#bced24" d="M14.93 110.62c3.67.64 6.13-1.82 5.5-5.5-3.67-.63-6.13 1.83-5.5 5.5z" opacity="1" data-original="#bced24" class=""></path><path fill="#96cc0a" d="m20.43 105.12-.24-.03c.35 3.33-1.94 5.52-5.32 5.06.02.16.03.31.06.47 3.68.64 6.14-1.82 5.5-5.5z" opacity="1" data-original="#96cc0a"></path><path fill="#bced24" d="M14.7 104.52c3.05-2.15 3.05-5.63 0-7.78-3.04 2.15-3.04 5.63 0 7.78z" opacity="1" data-original="#bced24" class=""></path><path fill="#96cc0a" d="M14.7 103.92c-1.42-1-2.16-2.28-2.27-3.59-.12 1.51.63 3.04 2.27 4.19 1.63-1.15 2.38-2.68 2.27-4.19-.1 1.31-.85 2.59-2.27 3.59z" opacity="1" data-original="#96cc0a"></path><path fill="#bced24" d="M14.6 110.62c-3.67.64-6.13-1.82-5.5-5.5 3.68-.63 6.14 1.83 5.5 5.5z" opacity="1" data-original="#bced24" class=""></path><path fill="#96cc0a" d="M9.61 105.06c-.17.02-.34.03-.51.06-.64 3.67 1.82 6.14 5.5 5.5.03-.15.04-.29.05-.44-3.23.32-5.39-1.86-5.04-5.12z" opacity="1" data-original="#96cc0a"></path><path fill="#e4a426" d="M104.49 103.74c-.38 0-.69-.42-.69-.93V90.45c0-.52.31-.93.69-.93s.69.42.69.93v12.36c-.01.51-.31.93-.69.93z" opacity="1" data-original="#e4a426"></path><path fill="#cc8621" d="M104.94 103.23c-.38 0-.69-.42-.69-.93V89.94c0-.14.02-.26.06-.38-.29.1-.52.45-.52.89v12.36c0 .52.31.93.69.93.28 0 .52-.23.62-.56-.04.03-.1.05-.16.05z" opacity="1" data-original="#cc8621"></path><path fill="#bced24" d="M104.72 97.42c3.67.64 6.13-1.82 5.5-5.5-3.68-.64-6.14 1.82-5.5 5.5z" opacity="1" data-original="#bced24" class=""></path><path fill="#96cc0a" d="m110.22 91.92-.24-.03c.35 3.33-1.94 5.52-5.32 5.06.02.16.03.31.06.47 3.67.64 6.13-1.83 5.5-5.5z" opacity="1" data-original="#96cc0a"></path><path fill="#bced24" d="M104.49 91.32c3.05-2.15 3.05-5.63 0-7.78-3.05 2.15-3.05 5.63 0 7.78z" opacity="1" data-original="#bced24" class=""></path><path fill="#96cc0a" d="M104.49 90.72c-1.42-1-2.16-2.28-2.27-3.59-.12 1.51.63 3.04 2.27 4.19 1.63-1.15 2.38-2.68 2.27-4.19-.11 1.31-.86 2.59-2.27 3.59z" opacity="1" data-original="#96cc0a"></path><path fill="#bced24" d="M104.39 97.42c-3.67.64-6.13-1.82-5.5-5.5 3.67-.64 6.14 1.82 5.5 5.5z" opacity="1" data-original="#bced24" class=""></path><path fill="#96cc0a" d="M99.4 91.86c-.17.02-.34.03-.51.06-.64 3.67 1.82 6.14 5.5 5.5.03-.15.04-.29.05-.44-3.24.32-5.4-1.86-5.04-5.12z" opacity="1" data-original="#96cc0a"></path></g></svg>