<svg xmlns="http://www.w3.org/2000/svg" version="1.1" xmlns:xlink="http://www.w3.org/1999/xlink" width="512" height="512" x="0" y="0" viewBox="0 0 64 64" style="enable-background:new 0 0 512 512" xml:space="preserve" class=""><g><rect width="58" height="4" x="3" y="57" fill="#cd882c" rx="2" opacity="1" data-original="#7cb342"></rect><path fill="#679f42" d="M5 59h54c.738 0 1.376.405 1.723 1A1.98 1.98 0 0 0 61 59a2 2 0 0 0-2-2H5a2 2 0 0 0-2 2c0 .366.106.705.277 1 .347-.595.985-1 1.723-1z" opacity="1" data-original="#679f42"></path><path fill="#cd882c" d="M50.644 13.33c-2.906-1.884-6.704-2.22-10.012-.537-3.31 1.683-5.275 4.95-5.464 8.408 2.906 1.884 6.704 2.22 10.013.537 3.308-1.683 5.274-4.95 5.463-8.408z" opacity="1" data-original="#7cb342"></path><path fill="#679f42" d="M39.632 14.793c3.308-1.682 7.106-1.347 10.012.537a10.095 10.095 0 0 1-.642 2.98 10.098 10.098 0 0 0 1.642-4.98c-2.906-1.884-6.704-2.22-10.012-.537-2.33 1.185-3.975 3.16-4.822 5.429a9.948 9.948 0 0 1 3.822-3.429z" opacity="1" data-original="#679f42"></path><path fill="#cd882c" d="M16.984 7.513c3.347-.892 7.062-.034 9.687 2.59 2.624 2.625 3.482 6.34 2.59 9.687-3.346.891-7.061.034-9.686-2.59-2.625-2.626-3.482-6.34-2.59-9.687z" opacity="1" data-original="#7cb342"></path><path fill="#679f42" d="M17.984 9.513c3.347-.892 7.062-.034 9.687 2.59a9.97 9.97 0 0 1 1.314 1.66 9.937 9.937 0 0 0-2.314-3.66c-2.625-2.624-6.34-3.482-9.687-2.59a10.037 10.037 0 0 0 1.277 8.026 10.082 10.082 0 0 1-.277-6.026z" opacity="1" data-original="#679f42"></path><path fill="#cd882c" d="M40.124 3.02c-2.202-.173-4.433.794-5.776 2.744s-1.452 4.379-.506 6.375a6.392 6.392 0 0 0 5.776-2.744 6.392 6.392 0 0 0 .506-6.375z" opacity="1" data-original="#7cb342"></path><path fill="#679f42" d="M34.348 7.764a6.392 6.392 0 0 1 5.776-2.744 6.44 6.44 0 0 1 .532 1.748 6.43 6.43 0 0 0-.532-3.748 6.392 6.392 0 0 0-5.776 2.744 6.354 6.354 0 0 0-1.038 4.626 6.334 6.334 0 0 1 1.038-2.626z" opacity="1" data-original="#679f42"></path><path fill="#aed580" d="M42.756 16.277c-.085.013-6.5 1.055-9.997 5.725.849-10.615 4.703-13.536 4.789-13.598a1 1 0 0 0-1.12-1.656c-.238.158-4.268 3.01-5.488 13.264-2.52-4.37-7.053-7.073-7.313-7.224a1 1 0 0 0-1.009 1.727c.077.045 7.731 4.602 7.977 10.966-.026 2.835.118 6.062.54 9.754-2.144.685-7.562 2.876-8.369 7.72a1 1 0 0 0 1.973.328c.305-1.83 1.573-3.199 2.993-4.192.47.903 1.091 2.497.876 4.39a1 1 0 0 0 1.987.225c.28-2.462-.525-4.494-1.135-5.633 1.59-.785 2.971-1.131 3.002-1.138.494-.12.82-.59.76-1.094-.042-.34-.075-.664-.112-.996 1.11.321 2.778.946 4.293 2.051-.97.878-2.224 2.443-2.352 4.742a1 1 0 1 0 1.997.111c.098-1.767 1.155-2.923 1.856-3.508.917 1.02 1.64 2.305 1.923 3.922a1 1 0 1 0 1.97-.346c-1.146-6.549-7.675-8.589-9.9-9.1a76.19 76.19 0 0 1-.283-5.013c.863-7.874 10.051-9.389 10.444-9.45a1 1 0 0 0-.302-1.977zM15.02 53.517a1 1 0 0 1-1-1V35.753a1 1 0 1 1 2 0v16.764a1 1 0 0 1-1 1z" opacity="1" data-original="#aed580" class=""></path><path fill="#cd882c" d="M15.02 27.364c-1.783 1.032-2.985 2.956-2.985 5.165s1.202 4.132 2.985 5.165c1.783-1.033 2.985-2.957 2.985-5.165s-1.202-4.133-2.985-5.165z" opacity="1" data-original="#7cb342"></path><path fill="#aed580" d="M49.437 53.517a1 1 0 0 1-1-1V36.168a1 1 0 1 1 2 0v16.349a1 1 0 0 1-1 1z" opacity="1" data-original="#aed580" class=""></path><path fill="#6d4d42" d="M57.208 57s-10.396-7.736-25.555-7.647C16.495 49.264 6.793 57 6.793 57z" opacity="1" data-original="#6d4d42"></path><path fill="#4e342e" d="M31.653 52.353c8.714-.05 15.848 2.483 20.345 4.647h5.21s-10.396-7.736-25.555-7.647C16.495 49.264 6.793 57 6.793 57h4.94a43.9 43.9 0 0 1 19.92-4.647z" opacity="1" data-original="#4e342e"></path><path fill="#cd882c" d="M49.437 27.364a5.963 5.963 0 0 1 2.985 5.165 5.963 5.963 0 0 1-2.985 5.165c-1.783-1.033-2.985-2.957-2.985-5.165s1.202-4.133 2.985-5.165z" opacity="1" data-original="#7cb342"></path></g></svg>