<?xml version="1.0" encoding="UTF-8" standalone="no"?>
<!-- Created with Inkscape (http://www.inkscape.org/) -->

<svg
   version="1.1"
   id="svg1260"
   width="682.66669"
   height="682.66669"
   viewBox="0 0 682.66669 682.66669"
   xmlns="http://www.w3.org/2000/svg"
   xmlns:svg="http://www.w3.org/2000/svg">
  <defs
     id="defs1264">
    <clipPath
       clipPathUnits="userSpaceOnUse"
       id="clipPath1274">
      <path
         d="M 0,512 H 512 V 0 H 0 Z"
         id="path1272" />
    </clipPath>
  </defs>
  <g
     id="g1266"
     transform="matrix(1.3333333,0,0,-1.3333333,0,682.66667)">
    <g
       id="g1268">
      <g
         id="g1270"
         clip-path="url(#clipPath1274)">
        <g
           id="g1276"
           transform="translate(237.8389,5.8489)">
          <path
             d="m 0,0 c -3.812,0 -7.073,2.892 -7.455,6.764 -5.982,60.639 -19.198,170.631 -40.505,225.972 -1.488,3.865 0.439,8.205 4.305,9.694 3.868,1.487 8.205,-0.44 9.693,-4.305 C -24.544,213.663 -6.637,151.269 7.473,8.237 7.879,4.115 4.867,0.443 0.745,0.037 0.495,0.012 0.246,0 0,0"
             style="fill:#4a9453;fill-opacity:1;fill-rule:nonzero;stroke:none"
             id="path1278" />
        </g>
        <g
           id="g1280"
           transform="translate(243.1611,5.8494)">
          <path
             d="m 0,0 c -0.08,0 -0.161,0.001 -0.242,0.004 -4.14,0.131 -7.39,3.594 -7.258,7.734 2.073,65.204 7.976,125.627 17.544,179.591 8.328,46.971 19.018,86.273 30.914,113.659 1.649,3.799 6.065,5.541 9.867,3.891 3.799,-1.65 5.541,-6.068 3.891,-9.867 C 24.427,225.281 10.462,100.648 7.492,7.262 7.363,3.203 4.032,0 0,0"
             style="fill:#4a9453;fill-opacity:1;fill-rule:nonzero;stroke:none"
             id="path1282" />
        </g>
        <g
           id="g1284"
           transform="translate(383.9255,137.0229)">
          <path
             d="m 0,0 c -3.671,-29.368 -21.694,-56.325 -50.31,-70.169 -28.605,-13.843 -60.925,-11.256 -86.234,4.092 3.682,29.345 21.694,56.303 50.31,70.146 C -57.619,17.924 -25.299,15.325 0,0"
             style="fill:#74bd95;fill-opacity:1;fill-rule:nonzero;stroke:none"
             id="path1286" />
        </g>
        <g
           id="g1288"
           transform="translate(353.2088,242.8507)">
          <path
             d="m 0,0 c -2.399,-19.206 -14.186,-36.831 -32.895,-45.887 -18.709,-9.056 -39.839,-7.353 -56.391,2.676 2.41,19.195 14.186,36.82 32.895,45.876 C -37.683,11.721 -16.541,10.018 0,0"
             style="fill:#74bd95;fill-opacity:1;fill-rule:nonzero;stroke:none"
             id="path1290" />
        </g>
        <g
           id="g1292"
           transform="translate(353.2088,242.8507)">
          <path
             d="m 0,0 c -2.399,-19.206 -14.186,-36.831 -32.895,-45.887 -18.709,-9.056 -39.839,-7.353 -56.391,2.676 z"
             style="fill:#4a9453;fill-opacity:1;fill-rule:nonzero;stroke:none"
             id="path1294" />
        </g>
        <g
           id="g1296"
           transform="translate(220.2358,132.8654)">
          <path
             d="m 0,0 c -17.404,-14.728 -41.696,-20.61 -65.16,-13.523 -23.463,7.077 -40.436,25.42 -46.782,47.325 17.404,14.739 41.696,20.621 65.159,13.545 C -23.32,40.259 -6.347,21.915 0,0"
             style="fill:#74bd95;fill-opacity:1;fill-rule:nonzero;stroke:none"
             id="path1298" />
        </g>
        <g
           id="g1300"
           transform="translate(220.2358,132.8654)">
          <path
             d="m 0,0 c -17.404,-14.728 -41.696,-20.61 -65.16,-13.523 -23.463,7.077 -40.436,25.42 -46.782,47.325 z"
             style="fill:#4a9453;fill-opacity:1;fill-rule:nonzero;stroke:none"
             id="path1302" />
        </g>
        <g
           id="g1304"
           transform="translate(230.5849,437.044)">
          <path
             d="m 0,0 c 5.891,-33.67 -16.629,-65.74 -50.299,-71.631 -33.67,-5.891 -65.741,16.629 -71.631,50.299 -5.891,33.67 16.629,65.741 50.299,71.631 C -37.961,56.19 -5.891,33.67 0,0"
             style="fill:#ffe261;fill-opacity:1;fill-rule:nonzero;stroke:none"
             id="path1306" />
        </g>
        <g
           id="g1308"
           transform="translate(148.2666,360.7673)">
          <path
             d="M 0,0 C -0.862,0 -1.738,0.15 -2.594,0.465 -25.736,9 -42.751,29.379 -46.997,53.649 -53.59,91.339 -28.291,127.366 9.399,133.96 38.615,139.074 67.845,125.063 82.142,99.1 84.139,95.471 82.817,90.91 79.188,88.912 75.563,86.914 71,88.236 69.001,91.864 57.797,112.213 34.886,123.192 11.984,119.184 -17.559,114.016 -37.39,85.777 -32.222,56.234 -28.893,37.208 -15.551,21.232 2.597,14.539 6.482,13.105 8.471,8.793 7.038,4.907 5.92,1.876 3.052,0 0,0"
             style="fill:#f2a918;fill-opacity:1;fill-rule:nonzero;stroke:none"
             id="path1310" />
        </g>
        <g
           id="g1312"
           transform="translate(166.4717,435.3865)">
          <path
             d="m 0,0 c -5.078,1.046 -8.15,2.44 -8.834,6.345 -0.606,3.468 1.642,6.283 6.335,7.939 z m 10.885,-31.131 -2.886,16.494 c 3.951,-0.999 7.685,-2.627 8.535,-7.485 0.708,-4.051 -1.298,-7.245 -5.649,-9.009 m 17.478,12.375 C 26.108,-5.865 16.308,-2.986 6.44,-1.165 l -2.941,16.81 c 3.763,0.349 6.234,-0.406 8.223,-1.015 1.425,-0.435 2.552,-0.78 3.695,-0.579 2.045,0.358 3.066,1.973 3.563,3.265 0.649,1.684 0.674,3.451 0.499,4.453 -0.996,5.689 -11.663,5.741 -17.903,4.868 l -0.42,2.396 c -0.11,0.634 -0.617,1.215 -1.389,1.592 -0.752,0.367 -1.652,0.496 -2.467,0.353 -1.85,-0.324 -3.21,-1.761 -2.969,-3.139 l 0.456,-2.601 C -10.813,23.469 -23.259,17.81 -20.664,2.979 -18.48,-9.503 -7.869,-11.518 1.523,-13.27 l 3.33,-19.029 c -4.966,-0.266 -8.36,1.543 -11.092,2.996 -1.998,1.062 -3.574,1.902 -5.146,1.626 -1.407,-0.247 -2.653,-1.351 -3.51,-3.11 -0.751,-1.545 -1.067,-3.367 -0.824,-4.755 0.955,-5.462 10.825,-10.253 22.631,-8.529 l 0.453,-2.589 c 0.114,-0.649 0.593,-1.234 1.316,-1.604 0.526,-0.27 1.136,-0.409 1.771,-0.409 0.254,0 0.513,0.023 0.771,0.068 1.754,0.306 3.196,1.832 2.967,3.138 l -0.505,2.895 c 11.29,3.94 16.638,12.614 14.678,23.816"
             style="fill:#f2a918;fill-opacity:1;fill-rule:nonzero;stroke:none"
             id="path1314" />
        </g>
        <g
           id="g1316"
           transform="translate(383.9255,137.0229)">
          <path
             d="m 0,0 c -3.671,-29.368 -21.694,-56.325 -50.31,-70.169 -28.605,-13.843 -60.925,-11.256 -86.234,4.092 z"
             style="fill:#4a9453;fill-opacity:1;fill-rule:nonzero;stroke:none"
             id="path1318" />
        </g>
        <g
           id="g1320"
           transform="translate(404.9702,385.9086)">
          <path
             d="m 0,0 c 8.812,54.133 -27.929,105.161 -82.062,113.972 -54.134,8.812 -105.161,-27.929 -113.973,-82.062 -8.811,-54.134 27.929,-105.161 82.063,-113.972 C -59.839,-90.874 -8.812,-54.133 0,0"
             style="fill:#ffe261;fill-opacity:1;fill-rule:nonzero;stroke:none"
             id="path1322" />
        </g>
        <g
           id="g1324"
           transform="translate(306.9014,493.6794)">
          <path
             d="m 0,0 c -44.187,0 -83.239,-32.072 -90.563,-77.066 -8.133,-49.965 25.9,-97.231 75.865,-105.365 4.97,-0.809 9.92,-1.201 14.802,-1.201 44.185,-0.002 83.238,32.072 90.562,77.066 v 0 c 3.94,24.204 -1.781,48.494 -16.11,68.395 -14.329,19.9 -35.55,33.03 -59.754,36.97 C 9.831,-0.392 4.882,0 0,0 m 0.111,-198.633 c -5.681,0 -11.432,0.455 -17.219,1.397 -58.129,9.462 -97.722,64.451 -88.26,122.58 9.462,58.129 64.447,97.72 122.58,88.26 28.158,-4.584 52.847,-19.858 69.517,-43.011 16.669,-23.152 23.326,-51.41 18.742,-79.569 v 0 c -8.52,-52.342 -53.958,-89.657 -105.36,-89.657"
             style="fill:#f2a918;fill-opacity:1;fill-rule:nonzero;stroke:none"
             id="path1326" />
        </g>
        <g
           id="g1328"
           transform="translate(309.749,444.9595)">
          <path
             d="m 0,0 -4.523,-27.788 c -7.48,4.547 -11.844,8.974 -10.562,16.856 C -13.968,-4.07 -8.752,-0.292 0,0 m -1.297,-85.259 5.249,32.242 c 5.416,-3.807 10.673,-9.038 9.078,-18.841 -1.282,-7.87 -6.234,-12.501 -14.327,-13.401 M 30.974,7.94 c -4.186,2.409 -10.066,4.532 -16.15,5.834 l 1.302,8.001 c 0.267,1.637 -0.12,3.28 -1.089,4.626 -0.97,1.346 -2.405,2.234 -4.042,2.5 C 7.606,29.455 4.419,27.149 3.869,23.77 L 2.495,15.326 c -8.426,0.252 -15.883,-1.466 -21.562,-4.977 -6.921,-4.278 -11.184,-11.084 -12.672,-20.227 -1.472,-9.039 0.471,-16.507 5.939,-22.831 4.708,-5.445 11.353,-9.357 18.325,-13.208 l -6.194,-38.057 c -9.164,2.637 -13.659,7.921 -16.945,11.785 -2.069,2.431 -3.702,4.352 -5.739,4.684 -3.988,0.648 -8.4,-3.986 -9.068,-8.098 -0.65,-3.994 1.952,-9.107 6.962,-13.678 5.6,-5.108 13.474,-8.905 22.185,-10.7 l -1.408,-8.643 c -0.266,-1.637 0.12,-3.28 1.089,-4.626 0.97,-1.346 2.405,-2.234 4.042,-2.5 0.338,-0.055 0.676,-0.083 1.012,-0.083 1.29,0 2.546,0.403 3.614,1.172 1.346,0.969 2.234,2.405 2.5,4.042 l 1.511,9.279 c 8.759,0.023 16.385,2.44 22.06,6.992 6.143,4.929 10.035,12.195 11.564,21.598 3.495,21.468 -9.871,31.124 -22.707,38.477 l 5.351,32.87 c 6.026,-1.649 9.662,-4.264 12.321,-6.177 1.836,-1.321 3.286,-2.364 4.816,-2.613 2.754,-0.451 4.808,1.176 6.046,2.619 1.64,1.909 2.48,4.173 2.7,5.531 0.566,3.471 -1.946,6.923 -7.263,9.983"
             style="fill:#f2a918;fill-opacity:1;fill-rule:nonzero;stroke:none"
             id="path1330" />
        </g>
        <g
           id="g1332"
           transform="translate(246.1907,324.5548)">
          <path
             d="m 0,0 c 9.377,-36.613 -12.701,-73.896 -49.314,-83.273 -36.613,-9.378 -73.896,12.701 -83.274,49.314 -9.377,36.613 12.702,73.896 49.315,83.273 C -46.66,58.692 -9.377,36.613 0,0"
             style="fill:#ffe261;fill-opacity:1;fill-rule:nonzero;stroke:none"
             id="path1334" />
        </g>
        <g
           id="g1336"
           transform="translate(180.002,368.5342)">
          <path
             d="m 0,0 c -5.073,0 -10.18,-0.639 -15.223,-1.93 -15.767,-4.039 -29.018,-13.976 -37.311,-27.98 -8.294,-14.005 -10.638,-30.4 -6.599,-46.167 4.038,-15.767 13.975,-29.018 27.979,-37.312 14.005,-8.293 30.4,-10.636 46.167,-6.598 15.767,4.038 29.018,13.975 37.311,27.979 8.294,14.005 10.638,30.401 6.599,46.168 C 54.885,-30.073 44.948,-16.823 30.944,-8.529 21.419,-2.888 10.787,0 0,0 m -0.236,-136.924 c -13.444,0 -26.691,3.599 -38.561,10.629 -17.452,10.335 -29.835,26.848 -34.867,46.496 -5.032,19.648 -2.112,40.08 8.223,57.532 10.335,17.452 26.847,29.835 46.497,34.867 19.644,5.034 40.079,2.113 57.531,-8.222 17.452,-10.336 29.835,-26.848 34.867,-46.496 5.032,-19.649 2.112,-40.081 -8.223,-57.533 -10.335,-17.452 -26.847,-29.835 -46.496,-34.867 -6.284,-1.61 -12.65,-2.406 -18.971,-2.406"
             style="fill:#f2a918;fill-opacity:1;fill-rule:nonzero;stroke:none"
             id="path1338" />
        </g>
        <g
           id="g1340"
           transform="translate(190.3115,283.8313)">
          <path
             d="M 0,0 -4.603,17.971 C -0.149,17.208 4.121,15.735 5.478,10.437 6.608,6.022 4.663,2.32 0,0 m -14.64,33.39 c -5.704,0.718 -9.22,1.992 -10.311,6.25 -0.969,3.781 1.276,7.085 6.324,9.316 z M 18.204,15.154 C 14.615,29.168 3.563,31.499 -7.468,32.661 l -4.688,18.301 c 4.13,0.712 6.922,0.09 9.173,-0.412 1.605,-0.357 2.873,-0.639 4.116,-0.322 2.217,0.568 3.203,2.432 3.639,3.896 0.57,1.909 0.446,3.857 0.167,4.944 -1.584,6.181 -13.352,5.32 -20.15,3.821 l -0.67,2.618 c -0.362,1.414 -2.499,2.29 -4.403,1.804 -0.978,-0.25 -1.83,-0.781 -2.4,-1.496 -0.556,-0.698 -0.773,-1.501 -0.593,-2.202 l 0.727,-2.84 c -6.012,-2.424 -19.259,-9.724 -15.129,-25.85 3.475,-13.568 15.347,-14.877 25.849,-16.003 l 5.306,-20.717 c -5.463,-0.719 -9.365,0.983 -12.507,2.352 -2.291,0.999 -4.1,1.787 -5.802,1.351 -1.526,-0.391 -2.803,-1.712 -3.594,-3.721 -0.695,-1.764 -0.887,-3.797 -0.502,-5.305 1.52,-5.935 12.81,-10.366 25.676,-7.451 l 0.725,-2.828 c 0.304,-1.19 1.651,-1.957 3.201,-1.956 0.391,0 0.797,0.049 1.202,0.152 0.885,0.227 1.73,0.764 2.318,1.473 0.605,0.729 0.851,1.54 0.675,2.226 l -0.808,3.158 c 12.108,5.306 17.263,15.324 14.144,27.5"
             style="fill:#f2a918;fill-opacity:1;fill-rule:nonzero;stroke:none"
             id="path1342" />
        </g>
        <g
           id="g1344"
           transform="translate(338.3379,5.8481)">
          <path
             d="m 0,0 h -188.989 c -4.143,0 -7.5,3.358 -7.5,7.5 0,4.142 3.357,7.5 7.5,7.5 H 0 C 4.143,15 7.5,11.642 7.5,7.5 7.5,3.358 4.143,0 0,0"
             style="fill:#87604d;fill-opacity:1;fill-rule:nonzero;stroke:none"
             id="path1346" />
        </g>
      </g>
    </g>
  </g>
</svg>
