<svg xmlns="http://www.w3.org/2000/svg" version="1.1" xmlns:xlink="http://www.w3.org/1999/xlink" width="512" height="512" x="0" y="0" viewBox="0 0 4000 4000" style="enable-background:new 0 0 512 512" xml:space="preserve" class=""><g><path fill="#a0bcf4" d="M1169.519 2138.496c-14.794-9.226-31.87-14.102-49.378-14.102-32.628 0-61.398 16.811-78.119 42.223a344.248 344.248 0 0 1 55.854-4.553c38.437 0 75.916 6.293 111.731 18.688v-5.635c0-10.723-1.505-21.209-4.4-31.225-11.709 3.071-24.605 1.513-35.688-5.396z" opacity="1" data-original="#a0f2f4"></path><path fill="#ffffff" d="M1120.141 2124.394c17.509 0 34.584 4.876 49.378 14.102 11.083 6.909 23.979 8.468 35.687 5.396a110.172 110.172 0 0 0-12.135-27.353 27.305 27.305 0 0 1-2.506-3.875c-3.96-5.846-8.5-11.36-13.6-16.46-21.134-21.134-49.206-32.773-79.044-32.773-38.862 0-73.146 19.957-93.159 50.155-.42.723-.879 1.43-1.372 2.12-10.86 17.219-17.155 37.592-17.155 59.41v5.627a337.782 337.782 0 0 1 55.785-14.127c16.723-25.411 45.493-42.222 78.121-42.222z" opacity="1" data-original="#ffffff"></path><path fill="#fad37d" d="M1097.876 2216.759c-32.863 0-64.447 5.565-93.878 15.775 2.221 15.525-3.624 31.781-16.803 42.224-64.875 51.402-102.083 128.273-102.083 210.903v112.695H1385.032v-94.442c-.001-158.337-128.818-287.155-287.156-287.155z" opacity="1" data-original="#fad37d"></path><path fill="#a0bcf4" d="M1070.528 3482.034v-828.98H882.815v402.807c0 21.983 1.415 43.894 4.204 65.124 3.279 24.959-14.296 47.851-39.255 51.129a45.958 45.958 0 0 1-5.995.394c-4.045 0-7.992-.546-11.768-1.563 23.018 80.131 66.578 153.713 130.316 219.853 40.78 42.316 81.555 72.517 110.211 91.236zM1385.031 2653.053h-259.807v828.92c29.045-18.988 70.492-49.7 111.53-92.549 98.389-102.731 148.277-223.321 148.277-358.421z" opacity="1" data-original="#a0f2f4"></path><g fill="#8eed8e"><path d="M3004.283 2026.759c-58.485 18.098-92.974 63.819-112.605 103.441 72.662 19.949 137.555 24.47 187.415 12.497 61.127-14.794 108.563-49.648 139.712-79.232-56.241-25.012-148.472-57.316-214.522-36.706zM2747.993 1914.685a292.684 292.684 0 0 0 4.801-9.084c-52.375-10.293-140.3-19.984-203.778 12.183-52.097 26.276-78.813 73.766-92.482 113.603 75.93 8.12 141.612 1.801 189.389-18.754 41.799-18.059 76.153-51.019 102.07-97.948zM2951.573 2422.707c-22.307-50.605-71.467-86.613-108.777-107.905-25.764-14.703-49.95-24.895-66.517-31.01-4.505 14.157-9.826 34.174-13.164 57.049-5.352 36.682-6.789 90.269 16.754 137.253 25.695 51.385 80.792 99.264 156.253 136.171 20.677-43.785 46.447-121.11 15.451-191.558zM2578.209 2500.49c13.573-46.521 27.139-127.145-14.005-191.191-29.471-45.827-83.104-72.954-122.907-87.64-27.53-10.157-52.86-16.153-70.064-19.409-2.255 14.701-4.419 35.397-4.165 58.639.404 36.978 7.249 89.926 37.562 132.182 33.109 46.229 94.29 83.969 173.579 107.419zM3431.934 2479.433c-28.19-58.438-65.729-102.175-111.571-129.993-45.696-27.78-100.687-40.394-163.467-37.527-25.303 1.159-46.883 4.667-62.512 8.012 22.968 50.316 69.008 131.61 141.502 175.907 72.187 43.573 164.612 47.176 219.774 44.474-4.949-16.299-12.652-37.916-23.726-60.873zM2190.065 672.661c-29.575 44.747-31.133 94.317-25.021 133.262 75.98-31.711 134.385-71.745 167.516-115.466 31.59-41.844 46.987-88.442 54.328-127.483-96.098 25.142-167.141 64.546-196.823 109.687zM1933.129 730.956c-47.227 23.748-132.88 74.898-164.24 146.051-17.734 40.034-19.176 84.442-4.372 132.213 72.07-44.417 124.713-94.774 150.586-144.736 19.959-38.684 26.012-83.589 18.026-133.528zM2520.946 1145.79c-11.767-46.97-40.857-123.108-109.491-157.94-49.333-24.995-110.18-21.676-152.533-14.49-29.245 4.963-54.411 12.414-71.101 18.188 5.491 13.805 14.066 32.658 25.987 52.465 19.115 31.76 51.977 74.115 99.97 95.526 52.448 23.447 125.409 25.546 207.168 6.251zM1969.68 1311.672c54.914 14.761 126.154 5.161 202.339-26.969-18.995-44.583-59.618-115.534-132.038-138.983-51.846-16.756-110.521-3.734-150.613 10.143-27.729 9.598-51.12 21.019-66.489 29.408 7.576 12.799 19.023 30.177 33.955 47.99 23.754 28.34 62.615 64.948 112.846 78.411zM1850.978 1477.335c-25.687-41.019-76.844-104.832-151.522-116.317-53.349-8.188-108.79 14.22-145.904 34.46-25.782 14.061-46.992 29.232-60.748 40.046 9.202 11.182 23.053 26.493 41.081 42.158 27.797 24.153 71.716 54.023 123.088 59.165 56.265 5.67 124.558-15.385 194.005-59.512zM2456.74 817.825c.462.227.934.455 1.402.684.208-1.143.471-2.278.79-3.402-.751.922-1.485 1.832-2.192 2.718zM2697.275 746.039c-81.361 11.5-142.081 65.824-172.76 99.645 45.41 15.094 99.893 25.884 153.179 18.474 72.851-10.538 138.331-54.418 181.028-90.048-43.382-19.843-100.848-36.689-161.447-28.071zM1529.368 971.264c-45.571 32.452-123.69 97.751-143.835 175.684-10.634 40.887-5.795 83.594 14.37 126.989.369.795.696 1.598 1.004 2.405 67.201-57.373 113.169-117.863 131.074-173.237 13.069-40.598 12.182-84.915-2.613-131.841z" fill="#8eed8e" opacity="1" data-original="#8eed8e"></path></g><ellipse cx="2080.188" cy="3376.212" fill="#ff7d79" rx="126.26" ry="126.259" transform="rotate(-80.8 2079.593 3376.39)" opacity="1" data-original="#ff7d79"></ellipse><path fill="#ff7d79" d="M2120.349 1766.093c-25.694 0-49.688 10.165-67.562 28.624-17.873 18.458-27.261 42.767-26.435 68.447l37.092 1151.923a54.434 54.434 0 0 1-8.728 31.432 85.144 85.144 0 0 0 25.471 3.88c45.764 0 82.766-35.829 84.238-81.569l37.091-1151.923c1.012-31.429-9.837-61.262-30.628-84.58-8.217 19.821-27.746 33.766-50.539 33.766z" opacity="1" data-original="#ff7d79"></path><path fill="#333333" d="M1683.847 2731.167h-244.121v-170.836h122.743c15.104 0 27.348-12.244 27.348-27.348v-240.256l86.528-86.528c10.68-10.68 10.68-27.996 0-38.676s-27.996-10.68-38.676 0l-94.538 94.538a27.348 27.348 0 0 0-8.01 19.338v224.236h-95.395v-1.722c0-46.15-9.04-90.93-26.867-133.093-17.215-40.714-41.857-77.271-73.239-108.653-22.555-22.555-47.795-41.606-75.318-56.942v-30.11c0-24.803-5.386-48.765-15.595-70.557l174.943-174.942c10.68-10.68 10.68-27.996 0-38.676-10.679-10.68-27.995-10.68-38.676 0l-167.977 167.977c-.453-.463-.898-.931-1.356-1.39-31.465-31.465-73.272-48.794-117.72-48.794-46.602 0-88.782 19.267-119.017 50.243l-168.037-168.037c-10.68-10.681-27.996-10.681-38.676 0-10.68 10.68-10.68 27.996 0 38.676l175.031 175.031c-10.052 21.411-15.683 45.292-15.683 70.468l-.007 30.091c8.052-1.964 16.096-6.711 22.602-11.499a341.117 341.117 0 0 0-33.68 17.942c-23.249 14.129-44.75 31.019-64.253 50.515-31.398 31.386-56.054 67.94-73.281 108.648-17.847 42.171-26.896 86.952-26.896 133.101v1.722h-95.303V2281.4a27.348 27.348 0 0 0-8.01-19.338l-94.539-94.538c-10.68-10.68-27.996-10.68-38.676 0s-10.68 27.996 0 38.676l86.528 86.528v240.256c0 15.104 12.244 27.348 27.348 27.348h122.651v170.836h-244.03c-15.104 0-27.348 12.244-27.348 27.348v130.227c0 15.104 12.244 27.348 27.348 27.348s27.348-12.244 27.348-27.348v-102.879h216.682v157.165H634.477c-15.104 0-27.348 12.244-27.348 27.348v356.932L492.658 3441.78c-10.68 10.68-10.68 27.996 0 38.676 5.34 5.34 12.339 8.01 19.338 8.01s13.998-2.67 19.338-8.01l105.46-105.46c14.019-1.177 25.031-12.92 25.031-27.243v-350.028h94.2v33.28c0 82.722 17.402 161.811 51.724 235.069 27.363 58.407 65.443 113.14 113.183 162.679 81.038 84.092 161.537 123.989 164.924 125.646.194.095.392.177.588.267s.391.182.588.267c.396.171.795.329 1.197.48.148.056.295.118.444.172.549.196 1.103.375 1.66.534.132.038.265.067.398.103.434.117.869.227 1.306.322.194.042.389.079.584.117a27.088 27.088 0 0 0 2.982.414c.178.015.355.034.534.045.578.037 1.157.06 1.737.06h.002c.579 0 1.159-.023 1.738-.06.177-.011.353-.03.529-.045a26.397 26.397 0 0 0 2.996-.417c.189-.037.378-.072.567-.113.449-.098.896-.21 1.342-.331.121-.033.242-.06.363-.094.562-.161 1.12-.341 1.674-.539.135-.049.268-.105.403-.156a27.77 27.77 0 0 0 1.238-.496c.191-.083.379-.171.568-.258.199-.092.401-.175.599-.272 3.387-1.657 83.887-41.555 164.925-125.646 47.739-49.539 85.82-104.271 113.183-162.679 34.322-73.259 51.724-152.348 51.724-235.069v-33.28h94.291v350.028a27.348 27.348 0 0 0 8.01 19.338l108.799 108.799c5.34 5.34 12.339 8.01 19.338 8.01s13.998-2.67 19.338-8.01c10.68-10.68 10.68-27.996 0-38.676l-100.789-100.789v-366.048c0-15.104-12.244-27.348-27.348-27.348h-121.639v-157.165h216.772v102.879c0 15.104 12.244 27.348 27.348 27.348s27.348-12.244 27.348-27.348v-130.227c.003-15.104-12.242-27.349-27.346-27.349zm-298.816-132.81h-574.31v-94.442c0-125.475 80.902-232.396 193.276-271.38 29.432-10.21 61.016-15.775 93.878-15.775 158.338 0 287.155 128.817 287.155 287.155v94.442zm-398.795-423.24c0-21.818 6.295-42.192 17.155-59.41.492-.69.951-1.397 1.372-2.12 20.013-30.198 54.296-50.155 93.159-50.155 29.838 0 57.91 11.64 79.044 32.773a112.41 112.41 0 0 1 13.6 16.46 27.187 27.187 0 0 0 2.506 3.875 110.155 110.155 0 0 1 12.135 27.353 112.316 112.316 0 0 1 4.4 31.225v5.635c-35.815-12.395-73.294-18.688-111.731-18.688a344.23 344.23 0 0 0-55.854 4.553 337.782 337.782 0 0 0-55.785 14.127v-5.628zm-175.515 855.886v-377.95h259.806v828.98c-28.656-18.719-69.43-48.92-110.211-91.237-63.738-66.14-107.298-139.721-130.316-219.853-12.829-44.663-19.279-91.36-19.279-139.94zm314.503 450.97v-828.92h259.807v377.95c0 135.1-49.888 255.689-148.277 358.421-41.039 42.849-82.486 73.561-111.53 92.549zM2454.814 1211.842c48.707-4.155 88.087-14.969 101.027-18.522.962-.264 10.018-2.936 13.345-5.325a27.345 27.345 0 0 0 11.365-23.523c-.091-1.911-17.235-72.175-30.829-101.344-26.909-57.745-65.101-99.482-113.53-124.06-64.963-32.914-141.42-28.096-194.119-18.261-29.667 5.537-54.64 13.102-70.364 18.473-9.733 3.325-37.2 14.5-42.076 23.555-2.272 4.22-3.162 15.851-2.972 17.15 1.016 6.933 12.594 45.058 37.955 88.311 33.553 57.224 77.427 99.131 126.858 121.184 35.785 15.999 77.646 24.051 124.839 24.05 12.465-.001 25.307-.563 38.501-1.688zm-241.006-167.83c-11.921-19.807-20.496-38.66-25.987-52.465 16.689-5.773 41.855-13.225 71.101-18.188 42.354-7.186 103.2-10.505 152.533 14.49 68.634 34.832 97.725 110.97 109.491 157.94-81.759 19.295-154.72 17.196-207.168-6.252-47.994-21.41-80.855-63.765-99.97-95.525zM2024.309 1373.159c29.614 0 61.244-4.271 94.634-12.804 46.879-11.981 83.384-29.007 95.381-34.602.846-.395 8.995-4.364 11.808-7.127a27.347 27.347 0 0 0 7.645-24.914c-.395-1.957-28.514-68.932-46.431-95.567-35.493-52.767-79.405-87.913-130.528-104.465-68.691-22.202-142.667-5.137-192.628 13.087-28.093 10.248-51.293 21.752-65.808 29.598-8.979 4.854-15.511 8.77-19.41 11.201-7.762 4.839-14.465 9.018-17.853 18.452-1.623 4.518-.729 16.322-.312 17.653 2.1 6.689 19.51 42.524 51.227 81.248 41.969 51.24 91.586 85.676 143.468 99.58 21.481 5.774 44.463 8.66 68.807 8.66zm-201.43-187.889c15.369-8.389 38.76-19.81 66.489-29.408 40.092-13.876 98.767-26.899 150.613-10.143 72.42 23.449 113.043 94.4 132.038 138.983-76.186 32.13-147.426 41.73-202.339 26.969-50.232-13.462-89.092-50.071-112.847-78.412-14.93-17.812-26.378-35.19-33.954-47.989zM1910.104 1470.132c-16.444-30.221-35.838-57.433-57.644-80.882-43.23-46.488-91.911-74.176-144.697-82.294-70.951-10.891-140.914 18.042-187.108 44.233-25.954 14.716-46.913 29.884-59.925 40.017-8.045 6.265-13.841 11.207-17.287 14.249-6.765 5.974-12.607 11.132-14.495 20.752-.94 4.788 1.857 16.532 2.505 17.816 3.196 6.333 26.176 39.101 63.276 72.063 49.368 43.86 103.587 69.858 156.778 75.183a240.143 240.143 0 0 0 24.111 1.195c42.276-.001 87.846-10.684 135.812-31.88 44.073-19.475 77.083-42.224 87.93-49.699.75-.517 8.108-5.78 10.423-8.979a27.348 27.348 0 0 0 .816-30.865l-.495-.909zm-376.219 7.55c-18.028-15.664-31.879-30.976-41.081-42.158 13.756-10.815 34.966-25.986 60.748-40.046 37.114-20.24 92.556-42.647 145.904-34.46 74.678 11.485 125.835 75.298 151.522 116.317-69.447 44.127-137.741 65.182-194.005 59.512-51.372-5.142-95.291-35.012-123.088-59.165z" opacity="1" data-original="#333333" class=""></path><path fill="#333333" d="M1095.765 1943.879c15.104 0 27.348-12.244 27.348-27.348v-220.645c67.138-75.133 139.091-147.184 213.991-214.275 11.25-10.077 12.201-27.367 2.124-38.618-10.076-11.25-27.366-12.201-38.618-2.124-79.022 70.783-154.827 146.977-225.307 226.464a27.348 27.348 0 0 0-6.886 18.144v231.054c0 15.104 12.244 27.348 27.348 27.348zM2863.081 2263.476c-26.452-14.525-50.562-24.507-66.129-30.321-9.635-3.6-16.926-5.961-21.346-7.308-8.916-2.716-16.616-5.063-26.128-1.15a27.241 27.241 0 0 0-10.929 8.174 28.007 28.007 0 0 0-2.236 3.198c-3.609 6.002-18.826 42.817-26.637 92.36-10.33 65.528-2.968 125.754 21.281 174.147 22.163 44.32 59.895 84.979 112.146 120.846 40.303 27.665 77.613 44.268 89.873 49.723.911.405 14.871 4.398 15.445 4.398a27.35 27.35 0 0 0 21.961-11.055c1.138-1.532 3.173-5.39 3.35-5.709 16.604-30.004 29.068-61.024 37.048-92.2 15.798-61.717 12.721-118.207-9.151-167.918-29.373-66.635-91.555-111.381-138.548-137.185zm-83.213 214.617c-23.543-46.984-22.105-100.571-16.754-137.253 3.338-22.875 8.659-42.892 13.164-57.049 16.566 6.115 40.753 16.307 66.517 31.01 37.311 21.292 86.471 57.3 108.777 107.905 30.996 70.448 5.227 147.773-15.451 191.558-75.461-36.907-130.557-84.786-156.253-136.171zM2452.949 2167.726c-28.224-9.885-53.459-15.695-69.658-18.83-10.021-1.938-17.556-3.051-22.112-3.643-9.069-1.178-16.903-2.195-25.504 2.952a27.238 27.238 0 0 0-9.631 9.771 28.233 28.233 0 0 0-1.805 3.692c-2.616 6.508-11.868 45.268-11.888 95.307-.026 66.232 16.515 124.317 47.821 167.96 28.709 40.084 72.12 73.868 129.029 100.413 43.851 20.453 82.876 30.429 95.7 33.706.903.231 12.836 2.048 13.66 1.974a27.348 27.348 0 0 0 21.697-14.425c.935-1.763 21.646-71.379 24.675-103.336 6.004-63.312-5.675-118.331-34.719-163.543-39.046-60.718-107.073-94.419-157.265-111.998zm-81.716 34.524c17.204 3.256 42.534 9.252 70.064 19.409 39.803 14.686 93.437 41.813 122.907 87.64 41.144 64.047 27.578 144.671 14.005 191.191-79.289-23.45-140.471-61.189-173.58-107.42-30.313-42.256-37.157-95.204-37.562-132.182-.253-23.241 1.911-43.937 4.166-58.638zM3509.581 2529.753c-4.572-15.847-12.728-40.55-25.615-68.242-22.715-48.807-64.614-115.981-135.209-158.819-55.997-34.044-125.393-49.632-200.678-45.083-29.786 1.801-54.76 6.434-70.464 10.003-28.573 6.494-34.144 10.265-35.974 11.503-8.857 5.995-13.43 16.627-11.668 27.177.426 2.554 2.639 8.15 2.876 8.75 13.409 33.829 29.676 66.132 48.349 96.011 36.482 58.376 78.95 102.614 126.224 131.485.038.022.075.046.113.069 47.331 28.59 105.991 45.865 174.351 51.344a574.628 574.628 0 0 0 45.906 1.818c20.305 0 40.819-1.046 61.359-3.136.656-.067 7.145-.763 9.822-1.706 9.971-3.513 17.035-12.488 18.125-23.003.229-2.203.925-8.908-7.517-38.171zm-273.695-33.921c-72.494-44.297-118.534-125.591-141.502-175.907 15.629-3.345 37.209-6.853 62.512-8.012 62.78-2.866 117.771 9.747 163.467 37.527 45.843 27.818 83.381 71.555 111.571 129.993 11.074 22.957 18.777 44.574 23.727 60.872-55.163 2.702-147.588-.9-219.775-44.473zM2080.188 3195.257c-99.779 0-180.956 81.176-180.956 180.954 0 99.779 81.176 180.955 180.956 180.955 99.778 0 180.954-81.176 180.954-180.955 0-99.778-81.176-180.954-180.954-180.954zm0 307.214c-69.62 0-126.259-56.64-126.259-126.26 0-69.619 56.64-126.259 126.259-126.259s126.259 56.64 126.259 126.259c0 69.621-56.64 126.26-126.259 126.26z" opacity="1" data-original="#333333" class=""></path><path fill="#ffffff" d="M847.764 3172.113c24.959-3.278 42.534-26.17 39.255-51.129-2.789-21.23-4.204-43.141-4.204-65.124v-402.807h-72.094v377.95c0 48.58 6.45 95.277 19.279 139.94a45.25 45.25 0 0 0 11.768 1.563c1.979 0 3.982-.129 5.996-.393zM3004.283 2026.759c66.05-20.61 158.281 11.694 214.523 36.705 10.779-10.237 19.621-19.848 26.387-27.771-20.805-11.543-53.666-28.241-92.1-42.854-76.188-28.967-140.478-36.785-185.915-22.607-79.202 24.509-116.281 96.584-132.179 141.837 19.318 7.032 38.244 13.07 56.678 18.131 19.632-39.621 54.122-85.343 112.606-103.441zM2549.016 1917.784c63.478-32.167 151.403-22.476 203.778-12.183 8.497-16.754 14.483-32.455 18.367-44.376-19.491-5.73-50.574-13.523-86.716-18.28-49.491-6.516-119.847-8.528-173.94 18.883-74.037 37.341-99.404 114.353-108.081 161.629 18.52 3.414 36.587 6.057 54.109 7.931 13.67-39.839 40.385-87.329 92.483-113.604z" opacity="1" data-original="#ffffff"></path><path fill="#333333" d="M2796.737 1939.555c23.896-43.802 33.108-83.293 34.267-91.471.945-6.669-3.556-18.646-4.341-19.813-5.464-8.125-12.572-10.557-22.411-13.924-4.894-1.674-13.079-4.331-24.288-7.478-18.049-5.067-46.634-12.136-80.311-17.036-37.378-5.439-72.729-7.03-105.064-4.726-41.447 2.951-78.055 12.348-108.76 27.907-111.186 56.077-135.657 177.188-141.018 226.655-.029.265-.604 4.992-.48 7.173a27.347 27.347 0 0 0 11.793 20.99c3.739 2.575 14.585 5.103 15.832 5.364 15.084 3.161 60.984 12.783 115.946 15.565 10.368.524 20.508.786 30.423.786 57.913 0 108.008-8.943 149.253-26.688 52.973-22.886 97.635-65.524 129.159-123.304zm-340.204 91.832c-17.522-1.874-35.59-4.517-54.109-7.931 8.677-47.276 34.044-124.288 108.081-161.629 54.094-27.411 124.449-25.399 173.94-18.883 36.142 4.757 67.225 12.55 86.716 18.28-3.884 11.922-9.87 27.622-18.367 44.376a291.551 291.551 0 0 1-4.801 9.084c-25.917 46.929-60.271 79.889-102.071 97.948-47.776 20.556-113.458 26.875-189.389 18.755zM2775.655 2118.813c-.071.262-1.424 5.025-1.633 7.294a27.347 27.347 0 0 0 8.258 22.206c3.265 3.145 13.6 7.434 14.825 7.912 16.018 6.258 58.567 22.879 112.612 34.864 38.878 8.622 75.123 12.937 108.467 12.937 26.453-.001 51.083-2.718 73.729-8.156 70.543-17.074 125.054-56.769 158.359-87.062 19.229-17.489 33.514-33.691 42.11-44.204 16.391-20.044 18.208-25.796 18.983-28.251.496-1.57.953-15.25-1.423-20.192-3.813-7.929-9.389-11.317-19.512-17.466-5.115-3.108-13.687-8.149-25.471-14.518-19.053-10.299-49.245-25.52-84.878-39.542-39.633-15.596-77.172-26.268-111.572-31.72-44.562-7.063-84.137-5.345-117.563 5.085-119.072 36.847-162.253 152.709-175.291 200.813zm116.024 11.387c-18.435-5.061-37.361-11.099-56.678-18.131 15.897-45.253 52.977-117.328 132.179-141.837 45.438-14.178 109.727-6.36 185.915 22.607 38.434 14.613 71.295 31.311 92.1 42.854-6.766 7.924-15.608 17.534-26.387 27.771-31.149 29.584-78.585 64.438-139.712 79.232-49.862 11.974-114.755 7.453-187.417-12.496z" opacity="1" data-original="#333333" class=""></path><path fill="#ffffff" d="m2063.445 3015.087-37.092-1151.923c-.826-25.681 8.562-49.989 26.435-68.447 17.874-18.458 41.867-28.624 67.562-28.624 22.793 0 42.322-13.945 50.54-33.766a124.997 124.997 0 0 0-3.493-3.771c-23.072-23.826-54.043-36.948-87.209-36.948-33.165 0-64.137 13.122-87.208 36.947-23.071 23.826-35.189 55.203-34.122 88.352l37.091 1151.923c1.187 36.856 25.449 67.262 58.768 77.689a54.431 54.431 0 0 0 8.728-31.432z" opacity="1" data-original="#ffffff"></path><path fill="#333333" d="M1941.281 2970.591c.633 19.646 5.333 38.585 13.645 55.835 6.763 14.034 15.921 26.944 27.24 38.201.447.445.89.893 1.344 1.333 26.063 25.238 60.398 39.137 96.679 39.137s70.614-13.899 96.678-39.137c26.063-25.238 41.061-59.107 42.229-95.369l37.091-1151.923c1.548-48.085-16.03-93.599-49.496-128.161-33.467-34.561-78.393-53.595-126.502-53.595s-93.035 19.034-126.501 53.595c-33.466 34.562-51.044 80.077-49.496 128.161l6.782 210.623c-86.966-.57-175.309 2.989-263.042 10.632-15.047 1.312-26.182 14.571-24.871 29.619 1.24 14.24 13.182 24.976 27.213 24.976.794 0 1.599-.034 2.405-.104 86.755-7.559 174.106-11.043 260.057-10.413zm260.236-1153.684-37.091 1151.923c-1.473 45.74-38.475 81.569-84.238 81.569a85.14 85.14 0 0 1-25.471-3.88c-33.319-10.427-57.581-40.833-58.768-77.689l-37.091-1151.923c-1.067-33.149 11.05-64.526 34.122-88.352 23.071-23.826 54.042-36.947 87.208-36.947s64.137 13.122 87.209 36.948a126.214 126.214 0 0 1 3.493 3.771c20.79 23.318 31.639 53.151 30.627 84.58z" opacity="1" data-original="#333333" class=""></path><path fill="#ffffff" d="M987.194 2274.758c13.179-10.442 19.025-26.698 16.803-42.224-112.374 38.984-193.276 145.905-193.276 271.38v94.442h74.39v-112.695c0-82.629 37.208-159.5 102.083-210.903zM2190.065 672.661c29.682-45.141 100.725-84.545 196.822-109.688 4.512-23.999 5.982-45.145 6.292-60.571-23.406 4.263-59.407 12.182-98.394 25.246-77.287 25.898-131.961 60.609-158.112 100.38-45.715 69.167-28.697 148.412-12.303 193.487a754.381 754.381 0 0 0 40.674-15.593c-6.112-38.944-4.554-88.514 25.021-133.261zM1768.89 877.007c31.36-71.153 117.013-122.303 164.24-146.051a301.648 301.648 0 0 0-1.182-6.931c-4.157-22.578-10.606-42.257-15.975-56.031-18.706 7.925-47.685 21.604-78.651 40.837-42.406 26.338-98.09 69.383-122.548 124.875-33.584 75.814-4.38 151.456 18.88 193.518a745.637 745.637 0 0 0 30.865-18.005c-14.805-47.771-13.363-92.178 4.371-132.212zM1385.533 1146.948c20.144-77.933 98.264-143.232 143.835-175.684a297.392 297.392 0 0 0-3.383-10.108c-7.917-22.307-17.238-40.33-24.482-52.648-17.068 10.898-43.128 29.056-70.214 52.937-37.366 32.945-85.108 84.601-100.357 143.598-20.944 80.523 19.556 150.574 49.082 188.496a753.886 753.886 0 0 0 20.893-17.197 37.178 37.178 0 0 0-1.004-2.405c-20.164-43.396-25.004-86.103-14.37-126.989zM2920.035 723.362a284.009 284.009 0 0 1 6.292 4.698 36.417 36.417 0 0 0-6.292-4.698zM2697.275 746.039c60.599-8.618 118.065 8.228 161.447 28.071a566.867 566.867 0 0 0 17.129-14.886c-14.16-9.466-33.82-21.3-56.939-32.033-58.851-27.323-115.606-37.349-168.696-29.8-52.952 7.485-103.483 32.586-150.213 74.611-17.498 15.736-31.218 30.998-41.069 43.106a36.188 36.188 0 0 0-.79 3.402c18 8.765 40.739 18.654 66.372 27.175 30.678-33.822 91.398-88.146 172.759-99.646z" opacity="1" data-original="#ffffff"></path><path fill="#333333" d="M1354.497 1348.11c1.303 1.665 12.052 10.454 21.536 10.491 9.002.035 20.24-8.513 21.273-9.292 13.615-10.27 49.78-37.551 88.012-77.097 49.319-51.014 82.529-102.248 98.718-152.313 17.736-55.099 15.225-117.047-7.262-179.148-17.138-47.33-40.362-79.967-45.644-86.117-.716-.834-11.409-8.824-17.234-9.674-9.964-1.456-16.56 2.354-25.69 7.624-4.458 2.573-61.156 40.374-86.921 62.472-28.598 24.528-53.008 50.082-72.552 75.95-25.033 33.134-42.11 66.897-50.746 100.31-31.442 120.885 76.368 256.639 76.51 256.794zm46.411-71.769a755.687 755.687 0 0 1-20.893 17.197c-29.526-37.921-70.026-107.972-49.082-188.496 15.25-58.997 62.992-110.653 100.357-143.598 27.086-23.881 53.146-42.039 70.214-52.937 7.244 12.318 16.565 30.341 24.482 52.648a299.623 299.623 0 0 1 3.383 10.108c14.795 46.926 15.682 91.243 2.614 131.841-17.906 55.374-63.874 115.864-131.075 173.237zM2086.12 871.046a27.348 27.348 0 0 0 20.465 11.924c.729.058 15.222-2.874 16.475-3.281 16.355-5.316 59.802-19.438 109.195-44.432 63.718-32.242 112.133-69.845 143.927-111.805 43.731-57.925 60.724-123.18 67.276-167.721 3.784-25.716 4.56-47.303 4.543-60.883-.03-25.887-2.271-31.487-3.227-33.879-.61-1.526-8.928-12.402-13.903-14.72-7.974-3.715-41.914 1.236-55.065 3.78-21.265 4.114-54.264 11.484-90.709 23.23-40.538 13.065-76.335 28.609-106.396 46.202-38.94 22.789-68.457 49.206-87.695 78.463-68.729 103.987-28.67 220.966-8.256 266.433.111.247 2.09 4.798 3.37 6.689zm78.923-65.123a753.221 753.221 0 0 1-40.674 15.593c-16.395-45.075-33.412-124.32 12.303-193.487 26.151-39.771 80.825-74.482 158.112-100.38 38.986-13.064 74.987-20.983 98.394-25.246-.309 15.426-1.78 36.572-6.292 60.571-7.341 39.042-22.737 85.639-54.328 127.483-33.129 43.721-91.535 83.755-167.515 115.466zM1703.548 1082.136a27.35 27.35 0 0 0 20.146 8.855c.759 0 16.797-5.394 17.927-5.983 13.669-7.117 55.266-28.774 99.536-61.467 57.133-42.191 98.354-87.244 122.537-133.942 26.458-51.281 33.967-112.568 21.717-177.235-9.286-49.017-27.198-85.405-31.487-92.466-3.486-5.74-14.56-12.165-15.922-12.575-9.376-2.819-16.415-.194-26.157 3.44-4.846 1.807-12.86 4.942-23.524 9.615-17.171 7.524-43.759 20.178-72.91 37.739-32.354 19.491-60.7 40.671-84.25 62.952-30.182 28.558-52.574 59.016-66.418 90.531-53.95 122.809 37.328 268.926 38.805 270.536zm60.97-72.916a744.98 744.98 0 0 1-30.865 18.005c-23.261-42.063-52.464-117.705-18.88-193.518 24.458-55.492 80.142-98.537 122.548-124.875 30.966-19.233 59.946-32.912 78.651-40.837 5.369 13.775 11.818 33.453 15.975 56.031.428 2.322.814 4.63 1.182 6.931 7.986 49.94 1.933 94.844-18.025 133.528-25.873 49.961-78.516 100.318-150.586 144.735zM2410.606 788c-17.981 23.138-19.898 29.584-20.528 31.703-3.049 10.253.157 21.374 8.21 28.415 1.948 1.704 72.648 37.272 106.031 48.542 48.501 16.373 94.605 24.601 137.617 24.601 14.827 0 29.287-.978 43.351-2.937l.132-.019c54.728-7.895 111.043-31.722 167.381-70.819 28.851-20.022 56.48-43.245 82.123-69.023.467-.469 5.045-5.12 6.518-7.546 5.485-9.038 5.259-20.458-.563-29.282-.905-1.372-26.564-22.378-30.014-24.754-13.583-9.357-35.55-23.292-63.072-36.537-48.509-23.345-123.501-48.728-205.252-37.108-64.892 9.172-128.441 41.109-183.779 92.358-21.896 20.275-38.272 39.69-48.155 52.406zm267.088 76.157c-53.286 7.41-107.769-3.38-153.179-18.474-25.634-8.521-48.372-18.409-66.372-27.175a373.7 373.7 0 0 1-1.402-.684c.706-.885 1.441-1.795 2.192-2.719 9.851-12.108 23.572-27.369 41.069-43.106 46.729-42.025 97.261-67.126 150.213-74.611 53.09-7.548 109.846 2.477 168.696 29.8 23.119 10.733 42.779 22.567 56.939 32.033a565.457 565.457 0 0 1-17.129 14.886c-42.696 35.632-108.177 79.512-181.027 90.05z" opacity="1" data-original="#333333" class=""></path></g></svg>