<svg id="Layer_1" height="512" viewBox="0 0 256 256" width="512" xmlns="http://www.w3.org/2000/svg"><g><g><g><path d="m104 27.676c19.713 0 37.943 2.572 52.769 6.932-6.696-16.037-27.779-27.753-52.769-27.753s-46.073 11.716-52.769 27.753c14.826-4.359 33.056-6.932 52.769-6.932z" fill="#ffd2c0"/><path d="m151.075 33.063c1.949.486 3.847 1.002 5.694 1.545-6.696-16.037-27.779-27.753-52.769-27.753-.838 0-1.671.018-2.5.044 23.086.727 42.459 11.455 49.575 26.164z" fill="#fcc4ae"/><g><g><ellipse cx="104" cy="64.176" fill="#f2ad97" rx="90" ry="36.5"/></g></g><g><g><path d="m184.7 48.005c2.789 3.521 4.3 7.274 4.3 11.171 0 20.158-40.294 36.5-90 36.5-35.386 0-65.996-8.283-80.7-20.329 11.636 14.693 45.603 25.329 85.7 25.329 49.706 0 90-16.342 90-36.5 0-5.807-3.35-11.297-9.3-16.171z" fill="#e59076"/></g></g><g><g><ellipse cx="104" cy="64.176" fill="#e59076" rx="62.5" ry="22.346"/></g></g><g><g><path d="m66.531 109.379h74.939c8.284 0 15-6.716 15-15v-42.338c-11.138-6.143-30.469-10.211-52.47-10.211s-41.332 4.068-52.469 10.211v42.338c0 8.284 6.715 15 15 15z" fill="#58595b"/></g></g><g><g><g><path d="m178.912 249.125h-149.824c-5.523 0-10-4.477-10-10v-35.994c0-27.614 22.386-50 50-50h69.824c27.614 0 50 22.386 50 50v35.994c0 5.523-4.477 10-10 10z" fill="#ffa91a"/></g></g></g><g><g><g><path d="m25.088 230.75c-1.104 0-2-.896-2-2v-25.619c0-7.838 2.017-15.584 5.832-22.4.539-.964 1.758-1.309 2.722-.768.964.54 1.308 1.758.768 2.722-3.481 6.22-5.322 13.29-5.322 20.446v25.619c0 1.104-.896 2-2 2zm10.093-53.631c-.449 0-.9-.15-1.273-.458-.852-.704-.971-1.964-.268-2.815l.312-.374c.714-.841 1.976-.945 2.819-.229.842.715.944 1.977.229 2.819l-.278.332c-.394.477-.966.725-1.541.725z" fill="#ffc91d"/></g></g></g><g><g><path d="m168.913 163.131c6.278 8.357 10 18.743 10 30v35.994c0 5.523-4.477 10-10 10h-149.825c0 5.523 4.477 10 10 10h149.824c5.523 0 10-4.477 10-10v-35.994c0-16.357-7.856-30.878-19.999-40z" fill="#f79219"/></g></g><g><g><path d="m171.669 165.374c7.62 8.775 12.243 20.223 12.243 32.757v35.994c0 5.523-4.477 10-10 10h-149.824c-1.466 0-2.855-.323-4.11-.89 1.569 3.471 5.053 5.89 9.11 5.89h149.824c5.523 0 10-4.477 10-10v-35.994c0-15.079-6.685-28.589-17.243-37.757z" fill="#ef7816"/></g></g><g><g><path d="m127.167 153.132h-46.334v9.12c0 1.862.649 3.665 1.836 5.1l18.249 22.056c1.6 1.933 4.564 1.933 6.164 0l18.249-22.056c1.187-1.434 1.836-3.238 1.836-5.1z" fill="#ffc91d"/></g></g><g><g><g><path d="m49.557 195.399h108.887v53.746h-108.887z" fill="#377de2"/></g></g><g><g><path d="m138.443 249.145h-68.886v-28.746c0-2.761 2.239-5 5-5h58.887c2.761 0 5 2.239 5 5v28.746z" fill="#5e9cf7"/></g></g><g><g><g><path d="m158.443 157.032c-5.2-2.209-10.851-3.56-16.777-3.881v52.527c0 4.633 3.756 8.388 8.388 8.388 4.633 0 8.388-3.756 8.388-8.388v-48.646z" fill="#2266d3"/></g></g><g><g><circle cx="150.055" cy="204.638" fill="#ffc91d" r="4"/></g></g></g><g><g><g><path d="m66.333 153.151c-5.925.322-11.577 1.673-16.777 3.881v48.645c0 4.633 3.756 8.388 8.388 8.388 4.633 0 8.388-3.756 8.388-8.388v-52.526z" fill="#2266d3"/></g></g><g><g><circle cx="57.945" cy="204.638" fill="#ffc91d" r="4"/></g></g></g></g><g><g><path d="m104 138.076c-5.691 0-11.136-1.04-16.167-2.929v23.589c0 .915.314 1.803.889 2.515l12.167 15.052c1.601 1.981 4.621 1.981 6.222 0l12.167-15.052c.575-.712.889-1.599.889-2.515v-23.589c-5.031 1.889-10.476 2.929-16.167 2.929z" fill="#fcc4ae"/></g></g><g><g><path d="m104 138.076c-5.691 0-11.136-1.04-16.167-2.929v5c5.03 1.889 10.476 2.929 16.167 2.929 5.691 0 11.136-1.04 16.167-2.929v-5c-5.031 1.889-10.476 2.929-16.167 2.929z" fill="#f2ad97"/></g></g><g><g><g><g><g><path d="m150 74.484v17.592c0 3.325-.361 6.564-1.031 9.689.342.026.683.052 1.031.052 7.548 0 13.667-6.119 13.667-13.667 0-7.547-6.119-13.666-13.667-13.666z" fill="#ffd2c0"/></g></g><g><g><path d="m158.609 77.542c1.91 2.35 3.058 5.345 3.058 8.609 0 7.092-5.402 12.92-12.316 13.598-.113.674-.238 1.345-.38 2.009.342.026.681.059 1.03.059 7.548 0 13.667-6.119 13.667-13.667-.001-4.283-1.975-8.102-5.059-10.608z" fill="#fcc4ae"/></g></g><g><g><path d="m150 81.151v10.925c0 1.032-.046 2.053-.113 3.069.038.001.075.006.113.006 3.866 0 7-3.134 7-7s-3.134-7-7-7z" fill="#f2ad97"/></g></g></g><g><g><g><path d="m58 92.076v-17.592c-7.548 0-13.667 6.119-13.667 13.667s6.119 13.667 13.667 13.667c.348 0 .69-.026 1.031-.052-.67-3.125-1.031-6.365-1.031-9.69z" fill="#ffd2c0"/></g></g><g><g><path d="m58 92.076v-10.925c-3.866 0-7 3.134-7 7s3.134 7 7 7c.038 0 .075-.005.113-.006-.067-1.015-.113-2.036-.113-3.069z" fill="#f2ad97"/></g></g></g></g><g><g><g><path d="m145 63.927h-82c-2.761 0-5 2.239-5 5v23.149c0 25.405 20.595 46 46 46 25.405 0 46-20.595 46-46v-23.149c0-2.761-2.239-5-5-5z" fill="#ffd2c0"/></g></g></g><g><g><path d="m145 63.927v23.149c0 25.405-20.595 46-46 46-11.43 0-21.877-4.178-29.922-11.078 8.437 9.837 20.947 16.078 34.922 16.078 25.405 0 46-20.595 46-46v-23.149c0-2.761-2.239-5-5-5z" fill="#fcc4ae"/></g></g><g><g><g><path d="m83.264 63.927h-6.597l3.298-13.835z" fill="#ffd2c0"/></g></g><g><g><path d="m103.056 63.927h-6.597l3.298-13.835z" fill="#ffd2c0"/></g></g><g><g><path d="m129.445 63.927h-6.597l3.299-13.835z" fill="#ffd2c0"/></g></g></g><g><g><circle cx="124" cy="81.442" fill="#995222" r="5.292"/></g></g><g><g><circle cx="84" cy="81.442" fill="#995222" r="5.292"/></g></g><g><g><path d="m104 115.567c6.259 0 11.333-3.026 11.333-6.76h-22.666c0 3.734 5.074 6.76 11.333 6.76z" fill="#995222"/></g></g></g></g></g><g><g><g><path d="m72.646 125.722c-4.332-4.039-7.881-8.903-10.4-14.344-5.497 3.727-12.303 10.275-13.895 20.516-2.765 17.788 17.288 32.433 17.128 42.205-.07 4.274-3.236 10.21-5.896 14.461-1.056 1.687.72 3.725 2.524 2.885 7.316-3.409 18.924-10.622 21.9-22.985 4.466-18.549-8.978-27.91-10.918-37.123-.432-2.053-.535-3.929-.443-5.615z" fill="#58595b"/></g></g><g><g><path d="m142.521 174.099c-.161-9.772 19.892-24.417 17.128-42.205-1.592-10.241-8.397-16.789-13.895-20.516-2.52 5.441-6.068 10.305-10.4 14.344.093 1.686-.011 3.563-.443 5.614-1.94 9.213-15.384 18.574-10.918 37.123 2.977 12.362 14.584 19.576 21.9 22.985 1.804.84 3.579-1.198 2.524-2.885-2.66-4.25-5.826-10.186-5.896-14.46z" fill="#58595b"/></g></g><g><g><path d="m142.521 174.099c-.161-9.772 19.892-24.417 17.128-42.205-1.592-10.241-8.397-16.789-13.895-20.516-.434.938-.892 1.863-1.387 2.766 4.537 3.912 9.028 9.683 10.282 17.75 2.765 17.788-17.288 32.433-17.128 42.205.07 4.274 3.236 10.21 5.896 14.461.367.587.386 1.214.186 1.75.794.412 1.567.797 2.29 1.134 1.804.84 3.579-1.198 2.524-2.885-2.66-4.25-5.826-10.186-5.896-14.46z" fill="#414042"/></g></g></g><g><g><g><g><path d="m201.193 165.613c9.341 9.341 6.765 27.061 6.765 27.061s-17.72 2.576-27.061-6.765-6.765-27.061-6.765-27.061 17.721-2.575 27.061 6.765z" fill="#91b56b"/></g></g><g><g><path d="m185.898 180.909c-6.32-6.32-7.183-16.469-7.082-22.377-2.824.049-4.683.316-4.683.316s-2.576 17.72 6.765 27.061 27.061 6.765 27.061 6.765.268-1.859.317-4.683c-5.909.101-16.058-.762-22.378-7.082z" fill="#76a34f"/></g></g><g><g><path d="m214.614 165.613c-9.341 9.341-6.765 27.061-6.765 27.061s17.72 2.576 27.061-6.765 6.765-27.061 6.765-27.061-17.72-2.575-27.061 6.765z" fill="#91b56b"/></g></g><g><g><path d="m241.675 158.848s-1.86-.268-4.683-.316c.102 5.908-.762 16.057-7.082 22.377s-16.469 7.183-22.377 7.082c.049 2.824.317 4.683.317 4.683s17.72 2.576 27.061-6.765c9.339-9.341 6.764-27.061 6.764-27.061z" fill="#76a34f"/></g></g></g><g><g><g><path d="m201.193 205.613c9.341 9.341 6.765 27.061 6.765 27.061s-17.72 2.576-27.061-6.765-6.765-27.061-6.765-27.061 17.721-2.575 27.061 6.765z" fill="#91b56b"/></g></g><g><g><path d="m185.898 220.909c-6.32-6.32-7.183-16.469-7.082-22.377-2.824.049-4.683.316-4.683.316s-2.576 17.72 6.765 27.061 27.061 6.765 27.061 6.765.268-1.859.317-4.683c-5.909.101-16.058-.762-22.378-7.082z" fill="#76a34f"/></g></g><g><g><path d="m214.614 205.613c-9.341 9.341-6.765 27.061-6.765 27.061s17.72 2.576 27.061-6.765 6.765-27.061 6.765-27.061-17.72-2.575-27.061 6.765z" fill="#91b56b"/></g></g><g><g><path d="m241.675 198.848s-1.86-.268-4.683-.316c.102 5.908-.762 16.057-7.082 22.377s-16.469 7.183-22.377 7.082c.049 2.824.317 4.683.317 4.683s17.72 2.576 27.061-6.765c9.339-9.341 6.764-27.061 6.764-27.061z" fill="#76a34f"/></g></g></g><g><g><path d="m222.255 138.384c0-13.21-14.351-23.919-14.351-23.919s-14.351 10.709-14.351 23.919 14.351 23.919 14.351 23.919 14.351-10.709 14.351-23.919z" fill="#91b56b"/></g></g><g><g><path d="m207.904 152.302s-10.862-8.109-13.684-18.918c-.421 1.613-.667 3.285-.667 5 0 13.21 14.351 23.918 14.351 23.918s14.351-10.709 14.351-23.918c0-1.715-.246-3.387-.667-5-2.822 10.809-13.684 18.918-13.684 18.918z" fill="#76a34f"/></g></g><g><g><g><path d="m208.904 249.145h-2c-1.105 0-2-.895-2-2v-89.627h6v89.627c0 1.104-.896 2-2 2z" fill="#76a34f"/></g></g></g></g></g></svg>