<svg xmlns="http://www.w3.org/2000/svg" version="1.1" xmlns:xlink="http://www.w3.org/1999/xlink" width="512" height="512" x="0" y="0" viewBox="0 0 64 64" style="enable-background:new 0 0 512 512" xml:space="preserve" class=""><g><g data-name="Artboard 05"><path fill="#1755d2" d="M50.14 46H62l-6-13h-5.86z" opacity="1" data-original="#d5d6d8" class=""></path><path fill="#f1f1f3" d="M56.59 34.28h-.48a1 1 0 0 0-1 1v5.81a3.39 3.39 0 0 0 3.39 3.39h2.77z" opacity="1" data-original="#f1f1f3"></path><path fill="#1755d2" d="M42 29.05V12a2 2 0 0 1 2-2h16a2 2 0 0 1 2 2v2l-3.67 17.41A2 2 0 0 1 56.38 33H51z" opacity="1" data-original="#5a8b1c" class=""></path><path fill="#1755d2" d="M60 10H44.35v10.17a7.22 7.22 0 0 0 7.22 7.22h7.61L62 14v-2a2 2 0 0 0-2-2zM39 29.83V9a2 2 0 0 0-2-2H20v9H8v16h4a10 10 0 0 1 10 10h17z" opacity="1" data-original="#78b22a" class=""></path><path fill="#9a9b9f" d="M17.63 41h18.23v2H17.63zM20 7H7l-5 5 3 3 3-3h12z" opacity="1" data-original="#9a9b9f" class=""></path><path fill="#5b8b1e" d="M10 18h10v2H10zM10 21h10v2H10zM10 24h10v2H10zM10 27h10v2H10z" opacity="1" data-original="#5b8b1e" class=""></path><path fill="#ffc239" d="M45 13h5v10h-5z" opacity="1" data-original="#ffc239"></path><path fill="#1755d2" d="M21.16 38h11.89l2.81-6H12a10 10 0 0 1 9.16 6z" opacity="1" data-original="#5a8b1c" class=""></path><path fill="#1755d2" d="M37 7H20v9h19V9a2 2 0 0 0-2-2z" opacity="1" data-original="#94d531" class=""></path><path fill="#b4b5b9" d="m7 7-3.5 3.5h12.21A2.3 2.3 0 0 0 18 8.21V7z" opacity="1" data-original="#b4b5b9" class=""></path><circle cx="12" cy="42" r="7" fill="#393a3a" opacity="1" data-original="#393a3a" class=""></circle><circle cx="12" cy="42" r="3" fill="#9a9b9f" opacity="1" data-original="#9a9b9f" class=""></circle><path fill="#b4b5b9" d="M21.38 42.24H31A1.25 1.25 0 0 0 32.21 41H20a1.38 1.38 0 0 0 1.38 1.24zM14.78 43.13A3 3 0 0 0 15 42a3 3 0 0 0-3-3 2.94 2.94 0 0 0-1.35.34A2.8 2.8 0 0 0 10.1 41a2.82 2.82 0 0 0 4.68 2.13z" opacity="1" data-original="#b4b5b9" class=""></path><ellipse cx="13.3" cy="40.68" fill="#f0f0f1" rx=".61" ry="1.59" transform="rotate(-49.9 13.285 40.666)" opacity="1" data-original="#f0f0f1"></ellipse><path fill="#eaf7d6" d="M36.8 10.11h-5.64a1 1 0 1 1 0-2h5.64a1 1 0 0 1 0 2zM28.79 10.11h-.52a1 1 0 1 1 0-2h.52a1 1 0 0 1 0 2z" opacity="1" data-original="#eaf7d6"></path><path fill="#ffc239" d="M62 14v-1h-9v15h6.05z" opacity="1" data-original="#ffc239"></path><path fill="#ffd55d" d="M54.91 20.72a5.47 5.47 0 0 0 4.54 5.39L62 14v-1h-7.09z" opacity="1" data-original="#ffd55d"></path><ellipse cx="60.15" cy="15.54" fill="#ffeebe" rx="2.03" ry=".78" transform="rotate(-74.87 60.152 15.546)" opacity="1" data-original="#ffeebe" class=""></ellipse><path fill="#ffd55d" d="M46.3 17.33a3.39 3.39 0 0 0 3.39 3.39H50V13h-3.7z" opacity="1" data-original="#ffd55d"></path><ellipse cx="15.18" cy="38.29" fill="#616161" rx="1.11" ry="2.87" transform="rotate(-49.9 15.158 38.27)" opacity="1" data-original="#616161" class=""></ellipse><path fill="#bfe683" d="M8 31h31v1H8zM20 15.35h19V16H20z" opacity="1" data-original="#bfe683" class=""></path><circle cx="43" cy="39" r="10" fill="#393a3a" opacity="1" data-original="#393a3a" class=""></circle><circle cx="43" cy="39" r="4" fill="#9a9b9f" opacity="1" data-original="#9a9b9f" class=""></circle><path fill="#b4b5b9" d="M43 35a3.93 3.93 0 0 0-2.4.82 3.63 3.63 0 0 0-.38 1.61 3.77 3.77 0 0 0 6.7 2.38A4.36 4.36 0 0 0 47 39a4 4 0 0 0-4-4z" opacity="1" data-original="#b4b5b9" class=""></path><ellipse cx="44.46" cy="37.25" fill="#f0f0f1" rx=".95" ry="2.46" transform="rotate(-49.9 44.43 37.25)" opacity="1" data-original="#f0f0f1"></ellipse><ellipse cx="47.8" cy="33.49" fill="#616161" rx="1.34" ry="3.48" transform="rotate(-49.9 47.765 33.483)" opacity="1" data-original="#616161" class=""></ellipse><path fill="#393a3a" d="M48 25h3v2h-3z" opacity="1" data-original="#393a3a" class=""></path><g fill="#302107"><path d="M60 48h2v2h-2zM2 48h2v2H2zM6 48h52v2H6zM2 52h60v2H2zM2 56h60v2H2z" fill="#302107" opacity="1" data-original="#302107" class=""></path></g></g></g></svg>