<svg id="Layer_1" enable-background="new 0 0 53 53" height="512" viewBox="0 0 53 53" width="512" xmlns="http://www.w3.org/2000/svg"><g id="_x37_8"><g><g><path d="m46.8058777 37.2763062h-3.9311257c-3.3299446 0-4.83424-4.1225204-2.4475708-6.2228603.3636742-.3174858.4848785-.8139191.3232613-1.2699394-.4012337-1.2034187-.0060959-2.4089355.9178238-3.0998745.5546837-.4034424.3810081-1.0651226.3810081-1.3796558 0-1.5239716 1.2353058-2.7593136 2.7881317-2.7593136 1.5776558 0 2.951416 1.3021259 2.7708702 3.1114311-.0519676.3925323.0865669.7966194.4040527 1.0275383.9836197.7355461 1.30233 1.9940987.9120789 3.0998745-.1616135.4560204-.0404129.9524536.3232613 1.2699394 2.3872338 2.1008357.8802757 6.2228603-2.4417915 6.2228603z" fill="#46cc6b"/></g><g><path d="m43.3380241 25.6570206c.0517883.3883705-.0863457.794075-.4057007 1.0271397-.8898697.6673279-1.3209114 1.8437386-.9149284 3.0986423.1640015.457489.043148.9494858-.319355 1.2688427-2.3732224 2.090601-.9039078 6.2232037 2.4426994 6.2232037h-1.2688446c-3.3489761 0-4.8147354-4.1336021-2.442646-6.2232037.3625031-.3193569.4833565-.8113537.3193588-1.2688427-.4026184-1.2438068.0156784-2.426651.9235649-3.0986423.3107185-.2330647.4487953-.6387691.3970108-1.0271397-.234848-1.525074 1.0019226-3.1159744 2.7706985-3.1159744.2157822 0 .4315681.025919.6387138.0777054-1.4444808.3210029-2.342491 1.727003-2.1405715 3.038269z" fill="#179c5f"/></g><g><g><g><path d="m47.0408783 31.4997406-1.7274971 2.2749443v9.6213913c0 .2202644-.1811867.3978996-.4014511.3978996s-.3943443-.1776352-.3943443-.3978996v-9.5432205l-2.0278206-1.9925842c-.1811905-.1243343-.227375-.3730259-.1030197-.5542164.1339951-.194931.393055-.2217808.5542183-.1030197l1.8821487 1.8930988 1.5747299-2.0724621c.135006-.1776333.3836746-.2131519.5613098-.0852604.174881.1282082.2126122.3780193.0817261.5613289z" fill="#c7754f"/></g></g></g></g><g><g><path d="m34.5331078 37.2763062h-3.9311275c-3.3299427 0-4.83424-4.1225204-2.4475708-6.2228603.3636761-.3174858.4848785-.8139191.3232632-1.2699394-.4012337-1.2034187-.0060959-2.4089355.9178219-3.0998745.5546856-.4034424.3810101-1.0651226.3810101-1.3796558 0-1.5239716 1.2353058-2.7593136 2.7881317-2.7593136 1.5776558 0 2.9514122 1.3021259 2.7708702 3.1114311-.0519714.3925323.0865669.7966194.4040527 1.0275383.9836197.7355461 1.3023262 1.9940987.9120789 3.0998745-.1616173.4560204-.0404129.9524536.3232613 1.2699394 2.3872335 2.1008357.8802755 6.2228603-2.4417917 6.2228603z" fill="#46cc6b"/></g><g><path d="m31.0652542 25.6570206c.0517864.3883705-.0863457.794075-.4057026 1.0271397-.8898678.6673279-1.3209114 1.8437386-.9149265 3.0986423.1639996.457489.0431461.9494858-.3193569 1.2688427-2.3732204 2.090601-.9039059 6.2232037 2.4427013 6.2232037h-1.2688446c-3.348978 0-4.8147354-4.1336021-2.4426479-6.2232037.362505-.3193569.4833565-.8113537.3193588-1.2688427-.4026184-1.2438068.0156784-2.426651.9235649-3.0986423.3107185-.2330647.4487972-.6387691.3970108-1.0271397-.2811356-1.8256741 1.4956055-3.5167217 3.4094143-3.038269-1.444479.3210029-2.3424931 1.727003-2.1405716 3.038269z" fill="#179c5f"/></g><g><g><g><path d="m34.7681046 31.4997406-1.7274933 2.2749443v9.6213913c0 .2202644-.1811905.3978996-.4014549.3978996s-.3943405-.1776352-.3943405-.3978996v-9.5432205l-2.0278206-1.9925842c-.1811905-.1243343-.2273769-.3730259-.1030197-.5542164.1339931-.194931.3930531-.2217808.5542164-.1030197l1.8821507 1.8930988 1.5747299-2.0724621c.1350021-.1776333.3836746-.2131519.561306-.0852604.1748847.1282082.2126158.3780193.081726.5613289z" fill="#c7754f"/></g></g></g></g><g><g><path d="m44.5104485 39.1316032s-2.9538803 1.0080147-4.7069321.9466858c-1.7530518-.0613823-4.5755005-1.0781174-4.5755005-1.0781174s-1.40242-.5697784-2.1650124-.4470673c0 0-1.1774998-.1139336-2.4864273.8560829-.056591.0419235-.1135292.0825195-.1706982.1218452-1.434351.9857788-3.3000088 1.0711861-4.8177471.2745247v7.7950706h24.8784714v-6.7860756c0 .0000002-2.1607971-2.5331419-5.9561538-1.6829489z" fill="#c7754f"/></g><g><path d="m44.5060616 39.1413612s-2.9518585 1.0028763-4.7021408.9461098c-1.7503357-.0662346-4.5791969-1.0785789-4.5791969-1.0785789s-1.4002266-.5676422-2.1571007-.4446449c0 0-1.1826382-.1135864-2.4882755.8514671-.0567646.0472908-.1135292.0851746-.170351.1229973-1.4361992.9831238-3.3012218 1.0689354-4.8208656.2753906v1.9016914c1.5196438.7935448 3.3846664.7077332 4.8208656-.2753906.0568218-.0378227.1135864-.0757065.170351-.1230011 1.3056374-.9650497 2.4882755-.8515205 2.4882755-.8515205.7568741-.1229973 2.1571007.4447021 2.1571007.4447021s2.8288612 1.0218163 4.5791969 1.0785789c1.7502823.0662346 4.7021408-.9461098 4.7021408-.9461098 3.8033829-.8515244 5.9604836 1.6840439 5.9604836 1.6840439v-1.9016876c-.0000001 0-2.1571008-2.5355682-5.9604836-1.6840477z" fill="#46cc6b"/></g><g><path d="m31.3569374 45.9829445c0 .4080734-.3293343.7374077-.7374096.7374077-.4080315 0-.7373657-.3293343-.7373657-.7374077 0-.4080772.3293343-.7373657.7373657-.7373657.4080753 0 .7374096.3292884.7374096.7373657z" fill="#ab604b"/></g><g><path d="m36.4259148 43.8055763c0 .4080734-.3293343.7374115-.7374077.7374115-.4080315 0-.7373657-.3293381-.7373657-.7374115s.3293343-.7373657.7373657-.7373657c.4080734 0 .7374077.3292923.7374077.7373657z" fill="#ab604b"/></g><g><path d="m44.8374252 45.4981194c0 .4080772-.3293343.7374115-.7374077.7374115-.4080315 0-.7373657-.3293343-.7373657-.7374115 0-.4080734.3293343-.7373657.7373657-.7373657.4080735-.0000001.7374077.3292922.7374077.7373657z" fill="#ab604b"/></g><g><path d="m34.9511414 46.2355156c0 .2676582-.216011.4836693-.4836693.4836693-.2676277 0-.4836388-.216011-.4836388-.4836693s.216011-.4836388.4836388-.4836388c.2676582 0 .4836693.2159806.4836693.4836388z" fill="#ab604b"/></g><g><path d="m41.7406044 43.7114487c0 .2676544-.216011.4836655-.4836693.4836655-.2676277 0-.4836388-.216011-.4836388-.4836655 0-.2676582.216011-.4836388.4836388-.4836388.2676583 0 .4836693.2159805.4836693.4836388z" fill="#ab604b"/></g><g><path d="m30.8494682 43.3219299c0 .2676582-.216011.4836693-.4836674.4836693-.2676277 0-.4836388-.216011-.4836388-.4836693 0-.2676544.216011-.4836388.4836388-.4836388.2676564.0000001.4836674.2159844.4836674.4836388z" fill="#ab604b"/></g><g><path d="m39.2879639 45.9829483c0 .3197517-.2580566.5778084-.5778084.5778084-.3197174 0-.5777702-.2580566-.5777702-.5778084s.2580528-.577774.5777702-.577774c.3197517 0 .5778084.2580223.5778084.577774z" fill="#ab604b"/></g><g><path d="m27.353178 45.2455597c0 .3197517-.2580547.5778084-.5778065.5778084-.3197193 0-.577774-.2580566-.577774-.5778084s.2580547-.5777702.577774-.5777702c.3197518 0 .5778065.2580185.5778065.5777702z" fill="#ab604b"/></g><g><path d="m48.4090576 43.8055801c0 .3197556-.2580566.5778084-.5778084.5778084-.3197174 0-.577774-.2580528-.577774-.5778084 0-.3197517.2580566-.5777702.577774-.5777702.3197518 0 .5778084.2580185.5778084.5777702z" fill="#ab604b"/></g></g><g><g><path d="m25.588131 32.5317459v15.0651588h-23.0547326v-15.0651588c0-2.6345329 1.9032609-4.838913 4.408761-5.2905273.311883-.0538177.6344643-.0860424.9678087-.0860424h12.3015938c.301054 0 .5914097.0214615.8710022.0752792 2.5484879.419323 4.5055669 2.6452312 4.5055669 5.3012905z" fill="#65b9ff"/></g><g><path d="m12.4533815 27.1569023c-3.0276175 0-5.3800054 2.4648876-5.3800054 5.3699951v15.0700073h-4.539978v-15.0700073c0-2.6300049 1.8999631-4.8300171 4.4099731-5.2900391.3099976-.0499878.6300049-.0799561.9700317-.0799561h4.5399786z" fill="#3e7fff"/></g><g><g><g><g><g><g><path d="m17.1809921 24.9614067v2.4959183c0 1.7240467-1.4023628 3.1199684-3.1134901 3.1199684-1.6784163 0-3.1199684-1.3460217-3.1199684-3.1199684v-2.4959183z" fill="#ffaf93"/></g><g><path d="m12.8323612 29.6445198.0193176.0193176c.4567089.4567089 1.0421228.7719135 1.7111273.8684216-.1608219.032156-.328083.0450344-.4953041.0450344-1.6784163 0-3.1199684-1.3460217-3.1199684-3.1199684v-1.5117092c1.1895189.7787189 2.5970478 1.0616722 3.9497948.8684235-1.2479792-.1801014-2.3608541-.7655144-3.2099981-1.6146202-.1157875-.1158257-.2316132-.2380123-.3345222-.3666782h5.8281841v2.1035233c-1.1055641.5871029-2.358532.8324528-3.4287338.7655144-1.0356837-.0514357-1.6468144 1.2093828-.9198972 1.9427412z" fill="#ee8778"/></g><g><path d="m19.7758942 13.5651035v7.5971889c0 3.1541653-2.5569572 5.7111206-5.7111216 5.7111206h-.0000114c-3.1541643 0-5.7111206-2.5569553-5.7111206-5.7111206v-7.5971889z" fill="#ffaf93"/></g><g><path d="m19.7734585 13.5623322v7.5972233c0 .1801395-.0064392.360239-.0257568.5339394-.0192776.2508926-.064312.4953041-.1222267.7397575-.9789715 4.3561268-6.4193735 5.9446316-9.5978374 2.7661667-1.0356836-1.0357227-1.6725321-2.4638004-1.6725321-4.0398636v-7.5972233z" fill="#ffaf93"/></g><g><path d="m17.3971977 8.804554c-.2985592-.0996943-.6137905-.191514-.9640026-.2655468-2.79533-.5908842-4.2626629-.2286615-5.0337076.2655468z" fill="#ab604b"/></g><g><path d="m19.771 16.489h1.223v3.452h-1.223z" fill="#312e4b"/></g><g><path d="m7.103 16.489h1.254v3.452h-1.254z" fill="#ab604b"/></g><g><path d="m8.3551054 17.0424995v2.9012337h-1.2544179v-2.4702015c.3473611-.2702102.7783527-.4310322 1.2544179-.4310322z" fill="#ab604b"/></g><g><path d="m10.0276375 9.8692007h-.1123314c-1.5532503 0-2.8124199 1.2591295-2.8124199 2.8123798v7.2590513h1.2541828v-3.8575668c0-1.0607719.706501-1.9452534 1.6705685-2.2404337z" fill="#312e4b"/></g><g><path d="m21.7846622 19.6939278c0 1.1196136-.8979645 2.0175095-2.0175095 2.0175095v-4.023922c1.1195451 0 2.0175095.8978958 2.0175095 2.0064125z" fill="#ffaf93"/></g><g><path d="m20.3054619 17.7683697c-.1722469-.0473499-.3503456-.080843-.5382977-.080843v4.0239239c.187952 0 .3660507-.0335312.5382977-.0809212z" fill="#ee8778"/></g></g><g><path d="m14.8973284 26.8140392c-1.3523636.1931934-2.7599392-.0894852-3.9497948-.8684235-.3345213-.2187347-.6368484-.4631481-.9198961-.7461967-1.0356836-1.0357227-1.6725321-2.4638004-1.6725321-4.0398636v.5532188c-1.1193528 0-2.0199318-.9005795-2.0199318-2.0198936 0-.6368885.295887-1.2029839.7655139-1.5760632.3473611-.2702084.7783527-.4310303 1.2544179-.4310303v-1.6017799c0-1.0549612.6947222-1.9491396 1.6596537-2.2515059v7.327054c0 1.3959236.5017834 2.6760979 1.3380489 3.6731853.1029091.1286659.2187347.2508526.3345222.3666782.849144.8491061 1.962019 1.434519 3.2099982 1.6146204z" fill="#ee8778"/></g><g><g><g><path d="m14.5165062 20.3930378v.8155327c0 .2768574-.2241449.5009995-.5009995.5009995-.2768564 0-.5010023-.2241421-.5010023-.5009995v-.8155327c0-.2768536.2241459-.5009995.5010023-.5009995.2796526 0 .5009995.2276631.5009995.5009995z" fill="#ee8778"/></g></g><g><path d="m12.2758703 23.1752739c.1787195.8218307.9094677 1.4376698 1.7848873 1.4376621.8754272-.0000095 1.6061783-.6158638 1.7849121-1.4376965z" fill="#ee8778"/></g></g></g><g><g><path d="m12.4475622 18.3860626c-.1152735-.5300846-.5865889-.9273071-1.1512098-.9273071-.5646257 0-1.0359364.3972225-1.1512098.9273071z" fill="#312e4b"/></g><g><path d="m17.9833832 18.3860626c-.1152744-.5300846-.5865898-.9273071-1.1512108-.9273071-.5646248 0-1.0359364.3972225-1.1512098.9273071z" fill="#312e4b"/></g></g></g></g></g><g><g><path d="m22.861681 15.5798473c0 .6952744-.5510616 1.2462559-1.246336 1.2462559h-15.1994219c-.6821418 0-1.2462559-.5509815-1.2462559-1.2462559 0-.6822214.5641141-1.2332039 1.2462559-1.2332039h15.1994219c.6952744 0 1.246336.5509825 1.246336 1.2332039z" fill="#ab604b"/></g><g><path d="m10.2318239 16.8312702h-3.8203635c-.6784353 0-1.2421308-.5532475-1.2421308-1.2525797 0-.6784992.5636954-1.2316828 1.2421308-1.2316828h3.8203635c-.6784992 0-1.2421312.5531836-1.2421312 1.2316828 0 .6993323.563632 1.2525797 1.2421312 1.2525797z" fill="#8b4f4f"/></g><g><path d="m20.955677 12.3393679v2.0072756h-13.8800058v-2.0072756c0-3.8328543 3.1071424-6.9399962 6.9399967-6.9399962h.0000134c3.8328542-.0000001 6.9399957 3.1071419 6.9399957 6.9399962z" fill="#ab604b"/></g><g><path d="m14.9706774 5.4642138c-3.3819189.4697251-5.9914331 3.3610225-5.9914331 6.8786416v2.0041523h-1.8997331v-2.0041523c0-3.8411961 3.1001353-6.9412675 6.9413314-6.9412675.3235769.0000001.6367063.0208965.9498348.0626259z" fill="#8b4f4f"/></g><g><path d="m7.082 12.059h13.88v2.288h-13.88z" fill="#fcb73e"/></g><g><path d="m7.08 12.061h1.91v2.286h-1.91z" fill="#fd982e"/></g></g></g><g><path d="m21.0825634 27.1551762v20.4417286h-14.1404042v-20.3879757c.1935487-.0322914.3870974-.0537529.5807114-.0537529h1.3656039v6.9464855c0 .4516792.3656359.8280144.8172493.8280144h8.6348028c.4408493 0 .8171825-.3763351.8171825-.8280144v-6.9464855z" fill="#deddff"/></g><g><g><path d="m14.5165062 20.3930378v.8155327c0 .2768574-.2241449.5009995-.5009995.5009995-.2768564 0-.5010023-.2241421-.5010023-.5009995v-.8155327c0-.2768536.2241459-.5009995.5010023-.5009995.2796526 0 .5009995.2276631.5009995.5009995z" fill="#ee8778"/></g></g></g></svg>