<svg id="flat" height="512" viewBox="0 0 512 512" width="512" xmlns="http://www.w3.org/2000/svg"><path d="m16 364h480v135.679h-480z" fill="#ffd199"/><path d="m496 328h-16v-16h-16v16h-29v16h29v32h16v-32h16z" fill="#2993ce"/><path d="m72 400h-16v-46.111l-7.155-14.311 14.31-7.156 8 16a7.994 7.994 0 0 1 .845 3.578z" fill="#89103c"/><path d="m440 144.8v239.2h-288v-239.2l48-56.8 96-44.983 100.921 49.606z" fill="#dd1c4b"/><path d="m232 272h144v112h-144z" fill="#af1e4b"/><path d="m200 456h-160l-8-48 16-16h152z" fill="#2d7a54"/><path d="m96 392 24-64h72v64z" fill="#2993ce"/><path d="m152 192.8 56-72.8 88-48 88 48 56 72.8v-48l-43.079-52.176-100.921-49.607-96 44.983-48 56.8z" fill="#af1e4b"/><path d="m296 56 88 48 80 104 24-24-80-104-112-56-112 56-80 104 24 24 80-104z" fill="#0a4566"/><path d="m360 272-5.268-6.021-50.732 44.391v-38.37h-16v38.37l-50.732-44.391-5.268 6.021h-8v112h20.149l43.851-38.37v38.37h16v-38.37l43.851 38.37h20.149v-112zm-8 48h-34.708l34.708-30.37zm-77.292 0h-34.708v-30.37zm-34.708 16h34.708l-34.708 30.37zm77.292 0h34.708v30.37z" fill="#c3e0ed"/><path d="m226 240h160v32h-160z" fill="#af1e4b"/><path d="m216 240h160v32h-160z" fill="#c3e0ed"/><path d="m216 256h160v16h-160z" fill="#2993ce"/><path d="m152 176h288v32h-288z" fill="#c3e0ed"/><path d="m152 208h288v8h-288z" fill="#af1e4b"/><path d="m368 480h88v16h-88z" fill="#d68029"/><path d="m296 440h88v16h-88z" fill="#d68029"/><path d="m16 440h28.472v16h-28.472z" fill="#66af8d"/><circle cx="456" cy="456" fill="#feac4f" r="40"/><path d="m456 416a40.161 40.161 0 0 0 -8 .8 40.008 40.008 0 0 1 0 78.4 40 40 0 1 0 8-79.2z" fill="#d68029"/><path d="m34.667 424h21.333l24-32h-32l-16 16z" fill="#efd66a"/><circle cx="384" cy="416" fill="#feac4f" r="40"/><path d="m384 376a40.161 40.161 0 0 0 -8 .8 40.008 40.008 0 0 1 0 78.4 40 40 0 1 0 8-79.2z" fill="#d68029"/><path d="m104 416h16v16h-16z" fill="#66af8d"/><path d="m123.314 392h-22.628l33.657-33.657 11.314 11.314z" fill="#045f9c"/><path d="m132 347.029h16v33.941h-16z" fill="#0a4566" transform="matrix(.707 -.707 .707 .707 -216.382 205.608)"/><path d="m335.925 480h16.075v16h-16.075z" fill="#d68029"/><circle cx="302.61" cy="123.83" fill="#af1e4b" r="41.807"/><circle cx="296.61" cy="122.83" fill="#2993ce" r="33.574"/><path d="m296 80a40 40 0 1 0 40 40 40.045 40.045 0 0 0 -40-40zm22.624 32h-14.624v-14.624a24.119 24.119 0 0 1 14.624 14.624zm-30.624-14.624v14.624h-14.624a24.119 24.119 0 0 1 14.624-14.624zm-14.624 30.624h14.624v14.624a24.119 24.119 0 0 1 -14.624-14.624zm30.624 14.624v-14.624h14.624a24.119 24.119 0 0 1 -14.624 14.624z" fill="#c3e0ed"/><circle cx="200" cy="440" fill="#0a4566" r="48"/><circle cx="200" cy="440" fill="#c3e0ed" r="16"/><circle cx="72" cy="464" fill="#0a4566" r="24"/><circle cx="72" cy="464" fill="#c3e0ed" r="8"/></svg>