<svg id="Layer_4" viewBox="0 0 512 512" xmlns="http://www.w3.org/2000/svg" data-name="Layer 4"><g><path d="m226.5983569 96.1522241 23.7288942-69.0501247 36.0380209 16.2776337c9.3165979 4.2081159 11.5565346 16.4294897 4.3379114 23.6681853l-29.0236752 29.1043801z" fill="#56b656"/><path d="m176.6037792 96.1522241-23.2966997-69.0501247-36.0380209 16.2776337c-9.3165979 4.2081159-11.5565346 16.4294897-4.3379114 23.6681853l29.0236752 29.1043801z" fill="#56b656"/><path d="m371.6370415 446.3857685s1.7597375-16.2233155 0-123.1066066c-1.7598864-106.8831423-87.109688-142.1928076-99.4282974-155.5531632-5.0091937-5.4328287-7.5446031-14.4949859-8.7902031-23.3366176-.7496226.0700352-1.5068367.1148399-2.2747682.1148399h-118.6530803c-.7680803 0-1.5251456-.0448047-2.2747682-.1148399-1.2456001 8.8416318-3.7811583 17.9037889-8.790352 23.3366176-12.3184605 13.3603556-97.668411 48.6700209-99.4282974 155.5531632-1.7597375 106.8832911 0 123.1066066 0 123.1066066s-21.9973148 11.4518397-21.9973148 31.4924847 15.8380845 23.8578257 15.8380845 23.8578257h351.9582272s15.8380845-3.8171807 15.8380845-23.8578257-21.9973148-31.4924847-21.9973148-31.4924847z" fill="#91cd00"/><path d="m34.0036816 477.7363281c.1572266-3.1210938 5.4394531-7.9902344 9.1816406-10.1142578l15.4472656-7.5556641-2.7617188-16.1894531c-.1826172-2.5380859-1.4560547-24.3261719.1230469-120.2021484 1.2421875-75.421875 50.0761719-108.7246094 76.3115234-126.6162109 7.3808594-5.0332031 12.7128906-8.6699219 16.7646484-13.0644531 3.9316406-4.2646484 7.1210938-9.3984375 9.6054688-15.4902344h86.2832031c2.484375 6.0917969 5.6738281 11.2255859 9.6054688 15.4902344 4.0517578 4.3945312 9.3837891 8.03125 16.7646484 13.0644531 26.2353516 17.8916016 75.0693359 51.1943359 76.3115234 126.6162109 1.5888672 96.4785156.2900391 117.9345703.1201172 120.2480469l-2.2949219 17.0322266 15.0205078 6.6884766c3.7402344 2.1347656 8.9873047 6.9824219 9.1445312 10.0927734h-335.6269529z" fill="#abe200"/><path d="m131.0798535 37.1416016 14.7749023 59.0107422h30.7490234l-23.2966308-69.050293z" fill="#3e9b54"/><path d="m226.5984082 96.1523438h31.1811523l14.7749023-59.0107422-22.2272949-10.0395508z" fill="#3e9b54"/><path d="m233.0390956 96.1522333 17.3197958-69.1767702c2.1250077-8.4874656-4.293852-16.7115419-13.0432937-16.7115419h-70.9969591c-8.7494417 0-15.1683014 8.2240763-13.0432937 16.7115419l17.3197958 69.1767702h62.4439548z" fill="#91cd00"/><path d="m189.3269238 72.1523438-9.4863281-37.8886719h43.953125l-9.4863282 37.8886719z" fill="#abe200"/><path d="m272.4282421 167.949707c-.0712891-.0739746-.1525879-.1508789-.2194824-.2236328-5.0092773-5.4328613-7.5446777-14.4951172-8.7902832-23.3366699-.7495117.0700684-1.5068359.1147461-2.2746582.1147461h-118.6530762c-.7680664 0-1.5251465-.0446777-2.2749023-.1147461-1.2456055 8.8415527-3.7810059 17.9038086-8.7902832 23.3366699-.0668945.0727539-.1481934.1496582-.2194824.2236328 2.2597656.3608398 4.5744629.5541992 6.9343262.5541992h127.3535156c2.3598633 0 4.6745605-.1933594 6.9343262-.5541992z" fill="#56b656"/><g><path d="m261.6794628 96.1523438 20.5964355-20.6535645c-5.1721191-2.1523438-10.8395996-3.3464355-16.7819824-3.3464355h-32.1020872l-6.0087891 24z" fill="#3e9b54"/><path d="m176.6037792 96.1523438-6.0087891-24h-32.4545898c-5.9423828 0-11.6096191 1.1940918-16.7817383 3.3464355l20.5961914 20.6535645z" fill="#3e9b54"/><path d="m170.5949902 96.1523438h62.4440918l6.008789-24h-74.4616699z" fill="#56b656"/></g><rect fill="#906f65" height="48.352" rx="19.826" width="167.005" x="118.315" y="96.152"/><path d="m206.895317 316.0795992h-1.2764296c-14.0657127 0-25.5088103-11.4430976-25.5088103-25.5088103 0-11.9537735 9.7252274-21.6784804 21.6784804-21.6784804h10.213519c11.953253 0 21.6784804 9.7247068 21.6784804 21.6784804 0 7.0656521 5.7283162 12.7934476 12.7934476 12.7934476s12.7934476-5.7277956 12.7934476-12.7934476c0-23.4443728-17.1604818-42.9472748-39.5786875-46.6305446v-9.5458922c0-7.0656521-5.7283162-12.7934476-12.7934476-12.7934476s-12.7934476 5.7277956-12.7934476 12.7934476v9.5458922c-22.4182057 3.6832698-39.5786875 23.1861717-39.5786875 46.6305446 0 28.1741119 22.9215937 51.0957056 51.0957056 51.0957056h1.2764296c14.7695189 0 26.7852399 12.0162415 26.7852399 26.7857604v.2561188c0 11.1083732-9.0370382 20.1454114-20.1448908 20.1454114h-13.2806981c-11.1078526 0-20.1448908-9.0370382-20.1448908-20.1454114 0-7.0656521-5.7283162-12.7934476-12.7934476-12.7934476s-12.7934476 5.7277956-12.7934476 12.7934476c0 23.1291697 17.2632938 42.2904497 39.5786875 45.3066133v9.3367545c0 7.0656521 5.7283162 12.7934476 12.7934476 12.7934476s12.7934476-5.7277956 12.7934476-12.7934476v-9.3367545c22.3153938-3.0161636 39.5786875-22.1774436 39.5786875-45.3066133v-.2561188c0-28.8784387-23.4942171-52.3726557-52.3721352-52.3726557z" fill="#009da2"/></g><g><rect fill="#33a6fb" height="269.217" rx="26.291" width="195.018" x="308.054" y="233.047"/><path d="m297.2451172 294.1464844h216.6337891c1.2649849 0 2.2919922 1.0270073 2.2919922 2.2919922v142.4345703c0 1.2644459-1.0265697 2.2910156-2.2910156 2.2910156h-216.6347656c-1.2644459 0-2.2910156-1.0265697-2.2910156-2.2910156v-142.4355469c0-1.2644459 1.0265697-2.2910156 2.2910156-2.2910156z" fill="#52bdff" transform="matrix(0 1 -1 0 773.218 -37.907)"/><rect fill="#cee9ff" height="44.348" rx="15.275" width="142.957" x="334.084" y="266.96"/><g fill="#2a4d74"><rect height="27.885" rx="12" width="27.885" x="334.084" y="341.568"/><rect height="27.885" rx="12" width="27.885" x="388.302" y="341.568"/><rect height="27.885" rx="12" width="27.885" x="442.519" y="341.568"/><rect height="27.885" rx="12" width="27.885" x="334.084" y="389.568"/><rect height="27.885" rx="12" width="27.885" x="388.302" y="389.568"/><rect height="75.885" rx="12" width="27.885" x="442.519" y="389.568"/><rect height="27.885" rx="12" width="27.885" x="334.084" y="437.568"/><rect height="27.885" rx="12" width="27.885" x="388.302" y="437.568"/></g></g></svg>