<svg id="Layer_1" enable-background="new 0 0 66 66" viewBox="0 0 66 66" xmlns="http://www.w3.org/2000/svg"><g><g><g><path d="m61.7396469 55.6637306-34.9444275 7.5367012c-1.0672264.2266579-2.1249981-.453373-2.351656-1.5300522l-3.6549931-16.9621773-6.4127541-29.7594376c-.2361107-1.0672255.443861-2.1249981 1.5205412-2.351656l16.8677559-3.6361437 18.0766727-3.8911031c1.0672264-.2361112 2.1249962.4439187 2.3611069 1.5205984l10.0582962 46.721611c.2361106 1.0672279-.443863 2.1250015-1.5205422 2.3516593z" fill="#f6f0f5"/></g><g><g><path d="m55.7595177 41.1932259-29.4704533 6.3488884c-.5103188.1099396-1.0123215-.2144928-1.1221619-.7243614-.1098423-.5098686.2140427-1.0122261.7243614-1.1221619l29.4704533-6.3488884c.5103188-.1099396 1.0123215.2144928 1.1221619.7243614.1098442.5098686-.2140427 1.0122223-.7243614 1.1221619z" fill="#e1d9e1"/></g></g><g><g><path d="m51.1182632 47.9053307-23.6531811 5.0956612c-.5103188.1099396-1.0123196-.2144928-1.1221619-.7243614s.2140427-1.0122261.7243614-1.1221619l23.6531811-5.0956612c.5103188-.1099396 1.0123215.2144928 1.1221619.7243614.1098443.5098686-.2140426 1.0122223-.7243614 1.1221619z" fill="#e1d9e1"/></g></g><g><g><path d="m55.7595177 35.3972359-29.4704533 6.3488884c-.5103188.1099396-1.0123215-.2144928-1.1221619-.7243614-.1098423-.5098686.2140427-1.0122261.7243614-1.1221619l29.4704533-6.3488884c.5103188-.1099396 1.0123215.2144928 1.1221619.7243614.1098442.5098686-.2140427 1.0122223-.7243614 1.1221619z" fill="#e1d9e1"/></g></g><g><g><path d="m55.7595177 29.6012459-29.4704533 6.3488884c-.5103188.1099396-1.0123215-.2144928-1.1221619-.7243614-.1098423-.5098686.2140427-1.0122223.7243614-1.1221619l29.4704533-6.3488884c.5103188-.1099396 1.0123215.2144928 1.1221619.7243614.1098442.5098686-.2140427 1.0122242-.7243614 1.1221619z" fill="#e1d9e1"/></g></g><g><g><path d="m44.2617226 55.0946808-15.6206207 3.3651886c-.5103188.1099396-1.0123215-.2144928-1.1221638-.7243614s.2140427-1.0122261.7243614-1.1221619l15.6206226-3.3651886c.5103188-.1099396 1.0123215.2144928 1.1221619.7243614s-.2140427 1.0122261-.7243614 1.1221619z" fill="#e1d9e1"/></g></g><g><g><path d="m40.8828354 47.8077812.2430992 4.504921 2.2491302.914051 3.3775902-2.7215004z" fill="#ffcf1a"/></g><g><path d="m41.4819946 54.5700226 1.8930702-1.3432693-2.2491302-.9140511.1155739 2.1411896c.0064735.1198997.1425629.1856155.2404861.1161308z" fill="#103635"/></g></g><g><g><path d="m62.7327499 15.7318029c.2831421-.6161251.0131989-1.3451395-.6029282-1.6282787l-3.6386108-1.6721201c-.616127-.2831392-1.3451424-.013196-1.6282806.6029301l-1.6171684 3.5190315 5.8698235 2.6974697z" fill="#ffcf1a"/></g><g><path d="m33.801 30.299h34.397v6.46h-34.397z" fill="#ee3831" transform="matrix(.418 -.909 .909 .418 -.763 65.869)"/></g><g><path d="m33.801 32.566h34.397v1.927h-34.397z" fill="#d6332c" transform="matrix(.418 -.909 .909 .418 -.763 65.869)"/></g></g><g><g opacity=".1"><path d="m32.7641144 8.9609661v31.2139187c0 2.5027428-2.0305786 4.5333176-4.5238667 4.5333176h-7.4516754l-6.4127541-29.7594376c-.2361107-1.0672255.443861-2.1249981 1.5205412-2.351656z" fill="#231f20"/></g><g><path d="m30.8789425 5.3992748v34.7763901c0 1.4625778-1.1806755 2.6432571-2.6432533 2.6432571h-22.8994408c-1.4625771 0-2.6432545-1.1806793-2.6432545-2.6432571v-34.7763901c0-1.462631 1.1806774-2.6432545 2.6432545-2.6432545h22.8994408c1.4625778 0 2.6432533 1.1806235 2.6432533 2.6432545z" fill="#231f20"/></g><g><path d="m27.3546047 7.4433446v6.1059651c0 .5814924-.467001 1.0572586-1.0573139 1.0572586h-19.022645c-.5814924 0-1.0573125-.4757662-1.0573125-1.0572586v-6.1059651c0-.5814924.4758201-1.0572591 1.0573125-1.0572591h19.022644c.590314 0 1.0573149.4757667 1.0573149 1.0572591z" fill="#a1c9cb"/></g><g opacity=".1"><path d="m27.3546047 7.4433446v6.1059651c0 .5814924-.467001 1.0572586-1.0573139 1.0572586h-19.022645c-.581522 0-1.0573125-.47579-1.0573125-1.057312v-.5638542h12.9167404c3.6446991 0 6.5993118-2.9546118 6.5993118-6.5993099v-.0000067h.5639057c.5903126 0 1.0573135.4757667 1.0573135 1.0572591z" fill="#231f20"/></g><g><path d="m11.3012104 26.7214851v3.4979343c0 .4405422-.3524017.792944-.7929449.792944h-3.4979343c-.4405422 0-.7929978-.3524017-.7929978-.792944v-3.4979343c0-.4405422.3524556-.792944.7929978-.792944h3.4979343c.4405432.0000001.7929449.3524018.7929449.792944z" fill="#f6f0f5"/></g><g><path d="m19.3278809 18.5185871v3.4979343c0 .4405441-.3524017.7929459-.792944.7929459h-3.4979353c-.4405432 0-.7929449-.3524017-.7929449-.7929459v-3.4979343c0-.4405422.3524017-.792944.7929449-.792944h3.4979353c.4405422.0000001.792944.3524018.792944.792944z" fill="#f6f0f5"/></g><g><path d="m19.3278809 34.9243813v3.4979362c0 .4405441-.3524017.7929459-.792944.7929459h-3.4979353c-.4405432 0-.7929449-.3524017-.7929449-.7929459v-3.4979362c0-.4405403.3524017-.792942.7929449-.792942h3.4979353c.4405422-.0000001.792944.3524016.792944.792942z" fill="#f6f0f5"/></g><g><path d="m11.3012104 34.9243813v3.4979362c0 .4405441-.3524017.7929459-.7929449.7929459h-3.4979343c-.4405422 0-.7929978-.3524017-.7929978-.7929459v-3.4979362c0-.4405403.3524556-.792942.7929978-.792942h3.4979343c.4405432-.0000001.7929449.3524016.7929449.792942z" fill="#f6f0f5"/></g><g><path d="m27.3546047 18.5185871v3.4979343c0 .4405441-.352457.7929459-.7929993.7929459h-3.4978809c-.4405422 0-.7929974-.3524017-.7929974-.7929459v-3.4979343c0-.4405422.3524551-.792944.7929974-.792944h3.4978809c.4405423.0000001.7929993.3524018.7929993.792944z" fill="#f6f0f5"/></g><g><path d="m27.3546047 26.7214851v11.7008324c0 .4405441-.352457.7929459-.7929993.7929459h-3.4978809c-.4405422 0-.7929974-.3524017-.7929974-.7929459v-11.7008324c0-.4405422.3524551-.792944.7929974-.792944h3.4978809c.4405423.0000001.7929993.3524018.7929993.792944z" fill="#ffcf1a"/></g><g><path d="m11.3012104 18.5185871v3.4979343c0 .4405441-.3524017.7929459-.7929449.7929459h-3.4979343c-.4405422 0-.7929978-.3524017-.7929978-.7929459v-3.4979343c0-.4405422.3524556-.792944.7929978-.792944h3.4979343c.4405432.0000001.7929449.3524018.7929449.792944z" fill="#f6f0f5"/></g><g><path d="m19.3278809 26.7214851v3.4979343c0 .4405422-.3524017.792944-.792944.792944h-3.4979353c-.4405432 0-.7929449-.3524017-.7929449-.792944v-3.4979343c0-.4405422.3524017-.792944.7929449-.792944h3.4979353c.4405422.0000001.792944.3524018.792944.792944z" fill="#f6f0f5"/></g><g opacity=".1"><path d="m11.3012104 18.5185871v3.4979343c0 .4379311-.3550138.7929459-.7929449.7929459h-3.4979343c-.4405422 0-.7929978-.3524017-.7929978-.7929459v-.3964977h.0000576c2.1508045 0 3.8943758-1.7435722 3.8943758-3.8943768v-.0000038h.3964987c.4405432.0000001.7929449.3524018.7929449.792944z" fill="#231f20"/></g><g opacity=".1"><path d="m19.3278809 18.5185871v3.4979343c0 .4379311-.3550148.7929459-.792944.7929459h-3.4979353c-.4405432 0-.7929449-.3524017-.7929449-.7929459v-.3964977h.0000048c2.1508036 0 3.8943758-1.7435722 3.8943758-3.8943768v-.0000038h.3964996c.4405422.0000001.792944.3524018.792944.792944z" fill="#231f20"/></g><g opacity=".1"><path d="m27.3546047 18.5185871v3.4978809c0 .4379616-.3550377.7929993-.7929993.7929993h-3.4978809c-.4405422 0-.7929974-.3524017-.7929974-.7929459v-.3964977h.0000038c2.1508045 0 3.8943768-1.7435722 3.8943768-3.8943768v-.0000038h.3964977c.4405423.0000001.7929993.3524018.7929993.792944z" fill="#231f20"/></g><g opacity=".1"><path d="m11.3012104 26.7214851v3.4979343c0 .4379311-.3550138.792944-.7929449.792944h-3.4979343c-.4405422 0-.7929978-.3524017-.7929978-.792944v-.3964977h.0000576c2.1508045 0 3.8943758-1.7435722 3.8943758-3.8943768v-.0000038h.3964987c.4405432.0000001.7929449.3524018.7929449.792944z" fill="#231f20"/></g><g opacity=".1"><path d="m19.3278809 26.7214851v3.4979343c0 .4379311-.3550148.792944-.792944.792944h-3.4979353c-.4405432 0-.7929449-.3524017-.7929449-.792944v-.3964977h.0000048c2.1508036 0 3.8943758-1.7435722 3.8943758-3.8943768v-.0000038h.3964996c.4405422.0000001.792944.3524018.792944.792944z" fill="#231f20"/></g><g opacity=".1"><path d="m11.3012104 34.9243813v3.4979362c0 .4379311-.3550138.7929459-.7929449.7929459h-3.4979343c-.4405422 0-.7929978-.3524017-.7929978-.7929459v-.3964996h.0000576c2.1508045 0 3.8943758-1.7435722 3.8943758-3.8943748v-.0000038h.3964987c.4405432-.0000001.7929449.3524016.7929449.792942z" fill="#231f20"/></g><g opacity=".1"><path d="m19.3278809 34.9243813v3.4979362c0 .4379311-.3550148.7929459-.792944.7929459h-3.4979353c-.4405432 0-.7929449-.3524017-.7929449-.7929459v-.3964996h.0000048c2.1508036 0 3.8943758-1.7435722 3.8943758-3.8943748v-.0000038h.3964996c.4405422-.0000001.792944.3524016.792944.792942z" fill="#231f20"/></g><g opacity=".1"><path d="m27.3546047 26.7214851v11.7008324c0 .4379311-.3550148.7929459-.792944.7929459h-3.4979362c-.4405422 0-.7929974-.3524017-.7929974-.7929459v-.3964996h.0000038c2.1508045 0 3.8943768-1.7435722 3.8943768-3.8943748v-8.2029018h.3964977c.4405423-.0000001.7929993.3524016.7929993.7929438z" fill="#231f20"/></g></g><g><g><circle cx="42.344" cy="18.063" fill="#ffcf1a" r="7.565"/></g><g><path d="m44.18013 23.8476315c-3.189312 1.0128059-6.6074486-.7582455-7.6202545-3.9475555s.7572784-6.6079483 3.9465904-7.6207542 6.608181.7580109 7.6209869 3.9473228-.7580108 6.6081809-3.9473228 7.6209869z" fill="#edc119"/></g><g opacity=".1"><path d="m48.1290359 16.2287407c1.0113525 3.1847363-.7600708 6.6047192-3.9497719 7.6176491-1.7820549.5659142-3.636219.2645187-5.09869-.6723099 1.271244.5249805 2.7241936.6185913 4.1318703.171566 3.1897316-1.0129395 4.9611435-4.4329529 3.949791-7.6176882-.4470253-1.4076757-1.3617554-2.5404148-2.5239868-3.2758617 1.6089477.6540251 2.9248695 1.9945888 3.4907874 3.7766447z" fill="#231f20"/></g><g><g><path d="m44.6792374 18.8506489c.276432.8704853-.0806961 1.7870941-.8096008 2.2651978l.1158562.3648281c.0894318.28162-.0634346.5767536-.3450546.6661854s-.5767899-.0634212-.6662216-.3450413l-.1158562-.3648281c-.8712006.0300293-1.6917267-.5125999-1.9681587-1.3830853-.0894318-.28162.0614357-.5831718.3430176-.6725922.28162-.0894318.5852318.0677929.6746635.3494129.1524429.480032.6688728.7528725 1.1553116.5983982s.7508392-.6752796.5983963-1.1553097c-.1544724-.4864388-.6709061-.7592793-1.1573448-.604805-1.0432701.3313046-2.1628189-.243187-2.4961586-1.2928638-.2764206-.8704491.0806961-1.7870951.8096008-2.2651997l-.1158562-.3648281c-.0894203-.2815809.0634727-.576766.3450928-.6661978s.5767632.0634727.6661835.3450537l.1158562.3648281c.8712006-.0300283 1.6917381.512639 1.9681587 1.3830872.0894318.28162-.0613976.5831585-.3430176.6725903s-.5851936-.0678043-.6746254-.3494244c-.1524391-.480032-.6688728-.7528734-1.1553116-.5983992-.4864388.1544752-.7508392.6752787-.5983963 1.1553106.1544724.4864388.6709061.7592793 1.1573448.604805 1.04327-.3313045 2.1627921.2432385 2.4961204 1.2928773z" fill="#fff"/></g></g></g></g></g></svg>