<svg clip-rule="evenodd" fill-rule="evenodd" height="1.707in" image-rendering="optimizeQuality" shape-rendering="geometricPrecision" text-rendering="geometricPrecision" viewBox="0 0 1707 1707" width="1.707in" xmlns="http://www.w3.org/2000/svg"><g id="Layer_x0020_1"><path d="m295 479h-92c-11-11-36-7-36 14l-1 37c-5 0-11 1-17 2 23 41 44 73 99 74 55 0 77-32 100-74-6-1-11-2-16-2l-1-37c0-21-25-25-36-14z" fill="#ff9e7c"/><path d="" fill="#333"/><path d="m119 337c-7-1-11-5-12-5l1-43c-13-13-41-35-23-57 29-35 85-61 137-63 37-2 68 9 92 30 28 5 77 29 76 100v37c0 50-127-46-217-10-25 9-15 15-54 11z" fill="#333"/><path d="m249 532c-78 0-142-71-142-159 0-13-1-29 1-41 14-103 277-38 282 5 11 96-45 195-141 195z" fill="#ffaf8a"/><path d="m477 819h-457c-11 0-20-9-20-20v-151c9-61 91-106 149-116 23 41 44 73 99 74 55 0 77-32 100-74 61 12 150 61 150 119v148c-1 11-10 20-21 20z" fill="#008080"/><path d="m420 819h-44v-124c0-26 44-26 44 0zm-298 0h-44v-124c0-26 44-26 44 0z" fill="#006868"/><path d="m1504 479h-92c-11-11-36-7-36 14l-1 37c-5 0-11 1-17 2 23 41 44 73 99 74 55 0 77-32 100-74-6-1-11-2-16-2l-1-37c0-21-25-25-36-14z" fill="#ff9e7c"/><path d="" fill="#333"/><path d="m1328 337c-7-1-11-5-12-5l1-43c-13-13-41-35-23-57 29-35 85-61 137-63 37-2 68 9 92 30 28 5 77 29 76 100v37c0 50-127-46-217-10-24 9-15 15-54 11z" fill="#333"/><path d="m1458 532c-78 0-142-71-142-159 0-13-1-29 1-41 14-103 277-38 282 5 11 96-45 195-141 195z" fill="#ffaf8a"/><path d="m1686 819h-457c-11 0-20-9-20-20v-151c9-61 91-106 149-116 23 41 44 73 99 74 55 0 77-32 100-74 61 12 150 61 150 119v148c-1 11-10 20-21 20z" fill="#026ca2"/><path d="m1629 819h-44v-124c0-26 44-26 44 0zm-298 0h-44v-124c0-26 44-26 44 0z" fill="#025783"/><path d="m853 1560c-100 0-182-82-182-183 0-100 82-182 182-182 101 0 182 82 182 182 0 101-81 183-182 183z" fill="#1da56f"/><path d="m815 1455c-14 0-36-27-52-43-18-19 10-48 28-29l24 24 100-101c18-18 47 10 28 29l-114 114c-4 4-9 6-14 6z" fill="#fff"/><path d="m1206 1154h-712c-7 0-12-5-12-12l1-230c0-97 162-168 245-168l30 1c105 42 177-1 188-1h26c86 0 231 72 245 166l1 232c0 7-5 12-12 12z" fill="#c33f69"/><path d="m628 1154h-24v-84h-122v-23h122v-79c0-15 24-15 24 0z" fill="#9e3356"/><path d="m946 768c-4 0-7-2-9-4l-87 17-86-20c-3 6-9 9-16 5l-165-92c-5-3-7-9-5-15 44-106 14-189 14-193-10-125 34-227 122-281 83-50 189-50 272 0 87 54 132 156 122 281 0 3-30 88 13 193 3 6 0 12-5 15-19 10-163 94-170 94z" fill="#333"/><path d="m870 1154h-40l-185-278c-9-12 10-24 27-41l-62-62c42-18 86-29 118-29 11 1 25-1 35 3l87 364 88-365c10-3 21-2 34-2 34 0 77 11 117 31l-60 60c16 17 35 29 27 41z" fill="#9e3356"/><path d="m850 1111 88-365c-42 15-76 22-124 15-16-3-33-7-51-14z" fill="#e9f1ff"/><path d="m763 747-5-104c0-14 20-16 23-4h142c3-12 24-10 23 4l-8 103c-58 45-117 42-175 1z" fill="#ff9e7c"/><path d="m1095 1154h-23v-186c0-15 23-15 23 0v79h123v23h-123z" fill="#9e3356"/><path d="m929 159c9 3 18 7 27 10 6 56-33 125-35 127-10 13-29-3-19-14 1-1 43-78 27-123z" fill="#2e2e2e"/><path d="m850 685c-110 0-199-102-199-227 0-9-1-67 1-71 52-126 130 8 251-106 6-6 15-4 19 2 17 31 72 109 113 103 7-1 14 5 14 12v60c0 125-89 227-199 227z" fill="#ffaf8a"/><g fill="#ff8e70"><path d="m800 464c-2 0-28-8-44-1-14 7-24-15-10-21 18-8 76-8 65 15-2 5-7 7-11 7z"/><path d="m948 464c-1 0-28-8-43-1-14 7-24-15-10-21 18-9 75-8 64 15-2 5-6 7-11 7z"/><path d="m850 592c-32 0-77-23-60-40 4-4 11-5 16 0 23 22 65 22 88 0 11-11 27 6 16 17-16 16-38 23-60 23z"/></g></g></svg>