<svg id="Flat" height="512" viewBox="0 0 64 64" width="512" xmlns="http://www.w3.org/2000/svg"><g id="Color_copy"><g><g><g><path d="m54 46h2v6h-2z" fill="#52b788"/><path d="m61 42h-3c-1.657 0-3 1.343-3 3v1h2c2.209 0 4-1.791 4-4z" fill="#95d5b2"/><path d="m49 43h3c1.657 0 3 1.343 3 3v1h-2c-2.209 0-4-1.791-4-4z" fill="#95d5b2"/><g fill="#52b788"><path d="m50.141 43h-1.141c0 2.209 1.791 4 4 4h2v-1h-1c-1.862 0-3.412-1.278-3.859-3z"/><path d="m59.859 42h1.141c0 2.209-1.791 4-4 4h-2v-1h1c1.862 0 3.412-1.278 3.859-3z"/></g></g><g><path d="m24 46h2v5h-2z" fill="#52b788"/><path d="m31 42h-3c-1.657 0-3 1.343-3 3v1h2c2.209 0 4-1.791 4-4z" fill="#95d5b2"/><path d="m19 43h3c1.657 0 3 1.343 3 3v1h-2c-2.209 0-4-1.791-4-4z" fill="#95d5b2"/><g fill="#52b788"><path d="m20.141 43h-1.141c0 2.209 1.791 4 4 4h2v-1h-1c-1.862 0-3.412-1.278-3.859-3z"/><path d="m29.859 42h1.141c0 2.209-1.791 4-4 4h-2v-1h1c1.862 0 3.412-1.278 3.859-3z"/></g></g><g><path d="m39 46h2v6h-2z" fill="#52b788"/><path d="m46 42h-3c-1.657 0-3 1.343-3 3v1h2c2.209 0 4-1.791 4-4z" fill="#95d5b2"/><path d="m34 43h3c1.657 0 3 1.343 3 3v1h-2c-2.209 0-4-1.791-4-4z" fill="#95d5b2"/><g fill="#52b788"><path d="m35.141 43h-1.141c0 2.209 1.791 4 4 4h2v-1h-1c-1.862 0-3.412-1.278-3.859-3z"/><path d="m44.859 42h1.141c0 2.209-1.791 4-4 4h-2v-1h1c1.862 0 3.412-1.278 3.859-3z"/></g></g><g><path d="m8 46h2v7h-2z" fill="#52b788"/><path d="m15 42h-3c-1.657 0-3 1.343-3 3v1h2c2.209 0 4-1.791 4-4z" fill="#95d5b2"/><path d="m3 43h3c1.657 0 3 1.343 3 3v1h-2c-2.209 0-4-1.791-4-4z" fill="#95d5b2"/><g fill="#52b788"><path d="m4.141 43h-1.141c0 2.209 1.791 4 4 4h2v-1h-1c-1.862 0-3.412-1.278-3.859-3z"/><path d="m13.859 42h1.141c0 2.209-1.791 4-4 4h-2v-1h1c1.862 0 3.412-1.278 3.859-3z"/></g></g><path d="m51 3c1.024 2.879 4.312 4.241 7.071 2.929-1.312 2.759.05 6.047 2.929 7.071-2.879 1.024-4.241 4.312-2.929 7.071-2.759-1.312-6.047.05-7.071 2.929-1.024-2.879-4.312-4.241-7.071-2.929 1.312-2.759-.05-6.047-2.929-7.071 2.879-1.024 4.241-4.312 2.929-7.071 2.759 1.312 6.047-.05 7.071-2.929z" fill="#fffa48"/><path d="m51 19.477c-1.229-1.136-2.845-1.832-4.579-1.901-.033-.836-.211-1.668-.538-2.456-.326-.788-.789-1.504-1.358-2.119.569-.615 1.032-1.331 1.358-2.119.327-.788.505-1.62.538-2.456 1.734-.071 3.35-.767 4.579-1.903 1.229 1.136 2.845 1.832 4.579 1.901.033.836.211 1.668.538 2.456.326.788.789 1.504 1.358 2.119-.569.615-1.032 1.331-1.358 2.119-.327.788-.505 1.62-.538 2.456-1.734.071-3.35.767-4.579 1.903z" fill="#fcea42"/><circle cx="51" cy="13" fill="#ff7373" r="4"/><circle cx="51" cy="13" fill="#ef5350" r="2.5"/><path d="m61 52-2.257-.564c-1.148-.287-2.345-.315-3.505-.083l-1.158.232c-1.363.273-2.774.185-4.093-.255l-1.211-.404c-1.793-.598-3.739-.54-5.494.161l-.078.031c-1.439.576-3.014.72-4.534.416l-.909-.182c-1.16-.232-2.357-.204-3.505.083-1.474.369-3.023.309-4.464-.171l-1.448-.483c-1.527-.509-3.173-.545-4.721-.103l-2.985.853c-1.08.309-2.213.386-3.325.227l-3.199-.457c-1.385-.198-2.798-.029-4.097.491l-2.245.898c-.502.201-1.054.238-1.578.107-1.623-.404-3.194.823-3.194 2.495v5.708h58z" fill="#edb88e"/><path d="m57 16c-.627 0-1.212.157-1.74.414-.878-1.442-2.449-2.414-4.26-2.414-.545 0-1.061.109-1.552.271-1.064-2.51-3.55-4.271-6.448-4.271-2.149 0-4.07.971-5.354 2.495-.473-.311-1.037-.495-1.646-.495-1.311 0-2.414.846-2.822 2.018-.06-.002-.117-.018-.178-.018-2.761 0-5 2.239-5 5s2.239 5 5 5c.979 0 1.887-.285 2.654-.774.66.481 1.466.774 2.346.774.786 0 1.515-.235 2.133-.627.876.396 1.843.627 2.867.627 1.664 0 3.19-.583 4.392-1.553.91.953 2.186 1.553 3.608 1.553 1.213 0 2.31-.449 3.176-1.168.724.722 1.722 1.168 2.824 1.168 2.209 0 4-1.791 4-4s-1.791-4-4-4z" fill="#e9f1f2"/><path d="m58 20c-.472 0-.926-.082-1.346-.233-.983-.352-2.034-.405-3.016-.052-.512.184-1.062.285-1.638.285-.711 0-1.385-.15-1.996-.419-1.058-.466-2.241-.569-3.307-.122-.83.348-1.741.541-2.697.541-.615 0-1.208-.083-1.774-.235-.704-.189-1.446-.117-2.147.083-.343.099-.704.152-1.079.152-.389 0-.764-.057-1.119-.163-.838-.25-1.712-.253-2.554-.018-.685.191-1.431.238-2.207.105-1.971-.339-3.599-1.888-4.008-3.846-.011-.053-.015-.106-.024-.159-.671.852-1.088 1.913-1.088 3.081 0 2.761 2.239 5 5 5 .979 0 1.887-.285 2.654-.774.66.481 1.466.774 2.346.774.786 0 1.515-.235 2.133-.627.876.396 1.843.627 2.867.627 1.664 0 3.19-.583 4.392-1.553.91.953 2.186 1.553 3.608 1.553 1.213 0 2.31-.449 3.176-1.168.724.722 1.722 1.168 2.824 1.168 2.209 0 4-1.791 4-4 0-.413-.081-.803-.197-1.178-.723.718-1.703 1.178-2.803 1.178z" fill="#d0d8da"/><path d="m61 55-2.257-.564c-1.148-.287-2.345-.315-3.505-.083l-1.158.232c-1.363.273-2.774.185-4.093-.255l-1.211-.404c-1.793-.598-3.739-.54-5.494.161l-.078.031c-1.439.576-3.014.72-4.534.416l-.909-.182c-1.16-.232-2.357-.204-3.505.083-1.474.369-3.023.309-4.464-.171l-1.448-.483c-1.527-.509-3.173-.545-4.721-.103l-2.985.853c-1.08.309-2.213.386-3.325.227l-3.199-.457c-1.385-.198-2.798-.029-4.097.491l-2.245.898c-.502.201-1.054.238-1.578.107-1.623-.404-3.194.823-3.194 2.495v2.708h58z" fill="#da9367"/><circle cx="45" cy="57" fill="#c1815d" r="1"/><circle cx="40" cy="59" fill="#c1815d" r="1"/><circle cx="49" cy="56" fill="#c1815d" r="1"/><circle cx="26" cy="55" fill="#c1815d" r="1"/><circle cx="29" cy="58" fill="#c1815d" r="1"/><circle cx="35" cy="56" fill="#c1815d" r="1"/><circle cx="21" cy="57" fill="#c1815d" r="1"/><circle cx="17" cy="59" fill="#c1815d" r="1"/><circle cx="7" cy="59" fill="#c1815d" r="1"/><circle cx="13" cy="56" fill="#c1815d" r="1"/><circle cx="54" cy="58" fill="#c1815d" r="1"/><circle cx="57" cy="56" fill="#c1815d" r="1"/><g fill="#48cae4"><path d="m56.687 29.391c-.219 0-.44-.071-.624-.219-.432-.346-.501-.975-.156-1.406l.312-.391c.345-.431.976-.501 1.405-.156.432.346.501.975.156 1.406l-.312.391c-.197.246-.488.375-.781.375z"/><path d="m51.419 35.976c-.219 0-.44-.071-.624-.219-.431-.345-.501-.975-.156-1.406l.526-.658c.345-.431.973-.501 1.405-.156.431.345.501.975.156 1.406l-.526.658c-.197.246-.487.375-.781.375z"/><path d="m54.053 32.683c-.219 0-.44-.071-.625-.22-.431-.345-.501-.974-.156-1.405l.527-.658c.346-.432.974-.503 1.406-.155.431.345.501.974.156 1.405l-.527.658c-.197.247-.488.375-.781.375z"/><path d="m49 39c-.219 0-.44-.071-.624-.219-.432-.346-.501-.975-.156-1.406l.312-.391c.345-.431.975-.501 1.405-.156.432.346.501.975.156 1.406l-.312.391c-.198.246-.489.375-.781.375z"/><path d="m50.687 29.391c-.219 0-.44-.071-.624-.219-.432-.346-.501-.975-.156-1.406l.312-.391c.345-.431.975-.501 1.405-.156.432.346.501.975.156 1.406l-.312.391c-.197.246-.488.375-.781.375z"/><path d="m45.419 35.976c-.219 0-.44-.071-.624-.219-.431-.345-.501-.975-.156-1.406l.526-.658c.344-.431.973-.501 1.405-.156.431.345.501.975.156 1.406l-.526.658c-.197.246-.487.375-.781.375z"/><path d="m48.053 32.683c-.219 0-.44-.071-.625-.22-.431-.345-.501-.974-.156-1.405l.527-.658c.345-.432.975-.503 1.406-.155.431.345.501.974.156 1.405l-.527.658c-.197.247-.488.375-.781.375z"/><path d="m43 39c-.219 0-.44-.071-.624-.219-.432-.346-.501-.975-.156-1.406l.312-.391c.345-.431.975-.501 1.405-.156.432.346.501.975.156 1.406l-.312.391c-.198.246-.489.375-.781.375z"/><path d="m44.687 29.391c-.219 0-.44-.071-.624-.219-.432-.346-.501-.975-.156-1.406l.312-.391c.345-.431.976-.501 1.405-.156.432.346.501.975.156 1.406l-.312.391c-.197.246-.488.375-.781.375z"/><path d="m39.419 35.976c-.219 0-.44-.071-.624-.219-.431-.345-.501-.975-.156-1.406l.526-.658c.344-.431.974-.501 1.405-.156s.501.975.156 1.406l-.526.658c-.197.246-.487.375-.781.375z"/><path d="m42.053 32.683c-.219 0-.44-.071-.625-.22-.431-.345-.501-.974-.156-1.405l.527-.658c.346-.432.974-.503 1.406-.155.431.345.501.974.156 1.405l-.527.658c-.197.247-.488.375-.781.375z"/><path d="m37 39c-.219 0-.44-.071-.624-.219-.432-.346-.501-.975-.156-1.406l.312-.391c.345-.431.976-.501 1.405-.156.432.346.501.975.156 1.406l-.312.391c-.198.246-.489.375-.781.375z"/><path d="m38.687 29.391c-.219 0-.44-.071-.624-.219-.432-.346-.501-.975-.156-1.406l.312-.391c.345-.431.975-.501 1.405-.156.432.346.501.975.156 1.406l-.312.391c-.197.246-.488.375-.781.375z"/><path d="m33.419 35.976c-.219 0-.44-.071-.624-.219-.431-.345-.501-.975-.156-1.406l.526-.658c.344-.431.973-.501 1.405-.156.431.345.501.975.156 1.406l-.526.658c-.197.246-.487.375-.781.375z"/><path d="m36.053 32.683c-.219 0-.44-.071-.625-.22-.431-.345-.501-.974-.156-1.405l.527-.658c.346-.432.975-.503 1.406-.155.431.345.501.974.156 1.405l-.527.658c-.197.247-.488.375-.781.375z"/><path d="m31 39c-.219 0-.44-.071-.624-.219-.432-.346-.501-.975-.156-1.406l.312-.391c.345-.431.975-.501 1.405-.156.432.346.501.975.156 1.406l-.312.391c-.198.246-.489.375-.781.375z"/><path d="m32.687 29.391c-.219 0-.44-.071-.624-.219-.432-.346-.501-.975-.156-1.406l.312-.391c.345-.431.976-.501 1.405-.156.432.346.501.975.156 1.406l-.312.391c-.197.246-.488.375-.781.375z"/><path d="m27.419 35.976c-.219 0-.44-.071-.624-.219-.431-.345-.501-.975-.156-1.406l.526-.658c.344-.431.973-.501 1.405-.156.431.345.501.975.156 1.406l-.526.658c-.197.246-.487.375-.781.375z"/><path d="m30.053 32.683c-.219 0-.44-.071-.625-.22-.431-.345-.501-.974-.156-1.405l.527-.658c.346-.432.975-.503 1.406-.155.431.345.501.974.156 1.405l-.527.658c-.197.247-.488.375-.781.375z"/><path d="m25 39c-.219 0-.44-.071-.624-.219-.432-.346-.501-.975-.156-1.406l.312-.391c.345-.431.976-.501 1.405-.156.432.346.501.975.156 1.406l-.312.391c-.198.246-.489.375-.781.375z"/><path d="m26.687 29.391c-.219 0-.44-.071-.624-.219-.432-.346-.501-.975-.156-1.406l.312-.391c.345-.431.975-.501 1.405-.156.432.346.501.975.156 1.406l-.312.391c-.197.246-.488.375-.781.375z"/><path d="m21.419 35.976c-.219 0-.44-.071-.624-.219-.431-.345-.501-.975-.156-1.406l.526-.658c.344-.431.973-.501 1.405-.156.431.345.501.975.156 1.406l-.526.658c-.197.246-.487.375-.781.375z"/><path d="m25.053 32.683c-.219 0-.44-.071-.625-.22-.431-.345-.501-.974-.156-1.405l.527-.658c.346-.432.974-.503 1.406-.155.431.345.501.974.156 1.405l-.527.658c-.197.247-.488.375-.781.375z"/><path d="m19 39c-.219 0-.44-.071-.624-.219-.432-.346-.501-.975-.156-1.406l.312-.391c.345-.431.975-.501 1.405-.156.432.346.501.975.156 1.406l-.312.391c-.198.246-.489.375-.781.375z"/></g></g><g><path d="m17.561 31.567-2.203-2.036c-1.217-1.124-3.115-1.049-4.239.167l-.679.734 1.469 1.357c1.622 1.501 4.152 1.401 5.652-.222z" fill="#95d5b2"/><g><path d="m16.97 32.09c-1.51 1.1-3.64 1.02-5.06-.3l-1.47-1.36.68-.73c.5-.55 1.16-.86 1.85-.93-.09.07-.17.15-.25.24-.18.19-.27.44-.27.68 0 .27.11.54.32.73l.74.68c.97.9 2.26 1.22 3.46.99z" fill="#52b788"/></g></g><g fill="#48cae4"><path d="m16 22h-12c-.552 0-1-.447-1-1s.448-1 1-1h12c.551 0 1-.448 1-1s-.449-1-1-1c-.552 0-1-.447-1-1s.448-1 1-1c1.654 0 3 1.346 3 3s-1.346 3-3 3z"/><path d="m24 14h-12c-.552 0-1-.447-1-1s.448-1 1-1h12c.551 0 1-.448 1-1s-.449-1-1-1c-.552 0-1-.447-1-1s.448-1 1-1c1.654 0 3 1.346 3 3s-1.346 3-3 3z"/><path d="m15 26h-7c-.552 0-1-.447-1-1s.448-1 1-1h7c.552 0 1 .447 1 1s-.448 1-1 1z"/><path d="m25 22h-4c-.552 0-1-.447-1-1s.448-1 1-1h4c.552 0 1 .447 1 1s-.448 1-1 1z"/><path d="m11 18h-6c-.552 0-1-.447-1-1s.448-1 1-1h6c.552 0 1 .447 1 1s-.448 1-1 1z"/><path d="m15 10h-9c-.552 0-1-.447-1-1s.448-1 1-1h9c.552 0 1 .447 1 1s-.448 1-1 1z"/><path d="m24 18h-2c-.552 0-1-.447-1-1s.448-1 1-1h2c.552 0 1 .447 1 1s-.448 1-1 1z"/><path d="m7 31h-3c-.552 0-1-.447-1-1s.448-1 1-1h3c.552 0 1 .447 1 1s-.448 1-1 1z"/></g></g></g></svg>