<svg height="512" viewBox="0 0 64 64" width="512" xmlns="http://www.w3.org/2000/svg"><g id="Flat"><g id="Color"><rect fill="#44394a" height="54" rx="4" width="52" x="6" y="7"/><path d="m48.18 55.83 8.65-8.66a4 4 0 0 0 1.17-2.82v-25.35h-52v33.94a4 4 0 0 0 4 4l35.34.06a4 4 0 0 0 2.84-1.17z" fill="#f7fcff"/><path d="m54 7h-44a4 4 0 0 0 -4 4v8h52v-8a4 4 0 0 0 -4-4z" fill="#f9c92e"/><path d="m56 46h-5a4 4 0 0 0 -4 4v5a2 2 0 0 1 -2 2h.33a4 4 0 0 0 2.84-1.17l8.65-8.66a4 4 0 0 0 1.18-2.82v-.35a2 2 0 0 1 -2 2z" fill="#a4c0d8"/><rect fill="#44394a" height="9" rx="2.5" transform="matrix(-1 0 0 -1 64 15)" width="5" x="29.5" y="3"/><rect fill="#44394a" height="9" rx="2.5" transform="matrix(-1 0 0 -1 95 15)" width="5" x="45" y="3"/><rect fill="#44394a" height="9" rx="2.5" width="5" x="14" y="3"/><g fill="#00c7d6"><path d="m19.32 43a3.72 3.72 0 1 1 0-7.44 3.74 3.74 0 0 1 6.92-2.41 7.44 7.44 0 1 1 14.32 3.1 3.72 3.72 0 1 1 2.15 6.75z"/><path d="m21 46a1 1 0 0 0 -1 1v1a1 1 0 0 0 2 0v-1a1 1 0 0 0 -1-1z"/><path d="m42 46a1 1 0 0 0 -1 1v1a1 1 0 0 0 2 0v-1a1 1 0 0 0 -1-1z"/><path d="m32 48v-1a1 1 0 0 0 -2 0v1a1 1 0 0 0 2 0z"/><path d="m26 46a1 1 0 0 0 -1 1v3a1 1 0 0 0 2 0v-3a1 1 0 0 0 -1-1z"/><path d="m37 46a1 1 0 0 0 -1 1v3a1 1 0 0 0 2 0v-3a1 1 0 0 0 -1-1z"/></g></g></g></svg>