<svg id="Layer_1" enable-background="new 0 0 512 512" viewBox="0 0 512 512" xmlns="http://www.w3.org/2000/svg"><g><path clip-rule="evenodd" d="m119.4 367.7c-27.6-20.6-46.2-60.6-46.2-106.7 0-46 18.7-86.1 46.2-106.7 27.5 20.6 46.2 60.7 46.2 106.7 0 46.1-18.7 86.1-46.2 106.7z" fill="#ffc60b" fill-rule="evenodd"/><path clip-rule="evenodd" d="m117.3 378.5c47.3 8.1 83.8-55.6 64.3-112-47.2-8.1-83.8 55.5-64.3 112z" fill="#e47b25" fill-rule="evenodd"/><path clip-rule="evenodd" d="m121.5 378.5c-47.3 8.1-83.8-55.6-64.3-112 47.2-8.1 83.7 55.5 64.3 112z" fill="#9e4623" fill-rule="evenodd"/><path d="m106.4 215.5c-4.1 0-7.4-3.3-7.4-7.4s3.3-7.4 7.4-7.4h1.8c4.1 0 7.5 3.3 7.5 7.4s-3.3 7.4-7.5 7.4zm24.1 24.5c-4.1 0-7.5-3.3-7.5-7.4s3.3-7.5 7.5-7.5h1.8c4.1 0 7.4 3.3 7.4 7.5 0 4.1-3.3 7.4-7.4 7.4zm0 24c-4.1 0-7.5-3.3-7.5-7.4s3.3-7.5 7.5-7.5h1.8c4.1 0 7.4 3.3 7.4 7.5 0 4.1-3.3 7.4-7.4 7.4zm0-48.5c-4.1 0-7.5-3.3-7.5-7.4s3.3-7.4 7.5-7.4h1.8c4.1 0 7.4 3.3 7.4 7.4s-3.3 7.4-7.4 7.4zm-24.1 24.5c-4.1 0-7.4-3.3-7.4-7.4s3.3-7.5 7.4-7.5h1.8c4.1 0 7.5 3.3 7.5 7.5 0 4.1-3.3 7.4-7.5 7.4zm0 24c-4.1 0-7.4-3.3-7.4-7.4s3.3-7.5 7.4-7.5h1.8c4.1 0 7.5 3.3 7.5 7.5 0 4.1-3.3 7.4-7.5 7.4z" fill="#fff"/><path clip-rule="evenodd" d="m416.6 37.6c-23.3 0-42.3 23.6-42.3 52.7s18.9 52.7 42.3 52.7 42.3-23.6 42.3-52.7c-.1-29.1-19-52.7-42.3-52.7z" fill="#9e4623" fill-rule="evenodd"/><path clip-rule="evenodd" d="m416.6 37.6h-.1c-20.7 24.2-13.7 44.2-6.5 64.9 4.3 12.2 8.6 24.8 5.4 38.2-.2.7-.2 1.5-.2 2.2h1.5c4.9 0 9.6-1 14-2.9 2.6-15.7-2.1-29.2-6.6-42.3-6.1-17.5-11.9-34.2 6.8-53.7.7-.8 1.2-1.6 1.6-2.5-5.1-2.5-10.4-3.9-15.9-3.9z" fill="#dd6e42" fill-rule="evenodd"/><path clip-rule="evenodd" d="m317.5 100.4c-16.5 16.5-13.2 46.5 7.4 67.1s50.6 23.9 67.2 7.4c16.5-16.5 13.2-46.6-7.4-67.1-20.7-20.6-50.7-23.9-67.2-7.4z" fill="#9e4623" fill-rule="evenodd"/><path clip-rule="evenodd" d="m317.5 100.4c2.5 31.8 21.5 41 41.2 50.6 11.7 5.6 23.7 11.5 30.8 23.2.4.7.9 1.2 1.4 1.7.3-.3.7-.7 1.1-1 3.5-3.5 6-7.5 7.8-11.9-9.3-13-22.1-19.2-34.6-25.3-16.6-8.1-32.6-15.8-33.2-42.8 0-1-.3-2-.7-2.9-5.2 1.7-9.9 4.5-13.8 8.4z" fill="#dd6e42" fill-rule="evenodd"/><path d="m351.2 264.2c-2.7-3-2.5-7.7.6-10.4 3-2.7 7.7-2.5 10.5.6l2.6 2.9 2.6-2.9c2.7-3 7.4-3.3 10.5-.6 3 2.7 3.3 7.4.6 10.4l-8.1 9.1c-.2.2-.4.4-.6.6-3.1 2.7-7.7 2.5-10.5-.6zm45-19.7c-2.7 3.1-7.4 3.3-10.5.6-3-2.7-3.3-7.4-.6-10.5l6.2-6.9c2.7-3.1 7.4-3.3 10.4-.6 3.1 2.7 3.3 7.4.6 10.5zm24.6-27.4c-2.7 3.1-7.4 3.3-10.5.6s-3.3-7.4-.6-10.5l7.2-8.1c2.7-3.1 7.4-3.3 10.5-.6 3 2.7 3.3 7.4.6 10.5zm25.1-28.1c-2.7 3-7.4 3.3-10.5.6s-3.3-7.4-.6-10.5l9.6-10.6c2.7-3.1 7.4-3.3 10.5-.6 3 2.7 3.3 7.4.6 10.5zm-101.3 45.7c2.7 3 2.5 7.7-.6 10.5-3.1 2.7-7.7 2.5-10.5-.6l-6.2-6.9c-2.7-3.1-2.5-7.7.6-10.5 3.1-2.7 7.7-2.5 10.5.6zm-22.8-25.6c2.7 3 2.5 7.7-.6 10.5-3.1 2.7-7.7 2.5-10.5-.6l-21.1-23.5-66 70.3c-2.8 3-7.5 3.1-10.5.3s-3.1-7.5-.3-10.5l71.6-76.2c.1-.1.3-.3.5-.5 3-2.7 7.7-2.5 10.4.6z" fill="#554c9f"/><g clip-rule="evenodd" fill-rule="evenodd"><path d="m275.4 259.3h36.8v146.3h-36.8z" fill="#6d51a1"/><path d="m349.4 307.6h36.8v97.9h-36.8z" fill="#6d51a1"/><path d="m460.2 295.5v110.1h-36.8v-110.1-55h36.8z" fill="#6d51a1"/><path d="m212.7 37.6c39.4 0 71.4 32 71.4 71.4 0 39.5-32 71.4-71.4 71.4-39.5 0-71.4-32-71.4-71.4s31.9-71.4 71.4-71.4z" fill="#9ed3f2"/><path d="m239.4 122.6c0 14.8-12 26.8-26.7 26.8s-26.8-12-26.8-26.8c0-12.2 7.3-20.1 13.7-31.3l13-22.5 13 22.5c6.5 11.1 13.8 19.1 13.8 31.3z" fill="#b92025"/><path d="m216.8 321.3c42.3 0 76.5 34.2 76.5 76.5 0 42.2-34.2 76.5-76.5 76.5-42.2 0-76.5-34.3-76.5-76.5s34.2-76.5 76.5-76.5z" fill="#ffcd05"/><path d="m216.8 345.3c29 0 52.6 23.5 52.6 52.6 0 29-23.5 52.6-52.6 52.6s-52.6-23.5-52.6-52.6 23.5-52.6 52.6-52.6z" fill="#faa21b"/><path d="m216.7 351.1v10l.2-10zm0 83.7v9.8l.2-9.8z" fill="#fedc97"/></g><path d="m224.1 359.9v1.1c0 4.1-3.3 7.4-7.4 7.4s-7.4-3.3-7.4-7.4v-10c0-4.1 3.3-7.4 7.4-7.4h.2.1c4.1.1 7.3 3.5 7.3 7.5zm0 83.6v1.1c0 4.1-3.3 7.5-7.4 7.5s-7.4-3.3-7.4-7.5v-9.8c0-4.1 3.3-7.4 7.4-7.4h.2.1c4.1.1 7.3 3.5 7.3 7.5z" fill="#fff"/><path d="m188 417.4c-.4-4.1 2.6-7.7 6.7-8.1s7.7 2.6 8.1 6.7c.2 2.4 1.7 4.6 3.9 6.3 2.6 2 6.1 3.1 10.1 3.1 4.2 0 7.9-1.3 10.5-3.5 2.2-1.8 3.6-4.1 3.6-6.6 0-7.3-7.7-8.8-15.4-10.3-13.7-2.7-27.5-5.4-27.5-24.8 0-7.2 3.5-13.6 9-18.1 5.2-4.2 12.2-6.8 19.9-6.8s14.7 2.6 19.9 6.8c5.6 4.5 9 10.9 9 18.1 0 4.1-3.3 7.4-7.4 7.4s-7.4-3.3-7.4-7.4c0-2.5-1.4-4.8-3.6-6.7-2.6-2.1-6.3-3.5-10.5-3.5s-7.9 1.3-10.5 3.5c-2.2 1.8-3.5 4.2-3.5 6.7 0 7.3 7.7 8.8 15.4 10.3 13.7 2.7 27.5 5.4 27.5 24.8 0 7.2-3.4 13.6-9 18.1-5.2 4.2-12.2 6.8-19.9 6.8-7.3 0-14-2.4-19-6.2-5.6-4-9.3-9.8-9.9-16.6z" fill="#fff"/><path clip-rule="evenodd" d="m265.7 374.5c8.2 0 14.9 6.7 14.9 14.9s-6.6 14.9-14.9 14.9c-8.2 0-14.9-6.6-14.9-14.9.1-8.2 6.8-14.9 14.9-14.9z" fill="#feeb90" fill-rule="evenodd"/></g></svg>