<svg id="Layer_1" height="512" viewBox="0 0 512 512" width="512" xmlns="http://www.w3.org/2000/svg" data-name="Layer 1"><path d="m256 163.475 173.722 55.858.001 15.796-173.723 81.083-173.722-81.084-.002-15.795z" fill="#323e66" fill-rule="evenodd"/><path d="m247.524 225.514c-.982 40.268 25.668 60.687 63.16 60.575.093 7.968.313 16.061.661 24.282.18 4.599 4.056 8.182 8.655 8.002s8.182-4.055 8.002-8.655c-.303-7.148-.506-14.194-.611-21.141 35.723 10.475 66.832-1.625 77.248-40.348-24.634-7.718-47.837-8.887-76.986 5.683l.659-13.232c32.152 9.192 60.081-1.868 69.471-36.776-21.388-6.701-49.869-10.485-67.744 13.973.692-7.194 1.514-14.255 2.468-21.183 32.214 9.267 60.214-1.772 69.617-36.733-20.451-6.408-47.386-10.148-65.334 10.917 1.217-6.224 2.551-12.328 4.003-18.315 29.525 8.291 55.128-1.969 63.761-34.062-17.156-5.375-39.257-8.717-55.584 5.306 1.664-5.057 3.425-10.014 5.281-14.874 21.836 8.807 42.383 3.153 52.326-20.675-12.314-5.74-28.35-10.498-42.211-2.886 1.305-2.718 2.645-5.4 4.019-8.047 21.135 8.377 40.983 2.805 50.632-20.274-10.397-4.855-23.516-8.992-35.626-5.192 7.318-4.901 28.654-9.304 20.172-40.812-31.671 7.152-34.341 22.931-37.399 36.703-2.447-14.888-15.334-24.418-26.846-30.573-12.686 21.563-5.24 40.791 14.141 52.681-1.383 2.668-2.732 5.369-4.048 8.102-4.046-17.813-20.747-26.971-35.172-32.224-10.739 26.119.922 46.347 24.78 56.29-1.253 3.251-2.465 6.543-3.635 9.875-6.188-16.494-22.52-26.199-36.978-32.291-14.136 30.055-1.245 54.416 26.612 67.17-.861 3.48-1.683 6.999-2.467 10.556-8.521-19.622-29.582-28.006-47.524-32.243-9.765 34.91 8.741 58.706 41.25 67.147-.649 4.571-1.241 9.197-1.778 13.879-10.794-21.27-34.809-26.674-54.509-27.977-3.869 36.051 18.323 56.468 51.794 59.418-.306 5.142-.551 10.345-.734 15.609-13.423-24.049-41.172-28.021-63.526-27.652z" fill="#f9ac00" fill-rule="evenodd"/><path d="m358.358 61.354c-2.477-14.407-2.106-21.317-15.209-31.066-3.752 14.761 4.458 23.035 15.209 31.066zm16.568-14.778.656-.439c5.668-3.796 12.996-5.944 17.693-11.06 3.369-3.669 4.436-8.527 4.366-13.502-6.536 2.532-12.736 6.13-16.762 11.404-3.053 3.999-4.713 8.744-5.953 13.598zm-3.01 21.392c11.856 4.69 24.058 4.868 32.674-5.807-10.24-3.029-22.392-3.882-32.674 5.807zm-13.27 31.952c13.847 5.384 25.637 3.567 33.58-6.554-7.693-2.331-16.009-3.095-23.048.77zm-16.246 42.71 1.095.307c21.576 6.059 39.105.79 47.943-17.57-12.452-2.601-25.943-2.574-35.955 6.025l-13.084 11.237zm-6.448 44.649c23.97 6.677 43.573.543 53.165-20.478-16.016-3.539-33.045-3.135-44.716 10.562l-8.448 9.916zm-3.459 44.185c23.59 6.288 42.816.029 52.283-20.723-17.171-3.806-34.963-2.975-46.666 13.037l-5.618 7.686zm-74.532 4.245c3.627 30.193 26.76 40.46 54.429 40.378l-10.072-18.046c-9.082-16.271-26.942-21.303-44.357-22.332zm56.297-7.968-8.676-17.097c-6.946-13.687-21.491-19.199-35.937-21.422 1.358 23.358 17.778 36.154 43.017 38.379l1.597.141zm-31.538-90.124c-2.515 23.251 11.554 38.58 36.069 44.945-3.277-24.456-11.229-36.745-36.069-44.945zm21.257-44.29c-5.09 19.596 4.708 34.85 24.841 44.194.785-21.668-5.017-33.444-24.841-44.194zm38.513-.687c-14.395-6.108-24.43-16.784-21.838-33.292 17.608 8.985 19.962 18.427 21.838 33.292z" fill="#fdc72e" fill-rule="evenodd"/><ellipse cx="213.271" cy="160.024" fill="#f9ac00" rx="51.874" ry="149.035"/><g fill-rule="evenodd"><path d="m193.425 22.294c-.193.577-.382 1.154-.568 1.733-2.261 7.03-4.045 14.259-5.629 23.083-9.771 54.41-8.532 139.156-7.658 198.97.149 10.207.288 19.687.359 28.108 3.053 7.369 6.406 13.744 9.999 18.956-.003-8.529-.008-14.76-.012-15.491-.059-9.398-.215-20.072-.385-31.69-.869-59.43-2.1-143.632 7.502-197.095 1.494-8.323 3.179-15.148 5.317-21.794 1.61-5.005 3.488-9.936 5.744-15.348-5.148 1.468-10.074 5.098-14.668 10.568z" fill="#fdd42f"/><path d="m218.271 11.681v296.687c-1.646.452-3.313.692-5 .692s-3.354-.239-5-.692v-296.687c1.646-.452 3.313-.692 5-.692s3.354.239 5 .692z" fill="#fdd42f"/><path d="m233.116 22.294c.193.577.382 1.154.568 1.733 2.261 7.03 4.045 14.259 5.629 23.083 9.771 54.41 8.532 139.156 7.658 198.97-.149 10.207-.288 19.687-.359 28.108-3.053 7.369-6.406 13.744-9.999 18.956.003-8.529.008-14.76.012-15.491.059-9.398.215-20.072.385-31.69.869-59.43 2.1-143.632-7.502-197.095-1.494-8.323-3.179-15.148-5.317-21.794-1.609-5.005-3.488-9.936-5.744-15.348 5.148 1.468 10.074 5.098 14.668 10.568z" fill="#fdd42f"/><path d="m235.258 295.037h-43.975c-2.173-2.926-4.264-6.27-6.26-10h56.494c-1.996 3.73-4.087 7.074-6.26 10zm0-270.025c2.173 2.927 4.264 6.269 6.26 10h-56.494c1.996-3.731 4.087-7.073 6.26-10h43.975zm13.381 26.002c1.187 3.18 2.321 6.516 3.4 10h-77.536c1.079-3.484 2.213-6.82 3.4-10zm7.72 26.002c.758 3.244 1.473 6.582 2.142 10h-90.46c.67-3.418 1.384-6.756 2.142-10zm4.853 26.002c.472 3.276.906 6.611 1.298 10h-98.477c.392-3.389.826-6.724 1.298-10zm2.807 26.003c.243 3.294.446 6.629.612 10h-102.717c.166-3.371.369-6.706.612-10h101.494zm1.095 26.002c.019 1.661.032 3.326.032 5s-.013 3.34-.032 5h-103.683c-.019-1.66-.032-3.326-.032-5s.013-3.339.032-5zm-.483 26.003c-.166 3.37-.369 6.706-.612 10h-101.494c-.243-3.294-.446-6.63-.612-10h102.717zm-2.12 26.003c-.392 3.389-.825 6.724-1.298 10h-95.881c-.473-3.276-.906-6.611-1.298-10zm-4.008 26.002c-.67 3.418-1.384 6.756-2.142 10h-86.176c-.759-3.244-1.472-6.582-2.142-10zm-6.462 26.002c-1.079 3.484-2.213 6.821-3.4 10h-70.736c-1.187-3.179-2.321-6.517-3.4-10z" fill="#fdd42f"/><path d="m216.376 283.735c3.667-59.885 20.677-146.367 105.583-160.764-51.478 51.478-38.034 139.359-56.289 186.708-18.234 47.302-89.738 48.218-106.79-5.673 17.463 22.494 51.899 21.082 57.496-20.271z" fill="#29b933"/><path d="m216.376 283.735c3.419-55.84 18.45-134.793 89.298-156.879-47.138 51.915-34.8 136.643-52.604 182.823-8.04 20.857-26.438 32.69-45.957 34.788-20.629-2.219-40.309-15.42-48.233-40.46 17.463 22.494 51.899 21.082 57.496-20.271z" fill="#2dd62d"/><path d="m255.744 326.142c-26.47 30.094-82.093 24.546-96.864-22.136-15.325-48.424-4.813-131.551-54.298-181.035 150.098 15.034 70.786 179.318 151.162 203.171z" fill="#0e9902"/><path d="m255.744 326.142c-26.47 30.094-82.093 24.546-96.864-22.136-15.325-48.424-4.813-131.551-54.298-181.035.163.016.315.04.478.057 129.802 33.816 39.843 206.081 150.684 203.115z" fill="#00ab0b"/><path d="m256 501.01 173.723-81.081v-200.597l-173.723 66.668-173.723-66.668v200.597z" fill="#f9ac00"/><path d="m256 286 173.723-66.668v200.597l-173.723 81.082z" fill="#fdc72e"/><path d="m256 286.001 36.479 62.712 165.021-73.066-27.777-56.315z" fill="#e37500"/><path d="m256 286.001-36.479 62.712-165.021-73.066 27.777-56.315z" fill="#e37500"/></g></svg>