<svg id="Capa_1" enable-background="new 0 0 512 512" height="512" viewBox="0 0 512 512" width="512" xmlns="http://www.w3.org/2000/svg"><g><path d="m80.809 438.149c-2.177-2.044-4.318-4.125-6.422-6.244-.801-.806-23.104-30.475-32.79-46.097-1.04-1.677-5.381 1.546-6.383-.156-22.379-38.025-35.214-82.339-35.214-129.652 0-89.386 45.812-168.072 115.236-213.86 3.53-2.328 5.503 16.737 9.153 14.582 38.101-22.501 82.539-35.413 129.992-35.413 25.448 0 50.028 3.713 73.229 10.627 6.464 1.926 14.439-17.208 20.677-14.796 81.72 31.595 143.167 103.92 159.447 192.078h-426.925z" fill="#ffc143"/><path d="m45.213 216.5h32.894v219.074c-1.252-1.21-2.493-2.433-3.72-3.669-.801-.806-1.596 2.9-2.386 2.083-14.082-14.554-26.452-30.775-36.787-48.336v-159.152c-.001-5.523 4.476-10 9.999-10z" fill="#fa0"/><path d="m431.875 152.5c0 4.142-3.358 7.5-7.5 7.5h-39.045c-4.142 0-7.5-3.358-7.5-7.5s3.358-7.5 7.5-7.5h39.045c4.142 0 7.5 3.358 7.5 7.5zm11.416-36.667h-57.961c-4.142 0-7.5 3.358-7.5 7.5s3.358 7.5 7.5 7.5h57.961c4.142 0 7.5-3.358 7.5-7.5s-3.358-7.5-7.5-7.5z" fill="#ffe1a8"/><path d="m511.893 248.538c.071 2.479.107 4.966.107 7.462 0 141.385-114.615 256-256 256-60.541 0-116.173-21.015-160-56.148-.764-.613-1.525-5.043-2.282-5.664-2.616-2.147-5.189-4.345-7.718-6.592v-193.596c0-5.523 4.477-10 10-10h406c5.026 0 9.186 3.708 9.893 8.538z" fill="#fff5f5"/><path d="m82 240h24c-5.523 0-10 4.477-10 10v205.852c-8.456-6.779-16.472-14.083-24-21.863v-183.989c0-5.523 4.477-10 10-10z" fill="#bde2fd"/><path d="m512 250h-286l-10.064-7.362h-89.872l-10.064 7.362h-20.117c-5.458 0-9.883-4.425-9.883-9.883v-23.277c0-9.301 7.54-16.84 16.84-16.84h399.16c5.523 0 10 4.477 10 10z" fill="#0055ca"/><path d="m96 210v40h-24v-40c0-5.523 4.477-10 10-10h24c-5.523 0-10 4.477-10 10z" fill="#00429c"/><path d="m226 250h-110v-20c0-5.523 4.477-10 10-10h90c5.523 0 10 4.477 10 10z" fill="#ff5757"/><path d="m486 225c0 5.523-4.477 10-10 10s-10-4.477-10-10 4.477-10 10-10 10 4.477 10 10zm-50-10c-5.523 0-10 4.477-10 10s4.477 10 10 10 10-4.477 10-10-4.477-10-10-10zm-40 0c-5.523 0-10 4.477-10 10s4.477 10 10 10 10-4.477 10-10-4.477-10-10-10z" fill="#00429c"/><path d="m318.44 440.833c0 4.142-3.358 7.5-7.5 7.5h-47.44c-4.142 0-7.5-3.358-7.5-7.5s3.358-7.5 7.5-7.5h47.44c4.142 0 7.5 3.358 7.5 7.5zm61.878-44.166h-71.722c-4.142 0-7.5 3.358-7.5 7.5s3.358 7.5 7.5 7.5h71.722c4.142 0 7.5-3.358 7.5-7.5s-3.358-7.5-7.5-7.5zm-116.818 15h12.751c4.142 0 7.5-3.358 7.5-7.5s-3.358-7.5-7.5-7.5h-12.751c-4.142 0-7.5 3.358-7.5 7.5s3.358 7.5 7.5 7.5zm181.022-15h-33.594c-4.142 0-7.5 3.358-7.5 7.5s3.358 7.5 7.5 7.5h33.594c4.142 0 7.5-3.358 7.5-7.5s-3.357-7.5-7.5-7.5zm13.846-36.667h-194.868c-4.142 0-7.5 3.358-7.5 7.5s3.358 7.5 7.5 7.5h194.868c4.142 0 7.5-3.358 7.5-7.5s-3.358-7.5-7.5-7.5z" fill="#93d0fd"/><path d="m360.067 327.5c0 4.142-3.358 7.5-7.5 7.5h-89.067c-4.142 0-7.5-3.358-7.5-7.5s3.358-7.5 7.5-7.5h89.067c4.142 0 7.5 3.358 7.5 7.5zm98.301-37.5h-194.868c-4.142 0-7.5 3.358-7.5 7.5s3.358 7.5 7.5 7.5h194.868c4.142 0 7.5-3.358 7.5-7.5s-3.358-7.5-7.5-7.5z" fill="#00a4fb"/><path d="m156.163 177.778h-31.333c-5.523 0-10-4.477-10-10v-157.778c0-5.523 4.477-10 10-10h31.333c5.523 0 10 4.477 10 10v157.778c0 5.523-4.477 10-10 10z" fill="#0077f0"/><path d="m366.766 10v157.778c0 5.523-4.477 10-10 10h-91.87l-26.586 42.222-26.586-42.222h-56.513c-5.523 0-10-4.477-10-10v-157.778c0-5.523 4.477-10 10-10h201.555c5.523 0 10 4.477 10 10z" fill="#0396fd"/><path d="m326.766 92.987c-16.999 37.501-50.339 62.987-88.686 62.987s-71.687-25.487-88.686-62.987c16.998-37.5 50.338-62.987 88.685-62.987s71.688 25.487 88.687 62.987z" fill="#fff5f5"/><path d="m278.079 92.987c0 22.091-17.909 40-40 40s-40-17.909-40-40 17.909-40 40-40 40 17.909 40 40z" fill="#0077f0"/><path d="m263.079 92.987c0 13.807-11.193 25-25 25s-25-11.193-25-25 11.193-25 25-25c13.808 0 25 11.193 25 25z" fill="#004b94"/><path d="m303.033 482.397c0 8.284-6.716 15-15 15h-20c-8.284 0-15-6.716-15-15s6.716-15 15-15h20c8.285 0 15 6.716 15 15z" fill="#ff5757"/><path d="m341.096 482.397c0 8.284-6.716 15-15 15h-41.127c-8.284 0-15-6.716-15-15s6.716-15 15-15h41.127c8.284 0 15 6.716 15 15z" fill="#ff7a7a"/><path d="m221 448.333h-100c-2.761 0-5-2.239-5-5v-148.333c0-2.761 2.239-5 5-5h100c2.761 0 5 2.239 5 5v148.333c0 2.762-2.239 5-5 5z" fill="#002c5d"/><path d="m210.147 335.701c0 15.297-12.4 27.697-27.697 27.697s-27.697-12.4-27.697-27.697 12.4-27.697 27.697-27.697 27.697 12.4 27.697 27.697z" fill="#ff5757"/><path d="m179.721 425.213h-42.869c-2.761 0-5-2.239-5-5v-79.512c0-2.761 2.239-5 5-5h42.869c2.761 0 5 2.239 5 5v79.512c0 2.761-2.238 5-5 5z" fill="#4bcd5c"/><path d="m208.847 405.267h-58.546c-2.249 0-3.542-2.559-2.208-4.37l29.273-39.715c1.096-1.487 3.319-1.487 4.415 0l29.273 39.715c1.335 1.811.042 4.37-2.207 4.37z" fill="#fff5f5"/><path d="m226 475c0 4.142-3.358 7.5-7.5 7.5h-47.44c-4.142 0-7.5-3.358-7.5-7.5s3.358-7.5 7.5-7.5h47.44c4.142 0 7.5 3.358 7.5 7.5z" fill="#bde2fd"/></g></svg>