<svg id="Layer_1" enable-background="new 0 0 53 53" height="512" viewBox="0 0 53 53" width="512" xmlns="http://www.w3.org/2000/svg" xmlns:xlink="http://www.w3.org/1999/xlink"><defs><path id="SVGID_1_" d="m19.1452293 25.0456104c-.6380119-.084959-1.6266041 1.9536514-3.1227627 2.3679066-.1700144.0471306.5006351 1.6348267-.1094255 1.6948242-.4067755.0396442-.7268286-1.6076603-.8854837-1.6319523-.7427263-.113821-.697031-.3268795-1.4653511-.3250389-.1751223.0009136.5777035 1.8061466-.1319304 1.7535019-.4638805-.0339966-.624835-1.7374916-1.235877-1.8678493-.1734838-.0370216-.3457966-.1177616-.5229502-.2142563-1.0015373-.5449429-2.3203182-4.9580555 2.9048376-5.5322762 5.2250748-.5743427 6.8673897 4.0602303 4.568943 3.7551403z"/><clipPath id="SVGID_2_"><use xlink:href="#SVGID_1_"/></clipPath><clipPath id="SVGID_4_"><use xlink:href="#SVGID_3_"/></clipPath><path id="SVGID_3_" d="m18.8943558 25.9643116c-.6712151-.1801777-2.1074905 1.8972397-3.7752914 2.124506-.1937685.0265217.3128338 1.8530216-.3662033 1.8292542-.4526558-.0157547-.5654974-1.8556442-.7362919-1.905262-.7945652-.2306099-.7241039-.4588375-1.5632839-.5668678-.1925182-.024683.3728981 2.0507298-.3992863 1.8902988-.5049763-.1046276-.434535-1.9825859-1.0871296-2.2135124-.1852455-.0653725-.3629904-.1782818-.5437727-.3092976-1.021554-.7385769-1.8303709-5.7351055 3.9950581-5.601469 5.8253621.1337852 6.957715 5.4186019 4.476201 4.7523498z"/></defs><g id="_x38_5"><g><path d="m50.502327 37.6862946c0 4.6670151-10.7478981 8.4441109-24.007246 8.4441109-13.2495089 0-23.9974079-3.7770958-23.9974079-8.4441109 0-4.6570587 10.7478991-8.4341564 23.9974079-8.4341564 13.2593479-.0000001 24.007246 3.7770976 24.007246 8.4341564z" fill="#34ba5d"/></g><g><path d="m50.502327 36.0805931c0 4.6670151-10.7478981 8.4441147-24.007246 8.4441147-13.2495089 0-23.9974079-3.7770996-23.9974079-8.4441147 0-4.6570549 10.7478991-8.4341545 23.9974079-8.4341545 13.2593479 0 24.007246 3.7770996 24.007246 8.4341545z" fill="#46cc6b"/></g><g><g><path d="m33.5197792 38.2731323s-.4960442-.1814766-.6425858-.548481c-.1213074-.2937584.1118126-.3391228-.3831406-1.1090546 0 0-.2191048.2177773-.4355545.1438446-.2053738-.0707054.2090492-1.5703049.2285576-1.6736679 0 0 .2554054-1.8443871.091404-2.9870529-.2735176-1.9290943.0714912-3.7127495-.5780582-5.7980061l3.0341167 1.3980846s-.2635155 3.3244743-.7138367 4.5209122c0 0-.7461014 1.5768738-.2258377 3.6578636 0 0 .0577965.5377235.5592232 1.1964378.1411591.1841698.3172722.379097.536377.5726776.9988136.8858949-1.470665.6264421-1.470665.6264421z" fill="#c6c6f7"/></g><g><path d="m32.543808 36.6828117c-.0295715-.0430183-.0497551-.067215-.0497551-.067215s-.2191048.2177773-.4355545.1438446c-.0819855-.0282288-.0699062-.272892-.0228424-.5672951.2483902-.0441245.4979629.1140443.508152.4906655z" fill="#2d3240"/></g><g><path d="m33.5197792 38.2731323s-.4960442-.1814766-.6425858-.548481c.6855774-.010746 1.2394485-.3642998 1.5768738-.6506386.1411591.1841698.3172722.379097.536377.5726776.9988136.8858948-1.470665.626442-1.470665.626442z" fill="#2d3240"/></g><g><path d="m7.2842169 15.2720041c-.9161959 1.9159441-.8809128 6.5138311-1.2757154 9.4827547h-.5700187c0-.2473564-.0066953-.4933586-.0282249-.7380238-.0658698-.7393703.0847082-1.5473022.1196618-2.2866726.134481-2.8832664-.220222-7.0821362 1.1950765-8.2648096.1223202-.102169.2487102-.2016468.3723764-.3024702l-.1653476 2.080988z" fill="#deddff"/></g><g><path d="m5.4365139 24.7543087c-.0003939.328167-.0119467.6576881-.0207753.9849873-.2070618.542244-.3270516 1.1364841-.4666352 1.6936131-.0210052.0779953-.0618005.1432095-.1220579.1955662-.1012173.117012-.1037116.1369572-.071548.1193829-.2268519.2206249-.2944283.6275692-.3623986.922802-.1516871.6601925-.294497 2.5755482.1061726 3.061945.102366.1244793.1357112.4257088.1808715.6982384.0163445.0983963.0692501.1747856.1392555.2256966.0628505.4234276.1417823.8427544.1964278 1.2667122.0201187.1557083.2227826.1221428.2500887-.0052757.0524468-.2437859.0854635-.4965172.08356-.747818-.0018706-.2497292.0816236-.5937653.0391545-.8301353.0497336.1087418.0762477-.3559341.1055818-.6829853.1000686-1.1190739.4196701-2.2389107.3187485-3.3786774.061636-.2435741.0405655-.4977322-.0394497-.7504044-.0884829-.2798252-.0141783-.6006317.0267482-.8809071.0125704-.0864487.0212345-.1771545.0265517-.2697163.1573482-.6096802.1208205-1.1693707.1815605-1.623024h-.5718566z" fill="#2d3240"/></g><g><path d="m5.4384828 24.7547588c0 .3266659-.0134234.6573696-.0228424.9840355.009419-.3266659.0201511-.656023.0215297-.9840355z" fill="#2d3240"/></g><g><path d="m16.4941139 37.422184.962513.6345177c-.0161476.3454895-.6089745.4207687-1.2623234.4678154-.9927158.057106-1.5112371-.3987656-1.7543306-1.3268318-.0819845-.1895447-.1760798-.2406273-.2836313-.0981331l-.0026913.0026855c-.1209745.1344299-.3468418.0914192-.3992558-.0820007-.1027193-.3468552-.1613703-1.946022-.8253918-3.5167122-1.3939705-3.5506687-1.3081598-3.6388226-1.6709995-4.0786362-.0053825-.0053749-.009387-.0120945-.0147696-.017477-.4880009-.5955276-.5834417-1.4249649-.2594748-2.1226616.7649364-1.6427498.6506577-3.4857922-.1035147-5.4753685 0 0 .5511799-3.1564445 4.0867205-1.6239281l1.0095768.6197243s3.4064598 1.1278782 3.8742752 2.0621738c0 0-5.4968653 2.7679291-5.6124907 7.3412724-.2782478 1.9815083.2729321 4.071909 1.2730904 6.2201214l.4825859.5309944.4046373.3750687z" fill="#c6c6f7"/></g><g><use fill="#ee8778" xlink:href="#SVGID_1_"/></g><g><use fill="#ffaf93" xlink:href="#SVGID_3_"/></g><g><path d="m45.3926926 15.3042669c-.2605019 1.7089281-1.2074318 3.020503-2.3968811 4.3421164 0 0-1.3819542.463789-3.2975922 4.0934238-1.9156418 3.6296349-3.3056679 5.0586376-4.7870674 4.7897758-.5552177-.1008244-.9571648-.2110577-1.2421722-.3091908-.474514-.1640091-.6250916-.2957497-.6250916-.2957497s-.2863235 3.5960274-.7729797 4.8892536c-.0162277.1000175-.8067856 1.7066917-.2433281 3.9576454 0 0 .0537949.4947052.4866562 1.1292152.169384.2473564.3952217.5148735.6976891.7837334.8482666.7514725-.614357.7407188-1.2838211.7017365-.3011246-.0174789-.5941753-.1290588-.8092766-.3401146-.130394-.1263657-.2352543-.2917137-.2366009-.4960518-.0152626-.5794601-.3294926-.8786354-.3696842-.9799995 0 0-.2366009.2352562-.4718533.1559372-.2352543-.0806541.247364-1.8107796.247364-1.8107796s.2769356-1.9949608.0994778-3.230381c-.2981606-2.0916176.076931-4.0181446-.6264362-6.272543 0 0-7.2028198 1.590313-10.9547749-.4570675 0 0-1.114439-.5901546-1.6965351-1.2407951-.3078518-.3427982-.6654263-.6425838-1.0808296-.8428841-2.0083904-.967905-3.8084059.1250191-5.4041166 3.22365-1.9129496 3.3177624-2.6388636 6.7726307-2.1320562 10.3740406 0 0 .0174599.1451797.0940952.3643036.1438503.4046364.4973879 1.0620079 1.3389263 1.5136948.1102428.0591469.1277027.2110558.0295715.2890282-.3266582.2567596-1.1117468.615696-2.5286541-.1169548 0 0-.2124114-.3132248-.3401141-.7595367-.0725651-.2540779-.1169381-.5525093-.0779476-.8590164 0 0-.465126.0564651-.6667724-.1908913-.2016463-.2460098.2634797-1.1144295.2634797-1.1144295-.014802-2.5447731-.1828408-4.897316-.5484891-7.0078831 0 0-.4194398-1.2179432.3441515-1.990921.514533-.5192356 1.3034811-2.4539986 1.2757478-4.0867043-.1443825-8.2955322-3.1523347-8.6143074-.3306947-10.5125008 3.827776-2.5744095 4.9199142-2.5263405 8.1639881-1.9855385 9.8595829 1.6254082 13.4791241.0226555 19.7586555.9477358 2.1297531.3042889 4.2925987.5914793 6.3908501.0040293.5296516-.1492167 1.0619926-.3548918 1.6118279-.3199387.832119.0524216 1.5472984.6708088 1.896801 1.4330301.3174057.6612904.3362007 1.5016482.2244873 2.2275221z" fill="#deddff"/></g><g><path d="m44.1626625 18.201252c-.9992142.5387688-1.0449791 1.0755939-3.9025307.0873833-2.2727051-.7860241-1.2139168.3203259-2.7410355.8240623-.332695.1094379-.6003075-.2625866-.8052368.2930584-.3226547.8738003-.9746246 1.5903111-1.7018852 2.1723995-.5271339.4230995-.8867378.3274078-1.0741348-.2621422.0349541.1075516-.7353325.4032936-.8253899.4301815-.5309982.1599731-1.0889053-.0349541-1.3550758-.5296593-.3831139-.7057705-.2771339-2.0118923.0699062-2.8795071.0779819-.1935806.1707306-.3831329.2218304-.5861168.1572151-.6449203-.3394756-.9311962-.2097187-1.3443108.0219841-.0702972-.5011673-.2923489-.3320408-.8778372.0416489-.1438417-.0577965-.1317396-.1384678-.1451874-.3495331-.0551128-.5874786-.295742-.6210861-.6183786-.0551052-.5336876.2029915-.8092775.6694622-.9544563.2003345-.061842.3817959-.1720762.5807514-.2392912.3454952-.1169548.7138348-.0900669 1.0687199-.1505623.3495331-.0591497.6842651-.2083664 1.0203438-.3159094.949173-.3005676.8242798-.608161 1.1910706-.8939686.1142464-.0887213.2513695-.1411514.387146-.1935816 2.0016937.2863388 4.0544243.4893312 5.9942856-.0537748.5296516-.1492167 1.0619926-.3548918 1.6118279-.3199387.832119.0524216 1.5472984.6708088 1.896801 1.4330301.3484152 3.6396019.6652258 4.2074921-1.0055429 5.1245072z" fill="#312e4b"/></g><g><path d="m17.4566269 38.0567017c-.0161476.3454895-.6089745.4207687-1.2623234.4678154-.9114466.052433-1.3644619-.3360748-1.6158304-.9195023.6784973.0888901 1.170907.0998764 1.8201666-.2702065l.0954742.0873756z" fill="#2d3240"/></g><g><path d="m31.9281044 39.3862267c-.3011246-.0174789-.5941753-.1290588-.8092766-.3401146-.2781372-.2695465-.224905-.4839554-.2473316-.6452675.9410152-.0067215 1.4195652-.2930603 1.6427402-.5000877.169384.2473564.3952217.5148735.6976891.7837334.8482666.7514724-.614357.7407187-1.2838211.7017364z" fill="#2d3240"/></g><g><path d="m30.5098515 37.5727463c-.0282249.0255394-.2486782.2271881-.469162.1532516-.0846767-.0295715-.0766029-.2742348-.0309181-.5767059.2562713-.0161209.4777164.1715813.5000801.4234543z" fill="#2d3240"/></g><g><path d="m9.9553757 39.6362648c-.3266582.2567596-1.1117468.615696-2.5286541-.1169548 0 0-.2124114-.3132248-.3401141-.7595367.7151818-.2460098 1.1978002-.6291351 1.5002704-.9262314.1438503.4046364.4973879 1.0620079 1.3389263 1.5136948.1102428.0591468.1277027.2110557.0295715.2890281z" fill="#2d3240"/></g><g><g><path d="m47.7090797 6.9275856c-.140461.6906114-.4272194 1.2862396-.8501282 1.8403873-.3343925.438283-.6781464.8780918-1.2196922 1.0644855-.722271.2488041-.3969421 1.4233332.3314667 1.1725302.8041801-.2770653 1.2410622-.729023 1.6827278-1.4276123.5003548-.7922554.2791443-1.744761.2174416-2.6244397-.0061531-.0894284-.1426163-.1201767-.1618157-.025351z" fill="#312e4b"/></g><g><path d="m50.3814545 9.9922905c-.0739136-.3935604-.7388611-.4289036-1.0188522-.4387388-.5221901-.0182858-1.1734428.3319378-1.6372337.5424719-1.2304268.5586405-1.5595665.4994555-2.5011787.1147785-.0912437-.2361269-.342968-.1426439-.2867584.0130768.7742004 2.1500273 3.7376289 2.8106766 5.0467796.8976049.2114447-.3091993.470539-.7376308.3972434-1.1291933z" fill="#312e4b"/></g><g><path d="m50.1056175 9.6858606c-.5851974.0053825-1.1871338.1627436-1.6504555.3804998-.9900017.4649916-1.3000603 1.3228655-2.2072105 1.7394247 1.2098694.7248688 2.8509445.6093178 3.7362595-.6843014.3407287-.498249.6719742-1.1823682.1214065-1.4356231z" fill="#211f38"/></g><g><path d="m48.2945747 14.7112875c-.000927 0-.0018425.0002985-.0027695.0002985-.0061531-.0119905-.0152168-.0225811-.0298195-.0265779.0009308-.0736132-.0530167-.1515236-.0875893-.2154589-.065918-.1214046-.1144753-.2924404-.1147919-.4289036 0-.0035257-.0049095-.0050678-.0061378-.0016842-.0486984.136343-.0013161.2501631.0231934.3635836-.1168556-.0251236-.2224007.0977468-.0963516.3317804-.0139656.0692425-.0273666.0951529-.0517845.1681242-.2031555.2429504-.3339386.6801624-.3814163.8547239-.0557213.2040291.2077179.3297005.313797.1238585.0267334-.0519285.0487175-.106801.0688438-.1627274.2423897-.1388016.3311882-.4912615.2601662-.6859999.1240654-.2187738.0961494-.1593456.154747-.2251368.0256653-.0290337.0272102-.0646915.0488777-.0921984.0187989-.0242318-.0257568-.0411156-.0989647-.003682z" fill="#312e4b"/></g><g><path d="m43.5162544 7.5505791c-.0092087-.0361147-.1848679-.0756121-.1943893.1816421-.0001564.0036821-.1693535 1.3512454-.361599 2.0922599-.1442871.5556736-.4451942.7207146-.8576508 1.0873814-.0938835.0836067-.2197418.3592873-.2099037.4601088.0278053.2842894.4026222.6160698.763279.5292377.8458176-.2036104 1.0345421-1.0946054 1.1524048-1.8661947.1399879-.917432-.0668488-1.5943681-.292141-2.4844352z" fill="#312e4b"/></g><g><path d="m49.1268578 19.3655777c-.7565002.1066399-.4601936.5804729.2524872.4983616.6651611-.0859127.5415878-.6179543-.2524872-.4983616z" fill="#fff"/></g><g><path d="m40.9008942 12.5149803c.0441093-.0780668.0917397-.1532068.1476822-.2212811.3419304-.5982561.8922234-1.0628023.8992882-1.85606.0052414-.5842667-.7207146-1.3200569-1.3135872-1.2349243-.233429.0333452-.4123039.380641-.5373917.5390882-.2895279.3681936-.4916115.7808104-.5861206 1.2424459-.0805244.3924742.0404243.8070898.2003975 1.1696033.1799431.4078484.6365128.6727819.8359833 1.0495834.0851325-.2409513.2113037-.4765366.3537483-.6884554z" fill="#312e4b"/></g><g><path d="m50.255085 20.1263027c-.1573067.1882076-.2218323.3804417-.2419853.615696-.0510674.5525093-.3212738.8670731-.8724556.9517651-.532341.0820103-1.0714073.125021-1.6091347.1438427-.6868019.0256195-1.3700409-.4477444-1.8887596-.9020271-.293251-.2508125-1.6904144-.0838776-3.9872093-1.5419254-.1626549-.1008244-.3199615-.2110577-.4664726-.3320408-1.6385345-1.3573914-1.706707-5.4807177.7218781-7.8534613.0591431-.0578041.1196632-.1142626.1814957-.170722.701725-.6439209 1.4962006-1.1345968 2.4184113-1.396739 1.3513756-.3816442 1.5224075.3035822 2.5891418 1.844389.1881905.271553.3817596.5390692.5578728.8200331.4885406.7676926.4006042 1.363822.4006042 2.0070524-.1715202 1.2707796.5724792 2.3722029 1.6279716 4.3098555.0268784.0510845.0793266.0900669.1236649.1317406.1519241.1398125.3253441.2634869.4557076.4221153.2486418.3014887.2604559.6244486-.0107309.9504259z" fill="#deddff"/></g><g><path d="m50.4547577 19.6422749v.0015736c0 .420248-.3829651.4834766-.4406204 1.0810719 0 .0062904-.0015755.0110073-.0015755.0173073-.0503654.5523396-.321022.8670616-.8717842.952034-.4283295.0659008-1.6388168.2193661-2.1306801.075531.1699638-.075531.3320503-.1636524.4705467-.232893.2564812-.1274624.4531822-.1951256.3383141-.4390335-.151062-.3225994-.3981285-.7663498-.2832603-1.1267128.0897064-.2785225.3823776-.5098495.6546097-.2501984.1416473.1369038.7836571.1510601.9693718.1605015.3839493.0204582.6420441-.0613632.9032516-.3005562.1258964-.1148702.3005447-.0550729.3918266.0613746z" fill="#ffaf93"/></g><g><path d="m50.4516068 19.7036381c-.0414047.41366-.3796349.421814-.4374695 1.0212822-.0912819-.1856956-.0739555-.4296036.0692329-.5759468.3553581-.3663731.2919769-.3931389.3682366-.4453354z" fill="#312e4b"/></g><g><path d="m48.5924416 21.0478611c-.2028885-.065115-.3973236-.1470566-.5364914-.3211765-.2333488-.2919559-.2089424-.7406502-.1114082-.8464394.0498924-.0541172.1313477-.0347939.1430168.0368881.0359573.2209167.4079247.3036709.6335564.3528481.5244483.1143036.2937659.9134598-.1286736.7778797z" fill="#312e4b"/></g></g><g><path d="m33.9096146 27.7256794c-.1048584.1559448-.1801147.3239841-.2406349.4947128-.474514-.1640091-.6250916-.2957497-.6250916-.2957497s-.2863235 3.5960274-.7729797 4.8892536c0 0-.2634773.5551987-.3844528 1.4518509-.4169998.15485-.3028774-.3281784-.2581291-.7460899.0026913-.0309143.0214958-.0604935.0241871-.0914116.1413078-1.3045349.1429253-.9931641.053793-1.9035473-.0053825-.0497379-.0295715-.102169-.0564842-.1451797-.3188992-.5238438-.2025032-1.2559128-.1169376-2.6321583.0040379-.0672169.0201511-.1344318.0309162-.2003021-.1774578-.1895523-.2648239-.401947-.2231426-.6466122.0819836-.4933662.2903595-.9316044.6775379-1.2582798.1236649-.1035061.299778-.1465244.4503212-.2191219.0940971-.045702.1882248-.0927505.2809753-.1411514.9998778-.5208893 1.689781.6542091 1.1601218 1.4437866z" fill="#312e4b"/></g><g><g><path d="m42.4271736 18.8707142c-.2164497.2258434-.4946976.3723774-.7716331.5229397-.1626549-.1008244-.3199615-.2110577-.4664726-.3320408-1.6385345-1.3573914-1.706707-5.4807177.7218781-7.8534613.2567825.2890301.3683395.7783604.4382477 1.1063719.2514 1.188365.299778 2.4452991.4328613 3.6524868.1021689.9316044.3629912 2.1562691-.3548814 2.9037037z" fill="#312e4b"/></g><g><path d="m29.6723499 11.6490889c-.3976097.8219976-1.0274525 1.160861-1.8565006 1.504283-.3992214.1640015-.8132801.3212919-1.2488346.338769-.4194412.0174685-.6681175.130394-1.0297623-.16401-.2379131-.1949272-.4530144-.1801414-.6801949.0349531-.3186169.3038149-.5955524.50949-.9813538.7339954-1.2925167.7578058-1.5790024 1.0310888-2.0353012.786418-.2298717-.1236744-.2769032-.2473564-.1733894-.5296583-.0833626.0443649-.1465416.0712442-.2030239.107543-.9297295.5934486-2.6538658 1.488842-3.3513546.6398926-.2825775-.3454266-.1092892-.6142855-.9437084-.9907551-.2412243-.1143332-.068819.4334946-1.1345882.4449663-.1465416.0013456-.3105431-.146534-.338769-.294404-.0763998-.3728237.0542965-.3859272.5592203-.7568474-.1518898-.1236744-.2016449-.2849932-.1854973-.4705076.0174599-.2191238-.0833635-.3885078-.2164164-.5444441-.2392912-.2782726-.2177935-.5108356.0672159-.7299585.0618324-.0483932.1102085-.1169548.1868439-.1989641-.4220629-.1719351-.8276911-.2568016-.8133135-.5847712 4.4481497.7415266 8.8519011.9861517 13.3368883.7205477.3468419-.0215056.6950303-.0362904 1.0418397-.0470478z" fill="#312e4b"/></g><g><path d="m22.5191231 19.0232201c.3135014.3967781.2357922.8304081.4085121 1.2735977.1209335.3103104.2444286.6271534.1557484.9648056-.2749329 1.0464401-1.4014263 1.6080894-2.135231 2.2929707-.3416119.3188381-.7120628.5638332-1.2084637.397831-.3642139-.1217995-.6127453-.5985851-.5309525-.9539013.1476669-.6414833-.0370445-1.4163189.513916-1.9118729.3508472-.3155651.4250546-.2838326.3176956-.7956085-.114933-.5478897.0715523-1.1591854.5010548-1.5182362.5905953-.4937172 1.5082836-.3437195 1.9777203.2504139z" fill="#312e4b"/></g><g><path d="m29.2081509 19.9298153c-.2775803.9192581-.2718735 1.3055439-.5471134 1.5544262-.2757587.2493553-.7150631.2450581-1.0147705.0413456-.2597942-.1765862-.3802967-.2084465-.5310116.1479034-.7448387 1.761097-2.446394 1.6745243-2.5100975.6638279-.0296535-.4704609.2383842-.6740036.638876-1.3889446.2628937-.4693089.8132744-.5346603 1.1330833-.9243984.627903-.765213.2457504-2.1123848.9554234-2.5444012.1940022-.1180973.409874-.1551876.6188774-.0360584.6521072.3716869.2247181.9641514.4199104.9856396.1761322.0193882.6374779-.6594315.8750629-.0536442.206955.5276909.1263428 1.0092563-.0382404 1.5543041z" fill="#312e4b"/></g><g><path d="m10.7441959 15.8265886c-.3657532.215682-.750598-.1133585-1.0717402.0871744-.3079967.1924667-.1481009.8620491-.5726023.8463001-.214962-.0080147-.3288307-.1623459-.3403978-.3673897-.0184927-.327816-.1696949-.4654198-.2927465-.741724-.1082106-.2429781-.0377159-.5565786-.1752453-.7848139-.1861877-.3089771-.7143531-.2555199-.6694708-.7241945.0459905-.4802542.7392626-.8752537 1.0859442-1.226038.2745104-.2777586.4363813-.6598225.7911129-.8553076.2626925-.144762.6205082-.145092.7823572.1379251.1605949.2809086.3327646 1.2474136.7576876 1.0559435.4827471-.2175255 1.054841-.5158262 1.2925711.2186756.2502041.7731039-.962925 1.9851572-1.5874701 2.353449z" fill="#312e4b"/></g><g><path d="m15.5648203 17.5839119c.0573664.1870136.0478354.3661861-.1010246.5136223-.3005199.2976418.249898.7515697-.2500544 1.3078403-1.0452175 1.1629543-2.4998789 1.0128422-2.7975655.1675549-.1371136-.3893318.0857401-1.222784.8934441-1.7112789.0726433-.0439358.1450796-.1530266.1490288-.2353439.0567674-1.1832696 1.779459-1.1074963 2.1061716-.0423947z" fill="#312e4b"/></g><g><path d="m8.8166208 22.7633991c.0731945-1.1062775.8553772-2.0537262 1.9278955-2.3536358.4128504-.1154423.8717308.4223747.6319809.8010864-.203825.3219643-.4556141.6071396-.6934452.9035168-.2475967.3085461-.1810894.7138176-.3622236 1.0423985-.3515253.6376705-1.5572309.4081631-1.5042076-.3933659z" fill="#312e4b"/></g><g><path d="m14.1357985 12.3117943c-.0205746-.0211477.0811195-.1170568.1086454-.1205606.1236448-.0156822.2007256.1371212.2723618.212409.1010017.1061506.2243042.1877108.3124056.3066387.1975441.2666655.2528753.5644598.0444546.8669443-.2041473.2962847-.2590322.5565033-.6452971.6524611-.5196247.1290865-1.0455389-.1686907-1.0786324-.7275171-.0138044-.2331219.0004072-.4805565-.1709709-.661541-.3358879-.3547163-.1831493-.9374418.3224564-1.0368338.3687391-.0724707.612152.2793836.8345766.5079994z" fill="#312e4b"/></g><g><path d="m34.7355461 23.3839054c.0480156.2914715-.1123009.6373634-.438736.7423611-.2746201.0883312-.6024284.3503876-.8179398.3769379-.3185501.0392475-.5330162-.2318859-.4228745-.5658875.068512-.2077656.2699699-.6000843.5514488-.9144897.335087-.3742943 1.0419275-.162035 1.1281015.3610782z" fill="#312e4b"/></g><g><path d="m16.0027275 22.4972687c-.7905445-.060358-.6770306-1.1235561.0051861-1.3688145.2863178-.102932.6582718.1450272.6668587.4735756.0081348.3113708-.1009274.5933361-.3722458.7773838-.0866909.0588055-.1991368.0796433-.299799.1178551z" fill="#312e4b"/></g></g><g><path d="m44.9705963 17.6581535c-.3333855.3468266-.8119698.5067997-1.2071877.781044-.4946976.3414516-.9275589.4758816-1.5231133.3683395-.5457649-.0994778-1.0861778-.232563-1.6145172-.3979187-1.0728683-1.7167912-.7965469-5.1676197 1.2851677-7.2014666.0591431-.0578041.1196632-.1142626.1814957-.170722.5968666-.5471344 1.2609444-.9840345 2.0137711-1.2623081.947403.2263823.9789276 2.7962894 1.219265 4.9793186.1022034.9316054.3629913 2.1549321-.3548813 2.9037133z" fill="#312e4b"/></g><g><g><path d="m45.1404266 15.4089489c-.081131-.3126707-.3657188-.9944105-.6039391-1.1754417-1.0166931-.7717466-.9876442-.2550983-1.4907761-.4625473-.0448647-.0186005-.073143.0420933-.0371857.0708437.0251961.0202837.0553131.5447693.0940399.663702.0541.1642857.0748405.3640556.3250313.5380182.4978905.3462267 1.0459023.2246647 1.0515823.2265062.1303101.0444231.2487869.0876026.2795372.200242.065304.2420378.445801.1850253.3817102-.0613231z"/></g><g><path d="m44.2178001 15.0125542c-.1052971-.0127735-.0913124-.1601257.0107346-.1505709.043026.0053825.0927124.160264-.0107346.1505709z" fill="#fff"/></g><g><path d="m44.4785919 14.5796824c-.0160904.1928635-.3193932.1594658-.3065071-.0336084.0067253-.0806551.0806389-.1384592.1640015-.129056.0846748.0094108.1478882.0820083.1425056.1626644z" fill="#fff"/></g></g></g></g></svg>