<svg id="_43_Crop_Shortage" enable-background="new 0 0 512 512" viewBox="0 0 512 512" xmlns="http://www.w3.org/2000/svg" xmlns:xlink="http://www.w3.org/1999/xlink"><linearGradient id="lg1"><stop offset="0" stop-color="#fffaf8"/><stop offset="1" stop-color="#fff5c6"/></linearGradient><linearGradient id="SVGID_1_" gradientTransform="matrix(1 0 0 -1 0 514)" gradientUnits="userSpaceOnUse" x1="27.09" x2="91.117" xlink:href="#lg1" y1="414.25" y2="414.25"/><linearGradient id="SVGID_00000056407376772372168400000014908161870088049320_" gradientTransform="matrix(1 0 0 -1 0 514)" gradientUnits="userSpaceOnUse" x1="126.342" x2="190.369" xlink:href="#lg1" y1="414.25" y2="414.25"/><linearGradient id="SVGID_00000049913771964707568390000001592256921956748951_" gradientTransform="matrix(1 0 0 -1 0 514)" gradientUnits="userSpaceOnUse" x1="339.407" x2="403.434" xlink:href="#lg1" y1="414.25" y2="414.25"/><linearGradient id="SVGID_00000120527630320418691160000010418748484592184972_" gradientTransform="matrix(1 0 0 -1 0 514)" gradientUnits="userSpaceOnUse" x1="438.659" x2="502.686" xlink:href="#lg1" y1="414.25" y2="414.25"/><linearGradient id="lg2"><stop offset="0" stop-color="#fef0ae"/><stop offset="1" stop-color="#fac600"/></linearGradient><linearGradient id="SVGID_00000183244423913937371160000002244331971616462989_" gradientTransform="matrix(1 0 0 -1 0 514)" gradientUnits="userSpaceOnUse" x1="167.199" x2="160.923" xlink:href="#lg2" y1="327.634" y2="303.736"/><linearGradient id="lg3"><stop offset="0" stop-color="#fe9738" stop-opacity="0"/><stop offset=".1025" stop-color="#fe9636" stop-opacity=".02"/><stop offset=".2265" stop-color="#fe9433" stop-opacity=".078"/><stop offset=".3615" stop-color="#fe912e" stop-opacity=".175"/><stop offset=".5046" stop-color="#fe8d26" stop-opacity=".31"/><stop offset=".6539" stop-color="#fe871d" stop-opacity=".483"/><stop offset=".8085" stop-color="#fe8011" stop-opacity=".695"/><stop offset=".9645" stop-color="#fe7804" stop-opacity=".94"/><stop offset="1" stop-color="#fe7701"/></linearGradient><linearGradient id="SVGID_00000037665809669544781550000013063878381309493677_" gradientTransform="matrix(1 0 0 -1 0 514)" gradientUnits="userSpaceOnUse" x1="150.658" x2="140.036" xlink:href="#lg3" y1="316.767" y2="309.284"/><linearGradient id="SVGID_00000021840162238120573970000000045064046025895345_" gradientTransform="matrix(1 0 0 -1 0 514)" gradientUnits="userSpaceOnUse" x1="173.347" x2="179.503" xlink:href="#lg3" y1="310.815" y2="299.47"/><linearGradient id="SVGID_00000108281220576096102850000014458235041977475973_" gradientTransform="matrix(1 0 0 -1 0 514)" gradientUnits="userSpaceOnUse" x1="80.285" x2="151.254" xlink:href="#lg2" y1="258.826" y2="243.619"/><linearGradient id="SVGID_00000100343422536888843850000006660243156999764922_" gradientTransform="matrix(.906 .423 -.423 .906 -483.26 -8406.092)" gradientUnits="userSpaceOnUse" x1="4151.716" x2="4196.526" xlink:href="#lg2" y1="7622.948" y2="7619.822"/><linearGradient id="SVGID_00000004519332831002916990000008781355683477771688_" gradientTransform="matrix(.906 .423 -.423 .906 -483.26 -8406.092)" gradientUnits="userSpaceOnUse" x1="4154.842" x2="4177.007" xlink:href="#lg3" y1="7622.925" y2="7620.969"/><linearGradient id="SVGID_00000013189801809974720400000012917616105893219978_" gradientTransform="matrix(.906 .423 -.423 .906 -483.26 -8406.092)" gradientUnits="userSpaceOnUse" x1="4177.819" x2="4203.365" xlink:href="#lg3" y1="7620.885" y2="7618.504"/><linearGradient id="SVGID_00000126325326346898497780000010774073505715505283_" gradientTransform="matrix(.906 .423 -.423 .906 -483.26 -8406.092)" gradientUnits="userSpaceOnUse" x1="4186.57" x2="4200.523" xlink:href="#lg3" y1="7610.77" y2="7602.365"/><linearGradient id="SVGID_00000028293849422216863330000010057280513771582900_" gradientTransform="matrix(.906 .423 -.423 .906 -483.26 -8406.092)" gradientUnits="userSpaceOnUse" x1="4166.525" x2="4166.525" xlink:href="#lg3" y1="7593.638" y2="7563.464"/><linearGradient id="SVGID_00000001655501880097655230000015880464059876252344_" gradientTransform="matrix(.906 .423 -.423 .906 -483.26 -8406.092)" gradientUnits="userSpaceOnUse" x1="4168.051" x2="4156.401" xlink:href="#lg3" y1="7618.763" y2="7621.625"/><linearGradient id="SVGID_00000116913741391166849650000004347075248495892925_" gradientTransform="matrix(.906 .423 -.423 .906 -483.26 -8406.092)" gradientUnits="userSpaceOnUse" x1="4177.934" x2="4159.906" xlink:href="#lg3" y1="7608.924" y2="7614.794"/><linearGradient id="SVGID_00000147917818240238449790000016504839631120172477_" gradientTransform="matrix(.906 .423 -.423 .906 -483.26 -8406.092)" gradientUnits="userSpaceOnUse" x1="4186.276" x2="4164.747" xlink:href="#lg3" y1="7594.793" y2="7602.558"/><linearGradient id="SVGID_00000067200874879929730690000011125544103182645376_" gradientTransform="matrix(.906 .423 -.423 .906 -483.26 -8406.092)" gradientUnits="userSpaceOnUse" x1="4169.326" x2="4191.846" xlink:href="#lg3" y1="7621.815" y2="7631.229"/><linearGradient id="SVGID_00000055693609190183647090000010107512411181283496_" gradientTransform="matrix(.906 .423 -.423 .906 -483.26 -8406.092)" gradientUnits="userSpaceOnUse" x1="4159.776" x2="4176.437" xlink:href="#lg3" y1="7611.306" y2="7618.248"/><linearGradient id="SVGID_00000057106669349338206510000007006729510879995065_" gradientTransform="matrix(.906 .423 -.423 .906 -483.26 -8406.092)" gradientUnits="userSpaceOnUse" x1="4150.287" x2="4169.727" xlink:href="#lg3" y1="7596.555" y2="7606.595"/><linearGradient id="SVGID_00000035488507752846644620000009611817456937251232_" gradientTransform="matrix(1 0 0 -1 0 514)" gradientUnits="userSpaceOnUse" x1="174.82" x2="231.85" xlink:href="#lg2" y1="259.28" y2="244.309"/><linearGradient id="SVGID_00000103245697015761055960000011399297539231443372_" gradientTransform="matrix(-.906 .423 .423 .906 938.513 -8406.092)" gradientUnits="userSpaceOnUse" x1="4315.894" x2="4338.059" xlink:href="#lg3" y1="7547.436" y2="7545.48"/><linearGradient id="SVGID_00000163767093586658615580000014258477582593757861_" gradientTransform="matrix(1 0 0 -1 0 514)" gradientUnits="userSpaceOnUse" x1="224.526" x2="244.843" xlink:href="#lg3" y1="250.717" y2="249.291"/><linearGradient id="SVGID_00000095339457140111951280000018260615861602774430_" gradientTransform="matrix(-.906 .423 .423 .906 938.513 -8406.092)" gradientUnits="userSpaceOnUse" x1="4328.608" x2="4328.608" xlink:href="#lg3" y1="7518.058" y2="7487.884"/><linearGradient id="SVGID_00000154386717748137721040000008678370585244376729_" gradientTransform="matrix(-.906 .423 .423 .906 938.513 -8406.092)" gradientUnits="userSpaceOnUse" x1="4330.133" x2="4318.484" xlink:href="#lg3" y1="7543.183" y2="7546.044"/><linearGradient id="SVGID_00000102513770712347866380000017838815533179809187_" gradientTransform="matrix(-.906 .423 .423 .906 938.513 -8406.092)" gradientUnits="userSpaceOnUse" x1="4340.016" x2="4321.989" xlink:href="#lg3" y1="7533.343" y2="7539.212"/><linearGradient id="SVGID_00000142897180554943655240000002360611187963354519_" gradientTransform="matrix(-.906 .423 .423 .906 938.513 -8406.092)" gradientUnits="userSpaceOnUse" x1="4348.359" x2="4326.83" xlink:href="#lg3" y1="7519.213" y2="7526.978"/><linearGradient id="SVGID_00000021121052245978973180000016851601802732171698_" gradientTransform="matrix(-.906 .423 .423 .906 938.513 -8406.092)" gradientUnits="userSpaceOnUse" x1="4331.409" x2="4353.928" xlink:href="#lg3" y1="7546.234" y2="7555.648"/><linearGradient id="SVGID_00000108987839829227430120000001942667245175743924_" gradientTransform="matrix(-.906 .423 .423 .906 938.513 -8406.092)" gradientUnits="userSpaceOnUse" x1="4321.857" x2="4338.518" xlink:href="#lg3" y1="7535.727" y2="7542.669"/><linearGradient id="SVGID_00000041284724155364212580000013228222444926289340_" gradientTransform="matrix(-.906 .423 .423 .906 938.513 -8406.092)" gradientUnits="userSpaceOnUse" x1="4312.369" x2="4331.809" xlink:href="#lg3" y1="7520.975" y2="7531.015"/><linearGradient id="SVGID_00000103973915240979639310000015265827440227921081_" gradientTransform="matrix(1 0 0 -1 0 514)" gradientUnits="userSpaceOnUse" x1="134.439" x2="145.849" xlink:href="#lg3" y1="249.925" y2="249.925"/><linearGradient id="SVGID_00000063613517047569945360000012224233511056045957_" gradientTransform="matrix(1 0 0 -1 0 514)" gradientUnits="userSpaceOnUse" x1="138.208" x2="138.208" xlink:href="#lg3" y1="202.805" y2="175.698"/><linearGradient id="SVGID_00000102541633697846549040000017951119704504747664_" gradientTransform="matrix(1 0 0 -1 0 514)" gradientUnits="userSpaceOnUse" x1="402.784" x2="396.508" xlink:href="#lg2" y1="327.634" y2="303.737"/><linearGradient id="SVGID_00000158016703646595459380000016912606944857297835_" gradientTransform="matrix(1 0 0 -1 0 514)" gradientUnits="userSpaceOnUse" x1="386.243" x2="375.621" xlink:href="#lg3" y1="316.767" y2="309.284"/><linearGradient id="SVGID_00000148647867124666645590000016631435769471391413_" gradientTransform="matrix(1 0 0 -1 0 514)" gradientUnits="userSpaceOnUse" x1="408.932" x2="415.088" xlink:href="#lg3" y1="310.815" y2="299.47"/><linearGradient id="SVGID_00000128464368049619381070000014557964967964639621_" gradientTransform="matrix(1 0 0 -1 0 514)" gradientUnits="userSpaceOnUse" x1="315.87" x2="386.839" xlink:href="#lg2" y1="258.826" y2="243.619"/><linearGradient id="SVGID_00000112634135676105106280000008037932156744983715_" gradientTransform="matrix(.906 .423 -.423 .906 -483.26 -8406.092)" gradientUnits="userSpaceOnUse" x1="4365.229" x2="4410.039" xlink:href="#lg2" y1="7523.385" y2="7520.259"/><linearGradient id="SVGID_00000055691807395181194360000006125020770266229944_" gradientTransform="matrix(.906 .423 -.423 .906 -483.26 -8406.092)" gradientUnits="userSpaceOnUse" x1="4368.355" x2="4390.52" xlink:href="#lg3" y1="7523.362" y2="7521.407"/><linearGradient id="SVGID_00000127729891824694272260000012115447761748067212_" gradientTransform="matrix(.906 .423 -.423 .906 -483.26 -8406.092)" gradientUnits="userSpaceOnUse" x1="4391.331" x2="4416.878" xlink:href="#lg3" y1="7521.323" y2="7518.941"/><linearGradient id="SVGID_00000078727951837661808990000002958433737194923948_" gradientTransform="matrix(.906 .423 -.423 .906 -483.26 -8406.092)" gradientUnits="userSpaceOnUse" x1="4400.083" x2="4414.035" xlink:href="#lg3" y1="7511.207" y2="7502.802"/><linearGradient id="SVGID_00000121267862275048358150000002833573430311290009_" gradientTransform="matrix(.906 .423 -.423 .906 -483.26 -8406.092)" gradientUnits="userSpaceOnUse" x1="4380.038" x2="4380.038" xlink:href="#lg3" y1="7494.076" y2="7463.902"/><linearGradient id="SVGID_00000121993323923719810040000009472410748464597927_" gradientTransform="matrix(.906 .423 -.423 .906 -483.26 -8406.092)" gradientUnits="userSpaceOnUse" x1="4381.564" x2="4369.914" xlink:href="#lg3" y1="7519.201" y2="7522.062"/><linearGradient id="SVGID_00000180345724188805299360000001885704175169856396_" gradientTransform="matrix(.906 .423 -.423 .906 -483.26 -8406.092)" gradientUnits="userSpaceOnUse" x1="4391.446" x2="4373.419" xlink:href="#lg3" y1="7509.361" y2="7515.231"/><linearGradient id="SVGID_00000094600717128846659780000009617669341327115954_" gradientTransform="matrix(.906 .423 -.423 .906 -483.26 -8406.092)" gradientUnits="userSpaceOnUse" x1="4399.789" x2="4378.259" xlink:href="#lg3" y1="7495.231" y2="7502.995"/><linearGradient id="SVGID_00000165209191871549911500000001065037069635762074_" gradientTransform="matrix(.906 .423 -.423 .906 -483.26 -8406.092)" gradientUnits="userSpaceOnUse" x1="4382.839" x2="4405.358" xlink:href="#lg3" y1="7522.252" y2="7531.666"/><linearGradient id="SVGID_00000008147388818818531870000002779029996522586026_" gradientTransform="matrix(.906 .423 -.423 .906 -483.26 -8406.092)" gradientUnits="userSpaceOnUse" x1="4373.288" x2="4389.949" xlink:href="#lg3" y1="7511.744" y2="7518.686"/><linearGradient id="SVGID_00000082342213686993870480000002686562130282010805_" gradientTransform="matrix(.906 .423 -.423 .906 -483.26 -8406.092)" gradientUnits="userSpaceOnUse" x1="4363.799" x2="4383.239" xlink:href="#lg3" y1="7496.993" y2="7507.033"/><linearGradient id="SVGID_00000019640167417947731430000009640310608617734571_" gradientTransform="matrix(1 0 0 -1 0 514)" gradientUnits="userSpaceOnUse" x1="410.406" x2="467.435" xlink:href="#lg2" y1="259.28" y2="244.309"/><linearGradient id="SVGID_00000049187785535397853080000014892247582455447703_" gradientTransform="matrix(-.906 .423 .423 .906 938.513 -8406.092)" gradientUnits="userSpaceOnUse" x1="4102.381" x2="4124.546" xlink:href="#lg3" y1="7646.999" y2="7645.043"/><linearGradient id="SVGID_00000183209349822980511040000010702023193487440311_" gradientTransform="matrix(1 0 0 -1 0 514)" gradientUnits="userSpaceOnUse" x1="460.111" x2="480.428" xlink:href="#lg3" y1="250.717" y2="249.291"/><linearGradient id="SVGID_00000014615014053027968050000017640578419308392851_" gradientTransform="matrix(-.906 .423 .423 .906 938.513 -8406.092)" gradientUnits="userSpaceOnUse" x1="4115.095" x2="4115.095" xlink:href="#lg3" y1="7617.621" y2="7587.446"/><linearGradient id="SVGID_00000011722480616283410130000006709359925804156585_" gradientTransform="matrix(-.906 .423 .423 .906 938.513 -8406.092)" gradientUnits="userSpaceOnUse" x1="4116.621" x2="4104.971" xlink:href="#lg3" y1="7642.746" y2="7645.607"/><linearGradient id="SVGID_00000167363161238417301200000002578885217747415221_" gradientTransform="matrix(-.906 .423 .423 .906 938.513 -8406.092)" gradientUnits="userSpaceOnUse" x1="4126.503" x2="4108.476" xlink:href="#lg3" y1="7632.906" y2="7638.775"/><linearGradient id="SVGID_00000083074751089163658610000003889380677117277887_" gradientTransform="matrix(-.906 .423 .423 .906 938.513 -8406.092)" gradientUnits="userSpaceOnUse" x1="4134.846" x2="4113.317" xlink:href="#lg3" y1="7618.775" y2="7626.54"/><linearGradient id="SVGID_00000111190963785699496520000011799767245803013822_" gradientTransform="matrix(-.906 .423 .423 .906 938.513 -8406.092)" gradientUnits="userSpaceOnUse" x1="4117.896" x2="4140.416" xlink:href="#lg3" y1="7645.796" y2="7655.21"/><linearGradient id="SVGID_00000012432171846103954340000011969402669074348433_" gradientTransform="matrix(-.906 .423 .423 .906 938.513 -8406.092)" gradientUnits="userSpaceOnUse" x1="4108.345" x2="4125.006" xlink:href="#lg3" y1="7635.289" y2="7642.231"/><linearGradient id="SVGID_00000040556010266864756400000003950961167252246916_" gradientTransform="matrix(-.906 .423 .423 .906 938.513 -8406.092)" gradientUnits="userSpaceOnUse" x1="4098.856" x2="4118.296" xlink:href="#lg3" y1="7620.538" y2="7630.578"/><linearGradient id="SVGID_00000014616628021527371970000003042739277756509833_" gradientTransform="matrix(1 0 0 -1 0 514)" gradientUnits="userSpaceOnUse" x1="370.024" x2="381.434" xlink:href="#lg3" y1="249.925" y2="249.925"/><linearGradient id="SVGID_00000047757083123499504520000016969912988407825831_" gradientTransform="matrix(1 0 0 -1 0 514)" gradientUnits="userSpaceOnUse" x1="373.793" x2="373.793" xlink:href="#lg3" y1="202.805" y2="175.698"/><linearGradient id="SVGID_00000081644473243876132650000016026211024504495493_" gradientTransform="matrix(1 0 0 -1 0 514)" gradientUnits="userSpaceOnUse" x1="244.407" x2="270.07" y1="175.299" y2="-8.622"><stop offset="0" stop-color="#f6ab31"/><stop offset="1" stop-color="#ca6e59"/></linearGradient><linearGradient id="lg4"><stop offset="0" stop-color="#883f2e" stop-opacity="0"/><stop offset=".1986" stop-color="#883f2e" stop-opacity=".025"/><stop offset=".3683" stop-color="#883f2e" stop-opacity=".102"/><stop offset=".5275" stop-color="#883f2e" stop-opacity=".232"/><stop offset=".6802" stop-color="#883f2e" stop-opacity=".415"/><stop offset=".8284" stop-color="#883f2e" stop-opacity=".651"/><stop offset=".9712" stop-color="#883f2e" stop-opacity=".936"/><stop offset="1" stop-color="#883f2e"/></linearGradient><linearGradient id="SVGID_00000043439149674206422600000012647001347691961248_" gradientTransform="matrix(1 0 0 -1 0 514)" gradientUnits="userSpaceOnUse" x1="256" x2="256" xlink:href="#lg4" y1="56.188" y2="2.712"/><linearGradient id="SVGID_00000047761009746463578970000010631633528397558719_" gradientTransform="matrix(1 0 0 -1 0 514)" gradientUnits="userSpaceOnUse" x1="457.951" x2="511.587" xlink:href="#lg4" y1="92.215" y2="92.215"/><linearGradient id="SVGID_00000016050761985180940370000017716761534198190214_" gradientTransform="matrix(1 0 0 -1 0 514)" gradientUnits="userSpaceOnUse" x1="187.185" x2="150.591" xlink:href="#lg4" y1="102.607" y2="106.409"/><linearGradient id="SVGID_00000136379744436834272760000007102897764732619409_" gradientTransform="matrix(1 0 0 -1 0 514)" gradientUnits="userSpaceOnUse" x1="229.152" x2="216.32" xlink:href="#lg4" y1="163.86" y2="190.949"/><linearGradient id="SVGID_00000088844807793912546440000015767282021668540044_" gradientTransform="matrix(1 0 0 -1 0 514)" gradientUnits="userSpaceOnUse" x1="392.758" x2="415.175" xlink:href="#lg4" y1="127.322" y2="149.739"/><linearGradient id="SVGID_00000023271038434465483730000000183845717234994089_" gradientTransform="matrix(1 0 0 -1 0 514)" gradientUnits="userSpaceOnUse" x1="118.982" x2="117.081" xlink:href="#lg4" y1="132.501" y2="170.996"/><linearGradient id="SVGID_00000183225986850114082670000012276865782638202771_" gradientTransform="matrix(1 0 0 -1 0 514)" gradientUnits="userSpaceOnUse" x1="222.855" x2="227.132" xlink:href="#lg4" y1="88.667" y2="118.132"/><linearGradient id="SVGID_00000172405233757573643300000011072078574594980281_" gradientTransform="matrix(1 0 0 -1 0 514)" gradientUnits="userSpaceOnUse" x1="148.871" x2="162.177" xlink:href="#lg4" y1="79.335" y2="111.652"/><linearGradient id="SVGID_00000147194680670545184450000014420815542002438562_" gradientTransform="matrix(1 0 0 -1 0 514)" gradientUnits="userSpaceOnUse" x1="359.398" x2="351.319" xlink:href="#lg4" y1="148.841" y2="185.911"/><linearGradient id="SVGID_00000128463085884754259130000001332556006955240880_" gradientTransform="matrix(1 0 0 -1 0 514)" gradientUnits="userSpaceOnUse" x1="313.304" x2="270.532" xlink:href="#lg4" y1="97.44" y2="103.143"/><linearGradient id="SVGID_00000161621651511782543460000013201362220775502735_" gradientTransform="matrix(1 0 0 -1 0 514)" gradientUnits="userSpaceOnUse" x1="384.621" x2="353.255" xlink:href="#lg4" y1="94.143" y2="115.53"/><linearGradient id="SVGID_00000048494335951997370770000000600044057176953481_" gradientTransform="matrix(1 0 0 -1 0 514)" gradientUnits="userSpaceOnUse" x1="253.28" x2="248.053" xlink:href="#lg4" y1="119.326" y2="152.594"/><linearGradient id="SVGID_00000132080740501200036910000016667178685433469319_" gradientTransform="matrix(1 0 0 -1 0 514)" gradientUnits="userSpaceOnUse" x1="435.835" x2="417.3" xlink:href="#lg4" y1="136.058" y2="184.534"/><linearGradient id="SVGID_00000103263643051581737700000016525716413169693854_" gradientTransform="matrix(1 0 0 -1 0 514)" gradientUnits="userSpaceOnUse" x1="230.062" x2="300.586" y1="443.699" y2="365.509"><stop offset="0" stop-color="#99e6fc"/><stop offset=".1325" stop-color="#8ee1fb"/><stop offset=".3627" stop-color="#71d5f9"/><stop offset=".6631" stop-color="#43c2f5"/><stop offset="1" stop-color="#08a9f1"/></linearGradient><linearGradient id="lg5"><stop offset="0" stop-color="#0593fc" stop-opacity="0"/><stop offset=".1006" stop-color="#0492fc" stop-opacity=".021"/><stop offset=".2252" stop-color="#0491fc" stop-opacity=".082"/><stop offset=".3626" stop-color="#048ffc" stop-opacity=".182"/><stop offset=".5092" stop-color="#038dfc" stop-opacity=".322"/><stop offset=".6631" stop-color="#028afc" stop-opacity=".501"/><stop offset=".8232" stop-color="#0286fc" stop-opacity=".721"/><stop offset=".9854" stop-color="#0182fc" stop-opacity=".976"/><stop offset="1" stop-color="#0182fc"/></linearGradient><linearGradient id="SVGID_00000123402962239202876930000014228628524101319302_" gradientTransform="matrix(1 0 0 -1 0 514)" gradientUnits="userSpaceOnUse" x1="256" x2="256" xlink:href="#lg5" y1="409.421" y2="345.206"/><linearGradient id="SVGID_00000054977623344818631550000008977110630176203913_" gradientTransform="matrix(1 0 0 -1 0 514)" gradientUnits="userSpaceOnUse" x1="276.099" x2="322.368" xlink:href="#lg5" y1="429.431" y2="430.682"/><linearGradient id="SVGID_00000132089670295035516760000004085854740738361221_" gradientTransform="matrix(1 0 0 -1 0 514)" gradientUnits="userSpaceOnUse" x1="277.233" x2="304.745" y1="386.329" y2="352.565"><stop offset="0" stop-color="#99e6fc" stop-opacity="0"/><stop offset=".165" stop-color="#99e6fc" stop-opacity=".013"/><stop offset=".2963" stop-color="#99e6fc" stop-opacity=".052"/><stop offset=".416" stop-color="#99e6fc" stop-opacity=".119"/><stop offset=".5289" stop-color="#99e6fc" stop-opacity=".213"/><stop offset=".637" stop-color="#99e6fc" stop-opacity=".334"/><stop offset=".7415" stop-color="#99e6fc" stop-opacity=".484"/><stop offset=".843" stop-color="#99e6fc" stop-opacity=".661"/><stop offset=".9398" stop-color="#99e6fc" stop-opacity=".86"/><stop offset="1" stop-color="#99e6fc"/></linearGradient><linearGradient id="SVGID_00000085208598286748730310000002262219569926042792_" gradientTransform="matrix(1 0 0 -1 0 514)" gradientUnits="userSpaceOnUse" x1="296.093" x2="261.912" xlink:href="#lg5" y1="343.961" y2="362.927"/><linearGradient id="SVGID_00000005968686913700493740000010681780179362034080_" gradientTransform="matrix(1 0 0 -1 0 514)" gradientUnits="userSpaceOnUse" x1="280.056" x2="252.822" xlink:href="#lg5" y1="413.876" y2="419.156"/><linearGradient id="SVGID_00000103259640776893553950000012176879457647652239_" gradientTransform="matrix(1 0 0 -1 0 514)" gradientUnits="userSpaceOnUse" x1="246.527" x2="264.312" xlink:href="#lg2" y1="436.082" y2="436.082"/><linearGradient id="SVGID_00000121278535067265524770000004360740386946130584_" gradientTransform="matrix(1 0 0 -1 0 514)" gradientUnits="userSpaceOnUse" x1="247.317" x2="265.325" xlink:href="#lg2" y1="378.018" y2="360.011"/><linearGradient id="SVGID_00000155828622017404743420000003023533029601230265_" gradientTransform="matrix(1 0 0 -1 0 514)" gradientUnits="userSpaceOnUse" x1="256" x2="256" xlink:href="#lg3" y1="366.749" y2="353.149"/><linearGradient id="SVGID_00000026164480742604387670000000569926685795594885_" gradientTransform="matrix(1 0 0 -1 0 514)" gradientUnits="userSpaceOnUse" x1="258.529" x2="272.148" xlink:href="#lg3" y1="369.336" y2="369.336"/><linearGradient id="SVGID_00000171708800784362018820000010475147058004333498_" gradientTransform="matrix(1 0 0 -1 0 514)" gradientUnits="userSpaceOnUse" x1="262.624" x2="269.12" y1="362.711" y2="356.215"><stop offset="0" stop-color="#fac600" stop-opacity="0"/><stop offset="1" stop-color="#fef0ae"/></linearGradient><g><g><g><path d="m53.844 168.529c25.937-19.867 28.449-58.027 5.341-81.123l-7.033-7.029c-12.441-12.434-12.093-32.706.768-44.705 2.601-2.426-.301-6.598-3.481-5.004l-1.108.555c-25.667 12.871-30.846 47.281-10.103 67.137 17.979 17.21 22.463 44.211 11.01 66.308-1.514 2.921 1.994 5.862 4.606 3.861z" fill="url(#SVGID_1_)"/><path d="m153.096 168.529c25.937-19.867 28.449-58.027 5.341-81.123l-7.033-7.029c-12.441-12.434-12.092-32.706.769-44.705 2.601-2.426-.301-6.598-3.481-5.004l-1.108.555c-25.669 12.87-30.848 47.281-10.105 67.136 17.979 17.21 22.463 44.211 11.01 66.308-1.513 2.922 1.995 5.863 4.607 3.862z" fill="url(#SVGID_00000056407376772372168400000014908161870088049320_)"/></g><g><path d="m366.162 168.529c25.937-19.867 28.449-58.027 5.341-81.123l-7.033-7.029c-12.441-12.434-12.092-32.706.769-44.705 2.601-2.426-.301-6.598-3.481-5.004l-1.108.555c-25.669 12.87-30.848 47.281-10.105 67.136 17.979 17.21 22.463 44.211 11.01 66.308-1.514 2.922 1.994 5.863 4.607 3.862z" fill="url(#SVGID_00000049913771964707568390000001592256921956748951_)"/><path d="m465.413 168.529c25.937-19.867 28.449-58.027 5.341-81.123l-7.033-7.029c-12.441-12.434-12.092-32.706.769-44.705 2.601-2.426-.301-6.598-3.481-5.004l-1.108.555c-25.669 12.87-30.848 47.281-10.105 67.136 17.979 17.21 22.463 44.211 11.01 66.308-1.513 2.922 1.995 5.863 4.607 3.862z" fill="url(#SVGID_00000120527630320418691160000010418748484592184972_)"/></g></g><g><path d="m132.79 212.795c0-12.313 8.053-22.48 20.038-25.301 11.989-2.822 23.728 2.689 29.219 13.711l6.321 12.688-9.698 4.832-6.321-12.688c-3.951-7.93-11.652-9.264-17.038-7.995-5.39 1.268-11.685 5.893-11.685 14.753z" fill="url(#SVGID_00000183244423913937371160000002244331971616462989_)"/><path d="m160.579 186.83c-2.532-.149-5.133.047-7.751.663-11.985 2.821-20.038 12.989-20.038 25.301h10.836c0-8.86 6.295-13.485 11.685-14.753 1.604-.378 3.414-.517 5.268-.328z" fill="url(#SVGID_00000037665809669544781550000013063878381309493677_)"/><path d="m182.052 201.201c-4.303-8.607-12.406-13.845-21.468-14.37v10.889c4.375.433 8.994 2.75 11.77 8.316l6.312 12.691 9.698-4.835z" fill="url(#SVGID_00000021840162238120573970000000045064046025895345_)"/><path d="m123.362 341.369h29.691l-3.279-9.57c-4.071-11.88-6.148-24.351-6.148-36.909v-81.55c0-11.948-7.868-22.705-19.436-25.697-12.191-3.153-24.239 2.356-29.822 13.562l-6.321 12.688 9.7 4.832 6.32-12.688c3.952-7.93 11.649-9.262 17.038-7.995 5.39 1.268 11.685 5.893 11.685 14.753v82.095c0 12.558-2.077 25.029-6.148 36.909-.001 0-3.28 9.57-3.28 9.57z" fill="url(#SVGID_00000108281220576096102850000014458235041977475973_)"/><g><g><path d="m53.033 314.189c-3.383.175-6.789-1.414-8.83-4.117-13.841-18.338-17.614-42.67-7.697-63.939s30.983-34.018 53.927-35.203c3.383-.175 6.789 1.414 8.83 4.117 13.841 18.338 17.614 42.67 7.697 63.939s-30.982 34.018-53.927 35.203z" fill="url(#SVGID_00000100343422536888843850000006660243156999764922_)"/><path d="m48.115 313.209c-1.53-.713-2.891-1.786-3.912-3.138-13.841-18.338-17.615-42.67-7.697-63.939s30.982-34.018 53.927-35.203c1.691-.087 3.389.266 4.918.979z" fill="url(#SVGID_00000004519332831002916990000008781355683477771688_)"/><path d="m106.962 278.986c9.917-21.268 6.144-45.6-7.7-63.939-1.018-1.353-2.382-2.426-3.91-3.139l-47.237 101.301c1.527.712 3.227 1.067 4.917.978 22.948-1.184 44.013-13.933 53.93-35.201z" fill="url(#SVGID_00000013189801809974720400000012917616105893219978_)"/><path d="m106.962 278.986c9.917-21.268 6.144-45.6-7.7-63.939-1.018-1.353-2.382-2.426-3.91-3.139l-47.237 101.301c1.527.712 3.227 1.067 4.917.978 22.948-1.184 44.013-13.933 53.93-35.201z" fill="url(#SVGID_00000126325326346898497780000010774073505715505283_)"/><path d="m44.801 233.1c11.21-13.387 27.855-21.253 45.634-22.171 3.383-.175 6.789 1.414 8.83 4.117 10.724 14.209 15.399 32.016 12.349 49.209z" fill="url(#SVGID_00000028293849422216863330000010057280513771582900_)"/><g><path d="m106.961 278.985c-7.69 16.491-22.083 27.855-38.856 32.684l-2.891-4.537c-5.274-8.277-6.466-16.725-3.314-23.483l33.453-71.74c1.53.713 2.891 1.786 3.912 3.138 13.84 18.338 17.614 42.669 7.696 63.938z" fill="url(#SVGID_00000001655501880097655230000015880464059876252344_)"/><path d="m106.961 278.985c-4.043 8.67-9.939 15.923-17.059 21.556l-12.48-19.589c-5.274-8.277-6.466-16.725-3.314-23.483l21.245-45.561c1.53.713 2.891 1.786 3.912 3.138 13.84 18.339 17.614 42.67 7.696 63.939z" fill="url(#SVGID_00000116913741391166849650000004347075248495892925_)"/><path d="m95.353 211.908c1.53.713 2.891 1.786 3.912 3.138 13.841 18.338 17.615 42.67 7.697 63.939-.267.572-.545 1.134-.827 1.693l-16.504-25.905c-5.274-8.277-6.466-16.725-3.314-23.483z" fill="url(#SVGID_00000147917818240238449790000016504839631120172477_)"/></g><g><path d="m36.507 246.132c-7.69 16.491-7.144 34.822-.061 50.774l5.334-.702c9.731-1.281 16.968-5.797 20.12-12.556l33.453-71.74c-1.53-.713-3.227-1.067-4.918-.979-22.945 1.185-44.01 13.934-53.928 35.203z" fill="url(#SVGID_00000067200874879929730690000011125544103182645376_)"/><path d="m36.507 246.132c-4.043 8.67-5.809 17.849-5.547 26.924l23.028-3.031c9.731-1.281 16.968-5.797 20.12-12.556l21.245-45.561c-1.53-.713-3.227-1.067-4.918-.979-22.945 1.185-44.01 13.934-53.928 35.203z" fill="url(#SVGID_00000055693609190183647090000010107512411181283496_)"/><path d="m95.353 211.908c-1.53-.713-3.227-1.067-4.918-.979-22.945 1.185-44.01 13.934-53.927 35.203-.267.572-.518 1.146-.765 1.722l30.453-4.008c9.731-1.281 16.968-5.797 20.12-12.556z" fill="url(#SVGID_00000057106669349338206510000007006729510879995065_)"/></g></g><g><path d="m223.382 314.189c3.383.175 6.789-1.414 8.83-4.117 13.841-18.338 17.615-42.67 7.697-63.939s-30.983-34.018-53.927-35.203c-3.383-.175-6.789 1.414-8.83 4.117-13.841 18.338-17.614 42.67-7.697 63.939s30.982 34.018 53.927 35.203z" fill="url(#SVGID_00000035488507752846644620000009611817456937251232_)"/><path d="m228.3 313.209c1.53-.713 2.891-1.786 3.912-3.138 13.841-18.338 17.615-42.67 7.697-63.939s-30.982-34.018-53.927-35.203c-1.691-.087-3.389.266-4.918.979z" fill="url(#SVGID_00000103245697015761055960000011399297539231443372_)"/><path d="m228.3 313.209c1.53-.713 2.891-1.786 3.912-3.138 13.841-18.338 17.615-42.67 7.697-63.939s-30.982-34.018-53.927-35.203c-1.691-.087-3.389.266-4.918.979z" fill="url(#SVGID_00000163767093586658615580000014258477582593757861_)"/><path d="m231.614 233.1c-11.21-13.387-27.855-21.253-45.634-22.171-3.383-.175-6.789 1.414-8.83 4.117-10.724 14.209-15.399 32.016-12.349 49.209z" fill="url(#SVGID_00000095339457140111951280000018260615861602774430_)"/><g><path d="m169.454 278.985c7.69 16.491 22.083 27.855 38.856 32.684l2.891-4.537c5.274-8.277 6.466-16.725 3.314-23.483l-33.453-71.74c-1.53.713-2.891 1.786-3.912 3.138-13.84 18.338-17.614 42.669-7.696 63.938z" fill="url(#SVGID_00000154386717748137721040000008678370585244376729_)"/><path d="m169.454 278.985c4.043 8.67 9.939 15.923 17.059 21.556l12.48-19.589c5.274-8.277 6.466-16.725 3.314-23.483l-21.245-45.561c-1.53.713-2.891 1.786-3.912 3.138-13.84 18.339-17.614 42.67-7.696 63.939z" fill="url(#SVGID_00000102513770712347866380000017838815533179809187_)"/><path d="m181.062 211.908c-1.53.713-2.891 1.786-3.912 3.138-13.841 18.338-17.615 42.67-7.697 63.939.267.572.545 1.134.827 1.693l16.504-25.905c5.274-8.277 6.466-16.725 3.314-23.483z" fill="url(#SVGID_00000142897180554943655240000002360611187963354519_)"/></g><g><path d="m239.908 246.132c7.69 16.491 7.144 34.822.061 50.774l-5.334-.702c-9.731-1.281-16.968-5.797-20.12-12.556l-33.453-71.74c1.53-.713 3.227-1.067 4.918-.979 22.945 1.185 44.01 13.934 53.928 35.203z" fill="url(#SVGID_00000021121052245978973180000016851601802732171698_)"/><path d="m239.908 246.132c4.043 8.67 5.809 17.849 5.547 26.924l-23.028-3.031c-9.731-1.281-16.968-5.797-20.12-12.556l-21.245-45.561c1.53-.713 3.227-1.067 4.918-.979 22.945 1.185 44.01 13.934 53.928 35.203z" fill="url(#SVGID_00000108987839829227430120000001942667245175743924_)"/><path d="m181.062 211.908c1.53-.713 3.227-1.067 4.918-.979 22.945 1.185 44.01 13.934 53.927 35.203.267.572.518 1.146.765 1.722l-30.453-4.008c-9.731-1.281-16.968-5.797-20.12-12.556z" fill="url(#SVGID_00000041284724155364212580000013228222444926289340_)"/></g></g></g><path d="m143.625 294.89v-81.55c0-11.948-7.868-22.705-19.436-25.697-2.814-.728-5.617-.974-8.338-.815v10.885c1.848-.187 3.653-.047 5.253.329 5.39 1.268 11.685 5.893 11.685 14.753v82.095c0 12.558-2.077 25.029-6.148 36.909l-3.279 9.57h29.691l-3.279-9.57c-4.071-11.88-6.149-24.351-6.149-36.909z" fill="url(#SVGID_00000103973915240979639310000015265827440227921081_)"/><path d="m126.641 331.799-3.279 9.57h29.691l-3.279-9.57c-3.459-10.095-5.463-20.619-5.992-31.258h-11.148c-.529 10.64-2.533 21.163-5.993 31.258z" fill="url(#SVGID_00000063613517047569945360000012224233511056045957_)"/></g><g><path d="m368.375 212.795c0-12.313 8.053-22.48 20.038-25.301 11.989-2.822 23.728 2.689 29.219 13.711l6.321 12.688-9.698 4.832-6.321-12.688c-3.951-7.93-11.652-9.264-17.038-7.995-5.39 1.268-11.685 5.893-11.685 14.753z" fill="url(#SVGID_00000102541633697846549040000017951119704504747664_)"/><path d="m396.164 186.83c-2.532-.149-5.133.047-7.751.663-11.985 2.821-20.038 12.989-20.038 25.301h10.836c0-8.86 6.295-13.485 11.685-14.753 1.604-.378 3.414-.517 5.268-.328z" fill="url(#SVGID_00000158016703646595459380000016912606944857297835_)"/><path d="m417.637 201.201c-4.303-8.607-12.406-13.845-21.468-14.37v10.889c4.375.433 8.994 2.75 11.77 8.316l6.312 12.691 9.698-4.835z" fill="url(#SVGID_00000148647867124666645590000016631435769471391413_)"/><path d="m358.947 341.369h29.691l-3.279-9.57c-4.071-11.88-6.148-24.351-6.148-36.909v-81.55c0-11.948-7.868-22.705-19.436-25.697-12.191-3.153-24.239 2.356-29.822 13.562l-6.321 12.688 9.7 4.832 6.32-12.688c3.952-7.93 11.649-9.262 17.038-7.995 5.39 1.268 11.685 5.893 11.685 14.753v82.095c0 12.558-2.077 25.029-6.148 36.909z" fill="url(#SVGID_00000128464368049619381070000014557964967964639621_)"/><g><g><path d="m288.618 314.189c-3.383.175-6.789-1.414-8.83-4.117-13.841-18.338-17.615-42.67-7.697-63.939s30.983-34.018 53.927-35.203c3.383-.175 6.789 1.414 8.83 4.117 13.841 18.338 17.614 42.67 7.697 63.939s-30.982 34.018-53.927 35.203z" fill="url(#SVGID_00000112634135676105106280000008037932156744983715_)"/><path d="m283.7 313.209c-1.53-.713-2.891-1.786-3.912-3.138-13.841-18.338-17.615-42.67-7.697-63.939s30.983-34.018 53.927-35.203c1.691-.087 3.389.266 4.918.979z" fill="url(#SVGID_00000055691807395181194360000006125020770266229944_)"/><path d="m342.547 278.986c9.917-21.268 6.144-45.6-7.7-63.939-1.018-1.353-2.382-2.426-3.91-3.139l-47.237 101.301c1.527.712 3.227 1.067 4.917.978 22.948-1.184 44.013-13.933 53.93-35.201z" fill="url(#SVGID_00000127729891824694272260000012115447761748067212_)"/><path d="m342.547 278.986c9.917-21.268 6.144-45.6-7.7-63.939-1.018-1.353-2.382-2.426-3.91-3.139l-47.237 101.301c1.527.712 3.227 1.067 4.917.978 22.948-1.184 44.013-13.933 53.93-35.201z" fill="url(#SVGID_00000078727951837661808990000002958433737194923948_)"/><path d="m280.386 233.1c11.21-13.387 27.855-21.253 45.634-22.171 3.383-.175 6.789 1.414 8.83 4.117 10.724 14.209 15.399 32.016 12.349 49.209z" fill="url(#SVGID_00000121267862275048358150000002833573430311290009_)"/><g><path d="m342.546 278.985c-7.69 16.491-22.083 27.855-38.856 32.684l-2.891-4.537c-5.274-8.277-6.466-16.725-3.314-23.483l33.453-71.74c1.53.713 2.891 1.786 3.912 3.138 13.84 18.338 17.614 42.669 7.696 63.938z" fill="url(#SVGID_00000121993323923719810040000009472410748464597927_)"/><path d="m342.546 278.985c-4.043 8.67-9.939 15.923-17.059 21.556l-12.48-19.589c-5.274-8.277-6.466-16.725-3.314-23.483l21.245-45.561c1.53.713 2.891 1.786 3.912 3.138 13.84 18.339 17.614 42.67 7.696 63.939z" fill="url(#SVGID_00000180345724188805299360000001885704175169856396_)"/><path d="m330.938 211.908c1.53.713 2.891 1.786 3.912 3.138 13.841 18.338 17.615 42.67 7.697 63.939-.267.572-.545 1.134-.827 1.693l-16.504-25.905c-5.274-8.277-6.466-16.725-3.314-23.483z" fill="url(#SVGID_00000094600717128846659780000009617669341327115954_)"/></g><g><path d="m272.092 246.132c-7.69 16.491-7.144 34.822-.061 50.774l5.334-.702c9.731-1.281 16.968-5.797 20.12-12.556l33.453-71.74c-1.53-.713-3.227-1.067-4.918-.979-22.945 1.185-44.01 13.934-53.928 35.203z" fill="url(#SVGID_00000165209191871549911500000001065037069635762074_)"/><path d="m272.092 246.132c-4.043 8.67-5.809 17.849-5.547 26.924l23.028-3.031c9.731-1.281 16.968-5.797 20.12-12.556l21.245-45.561c-1.53-.713-3.227-1.067-4.918-.979-22.945 1.185-44.01 13.934-53.928 35.203z" fill="url(#SVGID_00000008147388818818531870000002779029996522586026_)"/><path d="m330.938 211.908c-1.53-.713-3.227-1.067-4.918-.979-22.945 1.185-44.01 13.934-53.927 35.203-.267.572-.518 1.146-.765 1.722l30.453-4.008c9.731-1.281 16.968-5.797 20.12-12.556z" fill="url(#SVGID_00000082342213686993870480000002686562130282010805_)"/></g></g><g><path d="m458.967 314.189c3.383.175 6.789-1.414 8.83-4.117 13.841-18.338 17.615-42.67 7.697-63.939s-30.983-34.018-53.927-35.203c-3.383-.175-6.789 1.414-8.83 4.117-13.841 18.338-17.614 42.67-7.697 63.939s30.982 34.018 53.927 35.203z" fill="url(#SVGID_00000019640167417947731430000009640310608617734571_)"/><path d="m463.885 313.209c1.53-.713 2.891-1.786 3.912-3.138 13.841-18.338 17.615-42.67 7.697-63.939s-30.983-34.018-53.927-35.203c-1.691-.087-3.389.266-4.918.979z" fill="url(#SVGID_00000049187785535397853080000014892247582455447703_)"/><path d="m463.885 313.209c1.53-.713 2.891-1.786 3.912-3.138 13.841-18.338 17.615-42.67 7.697-63.939s-30.983-34.018-53.927-35.203c-1.691-.087-3.389.266-4.918.979z" fill="url(#SVGID_00000183209349822980511040000010702023193487440311_)"/><path d="m467.199 233.1c-11.21-13.387-27.855-21.253-45.634-22.171-3.383-.175-6.789 1.414-8.83 4.117-10.724 14.209-15.399 32.016-12.349 49.209z" fill="url(#SVGID_00000014615014053027968050000017640578419308392851_)"/><g><path d="m405.039 278.985c7.69 16.491 22.083 27.855 38.856 32.684l2.891-4.537c5.274-8.277 6.466-16.725 3.314-23.483l-33.453-71.74c-1.53.713-2.891 1.786-3.912 3.138-13.84 18.338-17.614 42.669-7.696 63.938z" fill="url(#SVGID_00000011722480616283410130000006709359925804156585_)"/><path d="m405.039 278.985c4.043 8.67 9.939 15.923 17.059 21.556l12.48-19.589c5.274-8.277 6.466-16.725 3.314-23.483l-21.245-45.561c-1.53.713-2.891 1.786-3.912 3.138-13.84 18.339-17.614 42.67-7.696 63.939z" fill="url(#SVGID_00000167363161238417301200000002578885217747415221_)"/><path d="m416.647 211.908c-1.53.713-2.891 1.786-3.912 3.138-13.841 18.338-17.615 42.67-7.697 63.939.267.572.545 1.134.827 1.693l16.504-25.905c5.274-8.277 6.466-16.725 3.314-23.483z" fill="url(#SVGID_00000083074751089163658610000003889380677117277887_)"/></g><g><path d="m475.493 246.132c7.69 16.491 7.144 34.822.061 50.774l-5.334-.702c-9.731-1.281-16.968-5.797-20.12-12.556l-33.453-71.74c1.53-.713 3.227-1.067 4.918-.979 22.945 1.185 44.01 13.934 53.928 35.203z" fill="url(#SVGID_00000111190963785699496520000011799767245803013822_)"/><path d="m475.493 246.132c4.043 8.67 5.809 17.849 5.547 26.924l-23.028-3.031c-9.731-1.281-16.968-5.797-20.12-12.556l-21.245-45.561c1.53-.713 3.227-1.067 4.918-.979 22.945 1.185 44.01 13.934 53.928 35.203z" fill="url(#SVGID_00000012432171846103954340000011969402669074348433_)"/><path d="m416.647 211.908c1.53-.713 3.227-1.067 4.918-.979 22.945 1.185 44.01 13.934 53.927 35.203.267.572.518 1.146.765 1.722l-30.453-4.008c-9.731-1.281-16.968-5.797-20.12-12.556z" fill="url(#SVGID_00000040556010266864756400000003950961167252246916_)"/></g></g></g><path d="m379.21 294.89v-81.55c0-11.948-7.868-22.705-19.436-25.697-2.814-.728-5.617-.974-8.338-.815v10.885c1.848-.187 3.653-.047 5.253.329 5.39 1.268 11.685 5.893 11.685 14.753v82.095c0 12.558-2.077 25.029-6.148 36.909l-3.279 9.57h29.691l-3.279-9.57c-4.071-11.88-6.149-24.351-6.149-36.909z" fill="url(#SVGID_00000014616628021527371970000003042739277756509833_)"/><path d="m362.226 331.799-3.279 9.57h29.691l-3.279-9.57c-3.459-10.095-5.463-20.619-5.992-31.258h-11.148c-.529 10.64-2.533 21.163-5.993 31.258z" fill="url(#SVGID_00000047757083123499504520000016969912988407825831_)"/></g><g><g><path d="m17.284 331.57h477.432c9.546 0 17.284 7.738 17.284 17.284v145.861c0 9.546-7.738 17.284-17.284 17.284h-477.432c-9.546.001-17.284-7.737-17.284-17.283v-145.862c0-9.545 7.738-17.284 17.284-17.284z" fill="url(#SVGID_00000081644473243876132650000016026211024504495493_)"/><path d="m0 397.38v97.336c0 9.546 7.738 17.284 17.284 17.284h477.432c9.546 0 17.284-7.738 17.284-17.284v-97.336z" fill="url(#SVGID_00000043439149674206422600000012647001347691961248_)"/><path d="m494.716 331.57h-153.32v180.43h153.32c9.546 0 17.284-7.738 17.284-17.284v-145.862c0-9.545-7.738-17.284-17.284-17.284z" fill="url(#SVGID_00000047761009746463578970000010631633528397558719_)"/></g><path d="m173.895 400.515-11.073 15.704c-3.273 4.641-2.636 10.982 1.494 14.88l85.706 80.9h74.385v-180.429h-99.879c-12.595 0-24.846 4.106-34.898 11.695l-25.889 19.547c-7.559 5.707-5.281 17.606 3.852 20.118 7.624 2.096 10.859 11.123 6.302 17.585z" fill="url(#SVGID_00000016050761985180940370000017716761534198190214_)"/><path d="m173.895 400.515-11.073 15.704c-3.273 4.641-2.636 10.982 1.494 14.88l85.706 80.9h74.385v-180.429h-99.879c-12.595 0-24.846 4.106-34.898 11.695l-25.889 19.547c-7.559 5.707-5.281 17.606 3.852 20.118 7.624 2.096 10.859 11.123 6.302 17.585z" fill="url(#SVGID_00000136379744436834272760000007102897764732619409_)"/><path d="m443.368 443.055 11.073-15.704c3.273-4.641 2.636-10.982-1.494-14.88l-85.706-80.9h-74.385v180.429h99.879c12.595 0 24.846-4.106 34.898-11.695l25.889-19.547c7.559-5.707 5.281-17.606-3.852-20.118-7.624-2.096-10.859-11.122-6.302-17.585z" fill="url(#SVGID_00000088844807793912546440000015767282021668540044_)"/><path d="m162.822 416.219 11.073-15.704c4.557-6.463 1.322-15.489-6.303-17.586-9.133-2.511-11.411-14.411-3.852-20.118l-6.281-4.562c-10.553-7.665-25.474-3.864-31.075 7.915-4.453 9.365-15.114 14.033-25.016 10.953l-18.117-5.635c-12.465-3.877-25.445-5.849-38.499-5.849h-44.752v129.081c0 9.548 7.738 17.286 17.284 17.286h232.737l-85.706-80.9c-4.13-3.899-4.766-10.239-1.493-14.881z" fill="url(#SVGID_00000023271038434465483730000000183845717234994089_)"/><path d="m219.867 408.02c-10.577 2.35-21.654.006-30.371-6.428l-13.798-10.183h-.002c.686 3 .181 6.295-1.801 9.106l-11.073 15.704c-3.273 4.641-2.636 10.982 1.494 14.88l85.706 80.9h11.985l21.053-70.109-30.988-26c-8.927-7.488-20.83-10.397-32.205-7.87z" fill="url(#SVGID_00000183225986850114082670000012276865782638202771_)"/><path d="m232.428 495.394-68.113-64.294c-4.13-3.898-4.766-10.239-1.494-14.88l-14.302-9.081c-12.117-7.693-27.987-5.719-37.851 4.708-9.545 10.09-24.77 12.304-36.792 5.349l-27.965-16.176 62.205 110.98h125.724z" fill="url(#SVGID_00000172405233757573643300000011072078574594980281_)"/><path d="m453.52 480.76-25.89 19.55c-10.05 7.58-22.3 11.69-34.89 11.69h-54.99l-41.2-56.35c-1.53-2.09-2.76-4.32-3.69-6.63-1.52-3.73-2.26-7.67-2.26-11.59 0-3.96.76-7.92 2.26-11.62 1.7-4.22 4.37-8.11 7.95-11.34 4.02-3.62 5.94-8.48 5.94-13.3 0-6.45-3.45-12.84-9.92-16.08-1.47-.73-2.8-1.65-3.97-2.69-5.75-5.17-7.69-13.67-4.23-21l2.03-4.32c.6-1.28 1.34-2.45 2.2-3.5 3.29-4.06 8.24-6.33 13.33-6.33 2.91 0 5.87.74 8.59 2.32 5.04 2.93 11.22 3.09 16.41.44l36.05-18.44 85.71 80.9c4.13 3.9 4.76 10.24 1.49 14.88l-11.07 15.7c-1.43 2.03-2.09 4.31-2.09 6.55 0 4.9 3.16 9.6 8.39 11.04 9.13 2.51 11.41 14.41 3.85 20.12z" fill="url(#SVGID_00000147194680670545184450000014420815542002438562_)"/><path d="m453.52 480.76-25.89 19.55c-10.05 7.58-22.3 11.69-34.89 11.69h-54.99l-41.2-56.35c-1.53-2.09-2.76-4.32-3.69-6.63-1.52-3.73-2.26-7.67-2.26-11.59 0-3.96.76-7.92 2.26-11.62 1.7-4.22 4.37-8.11 7.95-11.34 4.02-3.62 5.94-8.48 5.94-13.3 0-6.45-3.45-12.84-9.92-16.08-1.47-.73-2.8-1.65-3.97-2.69-5.75-5.17-7.69-13.67-4.23-21l2.03-4.32c.6-1.28 1.34-2.45 2.2-3.5 3.29-4.06 8.24-6.33 13.33-6.33 2.91 0 5.87.74 8.59 2.32 5.04 2.93 11.22 3.09 16.41.44l36.05-18.44 85.71 80.9c4.13 3.9 4.76 10.24 1.49 14.88l-11.07 15.7c-1.43 2.03-2.09 4.31-2.09 6.55 0 4.9 3.16 9.6 8.39 11.04 9.13 2.51 11.41 14.41 3.85 20.12z" fill="url(#SVGID_00000128463085884754259130000001332556006955240880_)"/><path d="m369.543 404.786c-18.414 8.447-23.4 32.303-9.91 47.418l50.865 56.994c6.128-1.975 11.927-4.961 17.132-8.888l25.89-19.55c7.56-5.71 5.28-17.61-3.85-20.12-5.23-1.44-8.39-6.14-8.39-11.04 0-2.24.66-4.52 2.09-6.55l11.07-15.7c3.27-4.64 2.64-10.98-1.49-14.88l-67.631-63.835c9.195 8.679 10.994 22.638 4.301 33.365l-7.087 11.357c-3.118 4.998-7.635 8.972-12.99 11.429z" fill="url(#SVGID_00000161621651511782543460000013201362220775502735_)"/><path d="m306.75 401.17c0 4.82-1.92 9.68-5.94 13.3-3.58 3.23-6.25 7.12-7.95 11.34-1.5 3.7-2.26 7.66-2.26 11.62 0 3.92.74 7.86 2.26 11.59.79 1.96 1.79 3.86 3.02 5.67l-12.82-12.8-30.99-26c-8.93-7.49-20.83-10.4-32.2-7.87-5.74 1.27-11.63 1.17-17.2-.23l26.78-29.14c6.06-6.59 15.33-9.2 23.94-6.74 2.13.61 4.32.91 6.5.91 3.59 0 7.16-.82 10.44-2.43l18.3-8.99c-3.46 7.33-1.52 15.83 4.23 21 1.17 1.04 2.5 1.96 3.97 2.69 6.47 3.24 9.92 9.63 9.92 16.08z" fill="url(#SVGID_00000048494335951997370770000000600044057176953481_)"/><path d="m512 494.716v-145.862c0-9.546-7.738-17.284-17.284-17.284h-2.196c-12.498 0-24.485 4.965-33.323 13.803-12.445 12.445-30.788 16.918-47.565 11.599l-26.312-8.342 67.63 63.84c4.13 3.9 4.76 10.24 1.49 14.88l-11.07 15.7c-1.43 2.03-2.09 4.31-2.09 6.55 0 4.9 3.16 9.6 8.39 11.04 9.13 2.51 11.41 14.41 3.85 20.12l-25.89 19.55c-8.52 6.42-18.61 10.36-29.16 11.4.079.097.156.193.235.29h96.011c9.546 0 17.284-7.738 17.284-17.284z" fill="url(#SVGID_00000132080740501200036910000016667178685433469319_)"/></g><g><g><g><path d="m320.104 106.105c0 35.4-28.699 64.098-64.11 64.098-35.4 0-64.098-28.698-64.098-64.098 0-8.644 2.571-18.587 6.767-28.679 4.811-11.571 12.578-21.679 22.327-29.553l.002-.002c9.812-7.925 17.512-18.152 22.416-29.771l5.717-13.544c2.564-6.076 11.174-6.076 13.738 0l5.714 13.538c4.906 11.623 12.61 21.853 22.426 29.779 9.756 7.877 17.528 17.99 22.339 29.568 4.192 10.087 6.762 20.022 6.762 28.664z" fill="url(#SVGID_00000103263643051581737700000016525716413169693854_)"/><path d="m198.663 77.427c-4.196 10.092-6.767 20.035-6.767 28.679 0 35.4 28.699 64.098 64.098 64.098 35.411 0 64.11-28.698 64.11-64.098 0-8.642-2.57-18.577-6.761-28.663-1.622-3.903-3.588-7.635-5.846-11.176h-102.996c-2.254 3.535-4.217 7.262-5.838 11.16z" fill="url(#SVGID_00000123402962239202876930000014228628524101319302_)"/></g><path d="m291.003 47.874c-9.816-7.926-17.52-18.155-22.426-29.779l-5.714-13.538c-2.564-6.075-11.174-6.075-13.738 0l-5.717 13.544c-.723 1.714-1.526 3.387-2.369 5.037v145.293c4.8 1.148 9.803 1.772 14.955 1.772 35.411 0 64.11-28.698 64.11-64.098 0-8.642-2.57-18.577-6.761-28.663-4.812-11.579-12.584-21.691-22.34-29.568z" fill="url(#SVGID_00000054977623344818631550000008977110630176203913_)"/><path d="m320.104 106.105c0 35.4-28.699 64.098-64.11 64.098-35.4 0-64.098-28.698-64.098-64.098 0-8.644 2.571-18.587 6.767-28.679 4.811-11.571 12.578-21.679 22.327-29.553l.002-.002c9.812-7.925 17.512-18.152 22.416-29.771l5.717-13.544c2.564-6.076 11.174-6.076 13.738 0l5.714 13.538c4.906 11.623 12.61 21.853 22.426 29.779 9.756 7.877 17.528 17.99 22.339 29.568 4.192 10.087 6.762 20.022 6.762 28.664z" fill="url(#SVGID_00000132089670295035516760000004085854740738361221_)"/></g><path d="m244.586 155.945 14.188 14.188c12.586-.537 24.224-4.704 33.911-11.477l-25.405-25.405z" fill="url(#SVGID_00000085208598286748730310000002262219569926042792_)"/><path d="m248.061 118.235 42.099 42.099c17.988-11.353 29.944-31.389 29.944-54.228 0-4.704-.784-9.799-2.154-15.085l-51.853-51.853z" fill="url(#SVGID_00000005968686913700493740000010681780179362034080_)"/><g><path d="m268.105 45.194c0 5.008-.112 10.435-.335 16.279-.223 5.843-.501 11.799-.833 17.865-.335 6.068-.615 12.021-.836 17.865-.226 5.844-.335 11.27-.335 16.279 0 2.562-1.113 4.424-3.34 5.593-2.226 1.169-4.339 1.753-6.345 1.753-2.67 0-4.981-.584-6.927-1.753-1.949-1.169-2.923-3.031-2.923-5.593 0-5.009-.112-10.435-.332-16.279-.226-5.844-.503-11.797-.836-17.865-.335-6.066-.612-12.022-.836-17.865-.223-5.844-.335-11.271-.335-16.279 0-3.228 1.17-5.732 3.508-7.514 2.336-1.779 5.229-2.671 8.68-2.671 3.228 0 6.037.893 8.432 2.671 2.396 1.782 3.593 4.286 3.593 7.514z" fill="url(#SVGID_00000103259640776893553950000012176879457647652239_)"/><g><circle cx="256" cy="144.664" fill="url(#SVGID_00000121278535067265524770000004360740386946130584_)" r="16.048"/><path d="m239.952 144.664c0 8.863 7.185 16.048 16.048 16.048s16.048-7.185 16.048-16.048c0-.444-.019-.883-.054-1.318h-31.988c-.035.435-.054.875-.054 1.318z" fill="url(#SVGID_00000155828622017404743420000003023533029601230265_)"/><path d="m256 128.616c-1.034 0-2.044.099-3.024.286v31.525c.979.187 1.99.286 3.024.286 8.863 0 16.048-7.185 16.048-16.048 0-8.864-7.185-16.049-16.048-16.049z" fill="url(#SVGID_00000026164480742604387670000000569926685795594885_)"/><path d="m267.28 133.251-22.694 22.694c2.909 2.944 6.948 4.768 11.414 4.768 8.863 0 16.048-7.185 16.048-16.048 0-4.466-1.824-8.505-4.768-11.414z" fill="url(#SVGID_00000171708800784362018820000010475147058004333498_)"/></g></g></g></g></svg>