<svg id="Capa_1" enable-background="new 0 0 512 512" height="512" viewBox="0 0 512 512" width="512" xmlns="http://www.w3.org/2000/svg"><g><g><g><path d="m0 310.536h512v125.626h-512z" fill="#e9ad56"/></g></g><g><g><path d="m255.994 310.536h256.006v125.626h-256.006z" fill="#b97c14"/></g></g><g><g><path d="m255.994 295.887h256.006v30h-256.006z" fill="#8d5d0d"/></g></g><g><path d="m256 295.887h256v30h-256z" fill="#00c100"/></g><g><g><g><path d="m0 295.955h512v30h-512z" fill="#b97c14"/></g></g><g><path d="m0 358.558h512v30h-512z" fill="#b97c14"/></g><g><path d="m0 421.162h512v30h-512z" fill="#b97c14"/></g><g><g><path d="m255.994 295.887h256.006v30h-256.006z" fill="#8d5d0d"/></g></g><g><g><path d="m255.994 295.955h256.006v30h-256.006z" fill="#8d5d0d"/></g></g><g><path d="m255.994 358.558h256.006v30h-256.006z" fill="#8d5d0d"/></g><g><path d="m255.994 421.162h256.006v30h-256.006z" fill="#8d5d0d"/></g></g><g><g><g><path d="m97.289 215.726h30v142.382h-30z" fill="#00c100"/></g><g><path d="m112.288 215.726h15.001v142.382h-15.001z" fill="#080"/></g><path d="m216.823 188.357c-1.224-.992-30.382-24.189-65.023-14.907-19.126 5.125-31.852 17.988-39.512 28.731-7.66-10.743-20.386-23.607-39.512-28.731-34.637-9.28-63.798 13.916-65.023 14.907l-5.648 4.576 2.603 6.787c.564 1.471 14.219 36.14 48.857 45.421 5.755 1.542 11.356 2.187 16.706 2.187 18.422 0 33.828-7.658 42.015-12.732 8.187 5.075 23.592 12.732 42.016 12.732 5.347 0 10.953-.646 16.706-2.187 34.638-9.281 48.293-43.95 48.857-45.421l2.603-6.787z" fill="#92e200"/><path d="m216.823 188.357c-1.224-.992-30.382-24.189-65.023-14.907-19.126 5.125-31.852 17.988-39.512 28.731v32.415c8.187 5.075 23.592 12.732 42.016 12.732 5.347 0 10.953-.646 16.706-2.187 34.638-9.281 48.293-43.95 48.857-45.421l2.603-6.787z" fill="#00c100"/></g></g><g><g><g><path d="m384.711 215.726h30v142.382h-30z" fill="#00c100"/></g><g><path d="m399.71 215.726h15.001v142.382h-15.001z" fill="#080"/></g><path d="m504.245 188.357c-1.224-.992-30.382-24.189-65.023-14.907-19.126 5.125-31.852 17.988-39.512 28.731-7.66-10.743-20.386-23.607-39.512-28.731-34.637-9.28-63.798 13.916-65.023 14.907l-5.648 4.576 2.603 6.787c.564 1.471 14.219 36.14 48.857 45.421 5.755 1.542 11.356 2.187 16.706 2.187 18.422 0 33.828-7.658 42.015-12.732 8.187 5.075 23.592 12.732 42.016 12.732 5.347 0 10.953-.646 16.706-2.187 34.638-9.281 48.293-43.95 48.857-45.421l2.603-6.787z" fill="#92e200"/><path d="m504.245 188.357c-1.224-.992-30.382-24.189-65.023-14.907-19.126 5.125-31.852 17.988-39.512 28.731v32.415c8.187 5.075 23.592 12.732 42.016 12.732 5.347 0 10.953-.646 16.706-2.187 34.638-9.281 48.293-43.95 48.857-45.421l2.603-6.787z" fill="#00c100"/></g></g><g><g><g><path d="m240.994 105.302h30v220.653h-30z" fill="#00c100"/></g><g><path d="m255.993 105.302h15.001v220.653h-15.001z" fill="#080"/></g><path d="m360.528 77.933c-1.224-.992-30.382-24.189-65.023-14.907-19.126 5.125-31.852 17.988-39.511 28.731-7.66-10.743-20.386-23.607-39.512-28.731-34.637-9.28-63.798 13.916-65.023 14.907l-5.648 4.576 2.603 6.787c.564 1.471 14.219 36.14 48.857 45.421 5.755 1.542 11.356 2.187 16.706 2.187 18.422 0 33.828-7.658 42.015-12.732 8.187 5.075 23.592 12.732 42.016 12.732 5.347 0 10.953-.646 16.705-2.187 34.638-9.281 48.293-43.95 48.857-45.421l2.603-6.787z" fill="#92e200"/><path d="m360.528 77.933c-1.224-.992-30.382-24.189-65.023-14.907-19.126 5.125-31.852 17.988-39.511 28.731v32.415c8.187 5.075 23.592 12.732 42.016 12.732 5.347 0 10.953-.646 16.705-2.187 34.638-9.281 48.293-43.95 48.857-45.421l2.603-6.787z" fill="#00c100"/></g></g></g></svg>