<svg id="Layer_1" height="512" viewBox="0 0 64 64" width="512" xmlns="http://www.w3.org/2000/svg" data-name="Layer 1"><path d="m60 17h3a7 7 0 0 1 -7 7h-3a7 7 0 0 1 7-7z" fill="#80bb39"/><path d="m53 24h-3a7 7 0 0 1 -7-7h3a7 7 0 0 1 7 7z" fill="#80bb39"/><path d="m32 13a1 1 0 0 0 -1 1v20.405a6.986 6.986 0 0 0 -6-3.405h-3a7 7 0 0 0 7 7h2v8a1 1 0 0 0 2 0v-32a1 1 0 0 0 -1-1z" fill="#5eb132"/><path d="m35.5 18a4.429 4.429 0 0 0 -3.172 1.317 4.523 4.523 0 0 0 -.327.394 4.484 4.484 0 0 0 -.318-.383 4.439 4.439 0 0 0 -3.183-1.328 4.505 4.505 0 0 0 -4.5 4.5v2.5a1 1 0 0 0 2 0v-2.5a2.5 2.5 0 0 1 2.5-2.5 2.516 2.516 0 0 1 2.5 2.5 1 1 0 0 0 2 0 2.516 2.516 0 0 1 2.5-2.5 2.5 2.5 0 0 1 2.5 2.5v2.5a1 1 0 0 0 2 0v-2.5a4.505 4.505 0 0 0 -4.5-4.5z" fill="#ffcb3e"/><path d="m39 40a1 1 0 0 1 -1-1v-2.5a2.5 2.5 0 0 0 -2.5-2.5 2.516 2.516 0 0 0 -2.5 2.5 1 1 0 0 1 -2 0 4.515 4.515 0 0 1 4.5-4.5 4.505 4.505 0 0 1 4.5 4.5v2.5a1 1 0 0 1 -1 1z" fill="#f6a439"/><path d="m14.5 32a4.429 4.429 0 0 0 -3.172 1.317 4.523 4.523 0 0 0 -.327.394 4.484 4.484 0 0 0 -.318-.383 4.439 4.439 0 0 0 -3.183-1.328 4.505 4.505 0 0 0 -4.5 4.5v2.5a1 1 0 0 0 2 0v-2.5a2.5 2.5 0 0 1 2.5-2.5 2.516 2.516 0 0 1 2.5 2.5 1 1 0 0 0 2 0 2.516 2.516 0 0 1 2.5-2.5 2.5 2.5 0 0 1 2.5 2.5v2.5a1 1 0 0 0 2 0v-2.5a4.505 4.505 0 0 0 -4.5-4.5z" fill="#ffcb3e"/><path d="m14.5 20a4.429 4.429 0 0 0 -3.172 1.317 4.523 4.523 0 0 0 -.327.394 4.484 4.484 0 0 0 -.318-.383 4.439 4.439 0 0 0 -3.183-1.328 4.505 4.505 0 0 0 -4.5 4.5v2.5a1 1 0 0 0 2 0v-2.5a2.5 2.5 0 0 1 2.5-2.5 2.516 2.516 0 0 1 2.5 2.5 1 1 0 0 0 2 0 2.516 2.516 0 0 1 2.5-2.5 2.5 2.5 0 0 1 2.5 2.5v2.5a1 1 0 0 0 2 0v-2.5a4.505 4.505 0 0 0 -4.5-4.5z" fill="#ffcb3e"/><path d="m60 31a6.986 6.986 0 0 0 -6 3.405v-20.405a1 1 0 0 0 -2 0v20.405a6.986 6.986 0 0 0 -6-3.405h-3a7 7 0 0 0 7 7h2v8a1 1 0 0 0 2 0v-8h2a7 7 0 0 0 7-7z" fill="#5eb132"/><path d="m53 3a7.362 7.362 0 0 1 3.5 6 7.362 7.362 0 0 1 -3.5 6 7.362 7.362 0 0 1 -3.5-6 7.362 7.362 0 0 1 3.5-6z" fill="#80bb39"/><path d="m32 3a7.362 7.362 0 0 1 3.5 6 7.362 7.362 0 0 1 -3.5 6 7.362 7.362 0 0 1 -3.5-6 7.362 7.362 0 0 1 3.5-6z" fill="#80bb39"/><path d="m11 47a1 1 0 0 1 -1-1v-32.5a2.5 2.5 0 0 0 -2.5-2.5 2.516 2.516 0 0 0 -2.5 2.5v2.5a1 1 0 0 1 -2 0v-2.5a4.515 4.515 0 0 1 4.5-4.5 4.505 4.505 0 0 1 4.5 4.5v32.5a1 1 0 0 1 -1 1z" fill="#f6a439"/><circle cx="31.5" cy="55.5" fill="#946143" r="2.5"/><path d="m63 52v7a4 4 0 0 1 -4 4h-54a4 4 0 0 1 -4-4v-7s2-6 10-6a10.871 10.871 0 0 1 7.9 2.9 3.152 3.152 0 0 0 4.3.1c1.65-1.5 4.4-3 8.8-3s7.15 1.5 8.8 3a3.152 3.152 0 0 0 4.3-.1 10.871 10.871 0 0 1 7.9-2.9c8 0 10 6 10 6zm-29 3.5a2.5 2.5 0 1 0 -2.5 2.5 2.5 2.5 0 0 0 2.5-2.5z" fill="#b18264"/><circle cx="9.5" cy="53.5" fill="#946143" r="1.5"/><circle cx="56.5" cy="56.5" fill="#946143" r="1.5"/><g fill="#c89d84"><circle cx="20" cy="57" r="1"/><circle cx="47" cy="55" r="1"/></g></svg>