<svg id="Layer_1" enable-background="new 0 0 512 512" viewBox="0 0 512 512" xmlns="http://www.w3.org/2000/svg"><g clip-rule="evenodd" fill-rule="evenodd"><g><path d="m93.424 417.96h45.84c1.68 0 3.05 1.37 3.05 3.049v79.441c0 1.68-1.37 3.049-3.05 3.049h-45.84c-1.679 0-3.049-1.37-3.049-3.049v-79.441c-.001-1.68 1.369-3.049 3.049-3.049z" fill="#ff6372"/><path d="m185.524 379.592h45.84c1.68 0 3.049 1.37 3.049 3.049v117.809c0 1.68-1.37 3.049-3.049 3.049-15.28 0-30.56 0-45.84 0-1.679 0-3.049-1.37-3.049-3.049 0-39.269 0-78.539 0-117.809 0-1.679 1.37-3.049 3.049-3.049z" fill="#ffd54f"/><path d="m277.624 341.225h45.84c1.68 0 3.049 1.37 3.049 3.049v156.176c0 1.68-1.37 3.049-3.049 3.049-15.28 0-30.56 0-45.84 0-1.68 0-3.049-1.37-3.049-3.049 0-52.058 0-104.117 0-156.176 0-1.679 1.37-3.049 3.049-3.049z" fill="#6ce75a"/><path d="m418.614 302.858v197.592c0 1.68-1.37 3.049-3.049 3.049h-45.84c-1.68 0-3.05-1.37-3.05-3.049v-197.592h-14.774c-4.952 0-7.718-5.687-4.663-9.584l36.08-46.001c4.744-6.048 13.908-6.048 18.652 0l36.08 46.001c3.056 3.896.289 9.584-4.663 9.584z" fill="#43a2ff"/><path d="m103.765 353.407c110.804-.752 171.758-54.529 209.05-101.831l16.457 7.071c3.699 1.592 7.796-1.698 6.746-5.777l-15.024-58.332c-.809-3.14-4.358-4.665-7.192-3.091l-52.656 29.252c-3.682 2.046-3.249 7.28.45 8.869l13.686 5.881c-14.981 27.215-56.897 77.209-171.517 117.958z" fill="#f1cb86"/></g><g><ellipse cx="392.645" cy="98.071" fill="#ffd54f" rx="89.571" ry="89.571" transform="matrix(.707 -.707 .707 .707 45.657 306.366)"/><ellipse cx="392.645" cy="98.071" fill="#ffb700" rx="62.783" ry="62.783" transform="matrix(.973 -.23 .23 .973 -12.028 92.835)"/><path d="m415.361 82.855c0 4.142-3.358 7.5-7.5 7.5s-7.5-3.358-7.5-7.5c0-2.114-.87-4.042-2.272-5.443-1.402-1.402-3.33-2.272-5.443-2.272h-1.418c-2.114 0-4.041.87-5.443 2.272s-2.272 3.329-2.272 5.443.871 4.042 2.272 5.443c1.402 1.402 3.329 2.272 5.443 2.272h2.837c6.254 0 11.936 2.554 16.049 6.667s6.667 9.794 6.667 16.049c0 6.254-2.554 11.936-6.667 16.049-2.729 2.729-6.148 4.771-9.967 5.837v3.637c0 4.142-3.358 7.5-7.5 7.5s-7.5-3.358-7.5-7.5v-4.083c-3.248-1.142-6.162-3.004-8.549-5.39-4.113-4.113-6.667-9.795-6.667-16.049 0-4.142 3.358-7.5 7.5-7.5s7.5 3.358 7.5 7.5c0 2.114.87 4.042 2.272 5.443s3.329 2.272 5.443 2.272h1.418c2.114 0 4.042-.87 5.443-2.272 1.402-1.402 2.272-3.33 2.272-5.443s-.87-4.041-2.272-5.443-3.33-2.272-5.443-2.272h-2.837c-6.254 0-11.935-2.554-16.048-6.667s-6.667-9.794-6.667-16.049c0-6.254 2.553-11.936 6.667-16.049 2.729-2.729 6.148-4.771 9.967-5.836v-3.637c0-4.142 3.358-7.5 7.5-7.5s7.5 3.358 7.5 7.5v4.084c3.248 1.142 6.162 3.004 8.549 5.39 4.112 4.112 6.666 9.793 6.666 16.047z" fill="#ffd54f"/></g><g><path d="m219.334 132.553-13.857-32.612c-53.945 0-107.891 0-161.836 0l-13.857 32.612v119.887c0 2.203 1.797 4 4 4h181.55c2.203 0 4-1.797 4-4z" fill="#cc8758"/><path d="m61.203 232.138h34.327c1.1 0 2-.9 2-2v-15.981c0-1.1-.9-2-2-2h-34.327c-1.1 0-2 .9-2 2v15.981c0 1.1.9 2 2 2z" fill="#b77442"/><path d="m148.336 167.24v-44.687h-47.554v44.687l23.777-15.159z" fill="#a56832"/><path d="m219.334 132.553-13.857-32.612c-53.945 0-107.891 0-161.836 0l-13.857 32.612z" fill="#b77442"/></g></g></svg>