<svg id="Icons" height="512" viewBox="0 0 60 60" width="512" xmlns="http://www.w3.org/2000/svg"><path d="m39.83 12-1.13-6.82a5.013 5.013 0 0 0 -4.94-4.18h-7.52a5.013 5.013 0 0 0 -4.94 4.18l-1.13 6.82z" fill="#67b9cc"/><path d="m9 56a1 1 0 0 1 -1-1v-4.41a1 1 0 0 1 2 0v4.41a1 1 0 0 1 -1 1z" fill="#4c8056"/><path d="m30 56a1 1 0 0 1 -1-1v-4.41a1 1 0 0 1 2 0v4.41a1 1 0 0 1 -1 1z" fill="#4c8056"/><path d="m51 56a1 1 0 0 1 -1-1v-4.41a1 1 0 0 1 2 0v4.41a1 1 0 0 1 -1 1z" fill="#4c8056"/><path d="m4 55h52a3 3 0 0 1 3 3 1 1 0 0 1 -1 1h-56a1 1 0 0 1 -1-1 3 3 0 0 1 3-3z" fill="#a65a47"/><path d="m6.771 44.872c2.208 1.612 2.229 5.341 2.229 5.341s-3.559 1.117-5.767-.495-2.233-5.341-2.233-5.341 3.563-1.117 5.771.495z" fill="#4fba6f"/><path d="m11.233 44.872c-2.208 1.612-2.233 5.341-2.233 5.341s3.559 1.117 5.767-.495 2.233-5.341 2.233-5.341-3.559-1.117-5.767.495z" fill="#24ae5f"/><path d="m27.767 44.872c2.208 1.612 2.233 5.341 2.233 5.341s-3.559 1.117-5.767-.495-2.233-5.341-2.233-5.341 3.559-1.117 5.767.495z" fill="#4fba6f"/><path d="m32.229 44.872c-2.208 1.612-2.229 5.341-2.229 5.341s3.559 1.117 5.767-.495 2.233-5.341 2.233-5.341-3.563-1.117-5.771.495z" fill="#24ae5f"/><path d="m48.767 44.872c2.208 1.612 2.233 5.341 2.233 5.341s-3.559 1.117-5.767-.495-2.233-5.341-2.233-5.341 3.559-1.117 5.767.495z" fill="#4fba6f"/><path d="m53.229 44.872c-2.208 1.612-2.229 5.341-2.229 5.341s3.559 1.117 5.767-.495 2.233-5.341 2.233-5.341-3.563-1.117-5.771.495z" fill="#24ae5f"/><path d="m38.662 12h15.338a5 5 0 0 1 5 5v2a1 1 0 0 1 -1 1h-18.458z" fill="#3f5c6c"/><path d="m20.458 20h-18.458a1 1 0 0 1 -1-1v-2a5 5 0 0 1 5-5h15.338z" fill="#3f5c6c"/><g fill="#84b5cb"><path d="m30 33a1 1 0 0 1 -1-1v-1a1 1 0 0 1 2 0v1a1 1 0 0 1 -1 1z"/><path d="m30 38a1 1 0 0 1 -1-1v-1a1 1 0 0 1 2 0v1a1 1 0 0 1 -1 1z"/><path d="m25 32a1 1 0 0 1 -1-1v-1a1 1 0 0 1 2 0v1a1 1 0 0 1 -1 1z"/><path d="m25 37a1 1 0 0 1 -1-1v-1a1 1 0 0 1 2 0v1a1 1 0 0 1 -1 1z"/><path d="m35 32a1 1 0 0 1 -1-1v-1a1 1 0 0 1 2 0v1a1 1 0 0 1 -1 1z"/><path d="m35 37a1 1 0 0 1 -1-1v-1a1 1 0 0 1 2 0v1a1 1 0 0 1 -1 1z"/><path d="m30 43a1 1 0 0 1 -1-1v-1a1 1 0 0 1 2 0v1a1 1 0 0 1 -1 1z"/><path d="m50 30a1 1 0 0 1 -1-1v-1a1 1 0 0 1 2 0v1a1 1 0 0 1 -1 1z"/><path d="m50 35a1 1 0 0 1 -1-1v-1a1 1 0 0 1 2 0v1a1 1 0 0 1 -1 1z"/><path d="m45 29a1 1 0 0 1 -1-1v-1a1 1 0 0 1 2 0v1a1 1 0 0 1 -1 1z"/><path d="m45 34a1 1 0 0 1 -1-1v-1a1 1 0 0 1 2 0v1a1 1 0 0 1 -1 1z"/><path d="m55 29a1 1 0 0 1 -1-1v-1a1 1 0 0 1 2 0v1a1 1 0 0 1 -1 1z"/><path d="m55 34a1 1 0 0 1 -1-1v-1a1 1 0 0 1 2 0v1a1 1 0 0 1 -1 1z"/><path d="m50 40a1 1 0 0 1 -1-1v-1a1 1 0 0 1 2 0v1a1 1 0 0 1 -1 1z"/><path d="m10 30a1 1 0 0 1 -1-1v-1a1 1 0 0 1 2 0v1a1 1 0 0 1 -1 1z"/><path d="m10 35a1 1 0 0 1 -1-1v-1a1 1 0 0 1 2 0v1a1 1 0 0 1 -1 1z"/><path d="m5 29a1 1 0 0 1 -1-1v-1a1 1 0 0 1 2 0v1a1 1 0 0 1 -1 1z"/><path d="m5 34a1 1 0 0 1 -1-1v-1a1 1 0 0 1 2 0v1a1 1 0 0 1 -1 1z"/><path d="m15 29a1 1 0 0 1 -1-1v-1a1 1 0 0 1 2 0v1a1 1 0 0 1 -1 1z"/><path d="m15 34a1 1 0 0 1 -1-1v-1a1 1 0 0 1 2 0v1a1 1 0 0 1 -1 1z"/><path d="m10 40a1 1 0 0 1 -1-1v-1a1 1 0 0 1 2 0v1a1 1 0 0 1 -1 1z"/></g><path d="m5 20h10a0 0 0 0 1 0 0v2a2 2 0 0 1 -2 2h-6a2 2 0 0 1 -2-2v-2a0 0 0 0 1 0 0z" fill="#35495e"/><path d="m45 20h10a0 0 0 0 1 0 0v2a2 2 0 0 1 -2 2h-6a2 2 0 0 1 -2-2v-2a0 0 0 0 1 0 0z" fill="#35495e"/><circle cx="30" cy="17" fill="#547580" r="10"/><path d="m30 15.963a1 1 0 0 1 -1-1v-4.963a1 1 0 0 1 2 0v4.963a1 1 0 0 1 -1 1z" fill="#7f8c8d"/><path d="m23.938 21.5a1 1 0 0 1 -.5-1.866l4.052-2.34a1 1 0 0 1 1 1.733l-4.052 2.339a1 1 0 0 1 -.5.134z" fill="#7f8c8d"/><path d="m36.062 21.5a.992.992 0 0 1 -.5-.134l-4.443-2.566a1 1 0 0 1 1-1.733l4.444 2.566a1 1 0 0 1 -.5 1.866z" fill="#7f8c8d"/><circle cx="30" cy="17" fill="#95a5a5" r="3"/></svg>