<svg id="Layer_1" enable-background="new 0 0 105 105" viewBox="0 0 105 105" xmlns="http://www.w3.org/2000/svg"><g><g><path d="m79.3331 20.65989v69.13748c0 5.84459-4.60712 10.58604-10.27289 10.58604h-54.30215c-5.66577.00001-10.25806-4.74144-10.25806-10.58603v-69.13749c0-5.84477 3.51882-10.57111 10.25806-10.57111h54.30215c6.6051-.70072 10.27289 4.72634 10.27289 10.57111z" fill="#b75f25"/></g><g><path d="m74.4539 11.10594v62.2513c0 13.06012-10.58732 23.64744-23.64744 23.64744h-43.54632c1.8725 2.07381 4.5344 3.37875 7.49791 3.37875h54.30215c5.66583 0 10.27293-4.74145 10.27293-10.58608v-69.13749c.00001-3.98176-1.70556-7.76527-4.87923-9.55392z" fill="#aa5821"/></g><g><path d="m71.59292 21.94835v67.03931c0 2.30792-1.87093 4.17886-4.17886 4.17886h-50.98207c-2.30792 0-4.17885-1.87093-4.17885-4.17886v-67.03931c0-2.30792 1.87094-4.17885 4.17885-4.17885h50.98207c2.30792-.00001 4.17886 1.87093 4.17886 4.17885z" fill="#fff"/></g><g><path d="m47.40891 88.34536h-35.15577v.6423c0 2.30792 1.87094 4.17886 4.17885 4.17886h50.98207c2.30792 0 4.17886-1.87093 4.17886-4.17886v-67.03931c0-2.30792-1.87093-4.17885-4.17886-4.17885h-1.96202v52.53275c0 9.96492-8.07818 18.04311-18.04313 18.04311z" fill="#e4e3ff"/></g><g><path d="m29.97339 75.31717v7.31299c0 .86547-.7016 1.56707-1.56707 1.56707h-7.31299c-.86547 0-1.56707-.7016-1.56707-1.56707v-7.31299c0-.86547.7016-1.56707 1.56707-1.56707h7.31299c.86547 0 1.56707.7016 1.56707 1.56707z" fill="#fc6559"/></g><g><path d="m58.42837 46.58592c0 9.12143-7.38834 16.50978-16.49465 16.50978-9.13656 0-16.52499-7.38834-16.52499-16.50978s7.38843-16.50987 16.52499-16.50987c9.10631 0 16.49465 7.38843 16.49465 16.50987z" fill="#f9b938"/></g><g><path d="m58.43109 46.581c0 9.13079-7.3862 16.51692-16.49607 16.51692-5.70409 0-10.71877-2.87296-13.68572-7.25032 2.70577 1.91185 5.99677 3.04009 9.55915 3.04009 9.10987 0 16.49607-7.39653 16.49607-16.51692 0-3.44754-1.05517-6.6339-2.85205-9.2666 4.22056 2.97747 6.97862 7.90849 6.97862 13.47683z" fill="#ecb021"/></g><g><g><path d="m44.29697 53.3861h-6.09178c-.57745 0-1.04472-.46777-1.04472-1.04471s.46727-1.04471 1.04472-1.04471h6.09178c.16426 0 .2979-.13365.2979-.29791v-3.06987c0-.16426-.13365-.2979-.2979-.2979h-4.74916c-1.31609 0-2.38733-1.07073-2.38733-2.38733v-3.06987c0-1.3166 1.07124-2.38734 2.38733-2.38734h6.09178c.57745 0 1.04472.46778 1.04472 1.04472s-.46727 1.04471-1.04472 1.04471h-6.09178c-.16426 0-.2979.13365-.2979.29791v3.06987c0 .16425.13365.2979.2979.2979h4.74916c1.31609 0 2.38733 1.07073 2.38733 2.38733v3.06987c.00001 1.3166-1.07123 2.38733-2.38733 2.38733z" fill="#fc6559"/></g><g><path d="m41.9229 41.87589c-.57745 0-1.04471-.46777-1.04471-1.04471v-2.33479c0-.57694.46726-1.04471 1.04471-1.04471s1.04472.46777 1.04472 1.04471v2.33479c0 .57693-.46727 1.04471-1.04472 1.04471z" fill="#fc6559"/></g><g><path d="m41.9229 55.72089c-.57745 0-1.04471-.46777-1.04471-1.04471v-2.33479c0-.57694.46726-1.04471 1.04471-1.04471s1.04472.46777 1.04472 1.04471v2.33479c0 .57694-.46727 1.04471-1.04472 1.04471z" fill="#fc6559"/></g></g><g><path d="m97.59013 62.60849-11.14495 2.57331-.06296 11.43799c-.02197 3.992-5.43349 5.19606-7.14603 1.58999l-11.08237-23.33597c-1.34351-2.82899 1.16308-5.96254 4.21806-5.27311l25.20009 5.68703c3.89412.8788 3.90787 6.42264.01816 7.32076z" fill="#00d67f"/></g><g><path d="m86.37717 75.90611v.7104c-.02091 3.99081-5.43246 5.20265-7.14581 1.59838l-11.07393-23.33886c-1.14929-2.41329.50144-5.04599 2.90434-5.33854.05215.31347.1566.62687.30288.94027l11.0844 23.32847c.80444 1.69243 2.4238 2.32969 3.92812 2.09988z" fill="#00c179"/></g><g><path d="m56.88327 19.97388h-29.93094c-3.27009 0-5.89233-2.71629-5.56841-5.94442.27164-2.82074 2.88342-4.88925 5.80867-4.88925h1.69243c1.81304 0 3.38564-.99248 4.16648-2.44403.7049-1.31036 2.12005-2.0796 3.60798-2.0796h10.52482c1.49043 0 2.90532.77316 3.6113 2.08577.7789 1.44819 2.34451 2.43785 4.15498 2.43785h1.69243c2.92525 0 5.53703 2.06851 5.80867 4.88925.32392 3.22814-2.29832 5.94443-5.56841 5.94443z" fill="#474646"/></g><g><path d="m56.88493 19.97211h-29.93107c-2.65348 0-4.88931-1.79688-5.45337-4.19971.76262.38654 1.64014.60589 2.55962.60589h29.93094c3.28041 0 5.8922-2.71623 5.57886-5.94442-.02091-.20889-.05228-.40739-.09412-.60589 1.61936.83576 2.79976 2.35061 2.97754 4.19971.3238 3.22819-2.29844 5.94442-5.5684 5.94442z" fill="#2d2c2c"/></g><g><g><path d="m62.65802 77.5201h-26.83812c-.57745 0-1.04471-.46777-1.04471-1.04472 0-.57693.46727-1.04471 1.04471-1.04471h26.83812c.57745 0 1.04472.46777 1.04472 1.04471-.00001.57695-.46727 1.04472-1.04472 1.04472z" fill="#474646"/></g><g><path d="m55.47051 82.90639h-19.65061c-.57745 0-1.04471-.46777-1.04471-1.04471s.46727-1.04472 1.04471-1.04472h19.65061c.57745 0 1.04472.46777 1.04472 1.04472-.00001.57694-.46727 1.04471-1.04472 1.04471z" fill="#474646"/></g></g><g><path d="m24.89326 81.27556c-.28872 0-.57541-.11936-.78149-.35146l-1.50586-1.69664c-.38259-.43105-.34382-1.09164.08774-1.47474.43054-.38258 1.09164-.34433 1.47525.08825l.84781.95544 5.93059-4.72825c.45094-.36014 1.10797-.28465 1.46811.16528.35912.45145.28566 1.10848-.1663 1.46811l-6.70494 5.34599c-.19181.15304-.42136.22802-.65091.22802z" fill="#474646"/></g><g><path d="m90.84589 59.18967c-.08263 0-.16731-.00969-.25097-.03061l-6.11117-1.50841c-.5601-.13824-.9029-.70447-.76415-1.26457.13875-.55909.70804-.90137 1.26406-.76364l6.11117 1.50841c.5601.13824.9029.70447.76415 1.26457-.11732.47593-.54378.79425-1.01309.79425z" fill="#fff"/></g><g><path d="m81.22719 56.81509c-.08264 0-.16732-.00969-.25098-.03061l-1.22733-.30301c-.5601-.13824-.9029-.70447-.76415-1.26458.13773-.55959.70702-.90086 1.26406-.76364l1.22733.30301c.5601.13824.90291.70447.76415 1.26457-.11732.47594-.54377.79426-1.01308.79426z" fill="#fff"/></g><g><path d="m8.42575 46.1486c-.57745 0-1.04471-.46778-1.04471-1.04472v-10.16453c0-.57694.46726-1.04471 1.04471-1.04471s1.04471.46777 1.04471 1.04471v10.16453c.00001.57694-.46726 1.04472-1.04471 1.04472z" fill="#fff"/></g><g><path d="m8.42575 30.58349c-.57745 0-1.04471-.46778-1.04471-1.04471v-1.37833c0-.57694.46726-1.04471 1.04471-1.04471s1.04471.46778 1.04471 1.04471v1.37833c.00001.57694-.46726 1.04471-1.04471 1.04471z" fill="#fff"/></g><g><path d="m44.96624 9.99835h-6.09689c-.57745 0-1.04471-.46777-1.04471-1.04471s.46727-1.04471 1.04471-1.04471h6.09689c.57745 0 1.04471.46777 1.04471 1.04471.00001.57694-.46726 1.04471-1.04471 1.04471z" fill="#fff"/></g></g></svg>