<svg id="color" height="512" viewBox="0 0 256 256" width="512" xmlns="http://www.w3.org/2000/svg"><path d="m73.6519 186.9671c-.1375-6.585-.3443-16.4622.7417-20.2294s-.3094-5.59-2-6.4839-4.4553-1.2692-6.9561 1.75-10.7782 8.4127-16.2964 12.0082-14.3136 6.5444-20.1944 26.228c-4.9613 16.6082 2.967 25.2871 7.8762 27.8816s15.6063 3.76 26.5343-9.6948c12.9512-15.9468 10.4328-24.8748 10.2947-31.4597z" fill="#8c3415"/><path d="m42.2026 204.2-5.27-1.5743c4.2243-14.1405 9.57-17.3153 14.2871-20.1161.8116-.4815 1.6473-.9773 2.4707-1.5142 2.3821-1.5522 4.9049-3.2062 7.2166-4.7829l3.0991 4.5434c-2.3536 1.6057-4.9055 3.2785-7.3122 4.8474-.9206.6-1.808 1.126-2.6652 1.6347-4.226 2.5102-8.2168 4.8799-11.8261 16.962z" fill="#e9bf83"/><path d="m132.9751 143.1773c-5.4119-3.7533-13.5309-9.3833-17.2708-10.5587s-4.4886-3.3467-4.299-5.25 1.4035-4.4145 5.3018-4.83 12.9674-4.3355 19.0131-6.9486 13.3627-8.3147 33.0183-2.34c16.5849 5.0407 19.4385 16.4438 18.8885 21.97s-5.4887 15.0852-22.7417 16.7594c-20.4472 1.9828-26.4977-5.0494-31.9102-8.8021z" fill="#8c3415"/><path d="m172.848 130.7658c-1.4631-1.9994-4.2566-3.67-8.0776-4.8321-12.0651-3.6663-16.2465-1.65-20.6712.4861l-2.3907-4.9532c4.94-2.3845 10.5392-5.0875 24.6614-.7952 5.0408 1.5326 8.7135 3.836 10.9167 6.8465z" fill="#e9bf83"/><path d="m129.3276 201.9583c6.53.8615 16.3243 2.1538 19.8832 3.7987s5.572.5416 6.7118-.9947 1.93-4.2112-.6762-7.1409-6.6817-11.9284-9.3994-17.9282-4.299-15.14-22.8653-23.9355c-15.6637-7.4213-25.4439-.9-28.7526 3.56s-6.0817 14.8564 5.5618 27.6968c13.8005 15.218 23.0065 14.082 29.5367 14.9438z" fill="#8c3415"/><path d="m132.3633 182.0753c-1.84-4.5568-3.5777-8.8609-14.9746-14.2605-3.6094-1.71-6.8014-2.3522-9.227-1.8551l-1.1011-5.3888c3.655-.7468 7.9218.0183 12.6828 2.2736 13.3381 6.3194 15.6659 12.085 17.72 17.1719z" fill="#e9bf83"/><path d="m62.711 138.1438c6.586.0744 16.4645.1861 20.1948 1.3933s5.5972-.1286 6.5447-1.79 1.4126-4.4118-1.5249-7.0082-8.0609-11.0438-11.477-16.6756-6.0786-14.5175-25.5631-21.0294c-16.44-5.4946-25.3688 2.15-28.1209 6.973s-4.2609 15.4771 8.8349 26.8331c15.5205 13.4582 24.5255 11.2294 31.1115 11.3038z" fill="#8c3415"/><path d="m63.3464 118.0406c-2.3708-4.3041-4.6106-8.3692-16.5714-12.3675-4.7857-1.599-7.7446-1.2843-9.3833-.738l-1.7381-5.218c3.539-1.1793 7.8665-.9305 12.8648.74 13.9987 4.6793 16.9984 10.1251 19.6458 14.93z" fill="#e9bf83"/><path d="m207.7155 191.2529c-6.1064 2.4677-15.2662 6.17-18.3 8.6525s-5.2594 1.9183-6.7477.7163-2.9219-3.5946-1.1317-7.0829 3.4853-13.221 4.6159-19.71c1.129-6.4886.3749-15.7341 16.1493-28.8949 13.31-11.1042 24.4094-7.2368 28.7294-3.7469s9.6046 12.8624 1.5437 28.2074c-9.5535 18.1874-18.752 19.3908-24.8589 21.8585z" fill="#8c3415"/><path d="m199.8028 172.76-5.4532-.7151c.7159-5.4409 1.5275-11.6051 12.8594-21.0593 4.045-3.3749 7.9852-5.1831 11.7112-5.3738l.2814 5.493c-1.7257.0881-4.5955.8717-8.4691 4.104-9.6825 8.0782-10.2884 12.6793-10.9297 17.5512z" fill="#e9bf83"/><path d="m202.0436 86.1473c-2.0254 6.267-5.0639 15.6675-5.1068 19.5881s-1.9041 5.265-3.7808 5.6349-4.632-.0658-6.158-3.6768-7.9041-11.1569-12.1553-16.1874-11.8277-10.3837-11.7993-30.9273c.0242-17.3333 10.1127-23.3656 15.5611-24.4392s16.0284.887 22.6252 16.9162c7.8184 18.9978 2.8403 26.8242.8139 33.0915z" fill="#8c3415"/><path d="m178.7347 84.073c-3.7125-4.0388-7.9207-8.6163-7.9009-23.376.0075-5.268 1.1494-9.45 3.3934-12.43l4.3936 3.308c-1.49 1.98-2.2811 5.1367-2.287 9.13-.0167 12.6113 3.1244 16.0284 6.45 19.6461z" fill="#e9bf83"/><path d="m136.77 78.1063c2.4589-6.11 6.1472-15.2754 8.626-18.3133s1.91-5.2623.7063-6.7485-3.5986-2.9168-7.0845-1.1218-13.2161 3.5044-19.7028 4.6439-15.7341.3977-28.8718 16.1912c-11.0849 13.3254-7.2021 24.42-3.7055 28.7348s12.8762 9.5863 28.21 1.5031c18.173-9.5799 19.3632-18.7798 21.8223-24.8894z" fill="#8c3415"/><path d="m96.6375 89.6509-5.4936-.275c.1869-3.7262 1.9889-7.6688 5.3577-11.7186 9.4392-11.347 15.603-12.1666 21.0407-12.89l.7251 5.4522c-4.871.6475-9.4719 1.26-17.5377 10.9549-2.5534 3.0699-3.9686 6.0012-4.0922 8.4765z" fill="#e9bf83"/></svg>