<svg height="512" viewBox="0 0 54 60" width="512" xmlns="http://www.w3.org/2000/svg"><g id="Page-1" fill="none" fill-rule="evenodd"><g id="031---Garden-Tools" fill-rule="nonzero"><g fill="#7f8c8d"><path id="Rectangle-path" d="m11 38h4v13h-4z"/><path id="Rectangle-path" d="m45 38h4v7.091h-4z"/><path id="Shape" d="m5 60c-.55228475 0-1-.4477153-1-1v-4c0-.5522847.44771525-1 1-1s1 .4477153 1 1v4c0 .5522847-.44771525 1-1 1z"/><path id="Shape" d="m1 60c-.55228475 0-1-.4477153-1-1v-4c0-.5522847.44771525-1 1-1s1 .4477153 1 1v4c0 .5522847-.44771525 1-1 1z"/><path id="Shape" d="m9 60c-.55228475 0-1-.4477153-1-1v-4c0-.5522847.44771525-1 1-1s1 .4477153 1 1v4c0 .5522847-.44771525 1-1 1z"/><path id="Shape" d="m13 60c-.5522847 0-1-.4477153-1-1v-4c0-.5522847.4477153-1 1-1s1 .4477153 1 1v4c0 .5522847-.4477153 1-1 1z"/><path id="Shape" d="m17 60c-.5522847 0-1-.4477153-1-1v-4c0-.5522847.4477153-1 1-1s1 .4477153 1 1v4c0 .5522847-.4477153 1-1 1z"/><path id="Shape" d="m21 60c-.5522847 0-1-.4477153-1-1v-4c0-.5522847.4477153-1 1-1s1 .4477153 1 1v4c0 .5522847-.4477153 1-1 1z"/><path id="Shape" d="m25 60c-.5522847 0-1-.4477153-1-1v-4c0-.5522847.4477153-1 1-1s1 .4477153 1 1v4c0 .5522847-.4477153 1-1 1z"/><path id="Shape" d="m53 60c-.5522847 0-1-.4477153-1-1v-7c0-.5522847.4477153-1 1-1s1 .4477153 1 1v7c0 .5522847-.4477153 1-1 1z"/><path id="Shape" d="m41 60c-.5522847 0-1-.4477153-1-1v-7c0-.5522847.4477153-1 1-1s1 .4477153 1 1v7c0 .5522847-.4477153 1-1 1z"/><path id="Shape" d="m45 60c-.5522847 0-1-.4477153-1-1v-7c0-.5522847.4477153-1 1-1s1 .4477153 1 1v7c0 .5522847-.4477153 1-1 1z"/><path id="Shape" d="m49 60c-.5522847 0-1-.4477153-1-1v-7c0-.5522847.4477153-1 1-1s1 .4477153 1 1v7c0 .5522847-.4477153 1-1 1z"/></g><path id="Rectangle-path" d="m11 12h4v27h-4z" fill="#f29c1f"/><path id="Rectangle-path" d="m45 12h4v27h-4z" fill="#f29c1f"/><path id="Shape" d="m32 20.43 3.55-1.02c.8589063-.2428598 1.4514128-1.0274201 1.45-1.92v-6.49c0-7-7-10-7-10s-7 3-7 10v6.49c-.0014128.8925799.5910937 1.6771402 1.45 1.92l3.55 1.02z" fill="#bdc3c7"/><path id="Shape" d="m53 53c-.5522847 0-1-.4477153-1-1s-.4477153-1-1-1-1 .4477153-1 1-.4477153 1-1 1-1-.4477153-1-1-.4477153-1-1-1-1 .4477153-1 1-.4477153 1-1 1-1-.4477153-1-1-.4477153-1-1-1-1 .4477153-1 1-.4477153 1-1 1-1-.4477153-1-1v-3c.0033061-2.7600532 2.2399468-4.9966939 5-5h4c2.7600532.0033061 4.9966939 2.2399468 5 5v3c0 .5522847-.4477153 1-1 1z" fill="#bdc3c7"/><path id="Shape" d="m15 13h-4c-.2651948-.0000566-.5195073-.1054506-.707-.293l-2.829-2.829c-.94056895-.93549385-1.46774556-2.20842371-1.464-3.535v-3.343c.00000002-.55228474.44771526-.99999997 1-.99999997s.99999998.44771523 1 .99999997v3.343c.00208369.79500633.31756723 1.55712544.878 2.121l2.536 2.536h3.172l2.536-2.536c.5604328-.56387456.8759163-1.32599367.878-2.121v-3.343c0-.55228475.4477153-1 1-1s1 .44771525 1 1v3.343c.0037456 1.32657629-.523431 2.59950615-1.464 3.535l-2.829 2.829c-.1874927.1875494-.4418052.2929434-.707.293z" fill="#d25627"/><path id="Shape" d="m49 13h-4c-.2651948-.0000566-.5195073-.1054506-.707-.293l-2.829-2.829c-.940569-.93549385-1.4677456-2.20842371-1.464-3.535v-3.343c0-.55228475.4477153-1 1-1s1 .44771525 1 1v3.343c.0020837.79500633.3175672 1.55712544.878 2.121l2.536 2.536h3.172l2.536-2.536c.5604328-.56387456.8759163-1.32599367.878-2.121v-3.343c0-.55228475.4477153-1 1-1s1 .44771525 1 1v3.343c.0037456 1.32657629-.523431 2.59950615-1.464 3.535l-2.829 2.829c-.1874927.1875494-.4418052.2929434-.707.293z" fill="#d25627"/><path id="Shape" d="m17 0h-8c-1.65685425 0-3 1.34314575-3 3s1.34314575 3 3 3h8c1.6568542 0 3-1.34314575 3-3s-1.3431458-3-3-3z" fill="#e57e25"/><path id="Shape" d="m51 0h-8c-1.6568542 0-3 1.34314575-3 3s1.3431458 3 3 3h8c1.6568542 0 3-1.34314575 3-3s-1.3431458-3-3-3z" fill="#e57e25"/><path id="Shape" d="m25 56h-24c-.55228475 0-1-.4477153-1-1v-3c0-1.6568542 1.34314575-3 3-3h20c1.6568542 0 3 1.3431458 3 3v3c0 .5522847-.4477153 1-1 1z" fill="#bdc3c7"/><path id="Rectangle-path" d="m28 22h4v13h-4z" fill="#f29c1f"/><path id="Shape" d="m36 45c-.5522847 0-1-.4477153-1-1v-3.343c-.0020837-.7950063-.3175672-1.5571254-.878-2.121l-2.536-2.536h-3.172l-2.536 2.536c-.5604328.5638746-.8759163 1.3259937-.878 2.121v3.343c0 .5522847-.4477153 1-1 1s-1-.4477153-1-1v-3.343c-.0037456-1.3265763.523431-2.5995062 1.464-3.535l2.829-2.829c.1874927-.1875494.4418052-.2929434.707-.293h4c.2651948.0000566.5195073.1054506.707.293l2.829 2.829c.940569.9354938 1.4677456 2.2084237 1.464 3.535v3.343c0 .5522847-.4477153 1-1 1z" fill="#d25627"/><path id="Shape" d="m32 13v10h-4v-10c.0081672-1.1011688.8988312-1.9918328 2-2 1.1032019.0032948 1.9967052.8967981 2 2z" fill="#95a5a5"/><path id="Shape" d="m34 41h-8c-1.6568542 0-3 1.3431458-3 3s1.3431458 3 3 3h8c1.6568542 0 3-1.3431458 3-3s-1.3431458-3-3-3z" fill="#e57e25"/></g></g></svg>