<svg id="Layer_3" enable-background="new 0 0 64 64" height="512" viewBox="0 0 64 64" width="512" xmlns="http://www.w3.org/2000/svg"><g><g fill="#893b20"><path d="m35.239 38.263-2.239 1.119v-10.383h-2v10.613l-4.684-1.56-.632 1.896 5.316 1.772v8.28h2v-8.382l3.134-1.566z"/><path d="m60.186 19.419-1.6-1.199-3.586 4.781v-10.001h-2v8.586l-4.951-4.951-1.414 1.414 6.365 6.365v6.587l-3.682-4.909-1.599 1.199 5.281 7.042v9.667h2v-17.667z"/></g><g><path d="m9 47h2v9h-2z" fill="#893b20"/></g><g><path d="m18 58c0-1.105-.895-2-2-2h-12c-1.105 0-2 .895-2 2v2c0 1.105.895 2 2 2h12c1.105 0 2-.895 2-2z" fill="#e7b541"/><path d="m16 56h-12v2c0 1.105.895 2 2 2h12v-2c0-1.105-.895-2-2-2z" fill="#f9cb6e"/><g><path d="m13 56h2v3h-2z" fill="#c99735"/></g><g><path d="m5 56h2v3h-2z" fill="#c99735"/></g><g><path d="m9 56h2v3h-2z" fill="#c99735"/></g></g><g><g><path d="m38 58c0-1.105-.895-2-2-2h-12c-1.105 0-2 .895-2 2v2c0 1.105.895 2 2 2h12c1.105 0 2-.895 2-2z" fill="#e7b541"/><path d="m36 56h-12v2c0 1.105.895 2 2 2h12v-2c0-1.105-.895-2-2-2z" fill="#f9cb6e"/><g><path d="m33 56h2v3h-2z" fill="#c99735"/></g><g><path d="m25 56h2v3h-2z" fill="#c99735"/></g><g><path d="m29 56h2v3h-2z" fill="#c99735"/></g></g><g><path d="m40 52c0-1.105-.895-2-2-2h-12c-1.105 0-2 .895-2 2v2c0 1.105.895 2 2 2h12c1.105 0 2-.895 2-2z" fill="#e7b541"/><path d="m38 50h-12v2c0 1.105.895 2 2 2h12v-2c0-1.105-.895-2-2-2z" fill="#f9cb6e"/><g><path d="m35 50h2v3h-2z" fill="#c99735"/></g><g><path d="m27 50h2v3h-2z" fill="#c99735"/></g><g><path d="m31 50h2v3h-2z" fill="#c99735"/></g></g></g><g><g><path d="m62 58c0-1.105-.895-2-2-2h-12c-1.105 0-2 .895-2 2v2c0 1.105.895 2 2 2h12c1.105 0 2-.895 2-2z" fill="#e7b541"/><path d="m60 56h-12v2c0 1.105.895 2 2 2h12v-2c0-1.105-.895-2-2-2z" fill="#f9cb6e"/><g><path d="m57 56h2v3h-2z" fill="#c99735"/></g><g><path d="m49 56h2v3h-2z" fill="#c99735"/></g><g><path d="m53 56h2v3h-2z" fill="#c99735"/></g></g><g><path d="m61 52c0-1.105-.895-2-2-2h-12c-1.105 0-2 .895-2 2v2c0 1.105.895 2 2 2h12c1.105 0 2-.895 2-2z" fill="#e7b541"/><path d="m59 50h-12v2c0 1.105.895 2 2 2h12v-2c0-1.105-.895-2-2-2z" fill="#f9cb6e"/><g><path d="m56 50h2v3h-2z" fill="#c99735"/></g><g><path d="m48 50h2v3h-2z" fill="#c99735"/></g><g><path d="m52 50h2v3h-2z" fill="#c99735"/></g></g><g><path d="m62 46c0-1.105-.895-2-2-2h-12c-1.105 0-2 .895-2 2v2c0 1.105.895 2 2 2h12c1.105 0 2-.895 2-2z" fill="#e7b541"/><path d="m60 44h-12v2c0 1.105.895 2 2 2h12v-2c0-1.105-.895-2-2-2z" fill="#f9cb6e"/><g><path d="m57 44h2v3h-2z" fill="#c99735"/></g><g><path d="m49 44h2v3h-2z" fill="#c99735"/></g><g><path d="m53 44h2v3h-2z" fill="#c99735"/></g></g></g><g><path d="m7.304 47h2.696v-.343c0-1.701-.676-3.333-1.879-4.536-1.358-1.358-3.2-2.121-5.121-2.121v2.696c0 .849.251 1.68.722 2.387.799 1.198 2.143 1.917 3.582 1.917z" fill="#6db569"/><path d="m3 42.696c0 .849.251 1.68.722 2.387.799 1.198 2.143 1.917 3.582 1.917h2.696l-7-7z" fill="#52a04f"/></g><g><path d="m10 47c.581-2.907 3.134-5 6.099-5h2.901l-1.706 3.411c-.793 1.587-2.415 2.589-4.188 2.589-.727 0-1.444-.169-2.094-.494z" fill="#52a04f"/><path d="m16.099 42c-2.965 0-5.518 2.093-6.099 5l9-5z" fill="#6db569"/></g><g><g fill="#6db569"><path d="m29 40c-.613 1.226-1.866 2-3.236 2-1.77 0-3.467-.703-4.718-1.954l-3.046-3.046 4.14-.828c.572-.114 1.154-.172 1.737-.172 2.423 0 4.535 1.649 5.123 4z"/><path d="m35.746 32.881c.818-1.227 1.254-2.668 1.254-4.142 0-.492-.049-.982-.145-1.464l-.855-4.275-3.691 2.46c-1.442.962-2.309 2.581-2.309 4.315 0 .805.188 1.6.548 2.32l1.452 2.904 1.724-.574c.827-.276 1.539-.819 2.022-1.544z"/><path d="m34 40c.581-2.907 3.134-5 6.099-5h2.901l-1.706 3.411c-.793 1.587-2.415 2.589-4.188 2.589-.727 0-1.444-.169-2.094-.494z"/><path d="m51 30c-1.281 1.281-3.017 2-4.828 2-2.509 0-4.755-1.556-5.636-3.906l-1.536-4.094h7.528c1.515 0 2.9.856 3.578 2.211.588 1.177.894 2.474.894 3.789z"/><path d="m54 32c1.242-3.104 4.014-5.336 7.312-5.885l.688-.115-1.163 4.071c-.495 1.734-2.08 2.929-3.884 2.929-.627 0-1.245-.146-1.806-.426z"/><path d="m51 21c0-2.474-1.325-4.757-3.473-5.985l-3.527-2.015.256 2.046c.425 3.402 3.316 5.954 6.744 5.954z"/><path d="m57 22h1.586c.906 0 1.774-.36 2.414-1 .64-.64 1-1.509 1-2.414v-3.586l-1.57.942c-2.128 1.277-3.43 3.576-3.43 6.058z"/><path d="m58 8.528c0-1.563-.838-3.006-2.195-3.782l-4.805-2.746v.818c0 1.445-.233 2.881-.69 4.253-.205.615-.31 1.26-.31 1.909 0 1.901.895 3.691 2.416 4.832l1.584 1.188c2.451-1.226 4-3.731 4-6.472z"/></g><path d="m21.046 40.046c1.251 1.251 2.948 1.954 4.718 1.954 1.37 0 2.623-.774 3.236-2l-11-3z" fill="#52a04f"/><path d="m35.746 32.881c.818-1.227 1.254-2.668 1.254-4.142 0-.492-.049-.982-.145-1.464l-.855-4.275-4 11.999 1.724-.574c.827-.276 1.539-.819 2.022-1.544z" fill="#52a04f"/><path d="m35.011 40.506c.65.325 1.368.494 2.095.494 1.774 0 3.396-1.002 4.189-2.589l1.705-3.411-9 5z" fill="#52a04f"/><path d="m40.535 28.094c.881 2.349 3.127 3.906 5.637 3.906 1.811 0 3.548-.719 4.828-2l-12-6z" fill="#52a04f"/><path d="m55.147 32.574c.561.28 1.179.426 1.806.426 1.803 0 3.388-1.195 3.884-2.929l1.163-4.071-8 6z" fill="#52a04f"/><path d="m44.256 15.046c.425 3.402 3.316 5.954 6.744 5.954l-7-8z" fill="#52a04f"/><path d="m57 22h1.586c.905 0 1.774-.36 2.414-1s1-1.509 1-2.414v-3.586z" fill="#52a04f"/><path d="m58 8.528c0-1.563-.838-3.006-2.195-3.782l-4.805-2.746 3 13c2.451-1.226 4-3.731 4-6.472z" fill="#52a04f"/></g></g></svg>