<svg id="Layer_1" enable-background="new 0 0 68 68" height="512" viewBox="0 0 68 68" width="512" xmlns="http://www.w3.org/2000/svg"><g><g><g><g><g><g><g><g><path d="m6.7481027 33.9958687 29.4912123-18.9091807.9682618 1.5065928-27.1425791 17.4020996 27.1425791 17.418457-.9682618 1.5065918z" fill="#4f5d99"/></g></g></g></g></g></g><g><g><g><g><path d="m21.685051 34.0038719c.0000687 3.0514793-1.3869247 5.7811241-3.5728474 7.5785789-.1554985.1332855-.3107262.2551918-.4773331.3773727-1.6200085 1.1873741-3.6282406 1.8863068-5.7919903 1.8863029-2.1640196-.0000038-4.1725535-.6989479-5.7926154-1.8863297-.1663404-.1221809-.3218451-.2440872-.4770789-.3773727-2.1860037-1.7974661-3.573118-4.5271147-3.5731859-7.5785979-.0001212-5.4373493 4.4050298-9.8425388 9.8424416-9.8425274 5.4371414.0000134 9.8424892 4.405222 9.8426094 9.8425732z" fill="#ed524e"/></g></g></g><g><g><g><g><path d="m15.6719542 31.4988918c.0000477 2.1153965-1.7139225 3.8293781-3.8293409 3.8293743s-3.8295803-1.7139969-3.829628-3.8293915c-.0000467-2.1153946 1.7140379-3.8294945 3.8294573-3.8294888 2.1154183.0000039 3.8294648 1.7141114 3.8295116 3.829506z" fill="#e9e9ff"/></g></g></g><g><g><g><path d="m17.634819 39.6405983.0000515 2.3192253c-1.6200085 1.1873741-3.6282406 1.8863068-5.7919903 1.8863029-2.1640196-.0000038-4.1725535-.6989479-5.7926154-1.8863297l-.0000515-2.3192253c-.0000358-1.5978012 1.2872944-2.8959808 2.8851151-2.895977l5.814517.0000153c1.5978204.0000038 2.8849374 1.2981873 2.8849736 2.8959885z" fill="#fdc72e"/></g></g></g></g></g><g><g><g><g><path d="m45.0046425 52.3748589c.0000534 2.4659309-1.1207886 4.6717834-2.8872528 6.1243248-.1256599.107708-.2511024.2062225-.3857384.3049545-1.3091431.9595299-2.9320145 1.5243454-4.6805611 1.5243416-1.7487679-.0000038-3.3718834-.564827-4.6810684-1.5243607-.1344223-.0987358-.2600861-.1972504-.3855324-.3049583-1.766531-1.452549-2.8874702-3.6584053-2.8875256-6.1243401-.0000992-4.3939743 3.5597477-7.953846 7.9537716-7.9538383 4.3938027.0000114 7.9538079 3.5599022 7.9539071 7.9538765z" fill="#7bd681"/></g></g></g><g><g><g><g><path d="m40.145401 50.350563c.0000381 1.7094688-1.3850365 3.0945549-3.0945282 3.0945511s-3.0947189-1.3850975-3.0947571-3.0945663 1.385128-3.0946503 3.0946198-3.0946465c1.7094879.0000039 3.0946274 1.3851891 3.0946655 3.0946617z" fill="#e9e9ff"/></g></g></g><g><g><g><path d="m41.7316093 56.9299507.000042 1.8741875c-1.3091431.9595299-2.9320145 1.5243454-4.6805611 1.5243416-1.7487679-.0000038-3.3718834-.564827-4.6810684-1.5243607l-.000042-1.8741875c-.0000305-1.2912025 1.0402756-2.340271 2.3314896-2.3402672l4.6987648.0000114c1.291214.0000001 2.3313446 1.0490762 2.3313751 2.3402749z" fill="#fdc72e"/></g></g></g></g></g><g><g><g><g><path d="m45.0046425 15.6253967c.0000534 2.4659328-1.1207886 4.6717834-2.8872528 6.1243229-.1256599.1077099-.2511024.2062244-.3857384.3049583-1.3091431.9595299-2.9320145 1.5243435-4.6805611 1.5243397-1.7487679-.0000038-3.3718834-.5648251-4.6810684-1.5243626-.1344223-.0987339-.2600861-.1972485-.3855324-.3049583-1.766531-1.4525471-2.8874702-3.6584034-2.8875256-6.1243362-.0000992-4.3939743 3.5597477-7.9538493 7.9537716-7.9538393 4.3938027.00001 7.9538079 3.5599012 7.9539071 7.9538755z" fill="#fdc72e"/></g></g></g><g><g><g><g><path d="m40.145401 13.6011c.0000381 1.7094707-1.3850365 3.0945578-3.0945282 3.0945539s-3.0947189-1.3850975-3.0947571-3.0945683 1.385128-3.0946503 3.0946198-3.0946465c1.7094879.0000039 3.0946274 1.3851901 3.0946655 3.0946609z" fill="#e9e9ff"/></g></g></g><g><g><g><path d="m41.7316093 20.1804905.000042 1.8741875c-1.3091431.9595299-2.9320145 1.5243435-4.6805611 1.5243397-1.7487679-.0000038-3.3718834-.5648251-4.6810684-1.5243626l-.000042-1.8741856c-.0000305-1.2912006 1.0402756-2.3402691 2.3314896-2.3402672l4.6987648.0000114c1.291214.000002 2.3313446 1.0490762 2.3313751 2.3402768z" fill="#70c1f9"/></g></g></g></g></g></g><g><g><g><g><g><g><path d="m54.9309959 37.4649925c3.3422356-1.8430977 6.5573006-2.4189568 7.1814117-1.28722.6241226 1.1317558-1.5785141 3.5434952-4.9207497 5.3865929s-6.558857 2.419838-7.1829796 1.2880859c-.624111-1.1317367 1.5800859-3.5443649 4.9223176-5.3874588z" fill="#3cb4f7"/></g></g></g><g><g><g><g><path d="m55.1578064 21.1375637 4.4452476 8.0608063c.5548592 1.006155.7829704 2.1590691.6539459 3.3002148l-.294281 2.5875549 2.4095306 4.3693275-9.6293488 5.3101654-2.4095306-4.3693275c-2.121212-.1980209-6.6662712-3.1890945-11.2840004-6.264019-.7542992-.5023232-1.0239983-1.4834442-.6332817-2.301405.1715736-.3576145.4418907-.631897.7609367-.8078365.5526543-.3047657 1.2508202-.3154869 1.8335228.0422421l4.2382278 2.6037121-7.2236214-13.0989799c-.4907074-.889822-.1667099-2.0104885.7231216-2.5011921.4449158-.2453499.9482651-.2864246 1.4001732-.155777.4519386.1307011.8562622.4350204 1.1010399.8788891l3.0707855 5.5684185c-.2618446-.4748154-.2918282-1.0162067-.1266708-1.4912834.1435814-.4158916.4347839-.7810459.849823-1.009922.4449387-.2453651.9482384-.2864113 1.4001732-.1557102.4518776.1305962.8562851.4349384 1.1010628.8788071l.6754684 1.2248592c-.2618179-.474762-.2918587-1.0161915-.1266747-1.4912834.143528-.4159298.434761-.7810326.8497963-1.0099068.4449425-.2453651.9476929-.287468 1.3995972-.1568203.4519081.1306496.8562889.4350052 1.1016426.8799171l.5124817.9293118c-.2647743-.4801292-.3051682-1.0352802-.1449165-1.5243664.1253166-.3808174.3738823-.7223911.7331848-.9539566.4714775-.3031406 1.0209198-.3639965 1.5109253-.2223568.4519045.1306494.8562853.435005 1.101639.879917z" fill="#ffcbba"/></g></g></g><g><g><g><g><path d="m44.1940308 22.8690681 2.716465 4.9259167c.0812302.147295.0270996.3325291-.1195107.4133797l-.0006714.0003681c-.1472969.0812283-.3321533.0277843-.4133835-.1195107l-2.056366-3.7289219c-.2617492-.4746398-.2921485-1.015768-.1265334-1.4912319z" fill="#efb7a8"/></g></g></g><g><g><g><path d="m48.0934334 22.3155346 2.7943611 5.0671635c.0812302.147295.0277672.3321609-.1195107.4133797l-.0006714.00037c-.1472816.0812168-.3321571.0277843-.4133835-.1195107l-2.1342621-3.8701725c-.2617454-.474638-.291458-1.0161457-.1265334-1.49123z" fill="#efb7a8"/></g></g></g><g><g><g><path d="m51.8119583 21.4339619 2.0061455 3.6378517c.0808487.1466084.0277672.3321609-.1195107.4133797l-.0006866.0003777c-.1472816.0812187-.3325348.0270996-.4133835-.1195107l-1.3275909-2.4073868c-.2650795-.4806862-.3049164-1.0357952-.1449738-1.5247116z" fill="#efb7a8"/></g></g></g></g></g></g></g><g opacity=".2"><g><g><g><path d="m46.7608643 21.8274384c.296711.1447868.5609627.3823376.7428856.6819725z" fill="#fff"/></g></g></g></g><g><g><g><g><path d="m53.7905312 49.710289c.6241226 1.1317558 3.840744.5550117 7.1829796-1.2880821 3.3422318-1.8430977 5.5448685-4.254837 4.9207458-5.3865929l-3.7818489-6.8578415c.6241226 1.1317558-1.5785141 3.5434952-4.9207497 5.3865929s-6.558857 2.419838-7.1829796 1.2880859z" fill="#70c1f9"/></g></g></g></g><g><g><g><path d="m53.128685 44.5528908c.4062958-.2240562.923233-.0746078 1.1472893.3316879.2265129.4107475.0770607.927681-.3292351 1.1517372-.4107552.2265091-.9276924.0770607-1.1542053-.3336868-.2240563-.406292-.0746041-.9232254.3361511-1.1497383z" fill="#3cb4f7"/></g></g></g></g></g></svg>