<svg id="Layer_1" enable-background="new 0 0 512 512" height="512" viewBox="0 0 512 512" width="512" xmlns="http://www.w3.org/2000/svg"><g clip-rule="evenodd" fill-rule="evenodd"><g><path d="m144.22 16.001h268.752c2.414 0 4.492.861 6.199 2.568l49.224 49.223c1.707 1.707 2.568 3.785 2.568 6.199v368.093c0 4.829-3.939 8.767-8.767 8.767h-317.976c-4.829 0-8.767-3.938-8.767-8.767v-417.316c0-4.828 3.938-8.767 8.767-8.767z" fill="#eceff1"/><path d="m144.22 16.001h16.038v434.85h-16.038c-4.829 0-8.767-3.938-8.767-8.767v-417.316c0-4.828 3.938-8.767 8.767-8.767z" fill="#d1d1d6"/><g fill="#a79ba7"><path d="m416.603 16.762c.931.425 1.788 1.028 2.568 1.808l49.224 49.223c.779.779 1.382 1.637 1.808 2.568h-49.216c-2.414 0-4.384-1.969-4.384-4.383z"/><path d="m183.217 109.701c4.418 0 8 3.582 8 8s-3.582 8-8 8h-14.269c-4.418 0-8-3.582-8-8s3.582-8 8-8zm140.705-39.603c4.418 0 8 3.582 8 8s-3.582 8-8 8h-111.031c-4.418 0-8-3.582-8-8s3.582-8 8-8zm-140.705 0c4.418 0 8 3.582 8 8s-3.582 8-8 8h-14.269c-4.418 0-8-3.582-8-8s3.582-8 8-8zm140.705 39.603c4.418 0 8 3.582 8 8s-3.582 8-8 8h-111.031c-4.418 0-8-3.582-8-8s3.582-8 8-8z"/></g></g><g><path d="m175.845 278.603h27.07c3.799 0 6.899 3.099 6.899 6.899v66.046c0 3.8-3.099 6.899-6.899 6.899h-27.07c-3.8 0-6.899-3.099-6.899-6.899v-66.046c0-3.8 3.1-6.899 6.899-6.899z" fill="#fe646f"/><path d="m192.628 278.603h10.287c3.8 0 6.899 3.099 6.899 6.899v66.046c0 3.8-3.099 6.899-6.899 6.899h-10.287c3.8 0 6.899-3.099 6.899-6.899v-66.046c0-3.8-3.099-6.899-6.899-6.899z" fill="#fd4755"/><path d="m251.73 228.005h27.07c3.8 0 6.899 3.099 6.899 6.899v116.644c0 3.799-3.099 6.899-6.899 6.899h-27.07c-3.8 0-6.899-3.099-6.899-6.899v-116.644c0-3.8 3.099-6.899 6.899-6.899z" fill="#ffe177"/><path d="m268.513 228.005h10.287c3.8 0 6.899 3.099 6.899 6.898v116.645c0 3.799-3.099 6.899-6.899 6.899h-10.287c3.8 0 6.899-3.099 6.899-6.899v-116.645c-.001-3.799-3.099-6.898-6.899-6.898z" fill="#ffd064"/><path d="m327.614 245.038h27.07c3.8 0 6.899 3.1 6.899 6.9v99.609c.001 3.8-3.099 6.9-6.899 6.9-9.023 0-18.047 0-27.07 0-3.8 0-6.899-3.1-6.899-6.9 0-40.166 0-59.443 0-99.609 0-3.8 3.099-6.9 6.899-6.9z" fill="#6cf5c2"/><path d="m344.398 245.038h10.287c3.8 0 6.899 3.099 6.899 6.9v99.609c.001 3.8-3.099 6.9-6.899 6.9h-10.287c3.8 0 6.9-3.1 6.899-6.9 0-40.166 0-59.443 0-99.609 0-3.8-3.099-6.9-6.899-6.9z" fill="#00e499"/><path d="m403.497 174.397h27.07c3.799 0 6.899 3.099 6.899 6.899v170.252c0 3.8-3.099 6.899-6.899 6.899h-27.07c-3.8 0-6.899-3.099-6.899-6.899v-170.252c.001-3.8 3.1-6.899 6.899-6.899z" fill="#8ac9fe"/><path d="m420.281 174.397h10.287c3.8 0 6.899 3.099 6.899 6.899v170.252c0 3.8-3.099 6.899-6.899 6.899h-10.287c3.8 0 6.899-3.099 6.899-6.899v-170.252c0-3.8-3.099-6.899-6.899-6.899z" fill="#60b7ff"/><path d="m194.288 242.544c-3.469 2.709-8.478 2.094-11.188-1.375-2.709-3.469-2.094-8.478 1.375-11.188l75.884-59.088c2.159-1.687 4.915-2.084 7.342-1.308l.001-.005 71.236 23.088 57.07-57.558-2.992.263c-4.401.38-8.277-2.881-8.656-7.281-.38-4.401 2.881-8.277 7.281-8.656l24.702-2.166c4.401-.38 8.277 2.881 8.656 7.281.06.7.028 1.387-.086 2.049l-2.701 24.158c-.483 4.384-4.429 7.546-8.813 7.062-4.384-.483-7.546-4.429-7.063-8.813l.209-1.865-59.742 60.252c-2.046 2.054-5.143 2.916-8.094 1.969l-71.889-23.3z" fill="#a79ba7"/></g><g><path d="m155.62 275.91 9.326 27.853c24.308 26.068 42.019 48.153 53.13 67.661 35.516 62.361-15.009 125.7-82.673 124.559-67.665 1.141-118.189-62.198-82.673-124.559 11.111-19.508 28.821-41.593 53.129-67.661l9.358-27.822-22.778-22.777c-5.56-5.56-5.56-14.658 0-20.217 4.729-4.729 12.214-5.528 17.841-1.916 2.09 1.341 4.491 1.555 6.784.606 2.293-.951 3.839-2.798 4.369-5.225 1.401-6.417 7.147-11.261 13.969-11.262 6.699 0 12.542 4.722 13.97 11.262.53 2.426 2.076 4.274 4.369 5.225 2.294.951 4.694.736 6.783-.606 5.527-3.548 13.017-2.908 17.841 1.915v.001c5.56 5.56 5.56 14.658 0 20.217z" fill="#ffc338"/><path d="m155.62 275.91 9.326 27.853c24.308 26.068 42.019 48.153 53.13 67.661 35.516 62.361-15.009 125.7-82.674 124.559-2.688.045-5.346-.023-7.975-.176 63.565-3.725 108.804-64.499 74.699-124.383-11.111-19.508-28.822-41.593-53.13-67.661l-9.326-27.853 22.746-22.746c5.56-5.56 5.56-14.657 0-20.217v-.001c-.667-.667-1.385-1.254-2.142-1.76.084-.05.167-.101.25-.155 5.527-3.548 13.017-2.908 17.841 1.915v.001c5.56 5.56 5.56 14.657 0 20.217zm-61.037-44.723c2.92-1.95 6.452-2.735 9.875-2.283-.783 1.206-1.919 2.143-3.343 2.733-2.202.911-4.502.751-6.532-.45zm32.844-13.587c2.978 2.011 5.19 5.122 5.996 8.812.529 2.427 2.076 4.275 4.369 5.225 2.295.95 4.694.735 6.783-.606 1.788-1.147 3.781-1.856 5.823-2.127-.478-.736-.824-1.572-1.025-2.492-1.428-6.54-7.271-11.262-13.97-11.262-2.948.001-5.694.905-7.976 2.45z" fill="#f5b829"/><path d="m134.594 428.885c.18-.012.361-.019.543-.019.221 0 .439.009.655.027l.141-.003c.702-.017 1.579-.088 2.624-.215 3.646-.442 7.261-1.581 9.786-3.496 1.816-1.378 3.026-3.287 2.967-5.769-.004-.155-.035-.48-.096-.979-.399-3.287-2.297-5.5-4.827-7.027-3.462-2.091-8.101-3.212-12.464-3.928-5.838-.958-12.186-2.711-17.403-6.117-6.145-4.012-10.56-9.953-10.99-18.818-.426-8.783 3.354-15.825 9.317-20.673 3.491-2.838 7.743-4.865 12.289-5.974v-3.656c0-4.418 3.582-8 8-8s8 3.582 8 8v3.543l.569.138c8.782 2.227 16.772 8 20.967 17.992 1.708 4.073-.208 8.76-4.281 10.469-4.073 1.708-8.76-.208-10.469-4.281-2.026-4.825-5.871-7.609-10.092-8.68-1.366-.346-2.762-.53-4.148-.56-.18.012-.362.019-.546.019-.155 0-.309-.005-.461-.014-1.036.033-2.061.152-3.057.353-2.548.513-4.888 1.545-6.709 3.026-2.2 1.789-3.597 4.363-3.442 7.548.139 2.856 1.643 4.823 3.741 6.193 3.026 1.975 7.248 3.08 11.278 3.742 6.026.989 12.612 2.646 18.151 5.99 6.472 3.907 11.354 9.79 12.452 18.839.083.683.135 1.512.158 2.479.198 8.319-3.588 14.512-9.28 18.831-4.255 3.229-9.549 5.273-14.832 6.266v3.374c0 4.419-3.582 8-8 8s-8-3.582-8-8v-3.533c-4.243-.911-8.283-2.542-11.813-4.893-5.781-3.85-10.211-9.534-12.086-17.053-1.053-4.28 1.564-8.604 5.844-9.656 4.28-1.053 8.604 1.564 9.656 5.844.824 3.305 2.804 5.826 5.398 7.553 2.94 1.958 6.635 2.997 10.46 3.118z" fill="#ffe177"/><path d="m104.371 303.764h62.063c7.652 0 13.912-6.261 13.912-13.911 0-7.652-6.26-13.912-13.912-13.912h-62.063c-7.652 0-13.912 6.26-13.912 13.911.001 7.652 6.26 13.912 13.912 13.912z" fill="#837683"/><path d="m155.63 303.764h10.803c7.652 0 13.911-6.26 13.911-13.911 0-7.652-6.26-13.912-13.911-13.912h-10.803c7.652 0 13.911 6.259 13.911 13.912.001 7.65-6.259 13.911-13.911 13.911z" fill="#685e68"/></g></g></svg>