<svg id="flat" height="512" viewBox="0 0 512 512" width="512" xmlns="http://www.w3.org/2000/svg"><path d="m504 159v339.075a6 6 0 0 1 -6 6h-484.011a6 6 0 0 1 -6-6v-339.075z" fill="#cc7a4e"/><g fill="#aa5d3f"><path d="m362.783 231.991c-7.859 20.666-15.573 45.931-29.533 77.009-11.978 26.664-32.407 108.713-36.575 142.8a53.369 53.369 0 0 1 -3.737 13.952c-6.901 16.648-11.938 38.323-11.938 38.323h40s9.438-43.09 12.25-85.447c4.31-64.919 36.758-148.107 46.25-187.128 3.593-14.772 9.917-37.833 19.25-72.5h-13.25c-8.339 23.839-11.211 42.739-22.717 72.991z"/><path d="m366 159h-13c-20.6 23.5-51.584 55.771-74.333 82.667-16.638 19.67-27.745 34.909-51.667 60.666-25.541 27.5-39.333 55-54 71.667-22.012 25.013-38.582 55.91-61 83-13.876 16.768-36 47.075-36 47.075h48.377s9.568-16.248 26.623-46.408c7.041-12.452 28.653-44.737 51.648-81.167 4.662-7.386 41.352-53.851 48.352-68.5 8-16.75 52.409-62.333 59-77s40.621-37.333 56-72z"/><path d="m470 350.333c-4.667-17.462-17-77.333-20.667-94.266s-19-97.067-19-97.067h-13s5 54.538 7.167 63.5c9.2 38.138 11.4 71.067 16.5 94.5 5.18 23.786 13.563 43.833 15.514 96.13 1.486 39.87 11.547 69.69 16.486 90.945h25.072a5.928 5.928 0 0 0 5.928-5.928v-27.314s-12-36.5-16.667-49.166-12.666-53.867-17.333-71.334z"/><path d="m504 244.606v-40.493c-9.194-9.2-22.663-33.276-36.023-45.113h-17.644c20.746 24.478 19.787 35.394 40.364 67.686a175.773 175.773 0 0 0 13.303 17.92z"/><path d="m248.25 223c13-12 79.083-64 79.083-64h-19.666s-35.993 26-51.667 36-26.671 27.333-41.5 32-46.839 31.333-46.839 31.333-59.328 46.667-65.994 49.334-93.678 55.333-93.678 55.333v48s86.783-63.526 131.011-100c20.489-16.9 96.251-76 109.25-88z"/><path d="m276.333 159h-33.333s-58 22.5-64 25-32 17.067-51 23.534-120 48.466-120 48.466l-.008 25.667s107.675-51.334 125.008-57.334 74-43.333 143.333-65.333z"/><path d="m129.828 159c-28.855 5.064-95.828 17.5-121.828 25.5l-.011 20.5s146.121-39.464 178.844-46z"/></g><path d="m504 153.35v5.65h-496.01v-9.559a7.99 7.99 0 0 1 4.462-7.175 493.81 493.81 0 0 1 51.548-21.826c36.49-12.77 79.39 4.92 103.66 11.93a241.051 241.051 0 0 0 50.22 8.42c8.65.46 44.45-13.57 58.45-12.79s33.17 9.71 45.34 10.33c26 1.34 55.8-6.93 65.16-13.16 11.49-7.66 42.5-15.84 64.17-3.5 29.554 16.822 39.656 20.45 48.333 24.406a7.989 7.989 0 0 1 4.667 7.274z" fill="#75bc48"/><path d="m503.984 163.5h-495.994v-9h496.01z" fill="#aa5d3f"/></svg>