<svg id="uuid-caa4eb4b-5887-4b90-94ab-5058f529b98e" height="512" viewBox="0 0 64 64" width="512" xmlns="http://www.w3.org/2000/svg"><g><g><path d="m8 9h48c2.208 0 4 1.792 4 4v36h-56v-36c0-2.208 1.792-4 4-4z" fill="#677185"/><path d="m9 11h47c2.208 0 4 1.792 4 4v34h-54v-35c0-1.656 1.344-3 3-3z" fill="#5b6578"/><path d="m14 7h36v48h-36z" fill="#85e6e6" transform="matrix(0 -1 1 0 1 63)"/><path d="m16 9h34v46h-34z" fill="#95fafa" transform="matrix(0 -1 1 0 1 65)"/><g><g><path d="m52.989 13h-32.186l16.093 16.093z" fill="#9eea4c"/><path d="m9.49 13h-1.49v10.176l5.833-5.833z" fill="#9eea4c"/><g fill="#8cdc32"><path d="m52.989 13h-32.186l2 2h28.186z"/><path d="m11.49 15-2-2h-1.49v10.176l2-2v-6.176z"/></g><path d="m17.49 51h30l-15-15z" fill="#9eea4c"/></g><path d="m56 13h-3.011l-16.093 16.093-16.093-16.093h-11.313l4.343 4.343-5.833 5.833v11.314l11.49-11.49 7.343 7.343-18.657 18.657v2h9.314l15-15 15 15h8.51v-17.105l-7.151 7.151-6.296-6.296 13.447-13.448z" fill="#faaa46"/></g><path d="m39.447 48.106-.894 1.789c-.339.678-1.031 1.106-1.789 1.106h-9.528c-.758 0-1.45-.428-1.789-1.106l-.894-1.789c-.339-.678-1.031-1.106-1.789-1.106h-18.764c-1.105 0-2 .895-2 2v4c0 2.209 1.791 4 4 4h52c2.209 0 4-1.791 4-4v-4c0-1.105-.895-2-2-2h-18.764c-.758 0-1.45.428-1.789 1.106z" fill="#677185"/><path d="m40.683 50.106-.894 1.789c-.339.678-1.031 1.106-1.789 1.106h-12c-.758 0-1.45-.428-1.789-1.106l-.894-1.789c-.339-.678-1.031-1.106-1.789-1.106h-16.528c-.552 0-1 .448-1 1v3c0 2.209 1.791 4 4 4h50c2.209 0 4-1.791 4-4v-2c0-1.105-.895-2-2-2h-17.528c-.758 0-1.45.428-1.789 1.106z" fill="#5b6578"/><g fill="#fa962d"><path d="m52.989 13-2 2h5.011v-2z"/><path d="m8 23.176v11.314l2-2v-11.314z"/><path d="m20.803 13h-11.313l2 2h11.313z"/></g></g><g fill="#fff"><path d="m19 34c-.552 0-1-.448-1-1v-10c0-.552.448-1 1-1s1 .448 1 1v10c0 .552-.448 1-1 1z"/><path d="m37 22c-.552 0-1-.448-1-1v-10c0-.552.448-1 1-1s1 .448 1 1v10c0 .552-.448 1-1 1z"/><path d="m32 47c-.552 0-1-.448-1-1v-10c0-.552.448-1 1-1s1 .448 1 1v10c0 .552-.448 1-1 1z"/></g><circle cx="19" cy="22" fill="#f6406e" r="3"/><circle cx="37" cy="10" fill="#f6406e" r="3"/><circle cx="32" cy="35" fill="#f6406e" r="3"/></g><g fill="#ff5a83"><circle cx="36" cy="9" r="1"/><circle cx="18" cy="21" r="1"/><circle cx="31" cy="34" r="1"/></g></svg>