<svg id="Capa_1" enable-background="new 0 0 512 512" height="512" viewBox="0 0 512 512" width="512" xmlns="http://www.w3.org/2000/svg"><g><g><g><path d="m66.519 198.632h30v30h-30z" fill="#b46d3c"/></g><g><path d="m98.654 80.676h30v30h-30z" fill="#b46d3c"/></g><g><path d="m176.734 139.654h30v30h-30z" fill="#b46d3c"/></g></g><g><g><path d="m468.27 336.44-62.706 50.922-69.671-22.32-25.353-115.062c-7.87-1.62-16.02-2.46-24.36-2.46-10.42 0-20.54 1.33-30.18 3.82l-43.436 128.42 43.436 132.24h256v-108.94c-2.22-28.69-19.88-53.32-43.73-66.62z" fill="#8e562f"/><path d="m256 251.34v260.66h-256v-108.94c3.18-16.96 11.44-32.11 23.16-43.8 11.72-11.68 26.89-19.9 43.88-23 12.48-30.54 42.46-52.07 77.49-52.07 16.32 0 31.53 4.69 44.41 12.77 16.18-22.15 39.74-38.57 67.06-45.62z" fill="#b46d3c"/></g><g><path d="m422.476 220.56-13.816 30.78h-36.766l-13.687-30.78v-220.56h64.269z" fill="#2681ff"/><g><path d="m470.15 220.56v98.59c0 5.94-.65 11.72-1.88 17.29-7.9 35.77-39.79 62.52-77.93 62.52-44.07 0-79.8-35.73-79.8-79.81v-98.59h64.802l8.362 19.376h13.277l8.362-19.376z" fill="#d7e8ff"/><g><g><path d="m375.342 220.56h30v94.627h-30z" fill="#adcfff"/></g></g></g></g><g><g><path d="m226 412.325h-30c0-17.265-14.046-31.311-31.31-31.311-17.265 0-31.311 14.046-31.311 31.311h-30c0-33.807 27.504-61.311 61.311-61.311s61.31 27.505 61.31 61.311z" fill="#8e562f"/></g><path d="m409.657 367.894c-23.366 0-43.714 13.142-54.058 32.419-37.941-9.287-75.882 20.455-75.882 59.547h30c0-17.265 14.046-31.311 31.311-31.311s31.311 14.046 31.311 31.311h30c0-18.026-7.823-34.258-20.249-45.486 5.295-9.804 15.666-16.48 27.568-16.48 17.264 0 31.31 14.046 31.31 31.311h30c-.001-33.807-27.504-61.311-61.311-61.311z" fill="#754727"/></g></g></g></svg>