<svg height="512" viewBox="0 0 512 512" width="512" xmlns="http://www.w3.org/2000/svg"><circle cx="52.55" cy="464" fill="none" r="16" stroke="#000" stroke-linecap="round" stroke-linejoin="round" stroke-width="16"/><path d="m504 422.854a71.931 71.931 0 0 0 -56.815-9.306 72.81 72.81 0 0 0 -41.443-27.115 58.949 58.949 0 0 0 -75.622-51.279 111.047 111.047 0 0 0 -174.25 16.189 59.009 59.009 0 0 0 -67.153 24.4c-2.632-.23-5.294-.355-7.986-.355a90.133 90.133 0 0 0 -72.731 36.806v91.806h496z" fill="#dcaa46"/><g fill="#b4821e"><circle cx="152.296" cy="402.583" r="16"/><circle cx="318.391" cy="391.631" r="16"/><circle cx="453.106" cy="466.581" r="16"/><circle cx="391.851" cy="434.583" r="8"/><circle cx="193.374" cy="361.568" r="8"/><circle cx="326.391" cy="488" r="8"/><circle cx="123.971" cy="464" r="8"/></g><path d="m255 8a45.12 45.12 0 0 0 -45.12 45.12v187.433a31.983 31.983 0 0 0 2.131 11.477l30.1 78.253v64.457a12.891 12.891 0 0 0 25.782 0v-64.457l30.1-78.253a31.983 31.983 0 0 0 2.131-11.477v-187.433a45.12 45.12 0 0 0 -45.124-45.12z" fill="#aaccfa"/><path d="m242.109 394.74a12.891 12.891 0 0 0 25.782 0v-38.674h-25.782z" fill="#323232"/><path d="m270.922 108.685a4 4 0 0 0 0-8h-10.922v-30.674h10.922a4 4 0 1 0 0-8h-10.922v-15.337a4 4 0 1 0 -8 0v15.337h-10.922a4 4 0 0 0 0 8h10.922v30.674h-10.922a4 4 0 0 0 0 8h10.922v30.674h-10.922a4 4 0 0 0 0 8h10.922v30.674h-10.922a4 4 0 0 0 0 8h10.922v35.959h8v-35.959h10.922a4 4 0 0 0 0-8h-10.922v-30.674h10.922a4 4 0 0 0 0-8h-10.922v-30.674z" fill="#5a5a5a"/><circle cx="256" cy="233.598" fill="#e64650" r="12.891"/><circle cx="239" cy="488" fill="#b4821e" r="16"/></svg>