<svg height="512" viewBox="0 0 46 58" width="512" xmlns="http://www.w3.org/2000/svg"><g id="Page-1" fill="none" fill-rule="evenodd"><g id="020---Bug-Repellent" fill-rule="nonzero"><path id="Shape" d="m19 2v7h-12v-7c.0032948-1.10320187.89679813-1.9967052 2-2h8c1.1032019.0032948 1.9967052.89679813 2 2z" fill="#ecf0f1"/><path id="Shape" d="m45.58 9.84-2.86-7.87c-.4295677-1.18196021-1.5524001-1.96914161-2.81-1.97h-13.91c-1.6568542 0-3 1.34314575-3 3v1c0 1.65685425-1.3431458 3-3 3h-13l-5.24 5.24c-1.12864685 1.1261497-1.76202683 2.6556184-1.76 4.25v29.37c.0023133 1.9918938.29540373 3.9727807.87 5.88.59332059 1.9201726 1.45878651 3.7453965 2.57 5.42.37183979.5313531.98148598.8455266 1.63.84h3.1c.53291225-.0002413 1.04382666-.2125227 1.42-.59l1-1c.3736892-.3744562.8809811-.5848881 1.41-.5848881s1.0363108.2104319 1.41.5848881l1 1c.3761733.3774773.8870877.5897587 1.42.59h3.34c.5329123-.0002413 1.0438267-.2125227 1.42-.59l1-1c.3736892-.3744562.8809811-.5848881 1.41-.5848881s1.0363108.2104319 1.41.5848881l1 1c.3761733.3774773.8870877.5897587 1.42.59h3.34c.5329123-.0002413 1.0438267-.2125227 1.42-.59l1-1c.3736892-.3744562.8809811-.5848881 1.41-.5848881s1.0363108.2104319 1.41.5848881l1 1c.3761733.3774773.8870877.5897587 1.42.59h3.1c.667998.0021877 1.2921138-.3324286 1.66-.89 2.2213397-3.3316095 3.4077611-7.2457564 3.41-11.25v-33.63c.002013-.8151989-.1401771-1.6243287-.42-2.39zm-5.27 1.16h-12.31c-.5522847 0-1-.4477153-1-1v-5c0-.55228475.4477153-1 1-1h10.5c.4217823-.00221144.7988428.26253316.94.66l1.81 5c.1107754.3063999.0653389.6475555-.1217679.9142822s-.4924222.4255792-.8182321.4257178z" fill="#4fba6f"/><path id="Shape" d="m35.6 19h-25.2c-1.1365285-.001932-2.23871057-.3897759-3.126-1.1l-2.649-2.119c-.27902443-.223291-.41772931-.5784781-.36386585-.9317659.05386346-.3532877.29211211-.6510032.625-.781.33288789-.1299967.70984142-.0725251.98886585.1507659l2.65 2.12c.53170345.4270424 1.19303734.6601846 1.875.661h25.2c.681499-.0007589 1.3424308-.2335311 1.874-.66l2.651-2.121c.4313344-.3451779 1.060822-.2753343 1.406.156.3451779.4313344.2753344 1.060822-.156 1.406l-2.65 2.12c-.8871933.7095811-1.9889483 1.0970463-3.125 1.099z" fill="#24ae5f"/><path id="Shape" d="m12 0v3c0 .55228475-.4477153 1-1 1s-1-.44771525-1-1v-3z" fill="#bdc3c7"/><path id="Shape" d="m16 0v3c0 .55228475-.4477153 1-1 1s-1-.44771525-1-1v-3z" fill="#bdc3c7"/><circle id="Oval" cx="23" cy="37" fill="#fff" r="15"/><g fill="#464f5d"><path id="Shape" d="m19 41h-5c-.5522847 0-1-.4477153-1-1s.4477153-1 1-1h5c.5522847 0 1 .4477153 1 1s-.4477153 1-1 1z"/><path id="Shape" d="m19 37h-2c-.1547301.0016999-.3077438-.0325313-.447-.1l-2-1c-.4942948-.2468713-.6948713-.8477051-.448-1.342.2468713-.4942948.8477052-.6948713 1.342-.448l1.789.9h1.764c.5522847 0 1 .4477153 1 1s-.4477153 1-1 1z"/><path id="Shape" d="m32 41h-5c-.5522847 0-1-.4477153-1-1s.4477153-1 1-1h5c.5522847 0 1 .4477153 1 1s-.4477153 1-1 1z"/><path id="Shape" d="m29 37h-2c-.5522847 0-1-.4477153-1-1s.4477153-1 1-1h1.764l1.789-.9c.3197527-.1596977.7004141-.1366785.9985928.0603866.2981786.1970651.4685741.5382372.447.895-.0215741.3567629-.2318401.6749157-.5515928.8346134l-2 1c-.1384182.0709294-.2914731.1085939-.447.11z"/><path id="Shape" d="m31 46c-.1543931.001545-.307047-.0326823-.446-.1l-1.79-.9h-1.764c-.5522847 0-1-.4477153-1-1s.4477153-1 1-1h2c.1547301-.0016999.3077438.0325313.447.1l2 1c.4214702.2040519.6449027.6732513.5376645 1.129074-.1072383.4558226-.5164267.7761896-.9846645.770926z"/><path id="Shape" d="m15 46c.1547035.0014466.30766-.0327719.447-.1l1.789-.9h1.764c.5522847 0 1-.4477153 1-1s-.4477153-1-1-1h-2c-.1547301-.0016999-.3077438.0325313-.447.1l-2 1c-.4214702.2040519-.6449027.6732513-.5376645 1.129074.1072383.4558226.5164267.7761896.9846645.770926z"/></g><path id="Shape" d="m27 35v9c.0014703 1.8238506-1.233358 3.416779-3 3.87-.6553991.1733404-1.3446009.1733404-2 0-.6904981-.1805544-1.3215182-.539167-1.83-1.04-.7476392-.7523311-1.1681058-1.7693573-1.17-2.83v-9c-.0027491-.5294478.2077328-1.0377164.5839906-1.4102115.3762577-.3724952.886616-.5778584 1.4160094-.5697885h4c.5293934-.0080699 1.0397517.1972933 1.4160094.5697885.3762578.3724951.5867397.8807637.5839906 1.4102115z" fill="#5d4c72"/><path id="Shape" d="m35.8 27.4c-4.3449425-5.7934203-12.0393968-7.9462138-18.7599601-5.248757-6.7205632 2.6974569-10.79146087 9.5725526-9.92531424 16.7622698.86614664 7.1897172 6.45336364 12.9012979 13.62227434 13.9254872.7617922.1092826 1.5304092.1640883 2.3.164 6.0547692-.0131393 11.5834558-3.4429577 14.2847165-8.861776 2.7012608-5.4188184 2.1123031-11.8982596-1.5217165-16.741224zm-21.2-1.6c2.411764-1.8185002 5.3504791-2.8014655 8.371-2.8.6719011.0003257 1.3429279.0484472 2.008.144 3.3346744.4704501 6.3846871 2.1369043 8.582 4.689l-22.32 16.737c-3.96810187-6.170969-2.5029538-14.3581763 3.359-18.77zm16.8 22.4c-5.8719588 4.4104136-14.1557996 3.5235302-18.961-2.03l22.32-16.74c3.9681019 6.170969 2.5029538 14.3581763-3.359 18.77z" fill="#e64c3c"/><path id="Shape" d="m22.177 30.727c-.1939562-.0002335-.3836587-.0568663-.546-.163l-4.178-2.727c-.4529451-.3057376-.5765754-.9184595-.2776205-1.3759097s.9097668-.5901962 1.3716205-.2980903l4.178 2.727c.3703529.2421241.5375559.6988523.4110678 1.1228643-.126488.4240119-.5165916.7144886-.9590678.7141357z" fill="#5d4c72"/><path id="Shape" d="m23.823 30.727c-.4424762.0003529-.8325798-.2901238-.9590678-.7141357-.1264881-.424012.0407149-.8807402.4110678-1.1228643l4.178-2.727c.4618537-.2921059 1.0726656-.1593599 1.3716205.2980903s.1753246 1.0701721-.2776205 1.3759097l-4.178 2.727c-.1623413.1061337-.3520438.1627665-.546.163z" fill="#5d4c72"/><circle id="Oval" cx="23" cy="31" fill="#7d6599" r="3"/><path id="Shape" d="m24 42v5.87c-.6553991.1733404-1.3446009.1733404-2 0v-5.87c0-.5522847.4477153-1 1-1s1 .4477153 1 1z" fill="#3d324c"/></g></g></svg>