<svg id="normal_copy_3" height="512" viewBox="0 0 64 64" width="512" xmlns="http://www.w3.org/2000/svg" data-name="normal copy 3"><rect fill="#f2e6c7" height="54" rx="2.04" width="40" x="12" y="7"/><path d="m52 47v12a2 2 0 0 1 -2 2h-36a2 2 0 0 1 -2-2v-50a2 2 0 0 1 2-2h8v38a2 2 0 0 0 2 2z" fill="#ead8b0"/><path d="m25 3h16a2 2 0 0 1 2 2v2a6 6 0 0 1 -6 6h-8a6 6 0 0 1 -6-6v-2a2 2 0 0 1 2-2z" fill="#666"/><path d="m42.76 8.67a6 6 0 0 1 -5.76 4.33h-8a6 6 0 0 1 -6-6v-2a2 2 0 0 1 2-2v1a6 6 0 0 0 6 6h8a5.9 5.9 0 0 0 3.76-1.33z" fill="#4d4d4d"/><path d="m25 36a1 1 0 0 1 -1-1v-9a1 1 0 0 1 2 0v9a1 1 0 0 1 -1 1z" fill="#603813"/><g fill="#db8a42"><path d="m27 48h2a1 1 0 0 0 0-2h-2a1 1 0 0 0 0 2z"/><path d="m33 48h6a1 1 0 0 0 0-2h-6a1 1 0 0 0 0 2z"/><path d="m47 46h-4a1 1 0 0 0 0 2h4a1 1 0 0 0 0-2z"/><path d="m27 52h4a1 1 0 0 0 0-2h-4a1 1 0 0 0 0 2z"/><path d="m39 50h-4a1 1 0 0 0 0 2h4a1 1 0 0 0 0-2z"/><path d="m47 50h-4a1 1 0 0 0 0 2h4a1 1 0 0 0 0-2z"/><path d="m37 54h-10a1 1 0 0 0 0 2h10a1 1 0 0 0 0-2z"/><path d="m47 54h-6a1 1 0 0 0 0 2h6a1 1 0 0 0 0-2z"/><path d="m43 36a2 2 0 0 1 2 2 1 1 0 0 0 2 0 4 4 0 1 0 -4 4 1 1 0 0 0 0-2 2 2 0 0 1 0-4z"/><path d="m42.37 26.1a1 1 0 0 0 .63-1.26 1 1 0 0 0 -1.26-.63 4 4 0 0 0 -.53 7.37 4 4 0 0 0 1.79.42 4 4 0 0 0 3.79-5.26 1 1 0 1 0 -1.89.63 2 2 0 0 1 -.11 1.52 2 2 0 0 1 -1.16 1 2 2 0 0 1 -1.52-.11 2 2 0 0 1 -1-1.16 2 2 0 0 1 .11-1.52 2 2 0 0 1 1.15-1z"/><path d="m38 22h4a1 1 0 0 0 0-2h-4a1 1 0 0 0 0 2z"/><path d="m48 20h-2a1 1 0 0 0 0 2h2a1 1 0 0 0 0-2z"/></g><rect fill="#f9d53d" height="8" rx="1" width="6" x="17" y="47"/><path d="m23 52v2a1 1 0 0 1 -1 1h-4a1 1 0 0 1 -1-1v-6a1 1 0 0 1 1-1h1v4a1 1 0 0 0 1 1z" fill="#f7b43e"/><path d="m29 21h4a0 0 0 0 1 0 0v2a4 4 0 0 1 -4 4h-4a0 0 0 0 1 0 0v-2a4 4 0 0 1 4-4z" fill="#099688"/><path d="m17 21h4a4 4 0 0 1 4 4v2a0 0 0 0 1 0 0h-4a4 4 0 0 1 -4-4v-2a0 0 0 0 1 0 0z" fill="#099688" transform="matrix(-1 0 0 -1 42 48)"/><path d="m33 23.48a4 4 0 0 1 -4 3.52h-4v-2a4 4 0 0 1 2-3.48 3.87 3.87 0 0 0 0 .48v2h4a4 4 0 0 0 2-.52z" fill="#0a7c6e"/><path d="m25 25v2h-4a4 4 0 0 1 -4-4v-2h2.13a4 4 0 0 0 3.87 3h1.87a3.66 3.66 0 0 1 .13 1z" fill="#0a7c6e"/></svg>