<svg id="Layer_1" enable-background="new 0 0 512 512" viewBox="0 0 512 512" xmlns="http://www.w3.org/2000/svg"><g><circle cx="256" cy="256" fill="#6d3326" r="126"/><path d="m500.969 252.076h-107.255c.036 1.303.055 2.611.055 3.924 0 76.088-61.682 137.77-137.77 137.77v107.23c135.31 0 245-109.69 245-245 .001-1.31-.009-2.618-.03-3.924z" fill="#ffc143"/><path d="m400.287 252.076h-28.353c.043 1.302.066 2.611.066 3.924 0 40.066-20.314 75.388-51.203 96.229-2.294 1.548-3.675 4.127-3.675 6.894v22.789c0 2.269 2.4 3.754 4.421 2.722 46.772-23.878 78.797-72.516 78.797-128.634 0-1.312-.018-2.62-.053-3.924z" fill="#ffb509"/><path d="m507.069 244.982h-6.313c-5.762-130.197-113.139-233.982-244.756-233.982v108.261c75.519 0 136.739 61.22 136.739 136.739 0 2.375-.061 4.735-.18 7.08-.329 6.448 64.717 31.412 64.717 31.412l52.798-40.691c3.719-2.867 1.692-8.819-3.005-8.819z" fill="#509e49"/><path d="m399.557 250.009c-3.141-76.574-66.212-137.69-143.557-137.69v27.681c60.349 0 109.934 46.085 115.483 104.982h-14.856c-4.697 0-6.724 5.952-3.004 8.819l38.27 29.494 36.951 28.477c1.77 1.364 4.238 1.364 6.008 0l22.423-17.281z" fill="#44873e"/><path d="m350.515 128.829-9.343-9.343c-1.562-1.562-1.562-4.095 0-5.657l9.343-9.343c1.562-1.562 4.095-1.562 5.657 0l9.343 9.343c1.562 1.562 1.562 4.095 0 5.657l-9.343 9.343c-1.563 1.562-4.095 1.562-5.657 0z" fill="#baed6a"/><path d="m342.559 73.453-9.343-9.343c-1.562-1.562-1.562-4.095 0-5.657l9.343-9.343c1.562-1.562 4.095-1.562 5.657 0l9.343 9.343c1.562 1.562 1.562 4.095 0 5.657l-9.343 9.343c-1.562 1.562-4.095 1.562-5.657 0z" fill="#a3e72d"/><path d="m459.115 222.68-9.417 14.981c-1.96 3.119-6.506 3.119-8.466 0l-9.417-14.981c-1.286-2.046-3.851-2.879-6.094-1.98l-16.424 6.585c-3.419 1.371-7.097-1.301-6.849-4.976l1.187-17.655c.162-2.411-1.423-4.593-3.766-5.184l-17.158-4.327c-3.572-.901-4.977-5.224-2.616-8.052l11.338-13.586c1.548-1.855 1.548-4.552 0-6.407l-11.338-13.586c-2.36-2.828-.956-7.151 2.616-8.052l17.158-4.327c2.343-.591 3.928-2.773 3.766-5.184l-1.187-17.655c-.247-3.675 3.43-6.347 6.849-4.976l16.424 6.585c2.243.899 4.808.066 6.094-1.98l9.417-14.981c1.96-3.119 6.506-3.119 8.466 0l9.417 14.981c1.286 2.046 3.851 2.879 6.094 1.98l16.424-6.585c3.419-1.371 7.097 1.301 6.849 4.976l-1.187 17.655c-.162 2.411 1.423 4.593 3.766 5.184l17.158 4.327c3.572.901 4.977 5.224 2.616 8.052l-11.338 13.586c-1.548 1.855-1.548 4.552 0 6.407l11.338 13.586c2.36 2.828.956 7.151-2.616 8.052l-17.158 4.327c-2.343.591-3.928 2.773-3.766 5.184l1.187 17.655c.247 3.675-3.43 6.347-6.849 4.976l-16.424-6.585c-2.243-.899-4.808-.066-6.094 1.98z" fill="#ffb509"/><circle cx="445.465" cy="170.302" fill="#ffe1a8" r="35"/><circle cx="451.511" cy="161.787" fill="#ffe7bf" r="15"/><path d="m26.676 256c0 1.336.012 2.669.034 4h113.358c-.045-1.328-.068-2.661-.068-4 0-60.985 47.062-110.978 106.849-115.644v15.016c0 4.697 5.952 6.724 8.819 3.004l57.972-75.221c1.364-1.771 1.364-4.238 0-6.008l-26.087-33.848-10.741-5.774-7.74-10.043c-6.384-.534-6.55-.806-13.072-.806-126.652 0-229.324 102.672-229.324 229.324z" fill="#ff6930"/><path d="m41 256c0-118.741 96.259-215 215-215 10.719 0 21.255.785 31.553 2.299l-31.885-41.372c-2.867-3.72-8.819-1.693-8.819 3.004v6.237c-131.07 4.813-235.849 112.586-235.849 244.832 0 1.336.011 2.669.032 4h30.005c-.025-1.331-.037-2.664-.037-4z" fill="#ff5426"/><path d="m433.828 428.828-9.343-9.343c-1.562-1.562-1.562-4.095 0-5.657l9.343-9.343c1.562-1.562 4.095-1.562 5.657 0l9.343 9.343c1.562 1.562 1.562 4.095 0 5.657l-9.343 9.343c-1.562 1.563-4.094 1.563-5.657 0z" fill="#f04424"/><path d="m100.515 138.828-9.343-9.343c-1.562-1.562-1.562-4.095 0-5.657l9.343-9.343c1.562-1.562 4.095-1.562 5.657 0l9.343 9.343c1.562 1.562 1.562 4.095 0 5.657l-9.343 9.343c-1.563 1.563-4.095 1.563-5.657 0z" fill="#ffae8b"/><path d="m113.828 195.515-9.343-9.343c-1.562-1.562-1.562-4.095 0-5.657l9.343-9.343c1.562-1.562 4.095-1.562 5.657 0l9.343 9.343c1.562 1.562 1.562 4.095 0 5.657l-9.343 9.343c-1.562 1.562-4.094 1.562-5.657 0z" fill="#ff9568"/><path d="m319.938 411.895c-1.726.462-3.081 1.816-3.543 3.543-4.968 18.566-.168 39.202 14.399 53.769s35.203 19.366 53.769 14.399c1.726-.462 3.081-1.816 3.543-3.543 4.968-18.566.168-39.202-14.399-53.768-14.568-14.568-35.203-19.368-53.769-14.4z" fill="#ff6930"/><path d="m359.69 385.007c.447 1.757 1.83 3.14 3.587 3.587 15.033 3.822 31.64-.149 43.404-11.913s15.735-28.371 11.913-43.404c-.447-1.757-1.83-3.14-3.587-3.587-15.033-3.822-31.64.149-43.404 11.913s-15.735 28.371-11.913 43.404z" fill="#ff7d43"/><path d="m177.096 65 13.634-19.281c8.15-11.526 6.811-27.248-3.171-37.229-11.319-11.319-29.671-11.319-40.99 0-9.982 9.982-11.321 25.703-3.171 37.229l13.634 19.281-13.634 19.281c-8.15 11.526-6.811 27.248 3.171 37.229 11.319 11.319 29.671 11.319 40.99 0 9.982-9.982 11.321-25.703 3.171-37.229z" fill="#ffae8b"/><path d="m223.574 44.505c-9.982-9.982-25.703-11.321-37.229-3.171l-19.281 13.634-19.281-13.634c-11.526-8.15-27.248-6.811-37.229 3.171-11.319 11.319-11.319 29.671 0 40.99 9.982 9.982 25.703 11.321 37.229 3.171l19.281-13.634 19.281 13.634c11.526 8.15 27.247 6.811 37.229-3.171 11.32-11.319 11.32-29.671 0-40.99z" fill="#ffc5ad"/><circle cx="167.064" cy="65" fill="#fff" r="26.628"/><path d="m140.517 267.018h14.856c4.697 0 6.724-5.952 3.004-8.819l-59.065-45.521s-72.636 37.476-72.636 43.322c0 126.652 102.672 229.324 229.324 229.324v-113.324c-60.349 0-109.934-46.085-115.483-104.982z" fill="#49b6fc"/><path d="m42.993 256.082 56.319-43.404-16.156-12.451c-1.77-1.364-4.238-1.364-6.008 0l-75.221 57.972c-3.72 2.867-1.693 8.819 3.004 8.819h6.313c5.762 130.197 113.139 233.982 244.756 233.982v-30c-117.364 0-212.763-94.039-214.961-210.877-.03-1.578.704-3.077 1.954-4.041z" fill="#00a4fb"/><path d="m100.184 307.399 31.109 6.11c2.986.587 4.76 3.682 3.757 6.555l-10.455 29.93c-.369 1.057-.373 2.208-.01 3.267l10.263 29.996c.985 2.879-.809 5.964-3.799 6.531l-31.148 5.911c-1.1.209-2.099.781-2.835 1.625l-20.846 23.886c-2.001 2.293-5.569 2.281-7.555-.024l-20.693-24.019c-.731-.848-1.726-1.427-2.824-1.643l-31.109-6.11c-2.986-.587-4.76-3.682-3.757-6.555l10.455-29.93c.369-1.057.373-2.208.01-3.267l-10.263-29.996c-.985-2.879.809-5.964 3.799-6.531l31.148-5.911c1.1-.209 2.099-.781 2.835-1.625l20.846-23.886c2.001-2.293 5.569-2.281 7.555.024l20.693 24.019c.731.848 1.726 1.427 2.824 1.643z" fill="#bde2fd"/><path d="m110.744 358.943c-.016-.034-.032-.068-.047-.102-2.207-4.7-2.207-10.059 0-14.759.016-.034.032-.068.047-.102l8.054-17.482c.512-1.111-.229-2.394-1.447-2.506l-19.168-1.766c-.038-.003-.075-.007-.113-.01-5.174-.439-9.814-3.118-12.781-7.379-.021-.031-.043-.062-.065-.092l-11.113-15.717c-.706-.999-2.188-.999-2.894 0l-11.113 15.717c-.022.031-.043.061-.065.092-2.967 4.261-7.607 6.94-12.781 7.379-.038.003-.075.007-.113.01l-19.167 1.766c-1.218.112-1.958 1.395-1.447 2.506l8.054 17.482c.016.034.032.068.047.102 2.207 4.7 2.207 10.059 0 14.759-.016.034-.032.068-.047.102l-8.054 17.482c-.512 1.111.229 2.394 1.447 2.506l19.167 1.766c.037.003.074.007.112.01 5.174.439 9.815 3.118 12.782 7.38.021.031.043.061.064.092l11.113 15.716c.706.999 2.188.999 2.894 0l11.113-15.716c.022-.031.043-.061.064-.092 2.967-4.262 7.608-6.941 12.782-7.38.037-.003.074-.006.112-.01l19.167-1.766c1.218-.112 1.959-1.395 1.447-2.506z" fill="#49b6fc"/><path d="m163.828 455.515-9.343-9.343c-1.562-1.562-1.562-4.095 0-5.657l9.343-9.343c1.562-1.562 4.095-1.562 5.657 0l9.343 9.343c1.562 1.562 1.562 4.095 0 5.657l-9.343 9.343c-1.562 1.562-4.094 1.562-5.657 0z" fill="#fff"/><path d="m160.515 395.515-9.343-9.343c-1.562-1.562-1.562-4.095 0-5.657l9.343-9.343c1.562-1.562 4.095-1.562 5.657 0l9.343 9.343c1.562 1.562 1.562 4.095 0 5.657l-9.343 9.343c-1.563 1.562-4.095 1.562-5.657 0z" fill="#bde2fd"/><path d="m83.2 334.594 11.908 2.339c1.143.225 1.822 1.41 1.438 2.509l-4.002 11.458c-.141.405-.143.845-.004 1.251l3.928 11.482c.377 1.102-.31 2.283-1.454 2.5l-11.923 2.263c-.421.08-.803.299-1.085.622l-7.98 9.143c-.766.878-2.132.873-2.892-.009l-7.921-9.194c-.28-.325-.661-.546-1.081-.629l-11.908-2.339c-1.143-.225-1.822-1.41-1.438-2.509l4.002-11.457c.141-.405.143-.845.004-1.251l-3.928-11.482c-.377-1.102.31-2.283 1.454-2.5l11.923-2.263c.421-.08.803-.299 1.085-.622l7.98-9.143c.766-.878 2.132-.873 2.892.009l7.921 9.194c.279.324.66.546 1.081.628z" fill="#fff"/><circle cx="72.666" cy="351.461" fill="#65befc" r="10"/><path d="m257.395 500.645-50.984-66.154c-1.2-1.557-1.2-3.727 0-5.284l50.984-66.154c2.521-3.272 7.756-1.489 7.756 2.642v132.308c0 4.13-5.235 5.913-7.756 2.642z" fill="#ffc143"/><path d="m255.364 400.333c1.429-.003 2.605-.006 2.874-.01 22.951-.349 44.604-6.055 63.762-15.923v-32.993c-16.382 11.354-35.829 18.597-56.849 20.238v-15.017c0-4.697-5.952-6.724-8.819-3.004l-57.972 75.221c-1.364 1.77-1.364 4.238 0 6.008l57.972 75.221c2.867 3.72 8.819 1.693 8.819-3.004v-31.006l-31.76-41.211c-1.364-1.77-1.364-4.238 0-6.008z" fill="#ffb509"/><path d="m268.172 450.485-9.343-9.343c-1.562-1.562-1.562-4.095 0-5.657l9.343-9.343c1.562-1.562 4.095-1.562 5.657 0l9.343 9.343c1.562 1.562 1.562 4.095 0 5.657l-9.343 9.343c-1.563 1.562-4.095 1.562-5.657 0z" fill="#f04424"/><path d="m225 326.609h-21.391c-2.761 0-5-2.239-5-5v-104.783c0-2.761 2.239-5 5-5h21.391c2.761 0 5 2.239 5 5v104.783c0 2.761-2.239 5-5 5z" fill="#d9e7ec"/><path d="m308.391 326.609h-83.391c-2.761 0-5-2.239-5-5v-104.783c0-2.761 2.239-5 5-5h83.391c2.761 0 5 2.239 5 5v104.783c0 2.761-2.238 5-5 5z" fill="#fff"/><path d="m220.936 240.522h-25.936c-2.761 0-5-2.239-5-5v-33.043c0-2.761 2.239-5 5-5h25.936c2.761 0 5 2.239 5 5v33.043c0 2.761-2.238 5-5 5z" fill="#ff5426"/><path d="m317 240.522h-97.696c-2.761 0-5-2.239-5-5v-33.043c0-2.761 2.239-5 5-5h97.696c2.761 0 5 2.239 5 5v33.043c0 2.761-2.239 5-5 5z" fill="#ff6930"/><path d="m220.489 225.652c-4.863 0-8.804-3.942-8.804-8.804v-24.652c0-4.863 3.942-8.804 8.804-8.804 4.863 0 8.804 3.942 8.804 8.804v24.652c0 4.862-3.941 8.804-8.804 8.804z" fill="#d9e7ec"/><path d="m291.511 225.652c-4.863 0-8.804-3.942-8.804-8.804v-24.652c0-4.863 3.942-8.804 8.804-8.804 4.862 0 8.804 3.942 8.804 8.804v24.652c0 4.862-3.942 8.804-8.804 8.804z" fill="#d9e7ec"/><path d="m256 306c-5.523 0-10-4.477-10-10v-28c0-5.523 4.477-10 10-10 5.523 0 10 4.477 10 10v28c0 5.523-4.477 10-10 10z" fill="#9facba"/></g><g/><g/><g/><g/><g/><g/><g/><g/><g/><g/><g/><g/><g/><g/><g/></svg>