<svg id="Capa_1" enable-background="new 0 0 512 512" height="512" viewBox="0 0 512 512" width="512" xmlns="http://www.w3.org/2000/svg"><g><g><g><g><g><g><path d="m507.631 185.163c-20.424-77.776-136.83-71.255-148.026 8.737-1.193 7.32-7.175 37.491-27.278 57.594-18.428 18.428-44.381 24.064-54.004 25.58-78.684 8.735-90.649 121.684-15.741 146.837 57.968 19.406 130.356-6.888 174.312-44.654 51.63-44.358 88.074-124.986 70.737-194.094z" fill="#ffdab3"/><path d="m507.631 185.163c-11.321-43.111-52.129-60.308-88.166-53.463 25.83 4.946 49.138 22.53 57.261 53.463 17.338 69.108-19.106 149.736-70.736 194.094-30.049 25.817-73.385 46.268-116.318 50.428 52.085 5.426 109.902-18.363 147.224-50.428 51.628-44.358 88.072-124.986 70.735-194.094z" fill="#ffc998"/><g><path d="m355.41 273.167c24.296-24.296 6.491-49.808-1.14-58.615-4.061 11.694-10.849 25.848-21.943 36.942-11.488 11.488-25.898 18.003-37.455 21.649.001.002 30.553 30.008 60.538.024z" fill="#c38f86"/></g></g></g><g><g><ellipse cx="181.355" cy="410.684" fill="#c38f86" rx="90.361" ry="168.173" transform="matrix(.323 -.946 .946 .323 -265.889 449.727)"/></g><g fill="#ae847f"><path d="m210.53 325.162c-37.247-12.707-73.849-17.516-104.893-15.25 23.312 1.563 48.497 6.554 73.988 15.25 87.905 29.988 146.104 92.588 129.991 139.82-9.286 27.219-41.226 43.392-83.448 46.474 57.081 3.827 102.913-12.938 114.353-46.474 16.113-47.232-42.086-109.832-129.991-139.82z"/><path d="m254.732 480.747c-14.666 0-33.83-1.038-55.16-4.797-62.127-10.949-112.729-40.109-146.336-84.326-2.582-3.397-1.921-8.244 1.476-10.826 3.396-2.581 8.244-1.921 10.826 1.476 17.382 22.871 39.516 41.385 65.786 55.029 21.135 10.976 44.999 18.859 70.928 23.429 44.291 7.805 79.344 3.178 79.692 3.129 4.225-.578 8.124 2.381 8.701 6.61.577 4.228-2.382 8.123-6.61 8.701-.823.112-11.895 1.575-29.303 1.575z"/><path d="m223.602 378.782c-1.111 0-2.239-.241-3.31-.749-17.262-8.2-36.309-14.458-56.614-18.6-4.181-.853-6.879-4.934-6.026-9.115.853-4.182 4.935-6.879 9.115-6.026 21.527 4.391 41.767 11.047 60.156 19.783 3.854 1.831 5.494 6.44 3.663 10.294-1.322 2.783-4.094 4.413-6.984 4.413z"/></g></g></g></g><g><g><g><ellipse cx="118.087" cy="127.214" fill="#bbf49b" rx="101.878" ry="140.51" transform="matrix(.787 -.617 .617 .787 -53.336 99.971)"/></g></g><path d="m198.258 64.351c-36.57-46.638-88.785-70.111-131.142-63.138 34.945 5.236 72.191 27.372 100.236 63.138 47.884 61.067 50.808 138.716 6.531 173.435-10.462 8.204-22.625 13.272-35.73 15.43 24.721 3.704 48.291-1.045 66.636-15.43 44.276-34.719 41.353-112.368-6.531-173.435z" fill="#9be69d"/><g><path d="m84.644 51.267c26.456 9.857 51.807 29.035 71.384 54.002 13.787 17.582 24.25 37.466 30.258 57.501 1.004 3.348 4.074 5.509 7.398 5.509.735 0 1.482-.106 2.222-.327 4.087-1.226 6.407-5.533 5.182-9.62-6.557-21.866-17.933-43.512-32.899-62.598-41.759-53.255-104.366-78.508-152.309-62.602-3.835 5.534-6.97 11.587-9.412 18.051 27.236-11.164 54.519-8.731 78.176.084z" fill="#3ec3a4"/></g></g></g><path d="m450.172 303.572c-1.173 0-2.363-.276-3.475-.858-3.669-1.922-5.085-6.455-3.163-10.125 15.634-29.838 18.277-55.704 17.743-72.148-.581-17.86-4.927-28.828-4.971-28.937-1.545-3.832.294-8.204 4.12-9.763 3.826-1.561 8.187.257 9.76 4.077.831 2.017 19.957 50.133-13.365 113.732-1.339 2.559-3.948 4.022-6.649 4.022z" fill="#f9b87f"/></g></svg>