<svg id="Capa_1" enable-background="new 0 0 512 512" height="512" viewBox="0 0 512 512" width="512" xmlns="http://www.w3.org/2000/svg"><path d="m112.432 301.22c-.884-2.996-1.375-6.039-1.533-9.073l-14.32 14.32-14.32-14.32c-.158 3.034-.649 6.078-1.533 9.073-2.956.872-6.003 1.369-9.083 1.525l17.435 17.435v22.296h15v-22.296l17.436-17.436c-3.079-.156-6.126-.652-9.082-1.524z" fill="#c57a44"/><path d="m66.515 257.55c-19.165-13.666-43.124 10.293-29.458 29.458 1.274 1.786 2.712 3.492 4.315 5.095 10.868 10.868 26.429 14.168 40.157 9.92 4.249-13.728.948-29.289-9.92-40.157-1.603-1.603-3.308-3.042-5.094-4.316z" fill="#97d729"/><path d="m54.765 281.801c-1.603-1.603-3.042-3.308-4.315-5.095-5.441-7.63-4.906-16.014-1.096-22.487-12.88 3.437-21.92 19.292-12.296 32.788 1.274 1.786 2.712 3.492 4.315 5.095 10.868 10.868 26.429 14.168 40.157 9.92.862-2.786 1.397-5.649 1.637-8.531-10.277.031-20.561-3.849-28.402-11.69z" fill="#8bc727"/><path d="m126.644 257.55c19.165-13.666 43.124 10.293 29.458 29.458-1.274 1.786-2.712 3.492-4.315 5.095-10.868 10.868-26.429 14.168-40.157 9.92-4.249-13.728-.948-29.289 9.92-40.157 1.602-1.603 3.307-3.042 5.094-4.316z" fill="#97d729"/><path d="m135.456 272.167c1.603-1.603 3.308-3.042 5.095-4.315 5.456-3.891 11.299-4.724 16.554-3.494-5.81-9.683-18.991-14.987-30.462-6.807-1.786 1.274-3.492 2.712-5.095 4.315-10.868 10.868-14.168 26.429-9.919 40.157 3.989 1.235 8.132 1.811 12.27 1.771-.943-11.321 2.895-22.964 11.557-31.627z" fill="#8bc727"/><path d="m431.273 301.22c-.884-2.996-1.375-6.039-1.533-9.073l-14.32 14.32-14.32-14.32c-.158 3.034-.649 6.078-1.533 9.073-2.956.872-6.003 1.369-9.083 1.525l17.436 17.435v22.296h15v-22.296l17.436-17.436c-3.08-.155-6.126-.652-9.083-1.524z" fill="#c57a44"/><path d="m385.356 257.55c-19.165-13.666-43.124 10.293-29.458 29.458 1.274 1.786 2.712 3.492 4.315 5.095 10.868 10.868 26.429 14.168 40.157 9.92 4.249-13.728.948-29.289-9.92-40.157-1.602-1.603-3.307-3.042-5.094-4.316z" fill="#97d729"/><path d="m372.061 280.256c-1.603-1.603-3.042-3.308-4.315-5.095-4.761-6.677-4.947-13.932-2.368-19.979-11.31 4.823-18.384 19.338-9.479 31.826 1.274 1.786 2.712 3.492 4.315 5.095 10.868 10.868 26.429 14.168 40.157 9.92 1.019-3.293 1.592-6.692 1.742-10.105-10.819.475-21.791-3.401-30.052-11.662z" fill="#8bc727"/><path d="m445.485 257.55c19.165-13.666 43.124 10.293 29.458 29.458-1.274 1.786-2.712 3.492-4.315 5.095-10.868 10.868-26.429 14.168-40.157 9.92-4.249-13.728-.948-29.289 9.92-40.157 1.603-1.603 3.308-3.042 5.094-4.316z" fill="#97d729"/><path d="m453.268 271.652c1.603-1.603 3.308-3.041 5.095-4.315 5.76-4.107 11.947-4.799 17.421-3.26-5.894-9.506-18.938-14.627-30.298-6.526-1.786 1.274-3.492 2.712-5.095 4.315-10.868 10.868-14.168 26.429-9.92 40.157 3.669 1.135 7.468 1.714 11.274 1.771-1.105-11.482 2.729-23.348 11.523-32.142z" fill="#8bc727"/><path d="m337.666 341.475c-9.04 0-17.709 3.516-24.249 9.757-14.931 14.248-35.148 23.002-57.417 23.002s-42.486-8.754-57.417-23.002c-6.54-6.241-15.209-9.757-24.249-9.757h-161.273c-3.225 0-5.84 2.615-5.84 5.84v158.845c0 3.225 2.615 5.84 5.84 5.84h485.878c3.225 0 5.84-2.615 5.84-5.84v-158.845c0-3.225-2.615-5.84-5.84-5.84z" fill="#d88a55"/><path d="m48.428 410.386v-63.071c0-3.225 2.615-5.84 5.84-5.84h-41.207c-3.225 0-5.84 2.615-5.84 5.84v63.071z" fill="#c57a44"/><path d="m7.221 410.386v95.774c0 3.225 2.615 5.84 5.84 5.84h485.878c3.225 0 5.84-2.615 5.84-5.84v-95.774z" fill="#f6a96c"/><path d="m48.428 506.16v-55.145h-.148c-4.142 0-7.5-3.357-7.5-7.5s3.358-7.5 7.5-7.5h.148v-25.629h-41.207v95.774c0 3.225 2.614 5.839 5.839 5.84h41.207c-3.225-.001-5.839-2.615-5.839-5.84z" fill="#ea9b58"/><path d="m279.573 251.842c-.319-.959-1.068-1.708-2.027-2.027-7.712-2.567-16.554-.784-22.692 5.355-6.138 6.138-7.922 14.98-5.355 22.692.319.959 1.068 1.708 2.027 2.027 7.712 2.567 16.554.784 22.692-5.355 6.138-6.138 7.922-14.98 5.355-22.692z" fill="#c57a44"/><path d="m229.231 309.963c-.959.319-1.708 1.068-2.027 2.027-2.567 7.712-.784 16.554 5.355 22.692 6.138 6.138 14.98 7.922 22.692 5.355.959-.319 1.708-1.068 2.027-2.027 2.567-7.712.784-16.554-5.355-22.692-6.138-6.139-14.98-7.922-22.692-5.355z" fill="#f6a96c"/><path d="m295.317 214.687 98.721-98.721c2.281-2.281 2.281-5.978 0-8.259l-105.997-105.996c-2.281-2.281-5.978-2.281-8.259 0l-134.276 134.276c-2.012 2.012-2.012 5.273 0 7.284l71.416 71.416c1.932 1.932 4.552 3.017 7.284 3.017h63.826c2.733 0 5.353-1.085 7.285-3.017z" fill="#edc9b1"/><path d="m262.304 19.189 114.256 114.255 17.478-17.478c2.281-2.281 2.281-5.978 0-8.259l-105.997-105.997c-2.281-2.281-5.978-2.281-8.259 0z" fill="#09a76d"/><path d="m186.714 143.271c-2.012-2.012-2.012-5.273 0-7.284l96.194-96.194-20.604-20.604-116.798 116.798c-2.012 2.011-2.012 5.273 0 7.284l71.416 71.416c1.932 1.932 4.552 3.017 7.285 3.017h41.207c-2.732 0-5.353-1.085-7.285-3.017z" fill="#e4af8a"/><path d="m279.782 1.71-17.478 17.478 20.604 20.604 21.607-21.607-16.474-16.475c-2.281-2.28-5.978-2.28-8.259 0z" fill="#02905d"/><path d="m262.522 142.42c-1.228 1.228-2.86 1.903-4.596 1.903s-3.368-.676-4.596-1.903c-2.534-2.534-2.534-6.659 0-9.193l37.076-37.076c-16.426-1.512-33.374 3.994-45.95 16.569-13.72 13.72-19.048 32.646-16.002 50.418.363 2.118 2.038 3.794 4.157 4.157 17.772 3.047 36.698-2.282 50.418-16.002 12.575-12.575 18.081-29.524 16.57-45.949z" fill="#09a76d"/><path d="m257.926 145.323c-1.919 0-3.839-.732-5.303-2.196-2.929-2.93-2.929-7.678 0-10.607l40.688-40.688c2.929-2.928 7.678-2.928 10.606 0 2.929 2.93 2.929 7.678 0 10.607l-40.688 40.688c-1.464 1.464-3.384 2.196-5.303 2.196z" fill="#026841"/><g fill="#edc9b1"><path d="m62.739 451.015h-14.458c-4.142 0-7.5-3.357-7.5-7.5s3.358-7.5 7.5-7.5h14.458c4.142 0 7.5 3.357 7.5 7.5s-3.358 7.5-7.5 7.5z"/><path d="m94.548 483.98h-14.459c-4.142 0-7.5-3.357-7.5-7.5s3.358-7.5 7.5-7.5h14.458c4.142 0 7.5 3.357 7.5 7.5s-3.357 7.5-7.499 7.5z"/><path d="m129.569 451.015h-14.458c-4.142 0-7.5-3.357-7.5-7.5s3.358-7.5 7.5-7.5h14.458c4.142 0 7.5 3.357 7.5 7.5s-3.358 7.5-7.5 7.5z"/><path d="m161.378 483.98h-14.458c-4.142 0-7.5-3.357-7.5-7.5s3.358-7.5 7.5-7.5h14.458c4.142 0 7.5 3.357 7.5 7.5s-3.358 7.5-7.5 7.5z"/><path d="m196.399 451.015h-14.458c-4.142 0-7.5-3.357-7.5-7.5s3.358-7.5 7.5-7.5h14.458c4.142 0 7.5 3.357 7.5 7.5s-3.357 7.5-7.5 7.5z"/><path d="m228.208 483.98h-14.458c-4.142 0-7.5-3.357-7.5-7.5s3.358-7.5 7.5-7.5h14.458c4.142 0 7.5 3.357 7.5 7.5s-3.358 7.5-7.5 7.5z"/><path d="m263.229 451.015h-14.458c-4.142 0-7.5-3.357-7.5-7.5s3.358-7.5 7.5-7.5h14.458c4.142 0 7.5 3.357 7.5 7.5s-3.358 7.5-7.5 7.5z"/><path d="m295.038 483.98h-14.458c-4.142 0-7.5-3.357-7.5-7.5s3.358-7.5 7.5-7.5h14.458c4.142 0 7.5 3.357 7.5 7.5s-3.358 7.5-7.5 7.5z"/><path d="m330.059 451.015h-14.458c-4.142 0-7.5-3.357-7.5-7.5s3.358-7.5 7.5-7.5h14.458c4.142 0 7.5 3.357 7.5 7.5s-3.358 7.5-7.5 7.5z"/><path d="m361.868 483.98h-14.458c-4.142 0-7.5-3.357-7.5-7.5s3.358-7.5 7.5-7.5h14.458c4.142 0 7.5 3.357 7.5 7.5s-3.358 7.5-7.5 7.5z"/><path d="m396.889 451.015h-14.458c-4.142 0-7.5-3.357-7.5-7.5s3.358-7.5 7.5-7.5h14.458c4.142 0 7.5 3.357 7.5 7.5s-3.358 7.5-7.5 7.5z"/><path d="m428.698 483.98h-14.458c-4.142 0-7.5-3.357-7.5-7.5s3.358-7.5 7.5-7.5h14.458c4.142 0 7.5 3.357 7.5 7.5s-3.358 7.5-7.5 7.5z"/><path d="m463.719 451.015h-14.458c-4.142 0-7.5-3.357-7.5-7.5s3.358-7.5 7.5-7.5h14.458c4.142 0 7.5 3.357 7.5 7.5s-3.358 7.5-7.5 7.5z"/></g></svg>