<svg id="Layer_1" enable-background="new 0 0 512 512" height="512" viewBox="0 0 512 512" width="512" xmlns="http://www.w3.org/2000/svg"><g><circle cx="376.5" cy="103.366" fill="#ff6b88" r="103.366"/><path d="m376.5 0c56.996 0 103.366 46.37 103.366 103.366 0 56.997-46.37 103.367-103.366 103.367z" fill="#ff0069"/><circle cx="135.5" cy="103.366" fill="#73df00" r="103.366"/><path d="m135.5 0c56.996 0 103.366 46.37 103.366 103.366 0 56.997-46.37 103.367-103.366 103.367z" fill="#00be00"/><path d="m135.5 134.434c-3.979 0-7.794-1.58-10.606-4.394l-24.1-24.101c-5.858-5.858-5.857-15.355 0-21.213s15.355-5.859 21.213 0l13.493 13.494 93.827-93.826c5.857-5.857 15.355-5.857 21.213 0s5.858 15.355 0 21.213l-104.434 104.433c-2.812 2.814-6.627 4.394-10.606 4.394z" fill="#fffaf5"/><path d="m135.5 512c-8.284 0-15-6.716-15-15v-56.233c0-8.284 6.716-15 15-15s15 6.716 15 15v56.233c0 8.284-6.716 15-15 15z" fill="#008200"/><path d="m256 305.267c-52.416 0-97.974 29.919-120.5 73.574-22.526-43.656-68.084-73.574-120.5-73.574-8.284 0-15 6.716-15 15 0 74.715 60.785 135.5 135.5 135.5s135.5-60.786 135.5-135.5c0-8.285-6.716-15-15-15z" fill="#73df00"/><path d="m135.5 455.767c74.715 0 135.5-60.785 135.5-135.5 0-8.284-6.716-15-15-15-52.416 0-97.974 29.919-120.5 73.574z" fill="#00be00"/><path d="m376.5 512c-8.284 0-15-6.716-15-15v-56.233c0-8.284 6.716-15 15-15s15 6.716 15 15v56.233c0 8.284-6.716 15-15 15z" fill="#00be00"/><path d="m497 305.267c-52.416 0-97.974 29.919-120.5 73.574-22.526-43.656-68.084-73.574-120.5-73.574-8.284 0-15 6.716-15 15 0 74.715 60.785 135.5 135.5 135.5s135.5-60.786 135.5-135.5c0-8.285-6.716-15-15-15z" fill="#c8ff00"/><path d="m376.5 455.767c74.715 0 135.5-60.785 135.5-135.5 0-8.284-6.716-15-15-15-52.416 0-97.974 29.919-120.5 73.574z" fill="#73df00"/><path d="m497 512h-482c-8.284 0-15-6.716-15-15s6.716-15 15-15h482c8.284 0 15 6.716 15 15s-6.716 15-15 15z" fill="#c8ff00"/><path d="m497 482h-361.5v30h361.5c8.284 0 15-6.716 15-15s-6.716-15-15-15z" fill="#73df00"/><path d="m397.713 103.367 13.493-13.494c5.858-5.857 5.858-15.355 0-21.213-5.857-5.857-15.355-5.857-21.213 0l-13.493 13.494-13.493-13.494c-5.856-5.859-15.354-5.857-21.213 0s-5.858 15.355 0 21.213l13.493 13.494-13.493 13.494c-5.858 5.857-5.858 15.355 0 21.213 5.86 5.86 15.356 5.857 21.213 0l13.493-13.494 13.493 13.493c5.857 5.859 15.356 5.857 21.213 0 5.858-5.857 5.858-15.355 0-21.213z" fill="#fffaf5"/><g fill="#f5ebdc"><path d="m376.5 124.58 13.493 13.493c5.857 5.859 15.356 5.857 21.213 0 5.858-5.857 5.858-15.355 0-21.213l-13.493-13.494 13.493-13.494c5.858-5.857 5.858-15.355 0-21.213-5.857-5.857-15.355-5.857-21.213 0l-13.493 13.495z"/><path d="m146.106 130.04 104.434-104.434c5.858-5.857 5.858-15.355 0-21.213-5.857-5.857-15.355-5.857-21.213 0l-93.827 93.827v36.214c3.979 0 7.794-1.58 10.606-4.394z"/></g></g></svg>