<svg id="Flat" viewBox="0 0 64 64" xmlns="http://www.w3.org/2000/svg"><g fill="#20bf55"><g><path d="m25.94 46.88c-3.42 2.25-7.94 1.42-7.94 1.42s1.03-4.48 4.45-6.73c2.3-1.51 5.09-1.63 6.68-1.55.67.04 1.12.71.88 1.34-.55 1.49-1.77 4.01-4.07 5.52z"/><path d="m10.06 46.88c3.42 2.25 7.94 1.42 7.94 1.42s-1.03-4.48-4.45-6.73c-2.3-1.51-5.09-1.63-6.68-1.55-.67.04-1.12.71-.88 1.34.55 1.49 1.77 4.01 4.07 5.52z"/></g><g><path d="m38.06 46.88c3.42 2.25 7.94 1.42 7.94 1.42s-1.03-4.48-4.45-6.73c-2.3-1.51-5.09-1.63-6.68-1.55-.67.04-1.12.71-.88 1.34.55 1.49 1.77 4.01 4.07 5.52z"/><path d="m53.94 46.88c-3.42 2.25-7.94 1.42-7.94 1.42s1.03-4.48 4.45-6.73c2.3-1.51 5.09-1.63 6.68-1.55.67.04 1.12.71.88 1.34-.55 1.49-1.77 4.01-4.07 5.52z"/></g><circle cx="29" cy="17" r="11"/></g><path d="m40 17c0 6.08-4.92 11-11 11v-22c6.08 0 11 4.92 11 11z" fill="#fcbf49"/><path d="m38.84 21.92c-1.8 3.61-5.53 6.08-9.84 6.08-3.75 0-7.05-1.87-9.04-4.73l9.04-6.27z" fill="#e63946"/><path d="m11 35.75c-.41 0-.75-.34-.75-.75v-8c0-.26.14-.51.36-.64l4.8-2.88c.36-.21.82-.1 1.03.26s.1.82-.26 1.03l-4.44 2.66v7.57c0 .41-.34.75-.75.75z" fill="#edebea"/><g fill="#edebea"><path d="m58 18.75h-12c-.41 0-.75-.34-.75-.75s.34-.75.75-.75h12c.41 0 .75.34.75.75s-.34.75-.75.75z"/><path d="m58 12.75h-8c-.41 0-.75-.34-.75-.75s.34-.75.75-.75h8c.41 0 .75.34.75.75s-.34.75-.75.75z"/><path d="m58 24.75h-12c-.41 0-.75-.34-.75-.75s.34-.75.75-.75h12c.41 0 .75.34.75.75s-.34.75-.75.75z"/></g><path d="m18 54.75c-.41 0-.75-.34-.75-.75v-16c0-.41.34-.75.75-.75s.75.34.75.75v16c0 .41-.34.75-.75.75z" fill="#109138"/><path d="m46 54.75c-.41 0-.75-.34-.75-.75v-16c0-.41.34-.75.75-.75s.75.34.75.75v16c0 .41-.34.75-.75.75z" fill="#109138"/><path d="m8 58c1.53-2.22 6.59-4 10-4s8.47 1.78 10 4z" fill="#663d24"/><path d="m56 58c-1.53-2.22-6.59-4-10-4s-8.47 1.78-10 4z" fill="#663d24"/><path d="m58 58.75h-52c-.41 0-.75-.34-.75-.75s.34-.75.75-.75h52c.41 0 .75.34.75.75s-.34.75-.75.75z" fill="#4c2915"/></svg>