<svg id="flat" height="512" viewBox="0 0 512 512" width="512" xmlns="http://www.w3.org/2000/svg"><path d="m24 360h464v120h-464z" fill="#a8652f"/><path d="m280 424-24 24-24-24v-128h48z" fill="#aeadaa"/><circle cx="256" cy="200" fill="#e6e5e0" r="72"/><path d="m296 200a40 40 0 1 0 -76.662 16h73.324a39.851 39.851 0 0 0 3.338-16z" fill="#a1dcff"/><path d="m224 264h64v32h-64z" fill="#d6d5d0"/><path d="m96.345 178.292h16.001v181.712h-16.001z" fill="#57a865" transform="matrix(1 -.009 .009 1 -2.298 .902)"/><path d="m32 264h25.945a38.953 38.953 0 0 1 33.4 18.912l12.655 21.088h-25.945a38.953 38.953 0 0 1 -33.4-18.912z" fill="#57a865"/><path d="m176 264h-25.945a38.953 38.953 0 0 0 -33.4 18.912l-12.655 21.088h25.945a38.953 38.953 0 0 0 33.4-18.912z" fill="#57a865"/><path d="m103.513 155.825-17.613 30.727a40.089 40.089 0 0 0 .57 40.847l17.048 27.9 16.933-28.106a40.089 40.089 0 0 0 .561-40.416z" fill="#57a865"/><path d="m400.345 178.292h16.001v181.712h-16.001z" fill="#57a865" transform="matrix(1 -.009 .009 1 -2.286 3.501)"/><path d="m336 264h25.945a38.953 38.953 0 0 1 33.4 18.912l12.655 21.088h-25.945a38.953 38.953 0 0 1 -33.4-18.912z" fill="#57a865"/><path d="m480 264h-25.945a38.953 38.953 0 0 0 -33.4 18.912l-12.655 21.088h25.945a38.953 38.953 0 0 0 33.4-18.912z" fill="#57a865"/><path d="m408.52 160.388-17.62 30.728a40.091 40.091 0 0 0 .571 40.847l17.048 27.9 16.933-28.107a40.088 40.088 0 0 0 .561-40.415z" fill="#57a865"/><path d="m289.373 81.373a7.97 7.97 0 0 1 -5.656-2.343 40 40 0 0 0 -53.888-2.445 8 8 0 1 1 -10.248-12.285 55.993 55.993 0 0 1 75.448 3.416 8 8 0 0 1 -5.656 13.658z" fill="#b5cf7f"/><path d="m312 58.745a7.974 7.974 0 0 1 -5.657-2.343 71.987 71.987 0 0 0 -97-4.4 8 8 0 1 1 -10.243-12.284 87.988 87.988 0 0 1 118.561 5.37 8 8 0 0 1 -5.661 13.657z" fill="#b5cf7f"/><path d="m266.745 104a7.974 7.974 0 0 1 -5.657-2.343 7.994 7.994 0 0 0 -10.773-.489 8 8 0 0 1 -10.25-12.286 23.995 23.995 0 0 1 32.335 1.461 8 8 0 0 1 -5.655 13.657z" fill="#b5cf7f"/><path d="m254.961 227.123a8.007 8.007 0 0 1 -7.591-10.532l9.04-27.121a8 8 0 0 1 15.18 5.06l-9.04 27.12a8.005 8.005 0 0 1 -7.589 5.473z" fill="#ecab2c"/><path d="m219.338 216a40 40 0 0 0 73.324 0z" fill="#5ebef7"/><path d="m280 336h-16a8 8 0 0 1 0-16h16z" fill="#d6d5d0"/><g fill="#7a4922"><circle cx="72" cy="416" r="8"/><circle cx="136" cy="448" r="8"/><circle cx="304" cy="448" r="8"/><circle cx="336" cy="400" r="8"/><circle cx="360" cy="416" r="8"/><circle cx="424" cy="448" r="8"/><circle cx="200" cy="440" r="8"/><circle cx="456" cy="408" r="8"/><circle cx="400" cy="400" r="8"/><circle cx="128" cy="400" r="8"/><circle cx="192" cy="400" r="8"/></g></svg>