<svg id="Layer_1" viewBox="0 0 64 64" xmlns="http://www.w3.org/2000/svg"><path d="m62 27.61-9.61-13.31c-.75-1.04-1.73-1.86-2.84-2.43-1.11-.56-2.35-.87-3.63-.87-2.47 0-4.8 1.15-6.31 3.11l-7.61 9.89-7.61-9.89c-1.51-1.96-3.84-3.11-6.31-3.11-1.28 0-2.52.31-3.63.87-1.11.57-2.09 1.39-2.84 2.43l-9.61 13.31c-.65.9-1 1.99-1 3.1 0 1.46.59 2.78 1.55 3.74s2.28 1.55 3.74 1.55h12.71l-7.95 10.6c-.68.91-1.05 2.01-1.05 3.15 0 1.45.59 2.76 1.54 3.71s2.26 1.54 3.71 1.54h33.5c2.9 0 5.25-2.35 5.25-5.25 0-1.14-.37-2.24-1.05-3.15l-7.95-10.6h12.71c1.46 0 2.78-.59 3.74-1.55s1.55-2.28 1.55-3.74c0-1.11-.35-2.2-1-3.1z" fill="#7c523a"/><g fill="#9b7868"><circle cx="21.5" cy="46.5" r="2.5"/><circle cx="38.5" cy="42.5" r="2.5"/><path d="m62 27.61c.65.9 1 1.99 1 3.1 0 1.46-.59 2.78-1.55 3.74s-2.28 1.55-3.74 1.55h-12.71l-6.6-8.8c-1.51-2.01-3.88-3.2-6.4-3.2l7.61-9.89c1.51-1.96 3.84-3.11 6.31-3.11 1.28 0 2.52.31 3.63.87 1.11.57 2.09 1.39 2.84 2.43zm-9-.61c0-1.1-.9-2-2-2s-2 .9-2 2 .9 2 2 2 2-.9 2-2z"/><circle cx="32" cy="33" r="2"/></g><path d="m24.39 14.11 7.61 9.89c-1.26 0-2.48.3-3.58.85s-2.06 1.35-2.82 2.35l-6.6 8.8h-12.71c-1.46 0-2.78-.59-3.74-1.55s-1.55-2.28-1.55-3.74c0-1.11.35-2.2 1-3.1l9.61-13.31c.75-1.04 1.73-1.86 2.84-2.43 1.11-.56 2.35-.87 3.63-.87 2.47 0 4.8 1.15 6.31 3.11zm-9.39 12.89c0-1.1-.9-2-2-2s-2 .9-2 2 .9 2 2 2 2-.9 2-2z" fill="#d6966b"/><circle cx="13" cy="27" fill="#c4804d" r="2"/><circle cx="18.5" cy="20.5" fill="#c4804d" r="1.5"/><circle cx="45.5" cy="20.5" fill="#7c523a" r="1.5"/><circle cx="45.5" cy="48.5" fill="#9b7868" r="1.5"/><circle cx="28.5" cy="40.5" fill="#9b7868" r="1.5"/></svg>