<svg id="Layer_1" enable-background="new 0 0 512 512" height="512" viewBox="0 0 512 512" width="512" xmlns="http://www.w3.org/2000/svg"><g id="layer1_11_" transform="translate(0 -274.422)"><g id="g815624" transform="matrix(1.212 0 0 1.212 37.988 -174.745)"><path id="path770417" d="m36.431 461.421c-8.484-.001-17 3.225-23.44 9.665-12.878 12.88-12.878 33.957 0 46.837 2.498 2.498 6.16 2.976 9.271 4.548-3.121 1.574-6.768 2.085-9.271 4.592-12.878 12.88-12.88 33.962 0 46.837 12.878 12.88 33.957 12.873 46.837 0 2.514-2.514 3.015-6.181 4.592-9.315 1.581 3.166 2.1 6.867 4.636 9.402 12.878 12.873 33.956 12.88 46.837 0 12.878-12.88 12.878-33.957 0-46.837-2.54-2.541-6.23-3.054-9.402-4.635 3.133-1.576 6.803-2.08 9.315-4.592 12.878-12.88 12.878-33.957 0-46.837s-33.914-12.88-46.793 0c-2.51 2.51-3.016 6.185-4.592 9.315-1.576-3.132-2.08-6.803-4.592-9.315-6.441-6.436-14.914-9.664-23.398-9.665z" fill="#ed8eb4"/><path id="path770423" d="m267.465 461.421c-8.484-.001-16.956 3.225-23.396 9.665-12.878 12.88-12.878 33.957 0 46.837 2.503 2.502 6.153 2.975 9.271 4.548-3.128 1.576-6.763 2.08-9.271 4.592-12.878 12.88-12.88 33.962 0 46.837 12.878 12.88 33.913 12.873 46.793 0 2.519-2.519 3.058-6.174 4.636-9.315 1.581 3.163 2.102 6.869 4.636 9.402 12.878 12.873 33.913 12.88 46.793 0 12.878-12.88 12.878-33.957 0-46.837-2.531-2.531-6.2-3.056-9.359-4.635 3.126-1.574 6.764-2.085 9.271-4.592 12.878-12.88 12.878-33.957 0-46.837s-33.914-12.88-46.793 0c-2.512 2.512-3.016 6.182-4.592 9.315-1.576-3.132-2.08-6.803-4.592-9.315-6.439-6.436-14.912-9.664-23.397-9.665z" fill="#2db3cd"/><path id="path770429" d="m3.72 582.252c-3.137-.931-6.434.859-7.365 3.996-.163.548-.245 1.117-.244 1.689v11.283c0 18.115 11.908 34.143 29.256 39.358l37.347 11.195c3.13.955 6.441-.809 7.395-3.939.168-.552.255-1.125.258-1.703v-11.283c0-18.115-11.908-34.143-29.256-39.359z" fill="#52b76b"/><path id="path770435" d="m125.119 582.252-37.347 11.239c-17.348 5.215-29.257 21.243-29.256 39.359v11.283c.021 3.272 2.691 5.907 5.963 5.886.557-.004 1.111-.086 1.646-.245l37.391-11.195c17.348-5.215 29.257-21.243 29.256-39.358v-11.283c.01-3.272-2.635-5.933-5.907-5.943-.592-.003-1.18.084-1.746.257z" fill="#52b76b"/><path id="path37800" d="m64.419 549.628c-3.256.011-5.893 2.648-5.904 5.904v88.6c.011 3.256 2.648 5.893 5.904 5.904 3.272.013 5.935-2.629 5.948-5.901 0-.001 0-.002 0-.003v-88.6c-.011-3.272-2.673-5.915-5.945-5.904-.001 0-.002 0-.003 0z" fill="#349951"/><path id="path770445" d="m64.463 484.949c-9.626 0-19.279 3.666-26.589 10.977-14.621 14.621-14.619 38.513 0 53.134 14.62 14.621 38.513 14.621 53.134 0 14.622-14.621 14.622-38.517 0-53.134-7.31-7.311-16.919-10.977-26.545-10.977z" fill="#fadb80"/><path id="path770451" d="m234.754 582.252c-3.13-.955-6.441.809-7.395 3.939-.173.566-.259 1.155-.258 1.747v11.283c0 18.115 11.908 34.143 29.256 39.358l37.391 11.195c3.137.931 6.434-.858 7.365-3.995.158-.534.241-1.089.244-1.646v-11.283c0-18.115-11.908-34.143-29.256-39.359z" fill="#52b76b"/><path id="path770457" d="m356.153 582.252-37.391 11.239c-17.348 5.215-29.257 21.243-29.256 39.359v11.283c.014 3.272 2.678 5.913 5.95 5.899.577-.003 1.151-.09 1.703-.258l37.347-11.195c17.348-5.215 29.257-21.243 29.257-39.358v-11.283c.003-3.272-2.648-5.927-5.92-5.93-.572-.001-1.142.081-1.69.244z" fill="#52b76b"/><path id="path786594" d="m323.449 461.427c-1.983 0-3.967.179-5.924.533 6.41 1.153 12.539 4.196 17.472 9.129 12.878 12.88 12.878 33.958 0 46.838-2.512 2.512-6.182 3.005-9.314 4.582 3.173 1.581 6.855 2.101 9.395 4.64 12.878 12.88 12.878 33.958 0 46.838-4.928 4.928-11.051 7.961-17.46 9.117 10.327 1.847 21.371-1.18 29.308-9.117 12.878-12.88 12.878-33.958 0-46.838-2.54-2.541-6.223-3.058-9.395-4.64 3.133-1.576 6.802-2.071 9.314-4.582 12.878-12.88 12.878-33.958 0-46.838-6.439-6.44-14.918-9.661-23.396-9.662z" fill="#2377bd"/><path id="path38906" d="m295.454 548.229c-3.272-.013-5.935 2.629-5.948 5.901v.003 90c.011 3.272 2.673 5.915 5.945 5.904h.003c3.256-.011 5.893-2.648 5.904-5.904v-90c-.012-3.257-2.649-5.893-5.904-5.904z" fill="#349951"/><path id="path770467" d="m295.454 484.949c-9.626 0-19.235 3.666-26.545 10.977-14.621 14.621-14.619 38.513 0 53.134 14.62 14.621 38.47 14.621 53.09 0 14.622-14.621 14.622-38.517 0-53.134-7.31-7.311-16.919-10.977-26.545-10.977z" fill="#fadb80"/><path id="path770473" d="m179.915 421.932c-14.525 0-26.416 11.889-26.414 26.414.003 14.522 11.891 26.414 26.414 26.414 14.522 0 26.455-11.892 26.458-26.414.001-14.526-11.933-26.414-26.458-26.414z" fill="#febe40"/><g fill="#e97626"><path id="path39375" d="m179.915 481.757c-3.256.011-5.893 2.648-5.904 5.904v11.764c-.013 3.272 2.629 5.935 5.901 5.947h.003c3.272.013 5.935-2.629 5.947-5.901 0-.015 0-.031 0-.046v-11.765c-.011-3.272-2.673-5.915-5.945-5.904 0 .001-.002.001-.002.001z"/><path id="path39457" d="m179.915 391.319c-3.256.011-5.893 2.648-5.904 5.904v11.808c.011 3.256 2.648 5.893 5.904 5.904 3.272.013 5.935-2.629 5.947-5.901 0-.001 0-.002 0-.003v-11.808c-.011-3.272-2.673-5.915-5.945-5.904z"/><path id="path39459" d="m128.836 442.398c-3.272.011-5.915 2.672-5.904 5.945v.003c.011 3.256 2.648 5.893 5.904 5.904h11.764c3.272.013 5.935-2.629 5.948-5.901 0-.001 0-.002 0-.003.013-3.272-2.629-5.935-5.901-5.947-.016 0-.031 0-.047 0h-11.764z"/><path id="path39461" d="m219.273 442.398c-3.272-.013-5.935 2.629-5.948 5.901v.046c.011 3.272 2.673 5.915 5.945 5.904h.003 11.764c3.256-.011 5.893-2.648 5.904-5.904.013-3.272-2.629-5.935-5.901-5.947-.001 0-.002 0-.003 0z"/><path id="path39463" d="m152.145 470.211c-1.576.001-3.087.631-4.198 1.749l-8.353 8.309c-2.306 2.321-2.295 6.072.026 8.378.006.006.012.012.019.018 2.311 2.297 6.042 2.297 8.353 0l8.309-8.353c2.297-2.311 2.297-6.042 0-8.353-1.1-1.108-2.593-1.736-4.155-1.749h-.001z"/><path id="path39465" d="m211.882 408.025-8.353 8.309c-2.319 2.308-2.327 6.06-.018 8.378.006.006.012.012.018.018 2.308 2.318 6.059 2.327 8.378.018.006-.006.012-.012.018-.018l8.309-8.353c2.297-2.311 2.297-6.042 0-8.353-2.31-2.296-6.041-2.296-8.352.001z"/><path id="path39467" d="m143.792 406.276c-1.561.013-3.054.641-4.155 1.749-2.297 2.311-2.297 6.042 0 8.353l8.309 8.353c2.311 2.297 6.042 2.297 8.353 0 2.319-2.308 2.327-6.06.018-8.378-.006-.006-.012-.012-.018-.018l-8.309-8.309c-1.111-1.12-2.622-1.749-4.198-1.75z"/><path id="path39469" d="m203.573 471.961c-2.309 2.298-2.329 6.03-.045 8.353l8.353 8.353c2.311 2.297 6.042 2.297 8.353 0 2.319-2.308 2.327-6.06.018-8.378-.006-.006-.012-.012-.018-.018l-8.309-8.309c-2.311-2.297-6.042-2.297-8.353 0h.001z"/></g><path id="path790035" d="m1.552 582.028c-3.072.259-5.431 2.83-5.427 5.913v7.428l33.15 9.974c17.348 5.215 29.262 21.237 29.262 39.352v3.818l4.189 1.261c3.129.958 6.442-.802 7.4-3.93.17-.556.258-1.135.26-1.716v-11.281c0-18.115-11.914-34.137-29.262-39.352l-37.385-11.247c-.709-.21-1.45-.286-2.187-.224z" fill="#349951"/><path id="path808148" d="m232.541 582.028c-3.072.259-5.431 2.83-5.427 5.913v7.428l33.15 9.974c17.348 5.215 29.262 21.237 29.262 39.352v3.818l4.189 1.261c3.129.958 6.442-.802 7.4-3.93.17-.556.258-1.135.26-1.716v-11.281c0-18.115-11.914-34.137-29.262-39.352l-37.385-11.247c-.709-.21-1.45-.286-2.187-.224z" fill="#349951"/><path id="path770511" d="m2.014 638.36c-3.17.006-5.735 2.58-5.729 5.75v.023 122.799c-.018 3.17 2.537 5.754 5.707 5.773h.022 355.845c3.17-.006 5.735-2.58 5.729-5.75 0-.008 0-.015 0-.023v-122.8c.018-3.17-2.537-5.754-5.707-5.773-.007 0-.015 0-.022 0h-355.845z" fill="#9b615d"/><path id="path770517" d="m-3.719 683.145v83.783c-.019 3.17 2.536 5.755 5.705 5.774h.022 355.844c3.17 0 5.739-2.57 5.739-5.74 0-.011 0-.022 0-.034v-83.783z" fill="#311b13"/><path id="path770523" d="m-3.719 719.268v47.66c-.019 3.17 2.536 5.755 5.705 5.774h.022 47.672v-5.774c.005-26.255-21.416-47.657-47.671-47.66z" fill="#67352e"/><path id="path770529" d="m167.932 683.145v5.727c-.005 26.256 21.369 47.657 47.625 47.66 26.256-.002 47.676-21.404 47.671-47.66v-5.727z" fill="#67352e"/><path id="path770535" d="m154.681 713.316c-11.682 0-21.254 9.571-21.254 21.254-.001 11.682 9.571 21.297 21.254 21.297 11.682 0 21.298-9.615 21.297-21.297.001-11.683-9.614-21.254-21.297-21.254z" fill="#67352e"/><path id="path770541" d="m357.853 719.268c-26.256.003-47.665 21.404-47.66 47.66v5.774h47.66c3.17 0 5.739-2.57 5.739-5.74 0-.011 0-.022 0-.034v-47.66z" fill="#67352e"/><path id="path770547" d="m72.694 683.145c-2.227 3.907-3.506 8.411-3.506 13.202-.001 14.758 12.086 26.856 26.844 26.856s26.856-12.098 26.856-26.856c0-4.791-1.279-9.295-3.506-13.202z" fill="#67352e"/><path id="path775141" d="m179.915 421.932c-10.015.256-18.691 6.17-22.945 14.636 3.551-1.785 7.554-2.789 11.779-2.789 14.525 0 26.452 11.879 26.451 26.404-.001 4.215-1.006 8.211-2.789 11.756 8.651-4.356 14.635-13.319 14.637-23.604.002-14.525-11.925-26.404-26.451-26.404-.227 0-.457-.006-.682.001z" fill="#e97626"/><path id="path782986" d="m92.414 461.427c-1.983 0-3.967.179-5.924.533 6.41 1.153 12.539 4.196 17.472 9.129 12.878 12.88 12.878 33.958 0 46.838-2.512 2.512-6.182 3.005-9.314 4.582 3.173 1.581 6.855 2.101 9.395 4.64 12.878 12.88 12.878 33.958 0 46.838-4.928 4.928-11.051 7.961-17.46 9.117 10.327 1.847 21.371-1.18 29.308-9.117 12.878-12.88 12.878-33.958 0-46.838-2.54-2.541-6.223-3.058-9.395-4.64 3.133-1.576 6.802-2.071 9.314-4.582 12.878-12.88 12.878-33.958 0-46.838-6.439-6.44-14.917-9.661-23.396-9.662z" fill="#de527d"/><path id="path778336" d="m64.465 484.945c-9.626 0-19.279 3.67-26.589 10.981-2.029 2.029-3.776 4.235-5.242 6.572 6.08-3.803 13.042-5.704 19.983-5.704 9.626 0 19.233 3.669 26.543 10.98 12.592 12.588 14.338 32.048 5.242 46.549 2.35-1.471 4.567-3.225 6.607-5.265 14.622-14.621 14.622-38.516 0-53.133-7.311-7.311-16.918-10.98-26.544-10.98z" fill="#febe40"/><path id="path790030" d="m126.935 581.994c-.615-.01-1.228.077-1.817.256l-37.35 11.247c-9.487 2.852-17.341 8.931-22.517 16.824 3.244-2.127 6.818-3.818 10.668-4.975l37.35-11.247c3.131-.952 6.44.815 7.392 3.945.172.566.259 1.155.256 1.747v11.281c0 8.209-2.446 15.989-6.734 22.528 11.371-7.458 18.583-20.282 18.582-34.377v-11.281c.015-3.245-2.585-5.896-5.83-5.948z" fill="#349951"/><path id="path808150" d="m357.924 581.994c-.615-.01-1.228.077-1.817.256l-37.35 11.247c-9.487 2.852-17.341 8.931-22.517 16.824 3.244-2.127 6.818-3.818 10.668-4.975l37.35-11.247c3.131-.952 6.44.815 7.392 3.945.172.566.259 1.155.256 1.747v11.281c0 8.209-2.446 15.989-6.734 22.528 11.371-7.458 18.583-20.282 18.582-34.377v-11.281c.014-3.245-2.586-5.896-5.83-5.948z" fill="#349951"/><path id="path808500" d="m2.016 638.368c-3.178.006-5.746 2.595-5.727 5.774v17.923h299.796c24.194 0 43.807 19.613 43.807 43.807v66.832h17.969c3.174-.006 5.74-2.588 5.727-5.762v-122.8c.019-3.179-2.549-5.767-5.727-5.774z" fill="#8c4238"/><path id="path810843" d="m333.531 683.145c4.16 6.85 6.361 14.71 6.364 22.725v66.832h17.958.012c.429-.003.855-.053 1.273-.15.42-.097.827-.24 1.215-.428.374-.181.727-.402 1.053-.66.011-.006.024-.012.035-.024.023-.02.046-.039.069-.059.283-.237.543-.5.775-.787.049-.059.092-.124.139-.185.222-.289.416-.599.579-.926.021-.041.038-.084.058-.127.159-.349.284-.714.37-1.088.005-.018.019-.036.023-.059 0-.016 0-.032 0-.047.09-.403.137-.814.139-1.227v-.012-83.783z" fill="#46201c"/><path id="path813008" d="m295.498 484.945c-9.626 0-19.279 3.67-26.589 10.981-2.029 2.029-3.776 4.235-5.242 6.572 6.08-3.803 13.042-5.704 19.983-5.704 9.626 0 19.233 3.669 26.543 10.98 12.592 12.588 14.338 32.048 5.242 46.549 2.35-1.471 4.567-3.225 6.607-5.265 14.622-14.621 14.622-38.516 0-53.133-7.311-7.311-16.918-10.98-26.544-10.98z" fill="#febe40"/></g></g></svg>