<?xml version="1.0" encoding="iso-8859-1"?>
<!-- Generator: Adobe Illustrator 19.0.0, SVG Export Plug-In . SVG Version: 6.00 Build 0)  -->
<svg version="1.1" id="Layer_1" xmlns="http://www.w3.org/2000/svg" xmlns:xlink="http://www.w3.org/1999/xlink" x="0px" y="0px"
	 viewBox="0 0 512 512" style="enable-background:new 0 0 512 512;" xml:space="preserve">
<path style="fill:#FFC033;" d="M71.901,320.374c-4.47,0-8.8-1.767-12.009-4.976l-27.981-27.981
	c-9.625-9.617-14.929-22.414-14.929-36.029c0-13.612,5.302-26.412,14.929-36.038L232.343,14.928C241.949,5.305,254.749,0,268.371,0
	h141.718c28.098,0,50.957,22.859,50.957,50.957v33.972c0,9.381-7.605,16.986-16.986,16.986H302.343
	c-4.539,0-8.799,1.764-11.996,4.969L89.903,307.316c-1.213,1.213-2.219,2.566-2.989,4.02c-2.522,4.765-7.154,8.049-12.486,8.85
	C73.585,320.312,72.74,320.374,71.901,320.374z"/>
<path style="fill:#E6563A;" d="M243.629,512c-13.612,0-26.407-5.298-36.028-14.92L65.883,355.361
	c-15.95-15.933-19.56-40.024-8.981-59.942c2.344-4.428,5.369-8.514,8.98-12.126L266.315,82.871
	c9.606-9.623,22.405-14.928,36.028-14.928h141.718c28.098,0,50.957,22.859,50.957,50.957v141.718
	c0,13.607-5.302,26.402-14.929,36.028L279.657,497.079C270.037,506.7,257.241,512,243.629,512z"/>
<path style="fill:#D9472B;" d="M207.601,497.079c9.621,9.622,22.417,14.92,36.028,14.92c13.611,0,26.407-5.298,36.028-14.92
	l200.432-200.432c9.628-9.626,14.929-22.422,14.929-36.028V118.9c0-14.048-5.715-26.788-14.942-36.016L136.742,426.221
	L207.601,497.079z"/>
<path style="fill:#FFE0B2;" d="M376.118,237.799c-28.098,0-50.957-22.859-50.957-50.957s22.859-50.957,50.957-50.957
	c28.098,0,50.957,22.859,50.957,50.957S404.217,237.799,376.118,237.799z"/>
<path style="fill:#FDCD99;" d="M376.118,237.799c28.098,0,50.957-22.859,50.957-50.957c0-14.048-5.714-26.788-14.941-36.014
	l-72.031,72.031C349.331,232.085,362.069,237.799,376.118,237.799z"/>
<g>
</g>
<g>
</g>
<g>
</g>
<g>
</g>
<g>
</g>
<g>
</g>
<g>
</g>
<g>
</g>
<g>
</g>
<g>
</g>
<g>
</g>
<g>
</g>
<g>
</g>
<g>
</g>
<g>
</g>
</svg>
