<svg id="Capa_1" enable-background="new 0 0 510 510" height="512" viewBox="0 0 510 510" width="512" xmlns="http://www.w3.org/2000/svg" xmlns:xlink="http://www.w3.org/1999/xlink"><linearGradient id="lg1"><stop offset="0" stop-color="#5a5a5a"/><stop offset="1" stop-color="#444"/></linearGradient><linearGradient id="SVGID_1_" gradientUnits="userSpaceOnUse" x1="51.341" x2="64.057" xlink:href="#lg1" y1="166.319" y2="166.319"/><linearGradient id="SVGID_00000140717175566217885510000001545742037592423824_" gradientTransform="matrix(0 1 1 0 1099.91 -1099.91)" gradientUnits="userSpaceOnUse" x1="1226.59" x2="1521.114" xlink:href="#lg1" y1="-950.885" y2="-656.36"/><linearGradient id="SVGID_00000165219283155892940930000008001180057306422912_" gradientTransform="matrix(0 1 1 0 1099.91 -1099.91)" gradientUnits="userSpaceOnUse" x1="1435.695" x2="1301.534" xlink:href="#lg1" y1="-632.136" y2="-969.849"/><linearGradient id="lg2"><stop offset="0" stop-color="#433f43" stop-opacity="0"/><stop offset="1" stop-color="#1a1a1a"/></linearGradient><linearGradient id="SVGID_00000049193962141984135460000015634436146265930113_" gradientUnits="userSpaceOnUse" x1="285.865" x2="285.865" xlink:href="#lg2" y1="393.953" y2="454.032"/><linearGradient id="SVGID_00000165226878521853654130000010049189959465891763_" gradientUnits="userSpaceOnUse" x1="315.573" x2="263.581" xlink:href="#lg1" y1="459.394" y2="407.402"/><linearGradient id="SVGID_00000176741100043471020170000006553698241539549107_" gradientUnits="userSpaceOnUse" x1="236.042" x2="144.306" xlink:href="#lg2" y1="412.51" y2="382.341"/><linearGradient id="lg3"><stop offset="0" stop-color="#eaf6ff"/><stop offset="1" stop-color="#b3dafe"/></linearGradient><linearGradient id="SVGID_00000041998316081132809840000016729565760489100703_" gradientUnits="userSpaceOnUse" x1="212.076" x2="431.342" xlink:href="#lg3" y1="177.454" y2="396.72"/><linearGradient id="lg4"><stop offset="0" stop-color="#7bacdf" stop-opacity="0"/><stop offset="1" stop-color="#7bacdf"/></linearGradient><linearGradient id="SVGID_00000043416871602170642300000009767448420867668631_" gradientUnits="userSpaceOnUse" x1="258.734" x2="410.708" xlink:href="#lg4" y1="215.933" y2="367.907"/><linearGradient id="SVGID_00000168823135265068454840000016723920736566136764_" gradientUnits="userSpaceOnUse" x1="161.658" x2="250.443" y1="130.052" y2="218.837"><stop offset="0" stop-color="#bbec6c"/><stop offset="1" stop-color="#81b823"/></linearGradient><linearGradient id="SVGID_00000163048771434415375000000010423279394182438279_" gradientUnits="userSpaceOnUse" x1="176.936" x2="130.269" y1="189.662" y2="119.328"><stop offset="0" stop-color="#78a91f" stop-opacity="0"/><stop offset="1" stop-color="#026841"/></linearGradient><linearGradient id="SVGID_00000133487108512078011590000016627356720038854290_" gradientUnits="userSpaceOnUse" x1="219.313" x2="150.313" xlink:href="#lg4" y1="385.081" y2="355.081"/><linearGradient id="SVGID_00000087394097289144890810000015968913053821010834_" gradientUnits="userSpaceOnUse" x1="93.416" x2="348.869" y1="79.069" y2="334.522"><stop offset="0" stop-color="#e1d3ce"/><stop offset="1" stop-color="#9e9797"/></linearGradient><linearGradient id="lg5"><stop offset="0" stop-color="#fd4755"/><stop offset="1" stop-color="#a72b2b"/></linearGradient><linearGradient id="SVGID_00000072991836365291179880000009904837235904484766_" gradientUnits="userSpaceOnUse" x1="219.687" x2="448.574" xlink:href="#lg5" y1="194.212" y2="423.1"/><linearGradient id="SVGID_00000032606785387921119830000011863994922161829275_" gradientUnits="userSpaceOnUse" x1="495.674" x2="439.618" xlink:href="#lg2" y1="197.368" y2="141.313"/><linearGradient id="SVGID_00000073682338855826861230000002428066965979576750_" gradientUnits="userSpaceOnUse" x1="483.167" x2="445.955" y1="224.5" y2="187.288"><stop offset="0" stop-color="#a72b2b" stop-opacity="0"/><stop offset="1" stop-color="#42210b"/></linearGradient><linearGradient id="SVGID_00000086662144758627335310000002895546993075882943_" gradientUnits="userSpaceOnUse" x1="373.456" x2="476.825" xlink:href="#lg5" y1="46.796" y2="150.166"/><linearGradient id="SVGID_00000106134279373963373960000013501686369381124258_" gradientUnits="userSpaceOnUse" x1="461.758" x2="389.912" xlink:href="#lg5" y1="121.999" y2="50.153"/><linearGradient id="SVGID_00000107568685339293292130000017109789918410110651_" gradientUnits="userSpaceOnUse" x1="91.583" x2="91.583" y1="114.758" y2="536.847"><stop offset="0" stop-color="#ffeee6"/><stop offset="1" stop-color="#ffb09e"/></linearGradient><linearGradient id="SVGID_00000124870328869516107980000017082457947322504064_" gradientUnits="userSpaceOnUse" x1="89.476" x2="89.476" y1="436.211" y2="468.993"><stop offset="0" stop-color="#f89580" stop-opacity="0"/><stop offset=".9972" stop-color="#c5715a"/></linearGradient><linearGradient id="lg6"><stop offset="0" stop-color="#b3dafe"/><stop offset="1" stop-color="#0182fc"/></linearGradient><linearGradient id="SVGID_00000111178734985019495240000003095921180505448580_" gradientUnits="userSpaceOnUse" x1="94.267" x2="94.267" xlink:href="#lg6" y1="444.744" y2="512.128"/><linearGradient id="SVGID_00000065753760772738772730000014084330494968917891_" gradientUnits="userSpaceOnUse" x1="247.332" x2="357.434" xlink:href="#lg6" y1="229.667" y2="339.769"/><linearGradient id="SVGID_00000040549164310930753230000002219311493122732960_" gradientUnits="userSpaceOnUse" x1="133.183" x2="160.386" xlink:href="#lg3" y1="141.915" y2="169.118"/><linearGradient id="SVGID_00000157293147184675157500000016975898385959981726_" gradientTransform="matrix(-1 0 0 1 650.293 0)" gradientUnits="userSpaceOnUse" x1="511.563" x2="509.08" xlink:href="#lg4" y1="156.123" y2="165.732"/><linearGradient id="SVGID_00000132087962992117150100000010232472865286887822_" gradientUnits="userSpaceOnUse" x1="163.27" x2="160.787" xlink:href="#lg4" y1="156.123" y2="165.732"/><linearGradient id="SVGID_00000021115065364024710720000018011359965243568562_" gradientUnits="userSpaceOnUse" x1="163.059" x2="137.364" xlink:href="#lg4" y1="147.849" y2="165.015"/><g><g><g><g><path d="m68.742 192.756h-7.697c-5.36 0-9.705-4.345-9.705-9.705v-33.465c0-5.36 4.345-9.705 9.705-9.705h7.697z" fill="url(#SVGID_1_)"/></g></g><g><g><path d="m510 393.176v-259.313c0-35.966-29.156-65.121-65.121-65.121h-318.028c-35.966 0-65.122 29.156-65.122 65.122v259.312c0 35.966 29.156 65.122 65.122 65.122h318.028c35.965-.001 65.121-29.157 65.121-65.122z" fill="url(#SVGID_00000140717175566217885510000001545742037592423824_)"/><path d="m434.58 83.51h-297.431c-31.503 0-57.041 25.538-57.041 57.041v245.937c0 31.503 25.538 57.041 57.041 57.041h297.431c31.503 0 57.041-25.538 57.041-57.041v-245.937c0-31.503-25.538-57.041-57.041-57.041z" fill="url(#SVGID_00000165219283155892940930000008001180057306422912_)"/><path d="m61.729 276.417v116.758c0 35.966 29.156 65.122 65.122 65.122h318.028c35.966 0 65.122-29.156 65.122-65.122v-116.758z" fill="url(#SVGID_00000049193962141984135460000015634436146265930113_)"/><path d="m316.986 444.242h-62.244c-8.04 0-14.557-6.517-14.557-14.557 0-8.04 6.517-14.557 14.557-14.557h62.244c8.04 0 14.557 6.517 14.557 14.557 0 8.04-6.517 14.557-14.557 14.557z" fill="url(#SVGID_00000165226878521853654130000010049189959465891763_)"/><path d="m176.838 315.236-38.149 38.15v104.911h181.211z" fill="url(#SVGID_00000176741100043471020170000006553698241539549107_)"/></g><path d="m473.928 146.073v210.337c0 24.966-20.239 45.205-45.205 45.205h-285.717c-24.966 0-45.205-20.239-45.205-45.205v-210.337c0-24.966 20.239-45.205 45.205-45.205h285.717c24.966 0 45.205 20.239 45.205 45.205z" fill="url(#SVGID_00000041998316081132809840000016729565760489100703_)"/><path d="m473.927 278.251v-18.911c-16.778 10.988-29.065 28.292-33.429 48.519l-15.807-15.807c-7.224-7.224-11.234-17.028-11.25-27.243-.046-29.411-23.987-53.325-53.408-53.325h-41.852c-4.107 0-7.688 3.164-7.811 7.269-.128 4.247 3.278 7.731 7.496 7.731h42.343c21.299 0 38.112 17.424 38.233 38.722.081 14.148 5.629 27.438 15.643 37.452l13.377 13.377c8.367 8.367 11.128 20.963 6.638 31.91-.054.132-.109.263-.163.395-4.566 10.916-15.425 17.871-27.258 17.871h-30.812c-8.008 0-14.5-6.492-14.5-14.5v-7.099c0-16.052-12.562-29.638-28.608-30.114-16.672-.495-30.392 12.924-30.392 29.487v21.887c0 3.846-1.528 7.534-4.247 10.253l-25.49 25.49h21.213l14.884-14.884c5.572-5.572 8.641-12.98 8.641-20.86v-21.466c0-7.798 5.98-14.518 13.769-14.903 8.326-.411 15.231 6.244 15.231 14.482v7.727c0 16.292 13.208 29.5 29.5 29.5h30.333c-9.839 7.956-20.405 14.775-31.531 20.404h29.228c9.671-6.655 18.745-14.195 27.149-22.599 14.045-14.446 22.139-33.649 22.674-53.79l.072-2.693c.464-17.545 8.142-33.231 20.134-44.282z" fill="url(#SVGID_00000043416871602170642300000009767448420867668631_)"/><path d="m143.006 100.868c-24.966 0-45.205 20.239-45.205 45.205v148.983c11.594-3.177 23.59-4.793 35.732-4.793h14.089c25.926 0 46.772-20.301 47.46-46.218l.071-2.692c.638-23.978 10.195-46.652 26.914-63.849.049-.051.099-.101.148-.15 19.463-19.463 42.227-34.674 67.658-45.208 22.853-9.466 46.855-14.724 71.46-15.696v-15.582z" fill="url(#SVGID_00000168823135265068454840000016723920736566136764_)"/><path d="m154.872 125.217-32.622 43.783 72.888 72.888.014-.536c.543-20.432 7.584-39.905 19.993-55.861z" fill="url(#SVGID_00000163048771434415375000000010423279394182438279_)"/><path d="m138.689 401.405c1.421.135 2.86.21 4.317.21h120.212l-86.379-86.379-38.15 38.15z" fill="url(#SVGID_00000133487108512078011590000016627356720038854290_)"/><path d="m390.974 144.411-35.833 35.833c-5.572 5.572-8.641 12.98-8.641 20.86v21.466c0 7.798-5.98 14.518-13.769 14.903-8.326.411-15.231-6.244-15.231-14.482v-7.727c0-16.292-13.207-29.5-29.5-29.5h-30.333c31.577-25.534 70.602-39.44 111.772-39.494 4.071-.005 7.604-3.178 7.738-7.246.141-4.258-3.269-7.754-7.496-7.754-25.547 0-50.467 4.957-74.07 14.733-23.601 9.776-44.728 23.892-62.791 41.956-14.045 14.446-22.139 33.649-22.674 53.79l-.072 2.693c-.899 33.848-28.596 60.819-62.455 60.819h-14.089c-12.3 0-24.314 1.853-35.731 5.413v16.046c11.763-4.252 24.303-6.459 37.023-6.459h12.797c37.122 0 68.218-26.242 75.748-61.146l15.807 15.807c7.224 7.224 11.234 17.028 11.25 27.243.046 29.411 23.987 53.325 53.408 53.325h41.853c4.107 0 7.688-3.164 7.811-7.269.128-4.247-3.278-7.731-7.496-7.731h-42.343c-21.299 0-38.112-17.424-38.233-38.722-.081-14.148-5.629-27.438-15.643-37.452l-13.377-13.377c-8.367-8.367-11.128-20.963-6.638-31.91.054-.132.108-.263.163-.395 4.566-10.916 15.425-17.871 27.258-17.871h30.812c8.008 0 14.5 6.492 14.5 14.5v7.099c0 16.052 12.562 29.638 28.608 30.114 16.672.495 30.392-12.924 30.392-29.487v-21.887c0-3.846 1.528-7.534 4.247-10.253l36.056-36.056c2.983-2.983 2.928-7.854-.166-10.767-2.988-2.814-7.758-2.519-10.662.385z" fill="url(#SVGID_00000087394097289144890810000015968913053821010834_)"/></g></g><path d="m422.113 209.275c0 14.06-11.438 25.499-25.498 25.499-22.331 0-40.499 18.167-40.499 40.498v24.316c0 22.941-8.934 44.508-25.155 60.729l-2.272 2.272c-10.302 10.302-24 15.976-38.569 15.976-14.57 0-28.268-5.674-38.57-15.976-13.135-13.136-30.6-20.37-49.176-20.37s-36.041 7.234-49.176 20.37c-10.763 10.763-20.189 22.563-28.21 35.283 4.783 2.081 9.994 3.362 15.467 3.667 6.776-10.073 14.573-19.567 23.349-28.344 10.302-10.302 24-15.976 38.57-15.976s28.267 5.674 38.569 15.976c13.135 13.136 30.6 20.37 49.176 20.37s36.041-7.234 49.176-20.37l2.272-2.272c19.055-19.054 29.548-44.388 29.548-71.336v-24.316c0-14.06 11.438-25.498 25.499-25.498 22.331 0 40.498-18.167 40.498-40.499v-95.994h-15v95.995z" fill="url(#SVGID_00000072991836365291179880000009904837235904484766_)"/><path d="m444.878 68.742h-26.878v155.758l92 92v-182.637c0-35.965-29.156-65.121-65.122-65.121z" fill="url(#SVGID_00000032606785387921119830000011863994922161829275_)"/><path d="m437.113 209.275v-95.995h-15v95.995c0 5.109-1.516 9.867-4.113 13.861v1.364l10.147 10.147c5.602-6.948 8.966-15.772 8.966-25.372z" fill="url(#SVGID_00000073682338855826861230000002428066965979576750_)"/><g><path d="m436.927 220.422 58.95-89.318c37.095-56.204-3.213-131.104-70.556-131.104-67.343 0-107.651 74.9-70.556 131.104l58.95 89.318c5.497 8.328 17.716 8.328 23.212 0z" fill="url(#SVGID_00000086662144758627335310000002895546993075882943_)"/><circle cx="425.883" cy="86.124" fill="url(#SVGID_00000106134279373963373960000013501686369381124258_)" r="57.272"/></g><g><g><g><g><g><g><g><g><path d="m181.557 341.359c-.392 1.074-.863 2.148-1.395 3.193-10.832 20.902-17.278 43.852-18.894 67.424-.301 4.508-.12 9.025.412 13.513 1.667 14.125 5.471 48.319 4.588 59.805 0 .11-.01.211-.03.321.03-.321-144.487-17.609-144.487-17.609l-8.694-40.89-8.423-41.453c-12.68-65.075.914-132.52 37.748-187.455l9.246-12.77c1.064 4.207 4.879 7.319 9.417 7.319h.683v112.883c-.04 1.797-.03 3.604 0 5.411.08 3.976.341 7.951.783 11.927 2.701 24.376 4.548 34.104 21.956 65.306 3.032 5.431 8.965 6.104 13.162 1.506l1.145-1.275c9.457-24.506 21.143-48.069 34.927-70.396 7.901-12.81 24.867-16.525 37.447-8.232 10.469 6.885 14.585 19.977 10.409 31.472z" fill="url(#SVGID_00000107568685339293292130000017109789918410110651_)"/></g></g><path d="m21.751 468.004-8.696-40.889-.501-2.469 148.597-6.951c.046 2.603.22 5.208.53 7.789 1.662 14.13 5.467 48.325 4.587 59.81-.006.105-.012.209-.031.32.03-.321-144.486-17.61-144.486-17.61z" fill="url(#SVGID_00000124870328869516107980000017082457947322504064_)"/></g></g></g></g></g><path d="m178.549 475.866v13.456c0 11.42-9.258 20.678-20.678 20.678h-127.209c-11.42 0-20.678-9.258-20.678-20.678v-13.456c0-11.42 9.258-20.678 20.678-20.678h127.209c11.42 0 20.678 9.258 20.678 20.678z" fill="url(#SVGID_00000111178734985019495240000003095921180505448580_)"/></g><path d="m301.91 248.101.126.054c2.004.852 4.109 1.478 6.275 1.698 12.774 1.297 22.743 12.086 22.743 25.203v15.333c0 13.991-11.342 25.333-25.333 25.333h-10.667c-13.991 0-25.333-11.342-25.333-25.333 0-8.915-3.339-17.519-9.409-24.047-4.477-4.815-8.868-10.834-8.868-15.925v-6.389c0-10.386 8.42-18.806 18.806-18.806h3.278c7.79 0 14.473 4.736 17.328 11.486 2.144 5.072 5.986 9.238 11.054 11.393z" fill="url(#SVGID_00000065753760772738772730000014084330494968917891_)"/><g><path d="m147.128 125.217-25.769 39.044c-1.998 3.028.917 6.887 4.375 5.792l18.232-5.77c4.577-1.448 9.489-1.448 14.066 0l18.232 5.77c3.459 1.095 6.374-2.764 4.375-5.792l-25.769-39.044c-1.832-2.778-5.908-2.778-7.742 0z" fill="url(#SVGID_00000040549164310930753230000002219311493122732960_)"/><path d="m143.967 164.283-18.232 5.77c-3.459 1.095-6.374-2.764-4.376-5.792l25.769-39.044c.917-1.389 2.394-2.084 3.872-2.084v40.063c-2.372 0-4.745.363-7.033 1.087z" fill="url(#SVGID_00000157293147184675157500000016975898385959981726_)"/><path d="m158.033 164.283 18.232 5.77c3.459 1.095 6.374-2.764 4.376-5.792l-25.769-39.044c-.917-1.389-2.394-2.084-3.872-2.084v40.063c2.372 0 4.745.363 7.033 1.087z" fill="url(#SVGID_00000132087962992117150100000010232472865286887822_)"/><path d="m158.033 164.283 18.232 5.77c3.459 1.095 6.374-2.764 4.376-5.792l-25.769-39.044c-.917-1.389-2.394-2.084-3.872-2.084v40.063c2.372 0 4.745.363 7.033 1.087z" fill="url(#SVGID_00000021115065364024710720000018011359965243568562_)"/></g></g></svg>