<svg id="Layer_1" enable-background="new 0 0 74 74" height="512" viewBox="0 0 74 74" width="512" xmlns="http://www.w3.org/2000/svg"><g><g><path d="m41.91 30.12c-8.89-11.36-19.94-12.41-33.79-3.23l-1.79-2.7c15.32-10.16 28.15-8.83 38.14 3.93z" fill="#e2422d"/></g><g><path d="m15.66 40.2c-.15 0-.27-.12-.27-.27v-7.35c0-.15.12-.27.27-.27h2.04c.15 0 .27.12.27.27s-.12.27-.27.27h-1.77v7.08c0 .15-.12.27-.27.27z" fill="#413535"/></g><g><path d="m50.66 26.92v9.47h-10.58l-3.8 12.11h-18.58v-18.34l3.24-3.24z" fill="#f75337"/></g><g><path d="m31.11 48.5h-13.41v-8.92c1.14-.48 2.41-.75 3.73-.75 5.34 0 9.68 4.32 9.68 9.67z" fill="#e2422d"/></g><g><path d="m17.62 44.38h14.42v4.12h-14.42z" fill="#f1e6e4"/></g><g><path d="m30.18 44.38c.59 1.25.93 2.65.93 4.12h-13.41v-4.12z" fill="#e0d3d1"/></g><g><g><path d="m17.62 44.92h13.88v3.58h1.08v-4.12c0-.3-.24-.54-.54-.54h-14.42c-.3 0-.54.24-.54.54s.24.54.54.54z" fill="#ff624d"/></g></g><g><path d="m30.42 44.92h-12.72v-1.08h12.2c.2.35.38.71.52 1.08z" fill="#f75337"/></g><g><g><path d="m25.2 26.92-3.46 3.46v17.39h-1.08v-17.84l3.01-3.01z" fill="#e2422d"/></g></g><g><g><path d="m34.99 28.65h15.67v3.31h-15.67z" fill="#e2422d"/></g><g><path d="m50.66 33.46v2.93h-10.58l-.12.39h-4.98v-3.32z" fill="#e2422d"/></g><g><path d="m39.49 38.28-1.04 3.3h-3.47v-3.3z" fill="#e2422d"/></g><g><path d="m37.98 43.08-1.04 3.32h-1.96v-3.32z" fill="#e2422d"/></g></g><g><path d="m55.97 19.66-2.81 16.34h-11.88v-16.34z" fill="#9cf"/></g><g opacity=".2"><path d="m54.91 25.8-1.08 6.29-12.43-12.43h7.37z" fill="#fff"/></g><g opacity=".2"><path d="m53.47 34.24-.31 1.76h-2.88l-9-9v-4.94z" fill="#fff"/></g><g><path d="m41.28 36.5c-.28 0-.5-.22-.5-.5v-16.34c0-.28.22-.5.5-.5h14.7c.28 0 .5.22.5.5s-.22.5-.5.5h-14.2v15.84c0 .27-.23.5-.5.5z" fill="#ff624d"/></g><g><path d="m50.65 40.83v7.64l10.81-1.32v-7.64z" fill="#f1e6e4"/></g><g><path d="m50.66 48.49v-12.1h-10.58l-3.8 12.1z" fill="#f1e6e4"/></g><g><g><g><g><path d="m52.48 31.79h.54v4.6h-.54z" fill="#413535"/></g></g><g><g><path d="m49.74 31.79h.54v4.6h-.54z" fill="#413535"/></g></g><g><g><path d="m47 31.79h.54v4.6h-.54z" fill="#413535"/></g></g><g><g><path d="m44.26 31.79h.54v4.6h-.54z" fill="#413535"/></g></g><g><g><path d="m41.52 31.79h.54v4.6h-.54z" fill="#413535"/></g></g></g><g><path d="m34.97 48.49 5.06-16.13c.06-.19.23-.31.42-.31h13.69c.15 0 .27-.12.27-.27s-.12-.27-.27-.27h-13.69c-.43 0-.81.28-.94.69l-5.11 16.29z" fill="#413535"/></g></g><g><path d="m36.85 48.49 3.63-11.57h12.88c.3 0 .54-.24.54-.54s-.24-.54-.54-.54h-13.28c-.24 0-.44.15-.52.38l-3.85 12.27z" fill="#ff624d"/></g><g><path d="m24.31 29.95h8.94v.9h-8.94z" fill="#e2422d"/></g><g><path d="m24.31 31.99h8.94v.9h-8.94z" fill="#e2422d"/></g><g><path d="m24.31 34.04h8.94v.9h-8.94z" fill="#e2422d"/></g><g><path d="m24.31 36.08h8.94v.9h-8.94z" fill="#e2422d"/></g><g><path d="m13.91 39.3h.72v2.03h-.72z" fill="#e2422d"/></g><g><path d="m14.62 38.7h3.08v3.16h-3.08z" fill="#f75337"/></g><g><path d="m15.4 41.86h2.3v1.53h-2.3z" fill="#e2422d"/></g><g><g><circle cx="21.43" cy="48.49" fill="#413535" r="8.03"/></g><g><path d="m22.17 57.06 1.5-.26-.06-2.31 1.44 1.81 1.32-.76-.84-2.15 1.97 1.2.98-1.16-1.53-1.74 2.27.46.52-1.43-2.03-1.11 2.29-.36v-1.52l-2.29-.35 2.03-1.11-.52-1.43-2.27.46 1.53-1.74-.98-1.16-1.97 1.2.84-2.15-1.32-.76-1.44 1.81.06-2.31-1.5-.26-.74 2.19-.74-2.19-1.5.26.06 2.31-1.44-1.81-1.32.76.84 2.15-1.97-1.2-.98 1.16 1.53 1.74-2.27-.46-.52 1.43 2.03 1.11-2.29.35v1.52l2.29.35-2.03 1.11.52 1.43 2.27-.46-1.53 1.74.98 1.16 1.97-1.2-.84 2.15 1.32.76 1.44-1.81-.06 2.31 1.5.26.74-2.19z" fill="#494040"/></g><g><circle cx="21.43" cy="48.49" fill="#413535" r="5.53"/></g><g><circle cx="21.43" cy="48.49" fill="#332929" r="4.82"/></g><g><circle cx="21.43" cy="48.49" fill="#f1e6e4" r="3.26"/></g><g><circle cx="21.43" cy="48.49" fill="#e0d3d1" r="2.77"/></g><g><circle cx="21.43" cy="48.49" fill="#f1e6e4" r="1.61"/></g><g><g><g><circle cx="19.25" cy="48.49" fill="#f1e6e4" r=".32"/></g><g><circle cx="23.62" cy="48.49" fill="#f1e6e4" r=".32"/></g></g><g><g><circle cx="19.89" cy="50.04" fill="#f1e6e4" r=".32"/></g><g><circle cx="22.98" cy="46.95" fill="#f1e6e4" r=".32"/></g></g><g><g><circle cx="21.43" cy="50.68" fill="#f1e6e4" r=".32"/></g><g><circle cx="21.43" cy="46.3" fill="#f1e6e4" r=".32"/></g></g><g><g><circle cx="22.98" cy="50.04" fill="#f1e6e4" r=".32"/></g><g><circle cx="19.89" cy="46.95" fill="#f1e6e4" r=".32"/></g></g></g></g><g><g><circle cx="48.05" cy="48.49" fill="#413535" r="8.03"/></g><g><path d="m48.79 57.06 1.5-.26-.06-2.31 1.44 1.81 1.32-.76-.84-2.15 1.97 1.2.98-1.16-1.53-1.74 2.27.46.52-1.43-2.03-1.11 2.29-.35v-1.52l-2.29-.35 2.03-1.11-.52-1.43-2.27.46 1.53-1.74-.98-1.16-1.97 1.2.84-2.15-1.32-.76-1.44 1.81.06-2.31-1.5-.26-.74 2.19-.74-2.19-1.5.26.06 2.31-1.44-1.81-1.32.76.84 2.15-1.97-1.2-.98 1.16 1.53 1.74-2.27-.46-.52 1.43 2.03 1.11-2.29.35v1.52l2.29.35-2.03 1.11.52 1.43 2.27-.46-1.53 1.72.98 1.16 1.97-1.2-.84 2.15 1.32.76 1.44-1.81-.06 2.31 1.5.26.74-2.19z" fill="#494040"/></g><g><circle cx="48.05" cy="48.49" fill="#413535" r="5.53"/></g><g><circle cx="48.05" cy="48.49" fill="#332929" r="4.82"/></g><g><circle cx="48.05" cy="48.49" fill="#f1e6e4" r="3.26"/></g><g><circle cx="48.05" cy="48.49" fill="#e0d3d1" r="2.77"/></g><g><circle cx="48.05" cy="48.49" fill="#f1e6e4" r="1.61"/></g><g><g><g><circle cx="45.86" cy="48.49" fill="#f1e6e4" r=".32"/></g><g><circle cx="50.24" cy="48.49" fill="#f1e6e4" r=".32"/></g></g><g><g><circle cx="46.5" cy="50.04" fill="#f1e6e4" r=".32"/></g><g><circle cx="49.6" cy="46.95" fill="#f1e6e4" r=".32"/></g></g><g><g><circle cx="48.05" cy="50.68" fill="#f1e6e4" r=".32"/></g><g><circle cx="48.05" cy="46.3" fill="#f1e6e4" r=".32"/></g></g><g><g><circle cx="49.6" cy="50.04" fill="#f1e6e4" r=".32"/></g><g><circle cx="46.5" cy="46.95" fill="#f1e6e4" r=".32"/></g></g></g></g><g><path d="m57.73 45.18 1.92 7.05c.46 1.68 1.98 2.84 3.71 2.84h1.79c2.13 0 3.85-1.72 3.85-3.85 0-1.03-.6-1.96-1.54-2.39-.59-.26-.96-.85-.96-1.49v-1.63c0-1.37-.92-2.57-2.24-2.93l-3.26-.88c-.78-.21-1.61-.06-2.26.41-.9.66-1.3 1.8-1.01 2.87z" fill="#ff624d"/></g><g><path d="m58.88 49.43.76 2.8c.46 1.68 1.98 2.84 3.71 2.84h1.79c2.12 0 3.85-1.72 3.85-3.85 0-.69-.29-1.31-.74-1.79z" fill="#e2422d"/></g><g><path d="m68.91 50.61c-.19-.77-.71-1.44-1.45-1.77-.03-.01-.05-.03-.07-.05h-8.68l.49 1.82z" fill="#f75337"/></g><g><path d="m57.91 45.87.4 1.45h8.18v-1.45z" fill="#f75337"/></g><g><path d="m67.58 52.87c0 1.9-1.54 3.44-3.43 3.44-1.9 0-3.44-1.54-3.44-3.44s1.54-3.44 3.44-3.44c1.89 0 3.43 1.54 3.43 3.44z" fill="#494040"/></g><g><path d="m65.83 52.87c0 .94-.76 1.69-1.69 1.69-.94 0-1.69-.76-1.69-1.69s.76-1.69 1.69-1.69c.94 0 1.69.75 1.69 1.69z" fill="#f1e6e4"/></g><g><path d="m61.13 43.91c0 .53-.43.96-.95.96-.53 0-.96-.43-.96-.96 0-.52.43-.95.96-.95.52 0 .95.43.95.95z" fill="#f75337"/></g><g><g><path d="m64.15 53.14c-.15 0-.27-.11-.27-.26l-.2-6.42-3.64-2.31c-.13-.08-.16-.25-.08-.37.08-.13.25-.16.37-.08l3.76 2.39c.08.05.12.13.13.22l.2 6.56c0 .14-.12.26-.27.27z" fill="#e2422d"/></g></g><g><g><path d="m37.52 26.21c-.26-.23-.53-.45-.79-.67l2.71-3.37c.32.25.63.52.94.79zm-23.97-1.86-1.93-3.86c.36-.18.72-.35 1.08-.52l1.82 3.92c-.33.15-.65.3-.97.46zm18.84-1.52c-.31-.14-.62-.27-.93-.39l1.57-4.02c.39.15.77.32 1.16.49zm-12.92-.78-1.13-4.17c.4-.11.79-.21 1.19-.3l.95 4.21c-.33.09-.67.17-1.01.26zm7.11-.74c-.33-.03-.67-.04-1.01-.05l.11-4.32c.42.01.84.03 1.25.07z" fill="#f75337"/></g></g><g><path d="m8.61 22.83v5.85h-3.61l.96-4.73z" fill="#413535"/></g></g></svg>