<svg id="Layer_1" enable-background="new 0 0 511.832 511.832" height="512" viewBox="0 0 511.832 511.832" width="512" xmlns="http://www.w3.org/2000/svg"><g><path d="m0 78.584h511.832v120.006h-511.832z" fill="#ff5b5b"/><path d="m255.917 78.584h255.915v120.006h-255.915z" fill="#d10050"/><path d="m0 168.59h511.832v324.662h-511.832z" fill="#fff5f5"/><path d="m255.917 168.59h255.915v324.662h-255.915z" fill="#e1ebf0"/><path d="m356.054 303.757c-6.8-20.931-26.147-34.994-48.144-34.994-.998 0-1.995.03-2.989.089-5.681-21.746-25.493-37.841-48.993-37.841s-43.313 16.096-48.993 37.841c-.994-.059-1.991-.089-2.989-.089-21.996 0-41.344 14.063-48.144 34.993-7.261 22.345 1.919 46.156 20.838 58.282-3.264 8.296-4.272 17.346-2.841 26.384 2.116 13.357 9.307 25.09 20.247 33.04 8.709 6.327 18.989 9.672 29.73 9.672 11.817 0 23.184-4.168 32.151-11.513 8.969 7.345 20.333 11.513 32.151 11.513h.002c10.739 0 21.02-3.345 29.728-9.672 10.941-7.949 18.132-19.683 20.248-33.04 1.432-9.038.424-18.086-2.841-26.384 18.921-12.123 28.1-35.935 20.839-58.281z" fill="#ffa9a3"/><path d="m356.054 303.757c-6.8-20.931-26.147-34.994-48.144-34.994-.998 0-1.995.03-2.989.089-5.681-21.746-25.493-37.841-48.993-37.841-.004 0-.007 0-.011 0v188.619c.004-.003.007-.006.011-.008 8.969 7.345 20.333 11.513 32.151 11.513h.002c10.739 0 21.02-3.345 29.728-9.672 10.941-7.949 18.132-19.683 20.248-33.04 1.432-9.038.424-18.086-2.841-26.384 18.92-12.124 28.099-35.936 20.838-58.282z" fill="#ff5b5b"/><circle cx="255.905" cy="330.921" fill="#fff1b6" r="26.356"/><g fill="#4b5055"><path d="m375.924 18.58c-24.814 0-45.002 20.188-45.002 45.002v15.002h30v-15.002c0-8.272 6.729-15.002 15.002-15.002s15.002 6.73 15.002 15.002v74.282h30v-74.282c0-24.814-20.188-45.002-45.002-45.002z"/><path d="m255.928 18.58c-24.814 0-45.002 20.188-45.002 45.002v15.002h30v-15.002c0-8.272 6.729-15.002 15.002-15.002s15.002 6.73 15.002 15.002v74.282h30v-74.282c0-24.814-20.188-45.002-45.002-45.002z"/><path d="m135.909 18.58c-24.814 0-45.002 20.188-45.002 45.002v15.002h30v-15.002c0-8.272 6.729-15.002 15.002-15.002s15.002 6.73 15.002 15.002v74.282h30v-74.282c0-24.814-20.187-45.002-45.002-45.002z"/></g><path d="m375.924 18.58c-24.814 0-45.002 20.188-45.002 45.002v15.002h30v-15.002c0-8.272 6.729-15.002 15.002-15.002s15.002 6.73 15.002 15.002v74.282h30v-74.282c0-24.814-20.188-45.002-45.002-45.002z" fill="#373c41"/><path d="m270.93 63.582v74.282h30v-74.282c0-24.814-20.188-45.002-45.002-45.002-.004 0-.007 0-.011 0v30c.004 0 .007-.001.011-.001 8.272.001 15.002 6.731 15.002 15.003z" fill="#373c41"/><path d="m282.261 330.921c0-14.552-11.793-26.349-26.344-26.355v52.711c14.551-.007 26.344-11.804 26.344-26.356z" fill="#ffda44"/></g></svg>