<svg id="Flat" height="512" viewBox="0 0 512 512" width="512" xmlns="http://www.w3.org/2000/svg"><path d="m362.03 327.55c-4.71 14.01-23.39 21.67-30.21 33.96-7.19 12.95-3.96 32.78-13.16 43.41-9.71 11.2-29.84 10.73-41.4 18.85-10.4 7.3-16.77 22.46-27.09 29.36a21.173 21.173 0 0 1 -5.19 2.59 23.109 23.109 0 0 1 -8.25 1.06 20.12 20.12 0 0 0 -20.64 20.21v11.01h-32.18v-11.01a20.12 20.12 0 0 0 -20.64-20.21 23.109 23.109 0 0 1 -8.25-1.06c-13.61-4.53-20.24-23.5-32.28-31.95-11.56-8.12-31.69-7.65-41.4-18.85-9.2-10.63-5.97-30.46-13.16-43.41-6.82-12.29-25.5-19.95-30.21-33.96-4.48-13.33 5.7-30.66 3.39-45.22-2.21-13.9-17.36-27.2-17.36-41.93s15.15-28.03 17.36-41.93c2.31-14.56-7.87-31.89-3.39-45.22 4.71-14.01 23.39-21.67 30.21-33.96 7.19-12.95 3.96-32.78 13.16-43.4 9.71-11.21 29.84-10.74 41.4-18.85 12.04-8.46 18.67-27.43 32.28-31.96 13.65-4.54 30.21 6.66 44.98 6.66s31.33-11.2 44.98-6.66c13.61 4.53 20.24 23.5 32.28 31.96 11.56 8.11 31.69 7.64 41.4 18.85 9.2 10.62 5.97 30.45 13.16 43.4 6.82 12.29 25.5 19.95 30.21 33.96 4.48 13.33-5.7 30.66-3.39 45.22.94 5.95 4.26 11.79 7.75 17.68 4.65 7.87 9.61 15.83 9.61 24.25 0 14.73-15.15 28.03-17.36 41.93-2.31 14.56 7.87 31.89 3.39 45.22z" fill="#84ba41"/><path d="m362.03 327.55c-4.71 14.01-23.39 21.67-30.21 33.96-7.19 12.95-3.96 32.78-13.16 43.41-9.71 11.2-29.84 10.73-41.4 18.85-10.4 7.3-16.77 22.46-27.09 29.36a144 144 0 0 1 109.83-237.13q3.21 0 6.39.15c4.65 7.87 9.61 15.83 9.61 24.25 0 14.73-15.15 28.03-17.36 41.93-2.31 14.56 7.87 31.89 3.39 45.22z" fill="#7b9e3e"/><circle cx="360" cy="360" fill="#e53d5d" r="128"/><rect fill="#0093b8" height="80" rx="40" transform="matrix(-1 0 0 -1 720 656)" width="112" x="304" y="288"/><path d="m456 304h-16v-104a16.019 16.019 0 0 0 -16-16h-112v-16h112a32.036 32.036 0 0 1 32 32z" fill="#f8bc1e"/><path d="m280 168h16v16h-16z" fill="#f8bc1e"/><g fill="#84ba41"><path d="m328 320h16v16h-16z"/><path d="m423.321 320a47.741 47.741 0 0 0 -8.219-19.788l11.81-11.81-11.312-11.314-11.81 11.81a47.723 47.723 0 0 0 -27.79-8.898h-8v-16h-16v16h-8a47.723 47.723 0 0 0 -27.788 8.9l-11.81-11.81-11.314 11.31 11.81 11.81a47.785 47.785 0 0 0 -8.223 19.79h-16.675v16h16.675a47.785 47.785 0 0 0 8.223 19.788l-11.81 11.81 11.312 11.314 11.81-11.81a47.723 47.723 0 0 0 27.79 8.898h8v16h16v-16h8a47.773 47.773 0 0 0 16.619-2.969l10.783 15.1a12.567 12.567 0 0 1 -10.226 19.869h-57.176a24 24 0 0 0 0 48h32v-16h-32a8 8 0 0 1 0-16h57.176a28.567 28.567 0 0 0 23.246-45.172l-9.877-13.828a48.018 48.018 0 0 0 16.776-29h16.679v-16zm-26.111 31.932-14.7-20.581-13.02 9.3 13.3 18.619a31.985 31.985 0 0 1 -6.79.73h-32a32 32 0 0 1 0-64h32a31.98 31.98 0 0 1 21.21 55.932z"/><path d="m440 368h16v16h-16z"/><path d="m272 408h16v16h-16z"/></g><path d="m392 440h16v16h-16z" fill="#f8bc1e"/><path d="m258.563 136h45.437v-16h-40v-40h-16v43.884l-40 28.571v-88.455h-16v144.455l-40-28.571v-43.884h-16v40h-40v16h45.437l50.563 36.116v124.339l-40-28.571v-43.884h-16v40h-40v16h45.437l50.563 36.116v59.884h16v-147.2l52.7-38.331a8 8 0 0 0 3.3-6.469v-40h-16v35.926l-40 29.091v-92.9z" fill="#6f8f3c"/></svg>