<svg id="flat" height="512" viewBox="0 0 512 512" width="512" xmlns="http://www.w3.org/2000/svg"><path d="m320 472h-128l32-88h64z" fill="#71b6eb"/><path d="m468 400h-424c-11.046 0-20-8.954-20-20v-264c0-11.046 8.954-20 20-20h424c11.046 0 20 8.954 20 20v264c0 11.046-8.954 20-20 20z" fill="#71b6eb"/><path d="m468 400h-424c-11.046 0-20-8.954-20-20v-28h464v28c0 11.046-8.954 20-20 20z" fill="#487495"/><path d="m334.616 448h-157.232c-10.785 0-20.78 5.659-26.329 14.907l-15.055 25.093h240l-15.056-25.093c-5.549-9.248-15.543-14.907-26.328-14.907z" fill="#487495"/><g><path d="m304 384h-96c-4.418 0-8-3.582-8-8s3.582-8 8-8h96c4.418 0 8 3.582 8 8s-3.582 8-8 8z" fill="#273e50"/></g><g><path d="m456 384h-16c-4.418 0-8-3.582-8-8s3.582-8 8-8h16c4.418 0 8 3.582 8 8s-3.582 8-8 8z" fill="#273e50"/></g><g><path d="m416 384h-16c-4.418 0-8-3.582-8-8s3.582-8 8-8h16c4.418 0 8 3.582 8 8s-3.582 8-8 8z" fill="#273e50"/></g><g><path d="m376 384h-16c-4.418 0-8-3.582-8-8s3.582-8 8-8h16c4.418 0 8 3.582 8 8s-3.582 8-8 8z" fill="#273e50"/></g><g fill="#bdec71"><path d="m276.279 44.267c-19.879 19.88-20.279 51.711-20.279 51.711s31.831-.4 51.71-20.279 20.279-51.71 20.279-51.71-31.831.399-51.71 20.278z"/><path d="m235.721 44.267c19.879 19.88 20.279 51.711 20.279 51.711s-31.831-.4-51.71-20.279-20.279-51.71-20.279-51.71 31.831.399 51.71 20.278z"/><path d="m276.267 124.29c-19.879 19.879-20.278 51.71-20.278 51.71s31.831-.4 51.71-20.279 20.279-51.71 20.279-51.71-31.831.4-51.711 20.279z"/><path d="m235.71 124.29c19.879 19.879 20.279 51.71 20.279 51.71s-31.831-.4-51.71-20.279-20.279-51.71-20.279-51.71 31.831.4 51.71 20.279z"/><path d="m276.267 204.29c-19.879 19.879-20.278 51.71-20.278 51.71s31.831-.4 51.71-20.279 20.279-51.71 20.279-51.71-31.831.4-51.711 20.279z"/><path d="m235.71 204.29c19.879 19.879 20.279 51.71 20.279 51.71s-31.831-.4-51.71-20.279-20.279-51.71-20.279-51.71 31.831.4 51.71 20.279z"/></g><g><path d="m256 320c-4.418 0-8-3.582-8-8v-224c0-4.418 3.582-8 8-8s8 3.582 8 8v224c0 4.418-3.582 8-8 8z" fill="#5d472d"/></g><path d="m256 304c-29.988 0-57.991 14.987-74.626 39.938l-5.374 8.062h160l-5.374-8.062c-16.635-24.951-44.638-39.938-74.626-39.938z" fill="#d6a267"/><path d="m144 200c0 22.091-17.909 40-40 40s-40-17.909-40-40 40-80 40-80 40 57.909 40 80z" fill="#487495"/><g><path d="m88 224c-2.047 0-4.095-.781-5.657-2.343-3.125-3.125-3.125-8.189 0-11.314l32-32c3.124-3.123 8.189-3.123 11.313 0 3.125 3.125 3.125 8.189 0 11.314l-32 32c-1.561 1.562-3.609 2.343-5.656 2.343z" fill="#7bc5ff"/></g><g><path d="m88.02 192c-4.418 0-8.005-3.582-8.005-8s3.577-8 7.995-8h.01c4.418 0 8 3.582 8 8s-3.582 8-8 8z" fill="#7bc5ff"/></g><g><path d="m120.02 224c-4.418 0-8.005-3.582-8.005-8s3.577-8 7.995-8h.01c4.418 0 8 3.582 8 8s-3.582 8-8 8z" fill="#7bc5ff"/></g><path d="m48 280h24v72h-24z" fill="#bdec71"/><path d="m96 304h24v48h-24z" fill="#5d472d"/><path d="m144 280h24v72h-24z" fill="#273e50"/><circle cx="408" cy="176" fill="#f7d074" r="24"/><g><path d="m408 136c-4.418 0-8-3.582-8-8v-8c0-4.418 3.582-8 8-8s8 3.582 8 8v8c0 4.418-3.582 8-8 8z" fill="#f7d074"/></g><g><path d="m374.059 150.059c-2.047 0-4.094-.78-5.656-2.343l-5.657-5.656c-3.125-3.124-3.125-8.189-.001-11.313 3.124-3.125 8.189-3.126 11.313-.001l5.657 5.656c3.125 3.124 3.125 8.189.001 11.313-1.562 1.562-3.61 2.344-5.657 2.344z" fill="#f7d074"/></g><g><path d="m360 184h-8c-4.418 0-8-3.582-8-8s3.582-8 8-8h8c4.418 0 8 3.582 8 8s-3.582 8-8 8z" fill="#f7d074"/></g><g><path d="m368.402 223.598c-2.048 0-4.095-.781-5.657-2.344-3.124-3.124-3.124-8.189.001-11.313l5.657-5.656c3.125-3.123 8.19-3.123 11.313.001 3.124 3.124 3.124 8.189-.001 11.313l-5.657 5.656c-1.562 1.561-3.609 2.343-5.656 2.343z" fill="#f7d074"/></g><g><path d="m408 240c-4.418 0-8-3.582-8-8v-8c0-4.418 3.582-8 8-8s8 3.582 8 8v8c0 4.418-3.582 8-8 8z" fill="#f7d074"/></g><g><path d="m447.598 223.598c-2.047 0-4.094-.78-5.656-2.343l-5.657-5.656c-3.125-3.124-3.125-8.189-.001-11.313 3.124-3.125 8.189-3.126 11.313-.001l5.657 5.656c3.125 3.124 3.125 8.189.001 11.313-1.562 1.562-3.609 2.344-5.657 2.344z" fill="#f7d074"/></g><g><path d="m464 184h-8c-4.418 0-8-3.582-8-8s3.582-8 8-8h8c4.418 0 8 3.582 8 8s-3.582 8-8 8z" fill="#f7d074"/></g><g><path d="m441.941 150.059c-2.048 0-4.095-.781-5.657-2.344-3.124-3.124-3.124-8.189.001-11.313l5.657-5.656c3.125-3.123 8.19-3.123 11.313.001 3.124 3.124 3.124 8.189-.001 11.313l-5.657 5.656c-1.562 1.561-3.609 2.343-5.656 2.343z" fill="#f7d074"/></g><g><path d="m343.994 336.002c-1.202 0-2.423-.272-3.571-.847-3.952-1.976-5.554-6.781-3.578-10.733l16-32c1.061-2.121 3.008-3.663 5.317-4.208 2.308-.546 4.74-.037 6.638 1.386l23.121 17.341 12.49-37.471c.876-2.63 3.053-4.619 5.751-5.256 2.696-.637 5.534.168 7.495 2.129l18.343 18.344 26.343-26.344c3.124-3.123 8.189-3.123 11.313 0 3.125 3.125 3.125 8.189 0 11.314l-32 32c-3.124 3.123-8.189 3.123-11.313 0l-14.847-14.848-11.907 35.721c-.813 2.439-2.75 4.339-5.204 5.105s-5.129.307-7.185-1.235l-24.332-18.249-11.713 23.427c-1.401 2.803-4.227 4.424-7.161 4.424z" fill="#f7d074"/></g><g><path d="m464 296c-4.418 0-8-3.582-8-8v-16h-16c-4.418 0-8-3.582-8-8s3.582-8 8-8h24c4.418 0 8 3.582 8 8v24c0 4.418-3.582 8-8 8z" fill="#f7d074"/></g></svg>