<svg height="512" viewBox="0 0 48 48" width="512" xmlns="http://www.w3.org/2000/svg"><g id="weather_forecast" data-name="weather forecast"><path d="m44.0455 3h-20.0455v21h21v-20.0455a.9546.9546 0 0 0 -.9545-.9545z" fill="#ff7752"/><path d="m39 3a25.9006 25.9006 0 0 1 -10.69 21h-4.31v-21z" fill="#ff885f"/><circle cx="34.5" cy="13.5" fill="#ffe266" r="3.5"/><path d="m38 13.5a3.4952 3.4952 0 0 1 -3.09 3.47 24.8939 24.8939 0 0 0 2.59-5.25 3.3834 3.3834 0 0 1 .5 1.78z" fill="#ffc239"/><path d="m34.5 9.333a1 1 0 0 1 -1-1v-.833a1 1 0 0 1 2 0v.833a1 1 0 0 1 -1 1z" fill="#ffc239"/><path d="m30.8467 10.8467a.9971.9971 0 0 1 -.7071-.293l-.5888-.5889a1 1 0 1 1 1.414-1.414l.5889.5888a1 1 0 0 1 -.707 1.7071z" fill="#ffc239"/><path d="m29.333 14.5h-.833a1 1 0 0 1 0-2h.833a1 1 0 0 1 0 2z" fill="#ffc239"/><path d="m30.2578 18.7422a1 1 0 0 1 -.707-1.707l.5888-.5889a1 1 0 0 1 1.4141 1.4137l-.5889.5888a.9967.9967 0 0 1 -.707.2934z" fill="#ffc239"/><path d="m34.5 20.5a1 1 0 0 1 -1-1v-.833a1 1 0 0 1 2 0v.833a1 1 0 0 1 -1 1z" fill="#ffc239"/><path d="m38.7422 18.7422a.9967.9967 0 0 1 -.707-.293l-.5889-.5888a1 1 0 0 1 1.4137-1.4141l.5888.5889a1 1 0 0 1 -.707 1.707z" fill="#ffc239"/><path d="m40.5 14.5h-.833a1 1 0 0 1 0-2h.833a1 1 0 0 1 0 2z" fill="#ffc239"/><path d="m38.1533 10.8467a1 1 0 0 1 -.707-1.7071l.5889-.5888a1 1 0 0 1 1.414 1.414l-.5888.5889a.9971.9971 0 0 1 -.7071.293z" fill="#ffc239"/><path d="m45 24h-21v21h20.0455a.9546.9546 0 0 0 .9545-.9545z" fill="#06c458"/><path d="m39 24a25.9006 25.9006 0 0 1 -10.69 21h-4.31v-21z" fill="#34d143"/><path d="m35.5 37.5h-6a1 1 0 0 1 0-2h6a3 3 0 0 0 0-6h-1a1 1 0 0 0 0 2h1a1 1 0 0 1 0 2h-1a3 3 0 0 1 0-6h1a5 5 0 0 1 0 10z" fill="#f2f2f2"/><path d="m38.5 41.5h-9a1 1 0 0 1 0-2h9a1 1 0 0 1 0 2z" fill="#f2f2f2"/><path d="m24 3v21h-21v-20.05a.956.956 0 0 1 .95-.95z" fill="#3364aa"/><path d="m18 3a25.9006 25.9006 0 0 1 -10.69 21h-4.31v-20.05a.956.956 0 0 1 .95-.95z" fill="#4279bd"/><path d="m9.2814 20.2a1 1 0 0 1 -.9395-1.3418l.4281-1.1747a1 1 0 1 1 1.8789.6836l-.4278 1.1748a1 1 0 0 1 -.9397.6581z" fill="#4fd7f7"/><path d="m13.2814 20.2a1 1 0 0 1 -.9395-1.3418l.4278-1.1748a1 1 0 1 1 1.8789.6836l-.4278 1.1748a1 1 0 0 1 -.9394.6582z" fill="#4fd7f7"/><path d="m17.2814 20.2a1 1 0 0 1 -.94-1.3418l.4278-1.1748a1 1 0 1 1 1.8789.6836l-.4278 1.1748a1 1 0 0 1 -.9389.6582z" fill="#4fd7f7"/><path d="m20.375 13.09a2.7828 2.7828 0 0 1 -2.77 2.76h-8.22a2.7591 2.7591 0 0 1 -2.76-2.76 2.72 2.72 0 0 1 .81-1.96 2.8059 2.8059 0 0 1 .65-.48 3.9493 3.9493 0 0 1 3.94-3.85 4.0209 4.0209 0 0 1 2.63 1 3.3688 3.3688 0 0 1 .9-.12 3.1558 3.1558 0 0 1 1.37.3 3.3441 3.3441 0 0 1 1.95 2.66 2.7777 2.7777 0 0 1 1.5 2.45z" fill="#333"/><path d="m16.925 7.98a25.6876 25.6876 0 0 1 -3.11 7.87h-4.43a2.7591 2.7591 0 0 1 -2.76-2.76 2.72 2.72 0 0 1 .81-1.96 2.8059 2.8059 0 0 1 .65-.48 3.9493 3.9493 0 0 1 3.94-3.85 4.0209 4.0209 0 0 1 2.63 1 3.3688 3.3688 0 0 1 .9-.12 3.1558 3.1558 0 0 1 1.37.3z" fill="#4d4d4d"/><path d="m24 24v21h-20.05a.956.956 0 0 1 -.95-.95v-20.05z" fill="#4fd7f7"/><path d="m18 24a25.9006 25.9006 0 0 1 -10.69 21h-4.31v-21z" fill="#8deaff"/><g fill="#02bfe2"><path d="m13.5 41.5a1 1 0 0 1 -1-1v-12a1 1 0 0 1 2 0v12a1 1 0 0 1 -1 1z"/><path d="m13.5 32.5625a.9967.9967 0 0 1 -.707-.293l-2.0313-2.0312a1 1 0 0 1 1.4141-1.4141l2.0312 2.0313a1 1 0 0 1 -.707 1.707z"/><path d="m13.5 32.5625a1 1 0 0 1 -.707-1.707l2.0312-2.0313a1 1 0 1 1 1.4141 1.4141l-2.0313 2.0317a.9967.9967 0 0 1 -.707.2925z"/><path d="m11.4688 40.4688a1 1 0 0 1 -.7071-1.7071l2.0313-2.0312a1 1 0 0 1 1.414 1.414l-2.0312 2.0313a.9969.9969 0 0 1 -.707.293z"/><path d="m15.5313 40.4688a.9969.9969 0 0 1 -.7071-.293l-2.0312-2.0313a1 1 0 0 1 1.414-1.414l2.0313 2.0312a1 1 0 0 1 -.707 1.7071z"/><path d="m19.5 35.5h-12a1 1 0 0 1 0-2h12a1 1 0 0 1 0 2z"/><path d="m16.4375 35.5a1 1 0 0 1 -.707-1.707l2.0312-2.0313a1 1 0 1 1 1.4141 1.4141l-2.0313 2.0312a.9967.9967 0 0 1 -.707.293z"/><path d="m18.4688 37.5313a.9969.9969 0 0 1 -.7071-.293l-2.0312-2.0313a1 1 0 0 1 1.414-1.414l2.0313 2.0312a1 1 0 0 1 -.707 1.7071z"/><path d="m10.5625 35.5a.9967.9967 0 0 1 -.707-.293l-2.0313-2.0312a1 1 0 1 1 1.4141-1.4141l2.0317 2.0313a1 1 0 0 1 -.707 1.707z"/><path d="m8.5313 37.5313a1 1 0 0 1 -.7071-1.7071l2.0313-2.0312a1 1 0 0 1 1.414 1.414l-2.0312 2.0313a.9969.9969 0 0 1 -.707.293z"/></g></g></svg>