<svg id="Capa_1" enable-background="new 0 0 512 512" height="512" viewBox="0 0 512 512" width="512" xmlns="http://www.w3.org/2000/svg"><g><path d="m234.06 87.507h-35.225c-3.373 0-5.595-3.606-3.983-6.569 4.634-8.519 7.074-18.404 6.56-28.897-1.377-28.105-24.31-50.841-52.425-51.993-28.009-1.149-51.581 18.741-56.247 45.155-.232 1.312-1.434 2.193-2.765 2.128-.405-.02-.813-.03-1.223-.03-14.414 0-26.098 11.684-26.098 26.098 0 3.498.691 6.833 1.941 9.88.826 2.014-.596 4.227-2.773 4.227h-21.378c-16.556 0-29.978 13.421-29.978 29.978 0 16.556 13.421 29.978 29.978 29.978h193.616c16.556 0 29.978-13.421 29.978-29.978 0-16.555-13.422-29.977-29.978-29.977z" fill="#f2fbff"/><g fill="#dff6fd"><path d="m173.597 52.041c.514 10.493-1.926 20.378-6.56 28.897-1.612 2.963.61 6.569 3.983 6.569h27.815c-3.373 0-5.595-3.606-3.983-6.569 4.634-8.519 7.074-18.404 6.56-28.897-1.377-28.105-24.31-50.841-52.425-51.993-5.633-.231-11.082.402-16.238 1.755 22.593 5.956 39.666 26.112 40.848 50.238z"/><path d="m234.06 87.507h-27.815c16.556 0 29.978 13.422 29.978 29.978s-13.421 29.978-29.977 29.978h27.815c16.556 0 29.978-13.421 29.978-29.978s-13.423-29.978-29.979-29.978z"/></g><path d="m435.104 86.38c-3.247 0-6.27-2.063-7.339-5.317-7.174-21.836-27.422-36.507-50.385-36.507s-43.212 14.671-50.385 36.507c-1.333 4.054-5.701 6.26-9.752 4.929-4.054-1.332-6.261-5.698-4.929-9.752 9.263-28.194 35.411-47.137 65.066-47.137s55.803 18.943 65.066 47.137c1.331 4.054-.875 8.42-4.929 9.752-.801.263-1.614.388-2.413.388z" fill="#2ed1e2"/><path d="m413.401 98.752c-3.174 0-6.148-1.97-7.277-5.131-4.329-12.129-15.881-20.278-28.744-20.278-12.864 0-24.415 8.149-28.745 20.278-1.435 4.019-5.855 6.112-9.874 4.679-4.019-1.435-6.114-5.855-4.679-9.874 6.52-18.264 23.92-30.536 43.298-30.536s36.778 12.272 43.298 30.536c1.435 4.019-.66 8.44-4.679 9.874-.859.306-1.736.451-2.598.452z" fill="#2ed1e2"/><circle cx="377.38" cy="116.244" fill="#68ca44" r="16.483"/><g fill="#2ed1e2"><path d="m76.204 200.175c-1.311 0-2.639-.334-3.856-1.036-3.696-2.134-4.962-6.859-2.829-10.554l3.78-6.548c2.133-3.697 6.86-4.963 10.554-2.829 3.696 2.134 4.962 6.859 2.829 10.554l-3.78 6.548c-1.43 2.478-4.028 3.865-6.698 3.865z"/><path d="m128.352 200.175c-1.311 0-2.639-.334-3.856-1.036-3.696-2.134-4.962-6.859-2.829-10.554l3.78-6.548c2.133-3.697 6.859-4.963 10.554-2.829 3.696 2.134 4.962 6.859 2.829 10.554l-3.78 6.548c-1.431 2.478-4.028 3.865-6.698 3.865z"/><path d="m180.499 200.175c-1.311 0-2.639-.334-3.856-1.036-3.696-2.134-4.962-6.859-2.829-10.554l3.78-6.548c2.133-3.697 6.861-4.963 10.554-2.829 3.696 2.134 4.962 6.859 2.829 10.554l-3.78 6.548c-1.43 2.478-4.028 3.865-6.698 3.865z"/></g><g fill="#2ed1e2"><path d="m102.278 241.382c-1.311 0-2.639-.334-3.856-1.036-3.696-2.134-4.962-6.859-2.829-10.554l3.78-6.548c2.133-3.696 6.86-4.962 10.554-2.829 3.696 2.134 4.962 6.859 2.829 10.554l-3.78 6.548c-1.43 2.478-4.028 3.865-6.698 3.865z"/><path d="m154.426 241.382c-1.311 0-2.639-.334-3.856-1.036-3.696-2.134-4.962-6.859-2.829-10.554l3.78-6.548c2.133-3.696 6.86-4.962 10.554-2.829 3.696 2.134 4.962 6.859 2.829 10.554l-3.78 6.548c-1.431 2.478-4.028 3.865-6.698 3.865z"/></g><path d="m87.988 382.297h15.453v45.174h-15.453z" fill="#9b5e5e"/><path d="m144.785 333.209c0-3.239-2.831-5.771-6.046-5.376-24.248 2.979-43.025 23.648-43.025 48.702l-4.121 9.533h14.769c21.22 0 38.422-17.202 38.422-38.422v-14.437z" fill="#4fc123"/><path d="m301.913 446.853c-5.671 0-10.844-3.439-12.842-8.747-6.353-16.879-22.645-28.887-41.745-28.887s-35.393 12.009-41.746 28.887c-1.998 5.308-7.17 8.746-12.842 8.746h-42.437c-5.671 0-10.844-3.439-12.842-8.747-6.353-16.879-22.645-28.887-41.745-28.887s-35.392 12.009-41.745 28.887c-1.998 5.308-7.17 8.747-12.842 8.747h-18.357c-5.464 0-9.893 4.429-9.893 9.893v20.206c0 5.464 4.429 9.893 9.893 9.893h297.5c5.464 0 9.893-4.429 9.893-9.893v-20.206c0-5.464-4.429-9.893-9.893-9.893h-18.357z" fill="#e8ad8c"/><path d="m113.766 438.107c1.998 5.308 7.17 8.747 12.842 8.747h23.694c-5.672 0-10.844-3.439-12.842-8.747-6.353-16.879-22.646-28.887-41.745-28.887-4.103 0-8.074.557-11.847 1.595 13.791 3.792 24.909 14.039 29.898 27.292z" fill="#e19974"/><path d="m253.225 195.385v302.268c0 7.924 6.423 14.347 14.347 14.347h219.614c7.924 0 14.347-6.423 14.347-14.347v-302.268c0-7.924-6.423-14.347-14.347-14.347h-219.613c-7.924 0-14.348 6.424-14.348 14.347z" fill="#68ca44"/><path d="m487.187 181.038h-24.724c7.924 0 14.347 6.423 14.347 14.347v302.268c0 7.924-6.423 14.347-14.347 14.347h24.724c7.924 0 14.347-6.423 14.347-14.347v-302.268c0-7.923-6.423-14.347-14.347-14.347z" fill="#4fc123"/><path d="m460.688 215.034h-56.281c-3.893 0-7.049 3.156-7.049 7.049 0 11.034-8.945 19.978-19.978 19.978-11.034 0-19.978-8.945-19.978-19.978 0-3.893-3.156-7.049-7.049-7.049h-56.281c-3.783 0-6.85 3.067-6.85 6.85v249.269c0 3.783 3.067 6.85 6.85 6.85h166.616c3.783 0 6.85-3.067 6.85-6.85v-249.269c0-3.783-3.067-6.85-6.85-6.85z" fill="#f2fbff"/><path d="m423.68 379.397h-92.601c-4.267 0-7.726-3.459-7.726-7.726v-79.448c0-4.267 3.459-7.726 7.726-7.726s7.726 3.459 7.726 7.726v71.721h84.875c4.267 0 7.726 3.459 7.726 7.726 0 4.268-3.459 7.727-7.726 7.727z" fill="#678d98"/><path d="m358.324 350.782c-1.825 0-3.656-.642-5.128-1.95-3.19-2.834-3.479-7.717-.645-10.908l20.725-23.331c2.586-2.909 6.931-3.442 10.142-1.243l13.253 9.074 23.761-28.959c2.705-3.3 7.574-3.78 10.874-1.072 3.299 2.707 3.779 7.575 1.072 10.874l-28.255 34.435c-2.542 3.099-7.032 3.739-10.338 1.474l-13.478-9.229-16.202 18.24c-1.528 1.718-3.65 2.595-5.781 2.595z" fill="#2ed1e2"/><path d="m46.644 333.209c0-3.239 2.831-5.771 6.046-5.376 24.249 2.979 43.025 23.648 43.025 48.702v9.533h-10.649c-21.22 0-38.422-17.202-38.422-38.422z" fill="#68ca44"/></g></svg>