<svg clip-rule="evenodd" fill-rule="evenodd" height="512" image-rendering="optimizeQuality" shape-rendering="geometricPrecision" text-rendering="geometricPrecision" viewBox="0 0 512 512" width="512" xmlns="http://www.w3.org/2000/svg"><g id="Layer_x0020_1"><g id="_471601960"><g><path id="_471605392" d="m140.556 378.318c-2.97284 0-5.38348-2.40946-5.38348-5.38348v-172.938c0-2.97402 2.41064-5.38348 5.38348-5.38348s5.38348 2.40946 5.38348 5.38348v172.938c0 2.97402-2.41182 5.38348-5.38348 5.38348z" fill="#98ca69"/><g><g fill="#3ab44a"><path id="_471604984" d="m155.286 247.583c-5.37285 0-10.4233-2.09056-14.2217-5.89136-7.839-7.84136-7.839-20.6032 0-28.4434 6.27522-6.27522 29.745-13.0323 36.7891-14.9575 1.86142-.505513 3.85749.0200788 5.22521 1.3878 1.36654 1.36654 1.89568 3.36025 1.38662 5.22403-1.92284 7.04412-8.68113 30.5127-14.9575 36.7903-3.79844 3.79962-8.85003 5.89018-14.2217 5.89018z"/><path id="_471604816" d="m125.828 247.583c-5.37049 0-10.4233-2.09056-14.2217-5.89018-6.27522-6.2764-13.0347-29.7462-14.9575-36.7891-.507876-1.86379.0212599-3.85867 1.3878-5.22521 1.36654-1.36772 3.36143-1.89213 5.22403-1.38662 7.04412 1.92284 30.5127 8.68113 36.7879 14.9563 7.84018 7.84136 7.84018 20.602.00118111 28.4434-3.79844 3.8008-8.85003 5.89136-14.2217 5.89136z"/><path id="_471604216" d="m155.286 297.476c-5.37285 0-10.4244-2.09292-14.2217-5.89372-7.84018-7.84018-7.84018-20.5985 0-28.4422 6.27522-6.27404 29.745-13.0335 36.7891-14.9575 1.86142-.507876 3.85749.0212599 5.22403 1.3878 1.36772 1.36654 1.89686 3.35907 1.3878 5.22403-1.92284 7.0453-8.68113 30.5162-14.9587 36.7891-3.79607 3.79962-8.84885 5.89254-14.2205 5.89254z"/><path id="_471604072" d="m125.828 297.476c-5.37049 0-10.4233-2.09292-14.2217-5.89254-6.27522-6.27285-13.0335-29.7438-14.9563-36.7891-.509057-1.86379.0212599-3.85749 1.3878-5.22403 1.36654-1.36772 3.36261-1.89449 5.22403-1.3878 7.04294 1.92284 30.5127 8.68231 36.7867 14.9575 7.84136 7.84372 7.84136 20.602.00118111 28.4434-3.79844 3.79962-8.85003 5.89254-14.2217 5.89254z"/><path id="_471604672" d="m155.285 347.364c-5.37285 0-10.4233-2.09174-14.2205-5.89136-7.84018-7.84254-7.839-20.6032 0-28.4422 6.27522-6.2764 29.745-13.0347 36.7891-14.9587 1.86142-.506694 3.85631.0200788 5.22403 1.38544 1.36772 1.36772 1.89686 3.36143 1.3878 5.22521-1.92284 7.04412-8.68113 30.5139-14.9575 36.7915-3.79962 3.79962-8.85121 5.89018-14.2229 5.89018z"/><path id="_471604624" d="m125.83 347.364c-.00118111 0-.00118111 0 0 0-5.37167 0-10.4244-2.09056-14.2229-5.89018-6.2764-6.27758-13.0347-29.7485-14.9575-36.7915-.509057-1.86379.0212599-3.85749 1.3878-5.22521 1.36536-1.36654 3.36261-1.89213 5.22403-1.38544 7.04294 1.92284 30.5127 8.68113 36.7867 14.9575 7.84018 7.84254 7.84136 20.602.00118111 28.4434-3.79844 3.8008-8.84885 5.89136-14.2193 5.89136z"/></g><path id="_471604168" d="m140.556 138.315c-2.97402 0-5.38348-2.40946-5.38348-5.38348v-45.4501c0-2.97402 2.40946-5.38348 5.38348-5.38348s5.3823 2.40946 5.3823 5.38348v45.4501c0 2.97402-2.40946 5.38348-5.3823 5.38348z" fill="#98ca69"/><path id="_471604648" d="m169.906 171.141c-2.97284 0-5.3823-2.40946-5.3823-5.38348v-38.0611c0-2.97402 2.40946-5.38348 5.3823-5.38348 2.97402 0 5.38348 2.40946 5.38348 5.38348v38.0611c0 2.97402-2.40946 5.38348-5.38348 5.38348z" fill="#98ca69"/><path id="_471604096" d="m111.208 171.141c-2.97284 0-5.3823-2.40946-5.3823-5.38348v-38.0611c0-2.97402 2.40946-5.38348 5.3823-5.38348 2.97402 0 5.38348 2.40946 5.38348 5.38348v38.0611c0 2.97402-2.41064 5.38348-5.38348 5.38348z" fill="#98ca69"/><path id="_471603904" d="m140.556 205.38c-11.0906 0-20.1131-9.02483-20.1131-20.1142 0-8.87247 11.8181-30.2481 15.4382-36.5883.959058-1.67717 2.74135-2.71182 4.67482-2.71182 1.93111 0 3.71576 1.03347 4.67482 2.71182 3.62127 6.34018 15.4406 27.7147 15.4406 36.5883-.00118111 11.0894-9.02365 20.1142-20.1154 20.1142z" fill="#3ab44a"/></g></g><g><path id="_471603688" d="m373.348 378.319c-2.97284 0-5.38348-2.40946-5.38348-5.38348v-172.938c0-2.97402 2.41064-5.38348 5.38348-5.38348s5.38348 2.40946 5.38348 5.38348v172.938c0 2.97402-2.41182 5.38348-5.38348 5.38348z" fill="#98ca69"/><g><g fill="#3ab44a"><path id="_471603208" d="m388.077 247.585c-5.37285 0-10.4233-2.09056-14.2217-5.89136-7.839-7.84136-7.839-20.6032 0-28.4434 6.27522-6.27522 29.745-13.0323 36.7891-14.9575 1.86142-.505513 3.85749.0200788 5.22521 1.3878 1.36654 1.36654 1.89568 3.36025 1.38662 5.22403-1.92284 7.04412-8.68113 30.5127-14.9575 36.7903-3.79844 3.79962-8.85003 5.89018-14.2217 5.89018z"/><path id="_471603424" d="m358.619 247.585c-5.37049 0-10.4233-2.09056-14.2217-5.89018-6.27522-6.2764-13.0347-29.7462-14.9575-36.7891-.507876-1.86379.0212599-3.85867 1.3878-5.22521 1.36654-1.36772 3.36143-1.89213 5.22403-1.38662 7.04412 1.92284 30.5127 8.68113 36.7879 14.9563 7.84018 7.84136 7.84018 20.602.00118111 28.4434-3.79844 3.8008-8.85003 5.89136-14.2217 5.89136z"/><path id="_471603160" d="m388.077 297.477c-5.37285 0-10.4244-2.09292-14.2217-5.89372-7.84018-7.84018-7.84018-20.5985 0-28.4422 6.27522-6.27404 29.745-13.0335 36.7891-14.9575 1.86142-.507876 3.85749.0212599 5.22403 1.3878 1.36772 1.36654 1.89686 3.35907 1.3878 5.22403-1.92284 7.0453-8.68113 30.5162-14.9587 36.7891-3.79607 3.79962-8.84885 5.89254-14.2205 5.89254z"/><path id="_471603136" d="m358.619 297.477c-5.37049 0-10.4233-2.09292-14.2217-5.89254-6.27522-6.27285-13.0335-29.7438-14.9563-36.7891-.509057-1.86379.0212599-3.85749 1.3878-5.22403 1.36654-1.36772 3.36261-1.89449 5.22403-1.3878 7.04294 1.92284 30.5127 8.68231 36.7867 14.9575 7.84136 7.84372 7.84136 20.602.00118111 28.4434-3.79844 3.79962-8.85003 5.89254-14.2217 5.89254z"/><path id="_471603112" d="m388.076 347.366c-5.37285 0-10.4233-2.09174-14.2205-5.89136-7.84018-7.84254-7.839-20.6032 0-28.4422 6.27522-6.2764 29.745-13.0347 36.7891-14.9587 1.86142-.506694 3.85631.0200788 5.22403 1.38544 1.36772 1.36772 1.89686 3.36143 1.3878 5.22521-1.92284 7.04412-8.68113 30.5139-14.9575 36.7915-3.79962 3.79962-8.85121 5.89018-14.2229 5.89018z"/><path id="_471602968" d="m358.622 347.366c-.00118111 0-.00118111 0 0 0-5.37167 0-10.4244-2.09056-14.2229-5.89018-6.2764-6.27758-13.0347-29.7485-14.9575-36.7915-.509057-1.86379.0212599-3.85749 1.3878-5.22521 1.36536-1.36654 3.36261-1.89213 5.22403-1.38544 7.04294 1.92284 30.5127 8.68113 36.7867 14.9575 7.84018 7.84254 7.84136 20.602.00118111 28.4434-3.79844 3.8008-8.84885 5.89136-14.2193 5.89136z"/></g><path id="_471602776" d="m373.348 138.316c-2.97402 0-5.38348-2.40946-5.38348-5.38348v-45.4501c0-2.97402 2.40946-5.38348 5.38348-5.38348s5.3823 2.40946 5.3823 5.38348v45.4501c0 2.97402-2.40946 5.38348-5.3823 5.38348z" fill="#98ca69"/><path id="_471602560" d="m402.697 171.142c-2.97284 0-5.3823-2.40946-5.3823-5.38348v-38.0611c0-2.97402 2.40946-5.38348 5.3823-5.38348 2.97402 0 5.38348 2.40946 5.38348 5.38348v38.0611c0 2.97402-2.40946 5.38348-5.38348 5.38348z" fill="#98ca69"/><path id="_471602656" d="m343.999 171.142c-2.97284 0-5.3823-2.40946-5.3823-5.38348v-38.0611c0-2.97402 2.40946-5.38348 5.3823-5.38348 2.97402 0 5.38348 2.40946 5.38348 5.38348v38.0611c0 2.97402-2.41064 5.38348-5.38348 5.38348z" fill="#98ca69"/><path id="_471602608" d="m373.348 205.381c-11.0906 0-20.1131-9.02483-20.1131-20.1142 0-8.87247 11.8181-30.2481 15.4382-36.5883.959058-1.67717 2.74135-2.71182 4.67482-2.71182 1.93111 0 3.71576 1.03347 4.67482 2.71182 3.62127 6.34018 15.4406 27.7147 15.4406 36.5883-.00118111 11.0894-9.02365 20.1142-20.1154 20.1142z" fill="#3ab44a"/></g></g><path id="_471601816" d="m42.658 429.903c-1.67599 0-3.31418-.84331-4.25907-2.37402-2.26418-3.66733-3.46064-7.89333-3.46064-12.2209 0-9.58704 5.9764-18.143 14.6622-21.6225 1.62402-11.2618 11.3386-19.943 23.0446-19.943 3.98505 0 7.92168 1.02992 11.38 2.97875.0259843.0153544.0909452.0519687.194882.0141733.0744097-.0259843.0874018-.0602364.0956696-.0826774 4.20119-10.728 13.3571-17.6611 23.328-17.6611 8.35514 0 16.2166 4.83072 21.0272 12.9225.044882.0767719.0803152.103937.148819.114567.067323.0129922.207875.0118111.377954-.126378 3.77009-3.06379 8.16144-4.68309 12.6993-4.68309 8.21695 0 15.6544 5.20632 19.8945 13.9276.794884 1.63583 2.22993 2.15552 3.01536 2.31969 1.42205.295276 2.87127-.067323 3.97324-1.0063l2.0882-1.77756c7.06892-6.0201 17.4815-6.41104 24.7961-1.11851l2.37875.434647c2.50867-.725199 5.11419-1.09134 7.76223-1.09134 10.0866 0 18.9662 5.1886 23.1662 13.226 12.9981 1.13741 23.1946 11.0965 23.1946 23.1757 0 4.43033-1.37363 8.73664-3.97442 12.4571-1.58268 2.263-4.69844 2.81458-6.96262 1.23189-1.57205-1.09961-52.3313-2.93859-82.6526-4.71852-38.556 1.8815-111.58 3.81497-113.299 4.87561-.817325.505513-1.72441.74764-2.61969.74764z" fill="#edb990"/><path id="_471601672" d="m275.449 429.903c-1.67717 0-3.31418-.84331-4.26025-2.37402-2.26418-3.66852-3.45946-7.89333-3.45946-12.2209 0-9.58704 5.97758-18.143 14.6611-21.6225 1.62402-11.2618 11.3398-19.943 23.0446-19.943 3.98505 0 7.9205 1.02992 11.3811 2.97875.0236221.0153544.0933074.0507876.193701.0141733.0744097-.0259843.0885829-.0614175.0980318-.0838585 4.20001-10.728 13.3571-17.6611 23.3268-17.6611 8.35514 0 16.2166 4.83072 21.0272 12.9225.0507876.0850396.0874018.103937.147638.114567.0661419.0118111.207875.0129922.377954-.125197 3.77127-3.06379 8.16262-4.68427 12.7004-4.68427 8.21695 0 15.6532 5.2075 19.8957 13.9288.793703 1.63583 2.22875 2.15552 3.01536 2.31969 1.42323.296458 2.87009-.0685041 3.97206-1.0063l2.08938-1.77875c7.06538-6.01774 17.4804-6.40986 24.7973-1.11733l2.37875.434647c2.50867-.725199 5.11301-1.09134 7.76223-1.09134 10.0866 0 18.9662 5.1886 23.1662 13.226 12.9969 1.13741 23.1934 11.0965 23.1934 23.1757 0 4.42915-1.37363 8.73546-3.97324 12.4559-1.58268 2.263-4.7008 2.81339-6.96262 1.23307-6.22207-4.34647-187.3-5.17915-195.953.155906-.817325.506694-1.7256.748821-2.62087.748821z" fill="#edb990"/><path id="_471601840" d="m506.984 429.887h-501.968c-2.76261 0-4.99962-2.2382-4.99962-4.99962 0-2.76261 2.23701-4.99962 4.99962-4.99962h501.968c2.76261 0 4.99962 2.23701 4.99962 4.99962 0 2.76143-2.23701 4.99962-4.99962 4.99962z" fill="#526681"/></g></g></svg>