<svg id="Flat" enable-background="new 0 0 78 124" height="512" viewBox="0 0 78 124" width="512" xmlns="http://www.w3.org/2000/svg"><g id="XMLID_26_"><path d="m72.22 78.65c-.48-3.83-1.78-7.55-3.97-10.73-.8-1.15-1.75-2.32-2.91-3.45-4.09-4.01-8.56-5.5-10.68-6.05-.21-.71-1.2-3.59-4.17-5.22-1.69-.93-3.3-1.05-4.17-1.04v-1.52c1.77-1.45 3.08-3.44 3.81-5.64.42-1.24.82-2.56 1.2-3.97 2.91.41 5.63-1.59 6.11-4.43.27-1.58-.2-3.14-1.17-4.31.49-1.22 1.02-2.9 1.26-4.97.19-1.72.12-3.21-.02-4.37h14.38c.33 0 .66-.12.91-.33l2.83-2.36c1.03-.86.42-2.53-.91-2.53h-19.01c.11-1.95-.13-3.84-.65-5.62-2.05-6.94-8.5-12.11-16.05-12.11s-14 5.17-16.05 12.11c-.52 1.78-.76 3.67-.65 5.62h-19c-1.34 0-1.95 1.67-.92 2.53l2.83 2.36c.26.21.58.33.92.33h14.3c-.08 1.26-.07 2.78.14 4.5.24 1.92.68 3.55 1.13 4.84-.98 1.17-1.45 2.73-1.18 4.31.48 2.84 3.2 4.84 6.11 4.43l.05-.01c.37 1.41.78 2.74 1.2 3.98.74 2.19 2.04 4.17 3.8 5.62l-.01.02v1.52c-.87-.01-2.48.11-4.17 1.04-2.97 1.63-3.96 4.51-4.17 5.22-2.12.55-6.59 2.04-10.68 6.05-1.16 1.13-2.11 2.3-2.91 3.45-2.19 3.18-3.49 6.9-3.97 10.73-1.93 15.12-3.85 30.23-5.78 45.35h36.92 41.08c-1.93-15.12-3.85-30.23-5.78-45.35z" fill="#fec4b9"/><g><g fill="#ad6a6a"><circle cx="41.93" cy="119.16" r="2.13"/><circle cx="41.93" cy="97.26" r="2.13"/><circle cx="41.93" cy="76.39" r="2.13"/><path d="m55.06 12.11c.52 1.78.76 3.67.65 5.62h-16.7-16.7c-.11-1.95.13-3.84.65-5.62h.01 32.08z"/></g><path d="m55.06 12.11h-.01-32.08-.01c2.05-6.94 8.5-12.11 16.05-12.11s14 5.17 16.05 12.11z" fill="#ffc05a"/><path d="m74.72 17.73c1.33 0 1.94 1.67.91 2.53l-2.83 2.36c-.25.21-.58.33-.91.33h-14.38-3.89-14.61-14.61-3.96-14.3c-.34 0-.66-.12-.92-.33l-2.83-2.36c-1.03-.86-.42-2.53.92-2.53h19 16.7 16.7z" fill="#ffc05a"/><path d="m57.51 22.95c.14 1.16.21 2.65.02 4.37-.24 2.07-.77 3.75-1.26 4.97-.74-.9-1.78-1.57-2.99-1.84.28-2.76.37-5.28.34-7.5z" fill="#655f68"/><path d="m24.74 30.45h-.05c-1.21.27-2.25.94-2.98 1.84-.45-1.29-.89-2.92-1.13-4.84-.21-1.72-.22-3.24-.14-4.5h3.96c-.03 2.22.06 4.74.34 7.5z" fill="#655f68"/><path d="m25.44 35.47c.36 1.97.78 3.83 1.25 5.55l-.05.01c-2.91.41-5.63-1.59-6.11-4.43-.27-1.58.2-3.14 1.18-4.31.73-.9 1.77-1.57 2.98-1.84h.05c.16 1.6.39 3.27.7 5.02z" fill="#f7b6ad"/><path d="m56.27 32.29c.97 1.17 1.44 2.73 1.17 4.31-.48 2.84-3.2 4.84-6.11 4.43.47-1.73.89-3.58 1.25-5.56.31-1.75.54-3.42.7-5.02 1.21.27 2.25.94 2.99 1.84z" fill="#f7b6ad"/><g fill="#ffc05a"><path d="m28.55 73.02c-.45-2.09-.72-3.88-.85-5.41-.47-5.15.51-7.43.85-8.15.94-2.01 2.24-3.37 3.13-4.17v-3.13c-.87-.01-2.48.11-4.17 1.04-2.97 1.63-3.96 4.51-4.17 5.22-3.73 16.6-5.59 28.49-5.59 35.69 0 4.77.82 7.47 2.45 8.12 1.17.46 2.76-.13 4.76-1.77.86-.71 2.02-.89 3.09-.56.44.14.96.24 1.55.24.86 0 1.66-.34 2.24-.9s.95-1.34.97-2.2c.18-7.44-.99-12.95-2.17-16.72-1.65-5.27-1.63-5.21-2.09-7.3z"/><path d="m54.66 58.42c-.21-.71-1.2-3.59-4.17-5.22-1.69-.93-3.3-1.05-4.17-1.04v3.13c.96.84 2.19 2.17 3.13 4.17.34.72 1.32 3 .85 8.15-.13 1.53-.4 3.32-.85 5.41-.18.81-.31 1.36-.38 1.65-2.77 11.67-1.16 25.02.88 25.23.35.04.8-.2 1.68-.11.39.03.84.2 1.41.67 2 1.64 3.59 2.23 4.76 1.77 1.63-.65 2.45-3.35 2.45-8.12 0-7.2-1.86-19.09-5.59-35.69z"/></g><path d="m49.45 59.46c.34.72 1.32 3 .85 8.15l-7.11-8.15 3.13-4.17c.96.84 2.19 2.17 3.13 4.17z" fill="#1ea6bc"/><path d="m31.68 55.29 3.13 4.17-7.11 8.15c-.47-5.15.51-7.43.85-8.15.94-2.01 2.24-3.37 3.13-4.17z" fill="#1498b7"/><path d="m24.96 100.46c.86-.71 2.02-.89 3.09-.56.44.14.96.24 1.55.24.86 0 1.66-.34 2.24-.9s.95-1.34.97-2.2c.18-7.44-.99-12.95-2.17-16.72-1.65-5.27-1.63-5.21-2.09-7.3-.45-2.09-.72-3.88-.85-5.41l7.11-8.15c-.02 1.04.06 3.02 1.05 5.21.96 2.15 2.34 3.5 3.13 4.18h.02c-.69 1.74-1.39 3.47-2.09 5.21v49.03.91h-36.92c1.93-15.12 3.85-30.23 5.78-45.35.48-3.83 1.78-7.55 3.97-10.73.8-1.15 1.75-2.32 2.91-3.45 4.09-4.01 8.56-5.5 10.68-6.05-3.73 16.6-5.59 28.49-5.59 35.69 0 4.77.82 7.47 2.45 8.12 1.17.46 2.76-.13 4.76-1.77z" fill="#1ea6bc"/><path d="m39.8 76.39c0 1.18.95 2.13 2.13 2.13s2.13-.95 2.13-2.13c0-1.17-.95-2.13-2.13-2.13s-2.13.96-2.13 2.13zm0 20.87c0 1.17.95 2.13 2.13 2.13s2.13-.96 2.13-2.13c0-1.18-.95-2.13-2.13-2.13s-2.13.95-2.13 2.13zm2.13 24.03c1.18 0 2.13-.95 2.13-2.13s-.95-2.13-2.13-2.13-2.13.95-2.13 2.13.95 2.13 2.13 2.13zm.21-56.62c.99-2.19 1.07-4.17 1.05-5.21l7.11 8.15c-.13 1.53-.4 3.32-.85 5.41-.18.81-.31 1.36-.38 1.65-2.77 11.67-1.16 25.02.88 25.23.35.04.8-.2 1.68-.11.39.03.84.2 1.41.67 2 1.64 3.59 2.23 4.76 1.77 1.63-.65 2.45-3.35 2.45-8.12 0-7.2-1.86-19.09-5.59-35.69 2.12.55 6.59 2.04 10.68 6.05 1.16 1.13 2.11 2.3 2.91 3.45 2.19 3.18 3.49 6.9 3.97 10.73 1.93 15.12 3.85 30.23 5.78 45.35h-41.08v-.91-49.03c.7-1.74 1.4-3.47 2.09-5.21.79-.68 2.17-2.03 3.13-4.18z" fill="#1498b7"/></g><g><g id="XMLID_50_"><g><path d="m12.392 82.39c-.612 0-1.111.483-1.128 1.095-.109 4.135-.616 19.101-2.444 29.635-1.09 6.21-2.63 10.88-4.82 10.88h9.52v-.6-39.882c0-.623-.505-1.128-1.128-1.128z" fill="#1498b7"/><path d="m65.608 82.39c.612 0 1.111.483 1.128 1.095.109 4.135.616 19.101 2.444 29.635 1.09 6.21 2.63 10.88 4.82 10.88h-9.52v-.6-39.882c0-.623.505-1.128 1.128-1.128z" fill="#0d87a3"/><path d="m33.72 51.95c1.61.81 3.42 1.25 5.29 1.25s3.68-.44 5.29-1.25c.72-.36 1.4-.8 2.02-1.31v1.52 2.685c-10.18 3.13-14.64-2.368-14.64-2.368v-.911-.926l.01-.02c.62.52 1.3.96 2.03 1.33z" fill="#f7b6ad"/></g><g><path d="m70.585 111.712c-.385-.396-1.019-.402-1.414-.018-1.148 1.121-2.138 2.354-2.94 3.657-.691 1.112-1.008 1.697-1.413 2.769-.195.518.066 1.094.583 1.289.116.044.235.064.353.064.404 0 .785-.246.936-.646.351-.931.605-1.397 1.242-2.423.719-1.169 1.606-2.272 2.637-3.278.395-.386.403-1.02.016-1.414z" fill="#087d99"/><g fill="#f9b132"><path d="m54.027 67.711c-.088-.545-.606-.914-1.146-.828-.545.088-.917.601-.829 1.146.785 4.878 1.215 9.885 1.277 14.883.057 4.723-.213 9.467-.804 14.103-.069.548.318 1.048.866 1.118.043.005.085.008.128.008.496 0 .926-.369.991-.874.602-4.727.877-9.564.819-14.379-.062-5.096-.501-10.202-1.302-15.177z"/><path d="m25.119 66.883c-.543-.087-1.058.283-1.146.828-.801 4.975-1.239 10.081-1.303 15.178-.057 4.767.213 9.557.802 14.236.063.506.494.875.99.875.042 0 .084-.003.126-.008.548-.069.936-.569.867-1.117-.578-4.589-.842-9.287-.786-13.962.063-4.999.492-10.006 1.277-14.884.089-.546-.282-1.058-.827-1.146z"/></g><path d="m13.329 118.484c-.431-1.261-.77-1.86-1.559-3.13-.638-1.033-1.363-1.985-2.202-2.897-.203-.229-.413-.438-.613-.637l-.119-.118c-.392-.391-1.025-.391-1.415.002-.39.391-.389 1.023.001 1.414l.124.123c.17.169.351.346.537.556.765.832 1.415 1.686 1.986 2.61.772 1.244 1.007 1.674 1.366 2.724.142.416.53.677.946.677.107 0 .216-.018.323-.054.525-.179.804-.747.625-1.27z" fill="#0d87a3"/></g></g></g></g></svg>